G04 EAGLE Gerber X2 export*
%TF.Part,Single*%
%TF.FileFunction,Copper,L1,Top,Mixed*%
%TF.FilePolarity,Positive*%
%TF.GenerationSoftware,Autodesk,EAGLE,9.7.0*%
%TF.CreationDate,2022-05-19T16:06:26Z*%
G75*
%MOMM*%
%FSLAX46Y46*%
%LPD*%
%INTop Copper*%
%AMOC8*
5,1,8,0,0,1.08239X$1,22.5*%
G01*
G04 Define Apertures*
%ADD10C,1.524000*%
%ADD11R,1.465300X1.164600*%
%ADD12R,1.470000X1.020000*%
%ADD13R,1.164600X1.465300*%
%ADD14R,1.020000X1.470000*%
%ADD15R,2.670000X2.540000*%
%ADD16R,0.762000X1.270000*%
%ADD17R,0.770000X1.070000*%
%ADD18R,0.900000X2.000000*%
%ADD19R,5.000000X5.000000*%
%ADD20R,0.900000X1.400000*%
%ADD21R,1.200000X0.650000*%
%ADD22R,0.650000X1.200000*%
%ADD23R,1.000000X1.400000*%
%ADD24R,1.031200X1.420200*%
%ADD25R,1.420200X1.031200*%
%ADD26R,1.100000X1.400000*%
%ADD27R,0.300000X1.000000*%
%ADD28R,1.000000X0.300000*%
%ADD29R,3.350000X3.350000*%
%ADD30R,2.750000X0.950000*%
%ADD31R,2.750000X3.250000*%
%ADD32R,0.230000X1.006400*%
%ADD33R,1.400000X1.600000*%
%ADD34C,1.778000*%
%ADD35C,0.650000*%
%ADD36C,1.108000*%
%ADD37C,1.524000*%
%ADD38C,4.762500*%
%ADD39C,0.300000*%
%ADD40C,0.406400*%
%ADD41C,0.950000*%
%ADD42C,0.508000*%
G36*
X61406438Y211881D02*
X61455675Y245638D01*
X61487847Y295928D01*
X61497856Y354781D01*
X61484116Y412878D01*
X61448806Y461016D01*
X61405334Y488581D01*
X61284559Y538606D01*
X60152406Y1670759D01*
X60075800Y1855706D01*
X60075800Y5840494D01*
X60152406Y6025441D01*
X60896709Y6769744D01*
X60985703Y6806606D01*
X61035209Y6839972D01*
X61067778Y6890003D01*
X61078300Y6945188D01*
X61078300Y7156803D01*
X61224747Y7303250D01*
X62463053Y7303250D01*
X62609500Y7156803D01*
X62609500Y5529497D01*
X62463053Y5383050D01*
X61232200Y5383050D01*
X61173694Y5371169D01*
X61124456Y5337413D01*
X61092284Y5287122D01*
X61082200Y5233050D01*
X61082200Y4314597D01*
X61094081Y4256091D01*
X61127838Y4206853D01*
X61178128Y4174681D01*
X61236981Y4164672D01*
X61295078Y4178413D01*
X61343216Y4213722D01*
X61370781Y4257194D01*
X61499066Y4566900D01*
X61783750Y4851584D01*
X62155697Y5005650D01*
X62558303Y5005650D01*
X62930250Y4851584D01*
X62976834Y4805000D01*
X63026603Y4772031D01*
X63085291Y4761084D01*
X63143600Y4773897D01*
X63192294Y4808434D01*
X63223659Y4859231D01*
X63232900Y4911066D01*
X63232900Y5233050D01*
X63221019Y5291556D01*
X63187263Y5340794D01*
X63136972Y5372966D01*
X63082900Y5383050D01*
X63063747Y5383050D01*
X62917300Y5529497D01*
X62917300Y7156803D01*
X63063747Y7303250D01*
X63082900Y7303250D01*
X63141406Y7315131D01*
X63190644Y7348888D01*
X63222816Y7399178D01*
X63232900Y7453250D01*
X63232900Y9868897D01*
X64626438Y11262434D01*
X64659406Y11312203D01*
X64670353Y11370891D01*
X64657541Y11429200D01*
X64623003Y11477894D01*
X64572206Y11509259D01*
X64520372Y11518500D01*
X62766938Y11518500D01*
X62708431Y11506619D01*
X62659194Y11472863D01*
X62627022Y11422572D01*
X62617013Y11363719D01*
X62630753Y11305622D01*
X62660872Y11262434D01*
X62844628Y11078678D01*
X62955000Y10812213D01*
X62955000Y10523788D01*
X62844628Y10257322D01*
X62640678Y10053372D01*
X62374213Y9943000D01*
X62085788Y9943000D01*
X61819322Y10053372D01*
X61698628Y10174066D01*
X61648859Y10207034D01*
X61592563Y10218000D01*
X60924553Y10218000D01*
X60866047Y10206119D01*
X60818488Y10174066D01*
X55182475Y4538053D01*
X55149506Y4488284D01*
X55138559Y4429597D01*
X55149959Y4374584D01*
X55237050Y4164328D01*
X55237050Y2237722D01*
X55082984Y1865775D01*
X54798300Y1581091D01*
X54426353Y1427025D01*
X54023747Y1427025D01*
X53651800Y1581091D01*
X53367116Y1865775D01*
X53213050Y2237722D01*
X53213050Y4164328D01*
X53367116Y4536275D01*
X53651800Y4820959D01*
X54023747Y4975025D01*
X54284522Y4975025D01*
X54343028Y4986906D01*
X54390588Y5018959D01*
X60489628Y11118000D01*
X61592563Y11118000D01*
X61651069Y11129881D01*
X61698628Y11161934D01*
X61799128Y11262434D01*
X61832097Y11312203D01*
X61843044Y11370891D01*
X61830231Y11429200D01*
X61795694Y11477894D01*
X61744897Y11509259D01*
X61693063Y11518500D01*
X59461028Y11518500D01*
X59402522Y11506619D01*
X59354963Y11474566D01*
X52576859Y4696463D01*
X52543891Y4646694D01*
X52532944Y4588006D01*
X52544344Y4532994D01*
X52697050Y4164328D01*
X52697050Y2237722D01*
X52542984Y1865775D01*
X52258300Y1581091D01*
X51886353Y1427025D01*
X51483747Y1427025D01*
X51111800Y1581091D01*
X50827116Y1865775D01*
X50673050Y2237722D01*
X50673050Y4164328D01*
X50827116Y4536275D01*
X51111800Y4820959D01*
X51483747Y4975025D01*
X51520497Y4975025D01*
X51579003Y4986906D01*
X51626563Y5018959D01*
X59026103Y12418500D01*
X80604772Y12418500D01*
X80663278Y12430381D01*
X80710838Y12462434D01*
X81258338Y13009934D01*
X81291306Y13059703D01*
X81302253Y13118391D01*
X81289441Y13176700D01*
X81254903Y13225394D01*
X81204106Y13256759D01*
X81152272Y13266000D01*
X44458884Y13266000D01*
X44400378Y13254119D01*
X44351141Y13220363D01*
X44318969Y13170072D01*
X44308959Y13111219D01*
X44322700Y13053122D01*
X44352819Y13009934D01*
X44357100Y13005653D01*
X44357100Y12124928D01*
X44368981Y12066422D01*
X44401034Y12018863D01*
X45408000Y11011897D01*
X45408000Y5909603D01*
X44376350Y4877953D01*
X44347619Y4872119D01*
X44298381Y4838363D01*
X44266209Y4788072D01*
X44256200Y4729219D01*
X44269941Y4671122D01*
X44300059Y4627934D01*
X44358825Y4569169D01*
X44513500Y4195747D01*
X44513500Y3307850D01*
X42481500Y3307850D01*
X42481500Y4195747D01*
X42592684Y4464172D01*
X42604097Y4522772D01*
X42591753Y4581181D01*
X42557603Y4630147D01*
X42507059Y4661916D01*
X42448125Y4671456D01*
X42390141Y4657253D01*
X42348038Y4627641D01*
X42013434Y4293038D01*
X41980466Y4243269D01*
X41969500Y4186972D01*
X41969500Y2268347D01*
X41815434Y1896400D01*
X41530750Y1611716D01*
X41158803Y1457650D01*
X40756197Y1457650D01*
X40384250Y1611716D01*
X40099566Y1896400D01*
X39945500Y2268347D01*
X39945500Y4194953D01*
X40099566Y4566900D01*
X40384250Y4851584D01*
X40756197Y5005650D01*
X41158803Y5005650D01*
X41274413Y4957763D01*
X41333013Y4946350D01*
X41391419Y4958694D01*
X41437881Y4990278D01*
X42238463Y5790859D01*
X42271431Y5840628D01*
X42282378Y5899316D01*
X42269566Y5957625D01*
X42235028Y6006319D01*
X42184231Y6037684D01*
X42132397Y6046925D01*
X41828700Y6046925D01*
X41828700Y6934825D01*
X42522100Y6934825D01*
X42522100Y6195713D01*
X42366453Y6040066D01*
X42333484Y5990297D01*
X42322538Y5931609D01*
X42335350Y5873300D01*
X42369888Y5824606D01*
X42420684Y5793241D01*
X42472519Y5784000D01*
X42877141Y5784000D01*
X42935647Y5795881D01*
X42984884Y5829638D01*
X43017056Y5879928D01*
X43027066Y5938781D01*
X43013325Y5996878D01*
X42983206Y6040066D01*
X42825900Y6197372D01*
X42825900Y7824678D01*
X42972347Y7971125D01*
X42991500Y7971125D01*
X43050006Y7983006D01*
X43099244Y8016763D01*
X43131416Y8067053D01*
X43141500Y8121125D01*
X43141500Y8493300D01*
X43129619Y8551806D01*
X43095863Y8601044D01*
X43045572Y8633216D01*
X42991500Y8643300D01*
X42972347Y8643300D01*
X42825900Y8789747D01*
X42825900Y10417053D01*
X42972347Y10563500D01*
X44221472Y10563500D01*
X44279978Y10575381D01*
X44329216Y10609138D01*
X44361388Y10659428D01*
X44371397Y10718281D01*
X44357656Y10776378D01*
X44327538Y10819566D01*
X43959138Y11187966D01*
X43909369Y11220934D01*
X43853072Y11231900D01*
X42972347Y11231900D01*
X42825900Y11378347D01*
X42825900Y12871372D01*
X42814019Y12929878D01*
X42780263Y12979116D01*
X42729972Y13011288D01*
X42671119Y13021297D01*
X42613022Y13007556D01*
X42569834Y12977438D01*
X42562034Y12969638D01*
X42529066Y12919869D01*
X42518100Y12863572D01*
X42518100Y11378347D01*
X42371653Y11231900D01*
X42352500Y11231900D01*
X42293994Y11220019D01*
X42244756Y11186263D01*
X42212584Y11135972D01*
X42202500Y11081900D01*
X42202500Y10713500D01*
X42214381Y10654994D01*
X42248138Y10605756D01*
X42298428Y10573584D01*
X42352500Y10563500D01*
X42371653Y10563500D01*
X42518100Y10417053D01*
X42518100Y8789747D01*
X42371653Y8643300D01*
X41133347Y8643300D01*
X40986900Y8789747D01*
X40986900Y10417053D01*
X41133347Y10563500D01*
X41152500Y10563500D01*
X41211006Y10575381D01*
X41260244Y10609138D01*
X41292416Y10659428D01*
X41302500Y10713500D01*
X41302500Y11081900D01*
X41290619Y11140406D01*
X41256863Y11189644D01*
X41206572Y11221816D01*
X41152500Y11231900D01*
X41133347Y11231900D01*
X40986900Y11378347D01*
X40986900Y13005653D01*
X41133347Y13152100D01*
X41409572Y13152100D01*
X41468078Y13163981D01*
X41515638Y13196034D01*
X42091538Y13771934D01*
X42124506Y13821703D01*
X42135453Y13880391D01*
X42122641Y13938700D01*
X42088103Y13987394D01*
X42037306Y14018759D01*
X41985472Y14028000D01*
X41396528Y14028000D01*
X41338022Y14016119D01*
X41290463Y13984066D01*
X40341334Y13034938D01*
X40308366Y12985169D01*
X40297400Y12928872D01*
X40297400Y11169084D01*
X40309281Y11110578D01*
X40341334Y11063019D01*
X40422400Y10981953D01*
X40422400Y9574847D01*
X40275953Y9428400D01*
X39489500Y9428400D01*
X39430994Y9416519D01*
X39381756Y9382763D01*
X39349584Y9332472D01*
X39339500Y9278400D01*
X39339500Y8072747D01*
X39193053Y7926300D01*
X37565747Y7926300D01*
X37419300Y8072747D01*
X37419300Y8091900D01*
X37407419Y8150406D01*
X37373663Y8199644D01*
X37323372Y8231816D01*
X37269300Y8241900D01*
X36949500Y8241900D01*
X36890994Y8230019D01*
X36841756Y8196263D01*
X36809584Y8145972D01*
X36799500Y8091900D01*
X36799500Y8072747D01*
X36653053Y7926300D01*
X35025747Y7926300D01*
X34996066Y7955981D01*
X34946297Y7988950D01*
X34887609Y7999897D01*
X34829300Y7987084D01*
X34780606Y7952547D01*
X34749241Y7901750D01*
X34740000Y7849916D01*
X34740000Y7694884D01*
X34751881Y7636378D01*
X34785638Y7587141D01*
X34835928Y7554969D01*
X34894781Y7544959D01*
X34952878Y7558700D01*
X34996066Y7588819D01*
X35025747Y7618500D01*
X36653053Y7618500D01*
X36799500Y7472053D01*
X36799500Y6591328D01*
X36811381Y6532822D01*
X36843434Y6485263D01*
X37159234Y6169463D01*
X37209003Y6136494D01*
X37267691Y6125547D01*
X37326000Y6138359D01*
X37374694Y6172897D01*
X37406059Y6223694D01*
X37415300Y6275528D01*
X37415300Y6776700D01*
X38303200Y6776700D01*
X38303200Y6083300D01*
X37607528Y6083300D01*
X37549022Y6071419D01*
X37499784Y6037663D01*
X37467613Y5987372D01*
X37457603Y5928519D01*
X37471344Y5870422D01*
X37501463Y5827234D01*
X38279113Y5049584D01*
X38328881Y5016616D01*
X38385178Y5005650D01*
X38618803Y5005650D01*
X38990750Y4851584D01*
X39275434Y4566900D01*
X39429500Y4194953D01*
X39429500Y2268347D01*
X39275434Y1896400D01*
X38990750Y1611716D01*
X38618803Y1457650D01*
X38216197Y1457650D01*
X37844250Y1611716D01*
X37559566Y1896400D01*
X37405500Y2268347D01*
X37405500Y4194950D01*
X37500544Y4424406D01*
X37511956Y4483003D01*
X37499613Y4541413D01*
X37468028Y4587875D01*
X36012538Y6043366D01*
X35962769Y6076334D01*
X35906472Y6087300D01*
X35025747Y6087300D01*
X34879300Y6233747D01*
X34879300Y6252900D01*
X34867419Y6311406D01*
X34833663Y6360644D01*
X34783372Y6392816D01*
X34729300Y6402900D01*
X34616703Y6402900D01*
X34000666Y7018938D01*
X33950897Y7051906D01*
X33892209Y7062853D01*
X33833900Y7050041D01*
X33785206Y7015503D01*
X33753841Y6964706D01*
X33744600Y6912872D01*
X33744600Y6138316D01*
X33756481Y6079809D01*
X33788534Y6032250D01*
X35030659Y4790125D01*
X35080428Y4757156D01*
X35139116Y4746209D01*
X35197425Y4759022D01*
X35242791Y4790125D01*
X35304250Y4851584D01*
X35676197Y5005650D01*
X36078803Y5005650D01*
X36450750Y4851584D01*
X36735434Y4566900D01*
X36889500Y4194953D01*
X36889500Y2268347D01*
X36735434Y1896400D01*
X36450750Y1611716D01*
X36078803Y1457650D01*
X35676197Y1457650D01*
X35304250Y1611716D01*
X35019566Y1896400D01*
X34865500Y2268347D01*
X34865500Y3469884D01*
X34853619Y3528391D01*
X34821566Y3575950D01*
X32814806Y5582709D01*
X32738200Y5767656D01*
X32738200Y23962747D01*
X32726319Y24021253D01*
X32694266Y24068813D01*
X30786969Y25976109D01*
X30738306Y26008625D01*
X30645159Y26047206D01*
X28792300Y27900066D01*
X28742531Y27933034D01*
X28686234Y27944000D01*
X26501447Y27944000D01*
X26355000Y28090447D01*
X26355000Y28498316D01*
X26343119Y28556822D01*
X26309363Y28606059D01*
X26259072Y28638231D01*
X26200219Y28648241D01*
X26142122Y28634500D01*
X26098934Y28604381D01*
X26073553Y28579000D01*
X25104447Y28579000D01*
X24958000Y28725447D01*
X24958000Y28810800D01*
X24946119Y28869306D01*
X24912363Y28918544D01*
X24862072Y28950716D01*
X24808000Y28960800D01*
X22030400Y28960800D01*
X21971894Y28948919D01*
X21922656Y28915163D01*
X21890484Y28864872D01*
X21880400Y28810800D01*
X21880400Y28723847D01*
X21733953Y28577400D01*
X21158928Y28577400D01*
X21100422Y28565519D01*
X21052863Y28533466D01*
X20877463Y28358066D01*
X20844494Y28308297D01*
X20833547Y28249609D01*
X20846359Y28191300D01*
X20877463Y28145934D01*
X24412934Y24610463D01*
X24462703Y24577494D01*
X24521391Y24566547D01*
X24579700Y24579359D01*
X24628394Y24613897D01*
X24659759Y24664694D01*
X24666619Y24703172D01*
X24746553Y24783106D01*
X24779522Y24832875D01*
X24790469Y24891563D01*
X24777656Y24949872D01*
X24746553Y24995241D01*
X24665000Y25076791D01*
X24665000Y25615800D01*
X26643000Y25615800D01*
X26643000Y25076788D01*
X26561450Y24995238D01*
X26528481Y24945469D01*
X26517534Y24886781D01*
X26530347Y24828472D01*
X26561447Y24783106D01*
X26639000Y24705550D01*
X26639000Y24692000D01*
X26650881Y24633494D01*
X26684638Y24584256D01*
X26734928Y24552084D01*
X26789000Y24542000D01*
X27315350Y24542000D01*
X27373856Y24553881D01*
X27423094Y24587638D01*
X27455266Y24637928D01*
X27465350Y24692000D01*
X27465350Y24702453D01*
X27546003Y24783106D01*
X27578972Y24832875D01*
X27589919Y24891563D01*
X27577106Y24949872D01*
X27546003Y24995241D01*
X27461350Y25079891D01*
X27461350Y25691200D01*
X29434650Y25691200D01*
X29434650Y25079888D01*
X29350000Y24995238D01*
X29317031Y24945469D01*
X29306084Y24886781D01*
X29318897Y24828472D01*
X29349997Y24783106D01*
X29430650Y24702450D01*
X29430650Y23330747D01*
X29284203Y23184300D01*
X27611797Y23184300D01*
X27465350Y23330747D01*
X27465350Y23492000D01*
X27453469Y23550506D01*
X27419713Y23599744D01*
X27369422Y23631916D01*
X27315350Y23642000D01*
X26789000Y23642000D01*
X26730494Y23630119D01*
X26681256Y23596363D01*
X26649084Y23546072D01*
X26639000Y23492000D01*
X26639000Y23478447D01*
X26492553Y23332000D01*
X26254000Y23332000D01*
X26195494Y23320119D01*
X26146256Y23286363D01*
X26114084Y23236072D01*
X26104000Y23182000D01*
X26104000Y21296684D01*
X26115881Y21238178D01*
X26149638Y21188941D01*
X26199928Y21156769D01*
X26258781Y21146759D01*
X26316878Y21160500D01*
X26360066Y21190619D01*
X26501447Y21332000D01*
X26543772Y21332000D01*
X26602278Y21343881D01*
X26651516Y21377638D01*
X26683688Y21427928D01*
X26693697Y21486781D01*
X26682353Y21539400D01*
X26605400Y21725184D01*
X26605400Y22013613D01*
X26715772Y22280078D01*
X26919722Y22484028D01*
X27186188Y22594400D01*
X27474613Y22594400D01*
X27741078Y22484028D01*
X27945028Y22280078D01*
X28055400Y22013613D01*
X28055400Y21842928D01*
X28067281Y21784422D01*
X28099334Y21736863D01*
X28399125Y21437072D01*
X28401881Y21423494D01*
X28435638Y21374256D01*
X28485928Y21342084D01*
X28540000Y21332000D01*
X29378553Y21332000D01*
X29525000Y21185553D01*
X29525000Y18438447D01*
X29378553Y18292000D01*
X27118528Y18292000D01*
X27060022Y18280119D01*
X27012463Y18248066D01*
X23356297Y14591900D01*
X20058500Y14591900D01*
X19999994Y14580019D01*
X19950756Y14546263D01*
X19918584Y14495972D01*
X19908500Y14441900D01*
X19908500Y14422747D01*
X19762053Y14276300D01*
X18134747Y14276300D01*
X17988300Y14422747D01*
X17988300Y15661053D01*
X18134747Y15807500D01*
X19762053Y15807500D01*
X19908500Y15661053D01*
X19908500Y15641900D01*
X19920381Y15583394D01*
X19954138Y15534156D01*
X20004428Y15501984D01*
X20058500Y15491900D01*
X22921372Y15491900D01*
X22979878Y15503781D01*
X23027438Y15535834D01*
X26162538Y18670934D01*
X26195506Y18720703D01*
X26206453Y18779391D01*
X26193641Y18837700D01*
X26159103Y18886394D01*
X26108306Y18917759D01*
X26056472Y18927000D01*
X25104447Y18927000D01*
X24958000Y19073447D01*
X24958000Y20550553D01*
X25124663Y20717216D01*
X25161744Y20742638D01*
X25193916Y20792928D01*
X25204000Y20847000D01*
X25204000Y23182000D01*
X25192119Y23240506D01*
X25158363Y23289744D01*
X25108072Y23321916D01*
X25054000Y23332000D01*
X24815447Y23332000D01*
X24669000Y23478447D01*
X24669000Y23492000D01*
X24657119Y23550506D01*
X24623363Y23599744D01*
X24573072Y23631916D01*
X24519000Y23642000D01*
X24108603Y23642000D01*
X20436338Y27314266D01*
X20386569Y27347234D01*
X20330272Y27358200D01*
X18370484Y27358200D01*
X18311978Y27346319D01*
X18284713Y27327625D01*
X18262788Y27359066D01*
X17881819Y27740034D01*
X17832050Y27773003D01*
X17773363Y27783950D01*
X17715053Y27771138D01*
X17666359Y27736600D01*
X17637172Y27691372D01*
X17600122Y27601922D01*
X17396172Y27397972D01*
X17380744Y27391581D01*
X17331238Y27358219D01*
X17298666Y27308188D01*
X17288188Y27249416D01*
X17301463Y27191209D01*
X17336388Y27142794D01*
X17387431Y27111834D01*
X17438144Y27103000D01*
X18156722Y27103000D01*
X18215228Y27114881D01*
X18242494Y27133575D01*
X18264419Y27102134D01*
X18410000Y26956553D01*
X18410000Y26053000D01*
X18421881Y25994494D01*
X18455638Y25945256D01*
X18505928Y25913084D01*
X18560000Y25903000D01*
X18561472Y25903000D01*
X18619978Y25914881D01*
X18667538Y25946934D01*
X18673603Y25953000D01*
X21165397Y25953000D01*
X23056000Y24062397D01*
X23056000Y19879603D01*
X19947597Y16771200D01*
X7487528Y16771200D01*
X7429022Y16759319D01*
X7381463Y16727266D01*
X6564534Y15910338D01*
X6531566Y15860569D01*
X6520600Y15804272D01*
X6520600Y10710203D01*
X4403756Y8593359D01*
X4370788Y8543591D01*
X4359841Y8484903D01*
X4372653Y8426594D01*
X4403756Y8381228D01*
X4540934Y8244050D01*
X4695000Y7872103D01*
X4695000Y7469497D01*
X4540934Y7097550D01*
X4256250Y6812866D01*
X3884303Y6658800D01*
X1957697Y6658800D01*
X1585750Y6812866D01*
X1301066Y7097550D01*
X1147000Y7469497D01*
X1147000Y7872103D01*
X1301066Y8244050D01*
X1585750Y8528734D01*
X1957697Y8682800D01*
X3158272Y8682800D01*
X3216778Y8694681D01*
X3264338Y8726734D01*
X3480338Y8942734D01*
X3513306Y8992503D01*
X3524253Y9051191D01*
X3511441Y9109500D01*
X3476903Y9158194D01*
X3426106Y9189559D01*
X3374272Y9198800D01*
X1957697Y9198800D01*
X1585750Y9352866D01*
X1301066Y9637550D01*
X1147000Y10009497D01*
X1147000Y10412103D01*
X1301066Y10784050D01*
X1585750Y11068734D01*
X1957697Y11222800D01*
X3666272Y11222800D01*
X3724778Y11234681D01*
X3772338Y11266734D01*
X3988338Y11482734D01*
X4021306Y11532503D01*
X4032253Y11591191D01*
X4019441Y11649500D01*
X3984903Y11698194D01*
X3934106Y11729559D01*
X3882272Y11738800D01*
X1957697Y11738800D01*
X1585750Y11892866D01*
X1301066Y12177550D01*
X1147000Y12549497D01*
X1147000Y12952103D01*
X1301066Y13324050D01*
X1585750Y13608734D01*
X1957697Y13762800D01*
X3884303Y13762800D01*
X4040678Y13698028D01*
X4099278Y13686616D01*
X4157688Y13698959D01*
X4204147Y13730544D01*
X4357466Y13883863D01*
X4390434Y13933631D01*
X4401400Y13989928D01*
X4401400Y14268500D01*
X4389519Y14327006D01*
X4355763Y14376244D01*
X4305472Y14408416D01*
X4246619Y14418425D01*
X4193997Y14407081D01*
X3884300Y14278800D01*
X1957697Y14278800D01*
X1585750Y14432866D01*
X1301066Y14717550D01*
X1147000Y15089497D01*
X1147000Y15492103D01*
X1301066Y15864050D01*
X1585750Y16148734D01*
X1957697Y16302800D01*
X2853472Y16302800D01*
X2911978Y16314681D01*
X2959538Y16346734D01*
X6239803Y19627000D01*
X8469972Y19627000D01*
X8528478Y19638881D01*
X8577716Y19672638D01*
X8609888Y19722928D01*
X8619897Y19781781D01*
X8606156Y19839878D01*
X8576038Y19883066D01*
X8145138Y20313966D01*
X8095369Y20346934D01*
X8039072Y20357900D01*
X7158347Y20357900D01*
X7011900Y20504347D01*
X7011900Y22131653D01*
X7158347Y22278100D01*
X8396653Y22278100D01*
X8488734Y22186019D01*
X8538503Y22153050D01*
X8597191Y22142103D01*
X8655500Y22154916D01*
X8704194Y22189453D01*
X8735559Y22240250D01*
X8744800Y22292084D01*
X8744800Y22509872D01*
X8732919Y22568378D01*
X8700866Y22615938D01*
X8190838Y23125966D01*
X8141069Y23158934D01*
X8084772Y23169900D01*
X7158347Y23169900D01*
X7011900Y23316347D01*
X7011900Y24943653D01*
X7193981Y25125734D01*
X7226950Y25175503D01*
X7237897Y25234191D01*
X7225084Y25292500D01*
X7190547Y25341194D01*
X7139750Y25372559D01*
X7087916Y25381800D01*
X6628084Y25381800D01*
X6569578Y25369919D01*
X6520341Y25336163D01*
X6488169Y25285872D01*
X6478159Y25227019D01*
X6491900Y25168922D01*
X6522019Y25125734D01*
X6704100Y24943653D01*
X6704100Y23316347D01*
X6557653Y23169900D01*
X5319347Y23169900D01*
X5163466Y23325781D01*
X5113697Y23358750D01*
X5055009Y23369697D01*
X4996700Y23356884D01*
X4951334Y23325781D01*
X4805553Y23180000D01*
X3698447Y23180000D01*
X3552000Y23326447D01*
X3552000Y24702272D01*
X3540119Y24760778D01*
X3506363Y24810016D01*
X3456072Y24842188D01*
X3397219Y24852197D01*
X3339122Y24838456D01*
X3295934Y24808338D01*
X3095934Y24608338D01*
X3062966Y24558569D01*
X3052000Y24502272D01*
X3052000Y23326447D01*
X2893719Y23168166D01*
X2893494Y23168119D01*
X2844256Y23134363D01*
X2812084Y23084072D01*
X2802000Y23030000D01*
X2802000Y22418000D01*
X2813881Y22359494D01*
X2847638Y22310256D01*
X2891103Y22282450D01*
X3052000Y22121553D01*
X3052000Y20514447D01*
X2905553Y20368000D01*
X1798447Y20368000D01*
X1652000Y20514447D01*
X1652000Y22121553D01*
X1810281Y22279834D01*
X1810506Y22279881D01*
X1859744Y22313638D01*
X1891916Y22363928D01*
X1902000Y22418000D01*
X1902000Y23030000D01*
X1890119Y23088506D01*
X1856363Y23137744D01*
X1812897Y23165550D01*
X1652000Y23326447D01*
X1652000Y24933553D01*
X1798447Y25080000D01*
X2232672Y25080000D01*
X2291178Y25091881D01*
X2338738Y25123934D01*
X3496603Y26281800D01*
X8826366Y26281800D01*
X8883769Y26293219D01*
X9152188Y26404400D01*
X9440609Y26404400D01*
X9533497Y26365925D01*
X9592094Y26354513D01*
X9650503Y26366856D01*
X9699472Y26401006D01*
X9731241Y26451550D01*
X9740900Y26504506D01*
X9740900Y26954675D01*
X10434300Y26954675D01*
X10434300Y26066775D01*
X10145169Y26066775D01*
X10086663Y26054894D01*
X10037425Y26021138D01*
X10005253Y25970847D01*
X9995244Y25911994D01*
X10006588Y25859372D01*
X10021400Y25823613D01*
X10021400Y25650903D01*
X10033281Y25592397D01*
X10065334Y25544838D01*
X10066663Y25543509D01*
X10116431Y25510541D01*
X10172728Y25499575D01*
X11180453Y25499575D01*
X11326900Y25353128D01*
X11326900Y23725822D01*
X11180453Y23579375D01*
X9942147Y23579375D01*
X9795700Y23725822D01*
X9795700Y24479547D01*
X9783819Y24538053D01*
X9751766Y24585613D01*
X9426913Y24910466D01*
X9377144Y24943434D01*
X9320847Y24954400D01*
X9152188Y24954400D01*
X8885722Y25064772D01*
X8681775Y25268719D01*
X8673294Y25289197D01*
X8639931Y25338706D01*
X8589900Y25371278D01*
X8534709Y25381800D01*
X8467084Y25381800D01*
X8408578Y25369919D01*
X8359341Y25336163D01*
X8327169Y25285872D01*
X8317159Y25227019D01*
X8330900Y25168922D01*
X8361019Y25125734D01*
X8543100Y24943653D01*
X8543100Y24108628D01*
X8554981Y24050122D01*
X8587034Y24002563D01*
X9337263Y23252334D01*
X9574491Y23015109D01*
X9624259Y22982141D01*
X9682947Y22971194D01*
X9741256Y22984006D01*
X9786622Y23015109D01*
X9940488Y23168975D01*
X10485100Y23168975D01*
X10485100Y21240775D01*
X10212353Y21240775D01*
X10153847Y21228894D01*
X10104609Y21195138D01*
X10072438Y21144847D01*
X10062428Y21085994D01*
X10076169Y21027897D01*
X10106288Y20984709D01*
X10200863Y20890134D01*
X10250631Y20857166D01*
X10306928Y20846200D01*
X14460000Y20846200D01*
X14518506Y20858081D01*
X14567744Y20891838D01*
X14599916Y20942128D01*
X14610000Y20996200D01*
X14610000Y21953000D01*
X14598119Y22011506D01*
X14564363Y22060744D01*
X14514072Y22092916D01*
X14460000Y22103000D01*
X13556447Y22103000D01*
X13421966Y22237481D01*
X13372197Y22270450D01*
X13313509Y22281397D01*
X13255200Y22268584D01*
X13206506Y22234047D01*
X13175141Y22183250D01*
X13165900Y22131416D01*
X13165900Y21391222D01*
X13019453Y21244775D01*
X11781147Y21244775D01*
X11634700Y21391222D01*
X11634700Y23018528D01*
X11781147Y23164975D01*
X12020391Y23164975D01*
X12078897Y23176856D01*
X12126456Y23208909D01*
X12240856Y23323309D01*
X12273825Y23373078D01*
X12284772Y23431766D01*
X12271959Y23490075D01*
X12237422Y23538769D01*
X12186625Y23570134D01*
X12134791Y23579375D01*
X11781147Y23579375D01*
X11634700Y23725822D01*
X11634700Y25353128D01*
X11781147Y25499575D01*
X13019453Y25499575D01*
X13022094Y25496934D01*
X13071863Y25463966D01*
X13128159Y25453000D01*
X13211472Y25453000D01*
X13269978Y25464881D01*
X13319216Y25498638D01*
X13351388Y25548928D01*
X13361397Y25607781D01*
X13347656Y25665878D01*
X13317538Y25709066D01*
X12999763Y26026841D01*
X12949994Y26059809D01*
X12893697Y26070775D01*
X11730347Y26070775D01*
X11583900Y26217222D01*
X11583900Y27844528D01*
X11730347Y27990975D01*
X11749500Y27990975D01*
X11808006Y28002856D01*
X11857244Y28036613D01*
X11889416Y28086903D01*
X11899500Y28140975D01*
X11899500Y28206775D01*
X11887619Y28265281D01*
X11853863Y28314519D01*
X11803572Y28346691D01*
X11749500Y28356775D01*
X11704947Y28356775D01*
X11558500Y28503222D01*
X11558500Y30130528D01*
X11704947Y30276975D01*
X12943253Y30276975D01*
X13089700Y30130528D01*
X13089700Y28503222D01*
X12941663Y28355184D01*
X12890994Y28344894D01*
X12841756Y28311138D01*
X12809584Y28260847D01*
X12799500Y28206775D01*
X12799500Y28140975D01*
X12811381Y28082469D01*
X12845138Y28033231D01*
X12895428Y28001059D01*
X12949500Y27990975D01*
X12968653Y27990975D01*
X13115100Y27844528D01*
X13115100Y27246428D01*
X13126981Y27187922D01*
X13159034Y27140363D01*
X14352463Y25946934D01*
X14402231Y25913966D01*
X14458528Y25903000D01*
X14460000Y25903000D01*
X14518506Y25914881D01*
X14567744Y25948638D01*
X14599916Y25998928D01*
X14610000Y26053000D01*
X14610000Y26054472D01*
X14598119Y26112978D01*
X14566066Y26160538D01*
X14560000Y26166603D01*
X14560000Y26321272D01*
X14548119Y26379778D01*
X14516066Y26427338D01*
X13672400Y27271003D01*
X13672400Y28786797D01*
X14560131Y29674528D01*
X14593100Y29724297D01*
X14604047Y29782984D01*
X14591234Y29841294D01*
X14560128Y29886663D01*
X14525800Y29920991D01*
X14525800Y30650000D01*
X15406000Y30650000D01*
X15406000Y30802400D01*
X14525800Y30802400D01*
X14525800Y31090197D01*
X14513919Y31148703D01*
X14480163Y31197941D01*
X14429872Y31230113D01*
X14371019Y31240122D01*
X14318397Y31228778D01*
X14026813Y31108000D01*
X13738388Y31108000D01*
X13471922Y31218372D01*
X13351228Y31339066D01*
X13301459Y31372034D01*
X13245163Y31383000D01*
X6911181Y31383000D01*
X6852675Y31371119D01*
X6803438Y31337363D01*
X6771266Y31287072D01*
X6761256Y31228219D01*
X6772600Y31175597D01*
X6805000Y31097378D01*
X6805000Y30868625D01*
X6794634Y30843600D01*
X6783225Y30785000D01*
X6795572Y30726594D01*
X6829722Y30677625D01*
X6880266Y30645856D01*
X6933219Y30636200D01*
X9769069Y30636200D01*
X9954016Y30559594D01*
X10192700Y30320909D01*
X10242469Y30287941D01*
X10298766Y30276975D01*
X11104253Y30276975D01*
X11250700Y30130528D01*
X11250700Y28503222D01*
X11104253Y28356775D01*
X9865947Y28356775D01*
X9719500Y28503222D01*
X9719500Y29308709D01*
X9707619Y29367216D01*
X9675566Y29414775D01*
X9504475Y29585866D01*
X9454706Y29618834D01*
X9398409Y29629800D01*
X6937547Y29629800D01*
X6879041Y29617919D01*
X6829803Y29584163D01*
X6797631Y29533872D01*
X6787622Y29475019D01*
X6798966Y29422400D01*
X6809000Y29398175D01*
X6809000Y29359200D01*
X6153800Y29359200D01*
X6153800Y29206800D01*
X6809000Y29206800D01*
X6809000Y29167828D01*
X6720853Y28955022D01*
X6557978Y28792147D01*
X6432728Y28740266D01*
X6383222Y28706900D01*
X6350650Y28656869D01*
X6340175Y28598097D01*
X6353450Y28539891D01*
X6384066Y28495619D01*
X6488991Y28390694D01*
X6612000Y28093722D01*
X6612000Y28009200D01*
X3888000Y28009200D01*
X3888000Y28093722D01*
X4011009Y28390694D01*
X4238306Y28617991D01*
X4375881Y28674975D01*
X4425388Y28708338D01*
X4457959Y28758369D01*
X4468438Y28817141D01*
X4455163Y28875347D01*
X4424547Y28919622D01*
X4389147Y28955022D01*
X4301000Y29167828D01*
X4301000Y29206800D01*
X4956200Y29206800D01*
X4956200Y29359200D01*
X4301000Y29359200D01*
X4301000Y29398172D01*
X4349259Y29514681D01*
X4360672Y29573281D01*
X4348328Y29631691D01*
X4314178Y29680656D01*
X4285331Y29699434D01*
X3510406Y30474359D01*
X3433800Y30659306D01*
X3433800Y34013806D01*
X3510406Y34198753D01*
X4121247Y34809594D01*
X4245072Y34860884D01*
X4294578Y34894250D01*
X4327150Y34944281D01*
X4337625Y35003053D01*
X4326250Y35056866D01*
X4301000Y35117825D01*
X4301000Y35156800D01*
X4956200Y35156800D01*
X4956200Y35309200D01*
X4301000Y35309200D01*
X4301000Y35348172D01*
X4389147Y35560978D01*
X4424547Y35596378D01*
X4457516Y35646147D01*
X4468463Y35704834D01*
X4455650Y35763144D01*
X4421113Y35811838D01*
X4375881Y35841025D01*
X4238306Y35898009D01*
X4011009Y36125306D01*
X3888000Y36422278D01*
X3888000Y36506800D01*
X6612000Y36506800D01*
X6612000Y36422278D01*
X6488991Y36125306D01*
X6384066Y36020381D01*
X6351097Y35970613D01*
X6340150Y35911925D01*
X6352963Y35853616D01*
X6387500Y35804922D01*
X6432728Y35775734D01*
X6557978Y35723853D01*
X6720853Y35560978D01*
X6809000Y35348172D01*
X6809000Y35309200D01*
X6153800Y35309200D01*
X6153800Y35156800D01*
X6809000Y35156800D01*
X6809000Y35117825D01*
X6798966Y35093600D01*
X6787553Y35035003D01*
X6799897Y34976594D01*
X6834047Y34927628D01*
X6884594Y34895859D01*
X6937547Y34886200D01*
X12395434Y34886200D01*
X12453941Y34898081D01*
X12501500Y34930134D01*
X13135959Y35564594D01*
X13320906Y35641200D01*
X16854294Y35641200D01*
X17039241Y35564594D01*
X18499934Y34103900D01*
X18549703Y34070931D01*
X18608391Y34059984D01*
X18666700Y34072797D01*
X18715394Y34107334D01*
X18746759Y34158131D01*
X18756000Y34209966D01*
X18756000Y34622213D01*
X18944722Y34810934D01*
X18977691Y34860703D01*
X18988638Y34919391D01*
X18975825Y34977700D01*
X18941288Y35026394D01*
X18890491Y35057759D01*
X18838656Y35067000D01*
X18725900Y35067000D01*
X18522284Y35151341D01*
X17607959Y36065666D01*
X17558191Y36098634D01*
X17501894Y36109600D01*
X14917400Y36109600D01*
X14713784Y36193941D01*
X14352659Y36555066D01*
X14302891Y36588034D01*
X14246594Y36599000D01*
X12888647Y36599000D01*
X12863181Y36624466D01*
X12813413Y36657434D01*
X12757116Y36668400D01*
X12511850Y36668400D01*
X12453344Y36656519D01*
X12404106Y36622763D01*
X12371934Y36572472D01*
X12361850Y36518400D01*
X12361850Y36284747D01*
X12215403Y36138300D01*
X10542997Y36138300D01*
X10396550Y36284747D01*
X10396550Y36341081D01*
X10384669Y36399588D01*
X10350913Y36448825D01*
X10303953Y36479663D01*
X10252584Y36500941D01*
X8872541Y37880984D01*
X8788200Y38084600D01*
X8788200Y41769200D01*
X8776319Y41827706D01*
X8742563Y41876944D01*
X8692272Y41909116D01*
X8638200Y41919200D01*
X7204447Y41919200D01*
X7123381Y42000266D01*
X7073613Y42033234D01*
X7017316Y42044200D01*
X6812000Y42044200D01*
X6753494Y42032319D01*
X6704256Y41998563D01*
X6672084Y41948272D01*
X6662000Y41894200D01*
X6662000Y41610400D01*
X4915900Y41610400D01*
X4915900Y41593422D01*
X4908363Y41604416D01*
X4858072Y41636588D01*
X4799219Y41646597D01*
X4741122Y41632856D01*
X4697934Y41602738D01*
X4441856Y41346659D01*
X4408888Y41296891D01*
X4397941Y41238203D01*
X4410753Y41179894D01*
X4441856Y41134528D01*
X4540934Y41035450D01*
X4695000Y40663503D01*
X4695000Y40260897D01*
X4632584Y40110213D01*
X4621172Y40051613D01*
X4625981Y40028850D01*
X4600784Y40010366D01*
X4573219Y39966894D01*
X4540934Y39888950D01*
X4256250Y39604266D01*
X3884303Y39450200D01*
X1957697Y39450200D01*
X1585750Y39604266D01*
X1301066Y39888950D01*
X1147000Y40260897D01*
X1147000Y40663503D01*
X1301066Y41035450D01*
X1585750Y41320134D01*
X1957697Y41474200D01*
X3234472Y41474200D01*
X3292978Y41486081D01*
X3340538Y41518134D01*
X3556538Y41734134D01*
X3589506Y41783903D01*
X3600453Y41842591D01*
X3587641Y41900900D01*
X3553103Y41949594D01*
X3502306Y41980959D01*
X3450472Y41990200D01*
X1957697Y41990200D01*
X1585750Y42144266D01*
X1301066Y42428950D01*
X1147000Y42800897D01*
X1147000Y43203503D01*
X1301066Y43575450D01*
X1585750Y43860134D01*
X1957697Y44014200D01*
X3898456Y44014200D01*
X3928622Y44008200D01*
X5021316Y44008200D01*
X5079822Y44020081D01*
X5093353Y44029200D01*
X5682744Y44029200D01*
X5704866Y44033600D01*
X8929200Y44033600D01*
X9132816Y43949259D01*
X9811859Y43270216D01*
X9896200Y43066600D01*
X9896200Y38486406D01*
X9908081Y38427900D01*
X9940134Y38380341D01*
X10136484Y38183991D01*
X10186253Y38151022D01*
X10244941Y38140075D01*
X10303250Y38152888D01*
X10351944Y38187425D01*
X10383309Y38238222D01*
X10392550Y38290056D01*
X10392550Y38645200D01*
X12365850Y38645200D01*
X12365850Y38033888D01*
X12364428Y38032466D01*
X12331459Y37982697D01*
X12320513Y37924009D01*
X12333325Y37865700D01*
X12367863Y37817006D01*
X12418659Y37785641D01*
X12470494Y37776400D01*
X12592200Y37776400D01*
X12650706Y37788281D01*
X12699944Y37822038D01*
X12732116Y37872328D01*
X12736734Y37897088D01*
X12888647Y38049000D01*
X15845753Y38049000D01*
X15992200Y37902553D01*
X15992200Y37367600D01*
X16004081Y37309094D01*
X16037838Y37259856D01*
X16088128Y37227684D01*
X16142200Y37217600D01*
X17903700Y37217600D01*
X18107316Y37133259D01*
X19021641Y36218934D01*
X19071409Y36185966D01*
X19127706Y36175000D01*
X21930550Y36175000D01*
X21989056Y36186881D01*
X22038294Y36220638D01*
X22070466Y36270928D01*
X22080550Y36325000D01*
X22080550Y36383725D01*
X22068669Y36442231D01*
X22034913Y36491469D01*
X21987950Y36522309D01*
X21935553Y36544013D01*
X20774500Y37705066D01*
X20724731Y37738034D01*
X20668434Y37749000D01*
X18088647Y37749000D01*
X17942200Y37895447D01*
X17942200Y38970800D01*
X17930319Y39029306D01*
X17896563Y39078544D01*
X17846272Y39110716D01*
X17792200Y39120800D01*
X16129684Y39120800D01*
X16071178Y39108919D01*
X16023619Y39076866D01*
X15845753Y38899000D01*
X12888647Y38899000D01*
X12731566Y39056081D01*
X12730319Y39062225D01*
X12696563Y39111463D01*
X12649603Y39142300D01*
X12573253Y39173925D01*
X12514653Y39185338D01*
X12456247Y39172994D01*
X12407278Y39138844D01*
X12375509Y39088300D01*
X12365850Y39035344D01*
X12365850Y38797600D01*
X10392550Y38797600D01*
X10392550Y39408913D01*
X10577078Y39593441D01*
X10610047Y39643209D01*
X10620994Y39701897D01*
X10608181Y39760206D01*
X10577078Y39805572D01*
X10394200Y39988447D01*
X10394200Y41215553D01*
X10471753Y41293106D01*
X10504722Y41342875D01*
X10515669Y41401563D01*
X10502856Y41459872D01*
X10471753Y41505241D01*
X10390200Y41586791D01*
X10390200Y42125800D01*
X12368200Y42125800D01*
X12368200Y41586788D01*
X12286650Y41505238D01*
X12253681Y41455469D01*
X12242734Y41396781D01*
X12255547Y41338472D01*
X12286647Y41293106D01*
X12364200Y41215550D01*
X12364200Y40835166D01*
X12376081Y40776659D01*
X12408134Y40729100D01*
X12744300Y40392934D01*
X12794069Y40359966D01*
X12850366Y40349000D01*
X15845753Y40349000D01*
X16023619Y40171134D01*
X16073388Y40138166D01*
X16129684Y40127200D01*
X17792200Y40127200D01*
X17850706Y40139081D01*
X17899944Y40172838D01*
X17932116Y40223128D01*
X17942200Y40277200D01*
X17942200Y40475234D01*
X17930319Y40533741D01*
X17898266Y40581300D01*
X17810606Y40668959D01*
X17734000Y40853906D01*
X17734000Y45748825D01*
X17722119Y45807331D01*
X17688363Y45856569D01*
X17679872Y45862144D01*
X17427241Y46114775D01*
X17377472Y46147744D01*
X17318784Y46158691D01*
X17260475Y46145878D01*
X17215109Y46114775D01*
X15902234Y44801900D01*
X15869266Y44752131D01*
X15858300Y44695834D01*
X15858300Y43890347D01*
X15711853Y43743900D01*
X14473547Y43743900D01*
X14327100Y43890347D01*
X14327100Y45517653D01*
X14473547Y45664100D01*
X15279034Y45664100D01*
X15337541Y45675981D01*
X15385100Y45708034D01*
X15711000Y46033934D01*
X15743969Y46083703D01*
X15754916Y46142391D01*
X15742103Y46200700D01*
X15707566Y46249394D01*
X15656769Y46280759D01*
X15604934Y46290000D01*
X15199400Y46290000D01*
X15199400Y47167800D01*
X15827200Y47167800D01*
X15827200Y46512266D01*
X15839081Y46453759D01*
X15872838Y46404522D01*
X15923128Y46372350D01*
X15981981Y46362341D01*
X16040078Y46376081D01*
X16083266Y46406200D01*
X17181266Y47504200D01*
X17214234Y47553969D01*
X17225200Y47610266D01*
X17225200Y48461303D01*
X17379266Y48833250D01*
X17663950Y49117934D01*
X18035897Y49272000D01*
X18438503Y49272000D01*
X18810450Y49117934D01*
X19095134Y48833250D01*
X19249200Y48461303D01*
X19249200Y46534697D01*
X19095134Y46162750D01*
X18792506Y45860122D01*
X18783503Y45854056D01*
X18750928Y45804028D01*
X18740400Y45748825D01*
X18740400Y41649000D01*
X18752281Y41590494D01*
X18786038Y41541256D01*
X18836328Y41509084D01*
X18890400Y41499000D01*
X21045753Y41499000D01*
X21192200Y41352553D01*
X21192200Y38772766D01*
X21204081Y38714259D01*
X21236134Y38666700D01*
X21820484Y38082350D01*
X21870253Y38049381D01*
X21928941Y38038434D01*
X21987250Y38051247D01*
X22035944Y38085784D01*
X22067309Y38136581D01*
X22076550Y38188416D01*
X22076550Y38645200D01*
X24049850Y38645200D01*
X24049850Y37977200D01*
X24061731Y37918694D01*
X24095488Y37869456D01*
X24145778Y37837284D01*
X24199850Y37827200D01*
X24288716Y37827200D01*
X24347222Y37839081D01*
X24394781Y37871134D01*
X24572647Y38049000D01*
X27529753Y38049000D01*
X27676200Y37902553D01*
X27676200Y36745447D01*
X27529753Y36599000D01*
X24572647Y36599000D01*
X24394781Y36776866D01*
X24345013Y36809834D01*
X24288716Y36820800D01*
X24195850Y36820800D01*
X24137344Y36808919D01*
X24088106Y36775163D01*
X24055934Y36724872D01*
X24045850Y36670800D01*
X24045850Y36325000D01*
X24057731Y36266494D01*
X24091488Y36217256D01*
X24141778Y36185084D01*
X24195850Y36175000D01*
X61453800Y36175000D01*
X61657416Y36090659D01*
X62827934Y34920141D01*
X62877703Y34887172D01*
X62936391Y34876225D01*
X62994700Y34889038D01*
X63043394Y34923575D01*
X63074759Y34974372D01*
X63084000Y35026206D01*
X63084000Y35108934D01*
X63072119Y35167441D01*
X63038363Y35216678D01*
X62996178Y35241659D01*
X62996616Y35242406D01*
X62982138Y35250909D01*
X62981200Y35258978D01*
X62981200Y36992000D01*
X62969319Y37050506D01*
X62935563Y37099744D01*
X62885272Y37131916D01*
X62831200Y37142000D01*
X55439603Y37142000D01*
X49384800Y43196803D01*
X49384800Y45805588D01*
X49372919Y45864094D01*
X49339163Y45913331D01*
X49292203Y45944169D01*
X49261550Y45956866D01*
X48976866Y46241550D01*
X48822800Y46613497D01*
X48822800Y48540103D01*
X48976866Y48912050D01*
X49261550Y49196734D01*
X49633497Y49350800D01*
X50036103Y49350800D01*
X50408050Y49196734D01*
X50692734Y48912050D01*
X50846800Y48540103D01*
X50846800Y46613497D01*
X50692734Y46241550D01*
X50408050Y45956866D01*
X50377397Y45944169D01*
X50327891Y45910803D01*
X50295319Y45860772D01*
X50284800Y45805588D01*
X50284800Y43631728D01*
X50296681Y43573222D01*
X50328734Y43525663D01*
X55768463Y38085934D01*
X55818231Y38052966D01*
X55874528Y38042000D01*
X56463472Y38042000D01*
X56521978Y38053881D01*
X56571216Y38087638D01*
X56603388Y38137928D01*
X56613397Y38196781D01*
X56599656Y38254878D01*
X56569538Y38298066D01*
X51924800Y42942803D01*
X51924800Y45805588D01*
X51912919Y45864094D01*
X51879163Y45913331D01*
X51832203Y45944169D01*
X51801550Y45956866D01*
X51516866Y46241550D01*
X51362800Y46613497D01*
X51362800Y48540103D01*
X51516866Y48912050D01*
X51801550Y49196734D01*
X52173497Y49350800D01*
X52576103Y49350800D01*
X52948050Y49196734D01*
X53232734Y48912050D01*
X53386800Y48540103D01*
X53386800Y46613497D01*
X53232734Y46241550D01*
X52948050Y45956866D01*
X52917397Y45944169D01*
X52867891Y45910803D01*
X52835319Y45860772D01*
X52824800Y45805588D01*
X52824800Y43377728D01*
X52836681Y43319222D01*
X52868734Y43271663D01*
X57038463Y39101934D01*
X57088231Y39068966D01*
X57144528Y39058000D01*
X61797472Y39058000D01*
X61855978Y39069881D01*
X61905216Y39103638D01*
X61937388Y39153928D01*
X61947397Y39212781D01*
X61933656Y39270878D01*
X61903538Y39314066D01*
X60764000Y40453603D01*
X60764000Y43439472D01*
X60752119Y43497978D01*
X60720066Y43545538D01*
X58506738Y45758866D01*
X58456969Y45791834D01*
X58400672Y45802800D01*
X58015497Y45802800D01*
X57643550Y45956866D01*
X57358866Y46241550D01*
X57204800Y46613497D01*
X57204800Y48540103D01*
X57358866Y48912050D01*
X57643550Y49196734D01*
X58015497Y49350800D01*
X58418103Y49350800D01*
X58790050Y49196734D01*
X59074734Y48912050D01*
X59228800Y48540103D01*
X59228800Y46613500D01*
X59178144Y46491206D01*
X59166731Y46432609D01*
X59179075Y46374200D01*
X59210659Y46327738D01*
X61523934Y44014463D01*
X61573703Y43981494D01*
X61632391Y43970547D01*
X61690700Y43983359D01*
X61739394Y44017897D01*
X61770759Y44068694D01*
X61780000Y44120528D01*
X61780000Y45855072D01*
X61768119Y45913578D01*
X61736066Y45961138D01*
X61641259Y46055944D01*
X61591491Y46088913D01*
X61532803Y46099859D01*
X61474494Y46087047D01*
X61429128Y46055944D01*
X61330050Y45956866D01*
X60958103Y45802800D01*
X60555497Y45802800D01*
X60183550Y45956866D01*
X59898866Y46241550D01*
X59744800Y46613497D01*
X59744800Y48540103D01*
X59898866Y48912050D01*
X60183550Y49196734D01*
X60555497Y49350800D01*
X60958103Y49350800D01*
X61330050Y49196734D01*
X61614734Y48912050D01*
X61768800Y48540103D01*
X61768800Y47263328D01*
X61780681Y47204822D01*
X61812734Y47157263D01*
X62680000Y46289997D01*
X62680000Y41396528D01*
X62691881Y41338022D01*
X62723934Y41290463D01*
X62725134Y41289263D01*
X62774903Y41256294D01*
X62833591Y41245347D01*
X62891900Y41258159D01*
X62940594Y41292697D01*
X62971959Y41343494D01*
X62981200Y41395328D01*
X62981200Y43065775D01*
X62981666Y43070822D01*
X62981963Y43071781D01*
X62989878Y43072700D01*
X63165000Y43072700D01*
X63223506Y43084581D01*
X63272744Y43118338D01*
X63304916Y43168628D01*
X63315000Y43222700D01*
X63315000Y45917397D01*
X65599603Y48202000D01*
X74354397Y48202000D01*
X76850463Y45705934D01*
X76900231Y45672966D01*
X76956528Y45662000D01*
X77316525Y45662000D01*
X77375031Y45673881D01*
X77424269Y45707638D01*
X77456441Y45757928D01*
X77466450Y45816781D01*
X77452709Y45874878D01*
X77422591Y45918066D01*
X77180175Y46160481D01*
X77025500Y46533903D01*
X77025500Y47421800D01*
X79057500Y47421800D01*
X79057500Y46533903D01*
X78902825Y46160481D01*
X78660409Y45918066D01*
X78627441Y45868297D01*
X78616494Y45809609D01*
X78629306Y45751300D01*
X78663844Y45702606D01*
X78714641Y45671241D01*
X78766475Y45662000D01*
X79862184Y45662000D01*
X79920691Y45673881D01*
X79969928Y45707638D01*
X80002100Y45757928D01*
X80012109Y45816781D01*
X79998369Y45874878D01*
X79968250Y45918066D01*
X79723566Y46162750D01*
X79569500Y46534697D01*
X79569500Y48461303D01*
X79723566Y48833250D01*
X80008250Y49117934D01*
X80380197Y49272000D01*
X80782803Y49272000D01*
X81154750Y49117934D01*
X81439434Y48833250D01*
X81593500Y48461303D01*
X81593500Y46534697D01*
X81439434Y46162750D01*
X81194750Y45918066D01*
X81161781Y45868297D01*
X81150834Y45809609D01*
X81163647Y45751300D01*
X81198184Y45702606D01*
X81248981Y45671241D01*
X81300816Y45662000D01*
X82402184Y45662000D01*
X82460691Y45673881D01*
X82509928Y45707638D01*
X82542100Y45757928D01*
X82552109Y45816781D01*
X82538369Y45874878D01*
X82508250Y45918066D01*
X82263566Y46162750D01*
X82109500Y46534697D01*
X82109500Y48461303D01*
X82263566Y48833250D01*
X82548250Y49117934D01*
X82920197Y49272000D01*
X83322803Y49272000D01*
X83694750Y49117934D01*
X83979434Y48833250D01*
X84133500Y48461303D01*
X84133500Y46534697D01*
X83979434Y46162750D01*
X83734750Y45918066D01*
X83701781Y45868297D01*
X83690834Y45809609D01*
X83703647Y45751300D01*
X83738184Y45702606D01*
X83788981Y45671241D01*
X83840816Y45662000D01*
X84514397Y45662000D01*
X89520000Y40656397D01*
X89520000Y37822000D01*
X89531881Y37763494D01*
X89565638Y37714256D01*
X89615928Y37682084D01*
X89622813Y37680800D01*
X89648703Y37663650D01*
X89707391Y37652703D01*
X89765700Y37665516D01*
X89775159Y37672000D01*
X90906097Y37672000D01*
X90918703Y37663650D01*
X90977391Y37652703D01*
X91035700Y37665516D01*
X91045159Y37672000D01*
X92176097Y37672000D01*
X92188703Y37663650D01*
X92247391Y37652703D01*
X92305700Y37665516D01*
X92315159Y37672000D01*
X93334234Y37672000D01*
X93392741Y37683881D01*
X93441978Y37717638D01*
X93474150Y37767928D01*
X93484159Y37826781D01*
X93470419Y37884878D01*
X93440300Y37928066D01*
X93110306Y38258059D01*
X93033700Y38443006D01*
X93033700Y39253350D01*
X93021819Y39311856D01*
X92988063Y39361094D01*
X92937772Y39393266D01*
X92883700Y39403350D01*
X92851047Y39403350D01*
X92704600Y39549797D01*
X92704600Y41222203D01*
X92851047Y41368650D01*
X92883700Y41368650D01*
X92942206Y41380531D01*
X92991444Y41414288D01*
X93023616Y41464578D01*
X93033700Y41518650D01*
X93033700Y42047350D01*
X93021819Y42105856D01*
X92988063Y42155094D01*
X92937772Y42187266D01*
X92883700Y42197350D01*
X92851047Y42197350D01*
X92704600Y42343797D01*
X92704600Y42526800D01*
X92692719Y42585306D01*
X92658963Y42634544D01*
X92608672Y42666716D01*
X92554600Y42676800D01*
X89879406Y42676800D01*
X89694459Y42753406D01*
X86508341Y45939525D01*
X86458572Y45972494D01*
X86399884Y45983441D01*
X86341575Y45970628D01*
X86296209Y45939525D01*
X86234750Y45878066D01*
X85862803Y45724000D01*
X85460197Y45724000D01*
X85088250Y45878066D01*
X84803566Y46162750D01*
X84649500Y46534697D01*
X84649500Y48461303D01*
X84803566Y48833250D01*
X85088250Y49117934D01*
X85460197Y49272000D01*
X85862803Y49272000D01*
X86234750Y49117934D01*
X86519434Y48833250D01*
X86673500Y48461303D01*
X86673500Y47259766D01*
X86685381Y47201259D01*
X86717434Y47153700D01*
X90144000Y43727134D01*
X90193769Y43694166D01*
X90250066Y43683200D01*
X92554600Y43683200D01*
X92613106Y43695081D01*
X92662344Y43728838D01*
X92694516Y43779128D01*
X92704600Y43833200D01*
X92704600Y44016203D01*
X92851047Y44162650D01*
X94222750Y44162650D01*
X94303406Y44081997D01*
X94353178Y44049031D01*
X94411866Y44038084D01*
X94470172Y44050897D01*
X94515538Y44082000D01*
X94600188Y44166650D01*
X95211500Y44166650D01*
X95211500Y42193350D01*
X94600191Y42193350D01*
X94515541Y42278003D01*
X94465769Y42310972D01*
X94407081Y42321919D01*
X94348775Y42309109D01*
X94303406Y42278003D01*
X94222753Y42197350D01*
X94190100Y42197350D01*
X94131594Y42185469D01*
X94082356Y42151713D01*
X94050184Y42101422D01*
X94040100Y42047350D01*
X94040100Y41518650D01*
X94051981Y41460144D01*
X94085738Y41410906D01*
X94136028Y41378734D01*
X94190100Y41368650D01*
X94222750Y41368650D01*
X94303406Y41287997D01*
X94353178Y41255031D01*
X94411866Y41244084D01*
X94470172Y41256897D01*
X94515538Y41288000D01*
X94600188Y41372650D01*
X95211500Y41372650D01*
X95211500Y39399350D01*
X94600191Y39399350D01*
X94515541Y39484003D01*
X94465769Y39516972D01*
X94407081Y39527919D01*
X94348775Y39515109D01*
X94303406Y39484003D01*
X94222753Y39403350D01*
X94190100Y39403350D01*
X94131594Y39391469D01*
X94082356Y39357713D01*
X94050184Y39307422D01*
X94040100Y39253350D01*
X94040100Y38813666D01*
X94051981Y38755159D01*
X94084034Y38707600D01*
X94576594Y38215041D01*
X94653200Y38030094D01*
X94653200Y37826000D01*
X94665081Y37767494D01*
X94698838Y37718256D01*
X94749128Y37686084D01*
X94803200Y37676000D01*
X95343800Y37676000D01*
X95343800Y35168000D01*
X94852847Y35168000D01*
X94838478Y35177519D01*
X94779794Y35188469D01*
X94721481Y35175663D01*
X94716141Y35172000D01*
X93713100Y35172000D01*
X93654594Y35160119D01*
X93605356Y35126363D01*
X93573184Y35076072D01*
X93563175Y35017219D01*
X93574519Y34964597D01*
X93689000Y34688213D01*
X93689000Y34399788D01*
X93578628Y34133322D01*
X93374678Y33929372D01*
X93108213Y33819000D01*
X92819788Y33819000D01*
X92553322Y33929372D01*
X92349372Y34133322D01*
X92239000Y34399788D01*
X92239000Y34688213D01*
X92353481Y34964597D01*
X92364894Y35023197D01*
X92352550Y35081606D01*
X92318400Y35130572D01*
X92267856Y35162341D01*
X92214900Y35172000D01*
X91043903Y35172000D01*
X91031297Y35180350D01*
X90972609Y35191297D01*
X90914300Y35178484D01*
X90904841Y35172000D01*
X89773903Y35172000D01*
X89761297Y35180350D01*
X89702609Y35191297D01*
X89644300Y35178484D01*
X89634841Y35172000D01*
X88503903Y35172000D01*
X88491297Y35180350D01*
X88432609Y35191297D01*
X88374300Y35178484D01*
X88364841Y35172000D01*
X87233903Y35172000D01*
X87221297Y35180350D01*
X87162609Y35191297D01*
X87104300Y35178484D01*
X87094841Y35172000D01*
X85963903Y35172000D01*
X85951297Y35180350D01*
X85892609Y35191297D01*
X85834300Y35178484D01*
X85824841Y35172000D01*
X84693903Y35172000D01*
X84681297Y35180350D01*
X84622609Y35191297D01*
X84564300Y35178484D01*
X84554841Y35172000D01*
X83423903Y35172000D01*
X83411297Y35180350D01*
X83352609Y35191297D01*
X83294300Y35178484D01*
X83284841Y35172000D01*
X82153903Y35172000D01*
X82141297Y35180350D01*
X82082609Y35191297D01*
X82024300Y35178484D01*
X82014841Y35172000D01*
X80883903Y35172000D01*
X80871297Y35180350D01*
X80812609Y35191297D01*
X80754300Y35178484D01*
X80730047Y35161856D01*
X80721494Y35160119D01*
X80672256Y35126363D01*
X80640084Y35076072D01*
X80630000Y35022000D01*
X80630000Y31632003D01*
X73640172Y24642175D01*
X69154450Y24642175D01*
X69095944Y24630294D01*
X69046706Y24596538D01*
X69014534Y24546247D01*
X69004450Y24492175D01*
X69004450Y24278522D01*
X68858003Y24132075D01*
X67619697Y24132075D01*
X67473250Y24278522D01*
X67473250Y25905828D01*
X67619697Y26052275D01*
X68858003Y26052275D01*
X69004450Y25905828D01*
X69004450Y25692175D01*
X69016331Y25633669D01*
X69050088Y25584431D01*
X69100378Y25552259D01*
X69154450Y25542175D01*
X73205247Y25542175D01*
X73263753Y25554056D01*
X73311313Y25586109D01*
X79686066Y31960863D01*
X79719034Y32010631D01*
X79730000Y32066928D01*
X79730000Y35022000D01*
X79718119Y35080506D01*
X79684363Y35129744D01*
X79634072Y35161916D01*
X79627188Y35163200D01*
X79601297Y35180350D01*
X79542609Y35191297D01*
X79484300Y35178484D01*
X79460047Y35161856D01*
X79451494Y35160119D01*
X79402256Y35126363D01*
X79370084Y35076072D01*
X79360000Y35022000D01*
X79360000Y33460803D01*
X73079172Y27179975D01*
X69154450Y27179975D01*
X69095944Y27168094D01*
X69046706Y27134338D01*
X69014534Y27084047D01*
X69004450Y27029975D01*
X69004450Y26816322D01*
X68858003Y26669875D01*
X67619697Y26669875D01*
X67473250Y26816322D01*
X67473250Y28443628D01*
X67619697Y28590075D01*
X68858003Y28590075D01*
X69004450Y28443628D01*
X69004450Y28229975D01*
X69016331Y28171469D01*
X69050088Y28122231D01*
X69100378Y28090059D01*
X69154450Y28079975D01*
X72644247Y28079975D01*
X72702753Y28091856D01*
X72750313Y28123909D01*
X78416066Y33789663D01*
X78449034Y33839431D01*
X78460000Y33895728D01*
X78460000Y35022000D01*
X78448119Y35080506D01*
X78414363Y35129744D01*
X78364072Y35161916D01*
X78355188Y35163572D01*
X78334141Y35177519D01*
X78275453Y35188469D01*
X78217144Y35175663D01*
X78205966Y35168000D01*
X77716200Y35168000D01*
X77716200Y37676000D01*
X78207166Y37676000D01*
X78221547Y37666475D01*
X78280234Y37655534D01*
X78338541Y37668350D01*
X78343863Y37672000D01*
X79476097Y37672000D01*
X79488703Y37663650D01*
X79547391Y37652703D01*
X79605700Y37665516D01*
X79615159Y37672000D01*
X80129084Y37672000D01*
X80187591Y37683881D01*
X80236828Y37717638D01*
X80269000Y37767928D01*
X80279009Y37826781D01*
X80265269Y37884878D01*
X80229959Y37933016D01*
X80186488Y37960581D01*
X80107322Y37993372D01*
X79903372Y38197322D01*
X79793000Y38463788D01*
X79793000Y38752213D01*
X79881800Y38966597D01*
X79893213Y39025197D01*
X79880869Y39083606D01*
X79846719Y39132572D01*
X79796175Y39164341D01*
X79743219Y39174000D01*
X75505603Y39174000D01*
X72638116Y42041488D01*
X72588347Y42074456D01*
X72529659Y42085403D01*
X72471350Y42072591D01*
X72422656Y42038053D01*
X72391291Y41987256D01*
X72382050Y41935422D01*
X72382050Y40651747D01*
X72301400Y40571097D01*
X72268431Y40521328D01*
X72257484Y40462641D01*
X72270297Y40404331D01*
X72301397Y40358966D01*
X72386050Y40274309D01*
X72386050Y39663000D01*
X70412750Y39663000D01*
X70412750Y40274313D01*
X70497403Y40358966D01*
X70530372Y40408734D01*
X70541319Y40467422D01*
X70528506Y40525731D01*
X70497403Y40571100D01*
X70416750Y40651750D01*
X70416750Y42023453D01*
X70478216Y42084919D01*
X70511184Y42134688D01*
X70522131Y42193375D01*
X70510731Y42248388D01*
X70395000Y42527788D01*
X70395000Y42816213D01*
X70483800Y43030597D01*
X70495213Y43089197D01*
X70482869Y43147606D01*
X70448719Y43196572D01*
X70398175Y43228341D01*
X70345219Y43238000D01*
X69247025Y43238000D01*
X69188519Y43226119D01*
X69139281Y43192363D01*
X69107109Y43142072D01*
X69098025Y43070713D01*
X69098800Y43064031D01*
X69098800Y35257225D01*
X69098334Y35252178D01*
X69098038Y35251219D01*
X69090122Y35250300D01*
X64342000Y35250300D01*
X64283494Y35238419D01*
X64234256Y35204663D01*
X64202084Y35154372D01*
X64192000Y35100300D01*
X64192000Y34865084D01*
X64203881Y34806578D01*
X64235934Y34759016D01*
X64356306Y34638647D01*
X64406078Y34605681D01*
X64464766Y34594734D01*
X64523072Y34607547D01*
X64568438Y34638650D01*
X64649988Y34720200D01*
X65189000Y34720200D01*
X65189000Y32742200D01*
X64649991Y32742200D01*
X64568441Y32823753D01*
X64518669Y32856722D01*
X64459981Y32867669D01*
X64401675Y32854859D01*
X64356306Y32823753D01*
X64278753Y32746200D01*
X63051647Y32746200D01*
X62905200Y32892647D01*
X62905200Y33213794D01*
X62893319Y33272300D01*
X62861266Y33319859D01*
X61158059Y35023066D01*
X61108291Y35056034D01*
X61051994Y35067000D01*
X21795684Y35067000D01*
X21737178Y35055119D01*
X21687941Y35021363D01*
X21655769Y34971072D01*
X21645759Y34912219D01*
X21659500Y34854122D01*
X21689619Y34810934D01*
X21880000Y34620553D01*
X21880000Y32943447D01*
X21689619Y32753066D01*
X21689831Y32752853D01*
X21687656Y32751363D01*
X21655484Y32701072D01*
X21645400Y32647000D01*
X21645400Y32628650D01*
X21657281Y32570144D01*
X21691038Y32520906D01*
X21741328Y32488734D01*
X21795400Y32478650D01*
X21881253Y32478650D01*
X22027700Y32332203D01*
X22027700Y30659797D01*
X21881253Y30513350D01*
X21845400Y30513350D01*
X21786894Y30501469D01*
X21737656Y30467713D01*
X21705484Y30417422D01*
X21695400Y30363350D01*
X21695400Y30248084D01*
X21707281Y30189578D01*
X21739334Y30142019D01*
X21870219Y30011134D01*
X21919988Y29978166D01*
X21976284Y29967200D01*
X24808000Y29967200D01*
X24866506Y29979081D01*
X24915744Y30012838D01*
X24947916Y30063128D01*
X24958000Y30117200D01*
X24958000Y30202553D01*
X25104447Y30349000D01*
X25981234Y30349000D01*
X26039741Y30360881D01*
X26088978Y30394638D01*
X26121150Y30444928D01*
X26131159Y30503781D01*
X26117419Y30561878D01*
X26087300Y30605066D01*
X23730100Y32962266D01*
X23680331Y32995234D01*
X23624034Y33006200D01*
X23528588Y33006200D01*
X23262122Y33116572D01*
X23058172Y33320522D01*
X22947800Y33586988D01*
X22947800Y33875413D01*
X23058172Y34141878D01*
X23262122Y34345828D01*
X23528588Y34456200D01*
X23817013Y34456200D01*
X24083478Y34345828D01*
X24287428Y34141878D01*
X24397800Y33875413D01*
X24397800Y33779966D01*
X24409681Y33721459D01*
X24441734Y33673900D01*
X27087700Y31027934D01*
X27137469Y30994966D01*
X27193766Y30984000D01*
X29378553Y30984000D01*
X29525000Y30837553D01*
X29525000Y28652766D01*
X29536881Y28594259D01*
X29568934Y28546700D01*
X31144144Y26971491D01*
X31192806Y26938975D01*
X31285953Y26900394D01*
X33667994Y24518353D01*
X33744600Y24333406D01*
X33744600Y10359128D01*
X33756481Y10300622D01*
X33790238Y10251384D01*
X33840528Y10219213D01*
X33899381Y10209203D01*
X33957478Y10222944D01*
X34000666Y10253063D01*
X34835366Y11087763D01*
X34868334Y11137531D01*
X34879300Y11193828D01*
X34879300Y11282053D01*
X35025747Y11428500D01*
X36653053Y11428500D01*
X36799500Y11282053D01*
X36799500Y10043747D01*
X36653053Y9897300D01*
X34979828Y9897300D01*
X34921322Y9885419D01*
X34873763Y9853366D01*
X34783934Y9763538D01*
X34750966Y9713769D01*
X34740000Y9657472D01*
X34740000Y9533884D01*
X34751881Y9475378D01*
X34785638Y9426141D01*
X34835928Y9393969D01*
X34894781Y9383959D01*
X34952878Y9397700D01*
X34996066Y9427819D01*
X35025747Y9457500D01*
X36653053Y9457500D01*
X36799500Y9311053D01*
X36799500Y9291900D01*
X36811381Y9233394D01*
X36845138Y9184156D01*
X36895428Y9151984D01*
X36949500Y9141900D01*
X37269300Y9141900D01*
X37327806Y9153781D01*
X37377044Y9187538D01*
X37409216Y9237828D01*
X37419300Y9291900D01*
X37419300Y9314934D01*
X37444650Y9353203D01*
X37455597Y9411891D01*
X37442784Y9470200D01*
X37411681Y9515566D01*
X37352400Y9574847D01*
X37352400Y10981953D01*
X37498847Y11128400D01*
X38355953Y11128400D01*
X38502400Y10981953D01*
X38502400Y9607500D01*
X38514281Y9548994D01*
X38548038Y9499756D01*
X38598328Y9467584D01*
X38652400Y9457500D01*
X39122400Y9457500D01*
X39180906Y9469381D01*
X39230144Y9503138D01*
X39262316Y9553428D01*
X39272400Y9607500D01*
X39272400Y10981953D01*
X39353466Y11063019D01*
X39386434Y11112788D01*
X39397400Y11169084D01*
X39397400Y11378400D01*
X39385519Y11436906D01*
X39351763Y11486144D01*
X39301472Y11518316D01*
X39247400Y11528400D01*
X38458847Y11528400D01*
X38312400Y11674847D01*
X38312400Y11901900D01*
X38300519Y11960406D01*
X38266763Y12009644D01*
X38216472Y12041816D01*
X38162400Y12051900D01*
X36949500Y12051900D01*
X36890994Y12040019D01*
X36841756Y12006263D01*
X36809584Y11955972D01*
X36799500Y11901900D01*
X36799500Y11882747D01*
X36653053Y11736300D01*
X35025747Y11736300D01*
X34879300Y11882747D01*
X34879300Y13121053D01*
X35025747Y13267500D01*
X36653053Y13267500D01*
X36799500Y13121053D01*
X36799500Y13101900D01*
X36811381Y13043394D01*
X36845138Y12994156D01*
X36895428Y12961984D01*
X36949500Y12951900D01*
X38162400Y12951900D01*
X38220906Y12963781D01*
X38270144Y12997538D01*
X38302316Y13047828D01*
X38307828Y13077381D01*
X38458847Y13228400D01*
X39247400Y13228400D01*
X39305906Y13240281D01*
X39355144Y13274038D01*
X39387316Y13324328D01*
X39394053Y13360450D01*
X40961603Y14928000D01*
X77983472Y14928000D01*
X78041978Y14939881D01*
X78089538Y14971934D01*
X79686066Y16568463D01*
X79719034Y16618231D01*
X79730000Y16674528D01*
X79730000Y18022000D01*
X79718119Y18080506D01*
X79684363Y18129744D01*
X79634072Y18161916D01*
X79627188Y18163200D01*
X79601297Y18180350D01*
X79542609Y18191297D01*
X79484300Y18178484D01*
X79460047Y18161856D01*
X79451494Y18160119D01*
X79402256Y18126363D01*
X79370084Y18076072D01*
X79360000Y18022000D01*
X79360000Y17458803D01*
X78037397Y16136200D01*
X62105438Y16136200D01*
X62046931Y16124319D01*
X61999372Y16092266D01*
X61878678Y15971572D01*
X61612213Y15861200D01*
X61323788Y15861200D01*
X61057322Y15971572D01*
X60853372Y16175522D01*
X60743000Y16441988D01*
X60743000Y16730413D01*
X60853372Y16996878D01*
X61057322Y17200828D01*
X61323788Y17311200D01*
X61612213Y17311200D01*
X61878678Y17200828D01*
X61999372Y17080134D01*
X62049141Y17047166D01*
X62105438Y17036200D01*
X69422572Y17036200D01*
X69481078Y17048081D01*
X69530316Y17081838D01*
X69562488Y17132128D01*
X69572497Y17190981D01*
X69558756Y17249078D01*
X69528638Y17292266D01*
X69206738Y17614166D01*
X69156969Y17647134D01*
X69100672Y17658100D01*
X68219947Y17658100D01*
X68073500Y17804547D01*
X68073500Y19431853D01*
X68219947Y19578300D01*
X69458253Y19578300D01*
X69604700Y19431853D01*
X69604700Y18551128D01*
X69616581Y18492622D01*
X69648634Y18445063D01*
X70073763Y18019934D01*
X70123531Y17986966D01*
X70179828Y17976000D01*
X71840316Y17976000D01*
X71898822Y17987881D01*
X71948059Y18021638D01*
X71980231Y18071928D01*
X71990241Y18130781D01*
X71976500Y18188878D01*
X71946381Y18232066D01*
X71860000Y18318447D01*
X71860000Y20525553D01*
X72006447Y20672000D01*
X73126097Y20672000D01*
X73138703Y20663650D01*
X73197391Y20652703D01*
X73255700Y20665516D01*
X73265159Y20672000D01*
X74396097Y20672000D01*
X74408703Y20663650D01*
X74467391Y20652703D01*
X74525700Y20665516D01*
X74535159Y20672000D01*
X75636872Y20672000D01*
X75695378Y20683881D01*
X75744616Y20717638D01*
X75776788Y20767928D01*
X75786797Y20826781D01*
X75773056Y20884878D01*
X75742938Y20928066D01*
X74609738Y22061266D01*
X74559969Y22094234D01*
X74503672Y22105200D01*
X69154450Y22105200D01*
X69095944Y22093319D01*
X69046706Y22059563D01*
X69014534Y22009272D01*
X69004450Y21955200D01*
X69004450Y21741547D01*
X68858003Y21595100D01*
X67619697Y21595100D01*
X67473250Y21741547D01*
X67473250Y23368853D01*
X67619697Y23515300D01*
X68858003Y23515300D01*
X69004450Y23368853D01*
X69004450Y23155200D01*
X69016331Y23096694D01*
X69050088Y23047456D01*
X69100378Y23015284D01*
X69154450Y23005200D01*
X74938597Y23005200D01*
X76820000Y21123797D01*
X76820000Y20822000D01*
X76831881Y20763494D01*
X76865638Y20714256D01*
X76915928Y20682084D01*
X76922813Y20680800D01*
X76948703Y20663650D01*
X77007391Y20652703D01*
X77065700Y20665516D01*
X77075159Y20672000D01*
X78206097Y20672000D01*
X78218703Y20663650D01*
X78277391Y20652703D01*
X78335700Y20665516D01*
X78345159Y20672000D01*
X79476097Y20672000D01*
X79488703Y20663650D01*
X79547391Y20652703D01*
X79605700Y20665516D01*
X79615159Y20672000D01*
X80746097Y20672000D01*
X80758703Y20663650D01*
X80817391Y20652703D01*
X80875700Y20665516D01*
X80885159Y20672000D01*
X82016097Y20672000D01*
X82028703Y20663650D01*
X82087391Y20652703D01*
X82145700Y20665516D01*
X82155159Y20672000D01*
X83286097Y20672000D01*
X83298703Y20663650D01*
X83357391Y20652703D01*
X83415700Y20665516D01*
X83425159Y20672000D01*
X84556097Y20672000D01*
X84568703Y20663650D01*
X84627391Y20652703D01*
X84685700Y20665516D01*
X84695159Y20672000D01*
X85826097Y20672000D01*
X85838703Y20663650D01*
X85897391Y20652703D01*
X85955700Y20665516D01*
X85965159Y20672000D01*
X87096097Y20672000D01*
X87108703Y20663650D01*
X87167391Y20652703D01*
X87225700Y20665516D01*
X87235159Y20672000D01*
X88366097Y20672000D01*
X88378703Y20663650D01*
X88437391Y20652703D01*
X88495700Y20665516D01*
X88519953Y20682144D01*
X88528506Y20683881D01*
X88577744Y20717638D01*
X88609916Y20767928D01*
X88620000Y20822000D01*
X88620000Y21425472D01*
X88608119Y21483978D01*
X88576066Y21531538D01*
X86238538Y23869066D01*
X86188769Y23902034D01*
X86132472Y23913000D01*
X85961788Y23913000D01*
X85695322Y24023372D01*
X85491372Y24227322D01*
X85381000Y24493788D01*
X85381000Y24782213D01*
X85491372Y25048678D01*
X85695322Y25252628D01*
X85961788Y25363000D01*
X86250213Y25363000D01*
X86516678Y25252628D01*
X86720628Y25048678D01*
X86831000Y24782213D01*
X86831000Y24611528D01*
X86842881Y24553022D01*
X86874934Y24505463D01*
X89520000Y21860397D01*
X89520000Y20822000D01*
X89531881Y20763494D01*
X89565638Y20714256D01*
X89615928Y20682084D01*
X89622813Y20680800D01*
X89648703Y20663650D01*
X89707391Y20652703D01*
X89765700Y20665516D01*
X89775159Y20672000D01*
X90906097Y20672000D01*
X90918703Y20663650D01*
X90977391Y20652703D01*
X91035700Y20665516D01*
X91045159Y20672000D01*
X91867472Y20672000D01*
X91925978Y20683881D01*
X91975216Y20717638D01*
X92007388Y20767928D01*
X92017397Y20826781D01*
X92003656Y20884878D01*
X91973538Y20928066D01*
X91064538Y21837066D01*
X91014769Y21870034D01*
X90958472Y21881000D01*
X90787788Y21881000D01*
X90521322Y21991372D01*
X90317372Y22195322D01*
X90207000Y22461788D01*
X90207000Y22750213D01*
X90317372Y23016678D01*
X90521322Y23220628D01*
X90787788Y23331000D01*
X91076213Y23331000D01*
X91342678Y23220628D01*
X91546628Y23016678D01*
X91657000Y22750213D01*
X91657000Y22579528D01*
X91668881Y22521022D01*
X91700934Y22473463D01*
X93330000Y20844397D01*
X93330000Y20822000D01*
X93341881Y20763494D01*
X93375638Y20714256D01*
X93425928Y20682084D01*
X93432813Y20680800D01*
X93458703Y20663650D01*
X93517391Y20652703D01*
X93575700Y20665516D01*
X93585159Y20672000D01*
X94717547Y20672000D01*
X94725888Y20666475D01*
X94784578Y20655534D01*
X94842884Y20668350D01*
X94854041Y20676000D01*
X95343800Y20676000D01*
X95343800Y18168000D01*
X94852847Y18168000D01*
X94838478Y18177519D01*
X94779794Y18188469D01*
X94721481Y18175663D01*
X94716141Y18172000D01*
X93583903Y18172000D01*
X93571297Y18180350D01*
X93512609Y18191297D01*
X93454300Y18178484D01*
X93430047Y18161856D01*
X93421494Y18160119D01*
X93372256Y18126363D01*
X93340084Y18076072D01*
X93330000Y18022000D01*
X93330000Y13293203D01*
X88679997Y8643200D01*
X85287728Y8643200D01*
X85229222Y8631319D01*
X85181663Y8599266D01*
X84141713Y7559316D01*
X84108744Y7509547D01*
X84097797Y7450859D01*
X84110609Y7392550D01*
X84145147Y7343856D01*
X84195944Y7312491D01*
X84247778Y7303250D01*
X85231653Y7303250D01*
X85378100Y7156803D01*
X85378100Y6351316D01*
X85389981Y6292809D01*
X85422034Y6245250D01*
X86278594Y5388691D01*
X86355200Y5203744D01*
X86355200Y1906506D01*
X86278594Y1721559D01*
X85095641Y538606D01*
X84974866Y488581D01*
X84925363Y455219D01*
X84892791Y405188D01*
X84882313Y346416D01*
X84895588Y288209D01*
X84930513Y239794D01*
X84981556Y208831D01*
X85032269Y200000D01*
X96790000Y200000D01*
X96848506Y211881D01*
X96897744Y245638D01*
X96929916Y295928D01*
X96940000Y350000D01*
X96940000Y50353600D01*
X96928119Y50412106D01*
X96894363Y50461344D01*
X96844072Y50493516D01*
X96790000Y50503600D01*
X350000Y50503600D01*
X291494Y50491719D01*
X242256Y50457963D01*
X210084Y50407672D01*
X200000Y50353600D01*
X200000Y350000D01*
X211881Y291494D01*
X245638Y242256D01*
X295928Y210084D01*
X350000Y200000D01*
X61347931Y200000D01*
X61406438Y211881D01*
G37*
%LPC*%
G36*
X93555081Y44833850D02*
X92885878Y45013163D01*
X92285875Y45359575D01*
X91795975Y45849475D01*
X91449563Y46449478D01*
X91270250Y47118681D01*
X91270250Y47811519D01*
X91449563Y48480722D01*
X91795975Y49080725D01*
X92285875Y49570625D01*
X92885878Y49917038D01*
X93555081Y50096350D01*
X94247919Y50096350D01*
X94917122Y49917038D01*
X95517125Y49570625D01*
X96007025Y49080725D01*
X96353438Y48480722D01*
X96532750Y47811519D01*
X96532750Y47118681D01*
X96353438Y46449478D01*
X96007025Y45849475D01*
X95517125Y45359575D01*
X94917122Y45013163D01*
X94247919Y44833850D01*
X93555081Y44833850D01*
G37*
G36*
X2892081Y44833850D02*
X2222878Y45013163D01*
X1622875Y45359575D01*
X1132975Y45849475D01*
X786563Y46449478D01*
X607250Y47118681D01*
X607250Y47811519D01*
X786563Y48480722D01*
X1132975Y49080725D01*
X1622875Y49570625D01*
X2222878Y49917038D01*
X2892081Y50096350D01*
X3584919Y50096350D01*
X4254122Y49917038D01*
X4854125Y49570625D01*
X5344025Y49080725D01*
X5690438Y48480722D01*
X5869750Y47811519D01*
X5869750Y47118681D01*
X5690438Y46449478D01*
X5344025Y45849475D01*
X4854125Y45359575D01*
X4254122Y45013163D01*
X3584919Y44833850D01*
X2892081Y44833850D01*
G37*
G36*
X7570856Y46228000D02*
X7010725Y46460013D01*
X6582013Y46888725D01*
X6350000Y47448856D01*
X6350000Y48055144D01*
X6582013Y48615275D01*
X7010725Y49043988D01*
X7570856Y49276000D01*
X8177144Y49276000D01*
X8737275Y49043988D01*
X9165988Y48615275D01*
X9398000Y48055144D01*
X9398000Y47448856D01*
X9165988Y46888725D01*
X8737275Y46460013D01*
X8177144Y46228000D01*
X7570856Y46228000D01*
G37*
G36*
X20853400Y47574200D02*
X20853400Y49276000D01*
X20979297Y49276000D01*
X21352719Y49121325D01*
X21638525Y48835519D01*
X21793200Y48462097D01*
X21793200Y47574200D01*
X20853400Y47574200D01*
G37*
G36*
X78117700Y47574200D02*
X78117700Y49276000D01*
X78243597Y49276000D01*
X78617019Y49121325D01*
X78902825Y48835519D01*
X79057500Y48462097D01*
X79057500Y47574200D01*
X78117700Y47574200D01*
G37*
G36*
X32791400Y47574200D02*
X32791400Y49276000D01*
X32917297Y49276000D01*
X33290719Y49121325D01*
X33576525Y48835519D01*
X33731200Y48462097D01*
X33731200Y47574200D01*
X32791400Y47574200D01*
G37*
G36*
X88850856Y46228000D02*
X88290725Y46460013D01*
X87862013Y46888725D01*
X87630000Y47448856D01*
X87630000Y48055144D01*
X87862013Y48615275D01*
X88290725Y49043988D01*
X88850856Y49276000D01*
X89457144Y49276000D01*
X90017275Y49043988D01*
X90445988Y48615275D01*
X90678000Y48055144D01*
X90678000Y47448856D01*
X90445988Y46888725D01*
X90017275Y46460013D01*
X89457144Y46228000D01*
X88850856Y46228000D01*
G37*
G36*
X31699200Y47574200D02*
X31699200Y48462097D01*
X31853875Y48835519D01*
X32139681Y49121325D01*
X32513103Y49276000D01*
X32639000Y49276000D01*
X32639000Y47574200D01*
X31699200Y47574200D01*
G37*
G36*
X77025500Y47574200D02*
X77025500Y48462097D01*
X77180175Y48835519D01*
X77465981Y49121325D01*
X77839403Y49276000D01*
X77965300Y49276000D01*
X77965300Y47574200D01*
X77025500Y47574200D01*
G37*
G36*
X19761200Y47574200D02*
X19761200Y48462097D01*
X19915875Y48835519D01*
X20201681Y49121325D01*
X20575103Y49276000D01*
X20701000Y49276000D01*
X20701000Y47574200D01*
X19761200Y47574200D01*
G37*
G36*
X29772647Y37749000D02*
X29626200Y37895447D01*
X29626200Y38970800D01*
X29614319Y39029306D01*
X29580563Y39078544D01*
X29530272Y39110716D01*
X29476200Y39120800D01*
X27813684Y39120800D01*
X27755178Y39108919D01*
X27707619Y39076866D01*
X27529753Y38899000D01*
X24572647Y38899000D01*
X24426200Y39045447D01*
X24426200Y39586234D01*
X24414319Y39644741D01*
X24382266Y39692300D01*
X24245900Y39828666D01*
X24196131Y39861634D01*
X24137444Y39872581D01*
X24079134Y39859769D01*
X24033769Y39828666D01*
X23938000Y39732897D01*
X23905031Y39683128D01*
X23894084Y39624441D01*
X23906897Y39566131D01*
X23938000Y39520766D01*
X24049850Y39408913D01*
X24049850Y38797600D01*
X22076550Y38797600D01*
X22076550Y39408913D01*
X22188403Y39520766D01*
X22221372Y39570534D01*
X22232319Y39629222D01*
X22219506Y39687531D01*
X22188403Y39732897D01*
X22080550Y39840747D01*
X22080550Y41212453D01*
X22161203Y41293106D01*
X22194172Y41342875D01*
X22205119Y41401563D01*
X22192306Y41459872D01*
X22161203Y41505241D01*
X22076550Y41589891D01*
X22076550Y42201200D01*
X24049850Y42201200D01*
X24049850Y41589888D01*
X23965200Y41505238D01*
X23932231Y41455469D01*
X23921284Y41396781D01*
X23934097Y41338472D01*
X23965197Y41293106D01*
X24045850Y41212450D01*
X24045850Y41179800D01*
X24057731Y41121294D01*
X24091488Y41072056D01*
X24141778Y41039884D01*
X24195850Y41029800D01*
X24374056Y41029800D01*
X24432563Y41041681D01*
X24481800Y41075438D01*
X24513972Y41125728D01*
X24523981Y41184581D01*
X24510241Y41242678D01*
X24480122Y41285866D01*
X24422200Y41343788D01*
X24422200Y41847800D01*
X25975000Y41847800D01*
X25975000Y41195000D01*
X24664966Y41195000D01*
X24606459Y41183119D01*
X24557222Y41149363D01*
X24525050Y41099072D01*
X24515041Y41040219D01*
X24528781Y40982122D01*
X24558900Y40938934D01*
X25104900Y40392934D01*
X25154669Y40359966D01*
X25210966Y40349000D01*
X27529753Y40349000D01*
X27707619Y40171134D01*
X27757388Y40138166D01*
X27813684Y40127200D01*
X29476200Y40127200D01*
X29534706Y40139081D01*
X29583944Y40172838D01*
X29616116Y40223128D01*
X29626200Y40277200D01*
X29626200Y41352553D01*
X29628066Y41354419D01*
X29661034Y41404188D01*
X29672000Y41460484D01*
X29672000Y44050800D01*
X29660119Y44109306D01*
X29626363Y44158544D01*
X29576072Y44190716D01*
X29522000Y44200800D01*
X27946300Y44200800D01*
X27887794Y44188919D01*
X27838556Y44155163D01*
X27806384Y44104872D01*
X27796300Y44050800D01*
X27796300Y43890347D01*
X27649853Y43743900D01*
X26411547Y43743900D01*
X26265100Y43890347D01*
X26265100Y45517653D01*
X26411547Y45664100D01*
X27649853Y45664100D01*
X27796300Y45517653D01*
X27796300Y45357200D01*
X27808181Y45298694D01*
X27841938Y45249456D01*
X27892228Y45217284D01*
X27946300Y45207200D01*
X29522000Y45207200D01*
X29580506Y45219081D01*
X29629744Y45252838D01*
X29661916Y45303128D01*
X29672000Y45357200D01*
X29672000Y45748825D01*
X29660119Y45807331D01*
X29626363Y45856569D01*
X29617872Y45862144D01*
X29317266Y46162750D01*
X29163200Y46534697D01*
X29163200Y48461303D01*
X29317266Y48833250D01*
X29601950Y49117934D01*
X29973897Y49272000D01*
X30376503Y49272000D01*
X30748450Y49117934D01*
X31033134Y48833250D01*
X31187200Y48461303D01*
X31187200Y46534697D01*
X31033134Y46162750D01*
X30730506Y45860122D01*
X30721503Y45854056D01*
X30688928Y45804028D01*
X30678400Y45748825D01*
X30678400Y41649000D01*
X30690281Y41590494D01*
X30724038Y41541256D01*
X30774328Y41509084D01*
X30828400Y41499000D01*
X32729753Y41499000D01*
X32876200Y41352553D01*
X32876200Y37895447D01*
X32729753Y37749000D01*
X29772647Y37749000D01*
G37*
G36*
X14419200Y47320200D02*
X14419200Y48049213D01*
X14567988Y48198000D01*
X15047000Y48198000D01*
X15047000Y47320200D01*
X14419200Y47320200D01*
G37*
G36*
X26357200Y47320200D02*
X26357200Y48049213D01*
X26505988Y48198000D01*
X26985000Y48198000D01*
X26985000Y47320200D01*
X26357200Y47320200D01*
G37*
G36*
X27137400Y47320200D02*
X27137400Y48198000D01*
X27616413Y48198000D01*
X27765200Y48049213D01*
X27765200Y47320200D01*
X27137400Y47320200D01*
G37*
G36*
X15199400Y47320200D02*
X15199400Y48198000D01*
X15678413Y48198000D01*
X15827200Y48049213D01*
X15827200Y47320200D01*
X15199400Y47320200D01*
G37*
G36*
X12634547Y43743900D02*
X12488100Y43890347D01*
X12488100Y45517653D01*
X12637438Y45666991D01*
X12681706Y45675981D01*
X12730944Y45709738D01*
X12763116Y45760028D01*
X12773200Y45814100D01*
X12773200Y46144000D01*
X12761319Y46202506D01*
X12727563Y46251744D01*
X12684097Y46279550D01*
X12523200Y46440447D01*
X12523200Y48047553D01*
X12669647Y48194000D01*
X13776753Y48194000D01*
X13923200Y48047553D01*
X13923200Y46440447D01*
X13764919Y46282166D01*
X13764694Y46282119D01*
X13715456Y46248363D01*
X13683284Y46198072D01*
X13673200Y46144000D01*
X13673200Y45814100D01*
X13685081Y45755594D01*
X13718838Y45706356D01*
X13769128Y45674184D01*
X13823200Y45664100D01*
X13872853Y45664100D01*
X14019300Y45517653D01*
X14019300Y43890347D01*
X13872853Y43743900D01*
X12634547Y43743900D01*
G37*
G36*
X24572547Y43743900D02*
X24426100Y43890347D01*
X24426100Y45517653D01*
X24572547Y45664100D01*
X24591700Y45664100D01*
X24650206Y45675981D01*
X24699444Y45709738D01*
X24731616Y45760028D01*
X24741700Y45814100D01*
X24741700Y46144000D01*
X24729819Y46202506D01*
X24696063Y46251744D01*
X24645772Y46283916D01*
X24611303Y46290344D01*
X24461200Y46440447D01*
X24461200Y48047553D01*
X24607647Y48194000D01*
X25714753Y48194000D01*
X25861200Y48047553D01*
X25861200Y46440447D01*
X25685634Y46264881D01*
X25652666Y46215113D01*
X25641700Y46158816D01*
X25641700Y45814100D01*
X25653581Y45755594D01*
X25687338Y45706356D01*
X25737628Y45674184D01*
X25791700Y45664100D01*
X25810853Y45664100D01*
X25957300Y45517653D01*
X25957300Y43890347D01*
X25810853Y43743900D01*
X24572547Y43743900D01*
G37*
G36*
X32791400Y45720000D02*
X32791400Y47421800D01*
X33731200Y47421800D01*
X33731200Y46533903D01*
X33576525Y46160481D01*
X33290719Y45874675D01*
X32917297Y45720000D01*
X32791400Y45720000D01*
G37*
G36*
X32513103Y45720000D02*
X32139681Y45874675D01*
X31853875Y46160481D01*
X31699200Y46533903D01*
X31699200Y47421800D01*
X32639000Y47421800D01*
X32639000Y45720000D01*
X32513103Y45720000D01*
G37*
G36*
X20853400Y45720000D02*
X20853400Y47421800D01*
X21793200Y47421800D01*
X21793200Y46533903D01*
X21638525Y46160481D01*
X21352719Y45874675D01*
X20979297Y45720000D01*
X20853400Y45720000D01*
G37*
G36*
X20575103Y45720000D02*
X20201681Y45874675D01*
X19915875Y46160481D01*
X19761200Y46533903D01*
X19761200Y47421800D01*
X20701000Y47421800D01*
X20701000Y45720000D01*
X20575103Y45720000D01*
G37*
G36*
X14567988Y46290000D02*
X14419200Y46438788D01*
X14419200Y47167800D01*
X15047000Y47167800D01*
X15047000Y46290000D01*
X14567988Y46290000D01*
G37*
G36*
X27137400Y46290000D02*
X27137400Y47167800D01*
X27765200Y47167800D01*
X27765200Y46438788D01*
X27616413Y46290000D01*
X27137400Y46290000D01*
G37*
G36*
X26505988Y46290000D02*
X26357200Y46438788D01*
X26357200Y47167800D01*
X26985000Y47167800D01*
X26985000Y46290000D01*
X26505988Y46290000D01*
G37*
G36*
X95363900Y43256200D02*
X95363900Y44166650D01*
X95975213Y44166650D01*
X96124000Y44017863D01*
X96124000Y43256200D01*
X95363900Y43256200D01*
G37*
G36*
X23139400Y42353600D02*
X23139400Y43113700D01*
X23901063Y43113700D01*
X24049850Y42964913D01*
X24049850Y42353600D01*
X23139400Y42353600D01*
G37*
G36*
X22076550Y42353600D02*
X22076550Y42964913D01*
X22225338Y43113700D01*
X22987000Y43113700D01*
X22987000Y42353600D01*
X22076550Y42353600D01*
G37*
G36*
X95363900Y42193350D02*
X95363900Y43103800D01*
X96124000Y43103800D01*
X96124000Y42342138D01*
X95975213Y42193350D01*
X95363900Y42193350D01*
G37*
G36*
X11455400Y42278200D02*
X11455400Y42966000D01*
X12219413Y42966000D01*
X12368200Y42817213D01*
X12368200Y42278200D01*
X11455400Y42278200D01*
G37*
G36*
X10390200Y42278200D02*
X10390200Y42817213D01*
X10538988Y42966000D01*
X11303000Y42966000D01*
X11303000Y42278200D01*
X10390200Y42278200D01*
G37*
G36*
X14443400Y42000200D02*
X14443400Y42653000D01*
X15847413Y42653000D01*
X15996200Y42504213D01*
X15996200Y42000200D01*
X14443400Y42000200D01*
G37*
G36*
X24422200Y42000200D02*
X24422200Y42504213D01*
X24570988Y42653000D01*
X25975000Y42653000D01*
X25975000Y42000200D01*
X24422200Y42000200D01*
G37*
G36*
X26127400Y42000200D02*
X26127400Y42653000D01*
X27531413Y42653000D01*
X27680200Y42504213D01*
X27680200Y42000200D01*
X26127400Y42000200D01*
G37*
G36*
X12738200Y42000200D02*
X12738200Y42504213D01*
X12886988Y42653000D01*
X14291000Y42653000D01*
X14291000Y42000200D01*
X12738200Y42000200D01*
G37*
G36*
X35451303Y40213000D02*
X35010256Y40395688D01*
X34672688Y40733256D01*
X34490000Y41174303D01*
X34490000Y41651697D01*
X34672688Y42092744D01*
X35010256Y42430313D01*
X35451303Y42613000D01*
X35928697Y42613000D01*
X36369744Y42430313D01*
X36707313Y42092744D01*
X36890000Y41651697D01*
X36890000Y41174303D01*
X36707313Y40733256D01*
X36369744Y40395688D01*
X35928697Y40213000D01*
X35451303Y40213000D01*
G37*
G36*
X58691303Y40213000D02*
X58250256Y40395688D01*
X57912688Y40733256D01*
X57730000Y41174303D01*
X57730000Y41651697D01*
X57912688Y42092744D01*
X58250256Y42430313D01*
X58691303Y42613000D01*
X59168697Y42613000D01*
X59609744Y42430313D01*
X59947313Y42092744D01*
X60130000Y41651697D01*
X60130000Y41174303D01*
X59947313Y40733256D01*
X59609744Y40395688D01*
X59168697Y40213000D01*
X58691303Y40213000D01*
G37*
G36*
X12886988Y41195000D02*
X12738200Y41343788D01*
X12738200Y41847800D01*
X14291000Y41847800D01*
X14291000Y41195000D01*
X12886988Y41195000D01*
G37*
G36*
X14443400Y41195000D02*
X14443400Y41847800D01*
X15996200Y41847800D01*
X15996200Y41343788D01*
X15847413Y41195000D01*
X14443400Y41195000D01*
G37*
G36*
X26127400Y41195000D02*
X26127400Y41847800D01*
X27680200Y41847800D01*
X27680200Y41343788D01*
X27531413Y41195000D01*
X26127400Y41195000D01*
G37*
G36*
X5102788Y40955200D02*
X4954000Y41103988D01*
X4954000Y41458000D01*
X5731800Y41458000D01*
X5731800Y40955200D01*
X5102788Y40955200D01*
G37*
G36*
X5884200Y40955200D02*
X5884200Y41458000D01*
X6662000Y41458000D01*
X6662000Y41103988D01*
X6513213Y40955200D01*
X5884200Y40955200D01*
G37*
G36*
X95363900Y40462200D02*
X95363900Y41372650D01*
X95975213Y41372650D01*
X96124000Y41223863D01*
X96124000Y40462200D01*
X95363900Y40462200D01*
G37*
G36*
X95363900Y39399350D02*
X95363900Y40309800D01*
X96124000Y40309800D01*
X96124000Y39548138D01*
X95975213Y39399350D01*
X95363900Y39399350D01*
G37*
G36*
X5707600Y38151900D02*
X5707600Y40080100D01*
X6252213Y40080100D01*
X6444834Y39887478D01*
X6494603Y39854509D01*
X6553291Y39843563D01*
X6611600Y39856375D01*
X6656966Y39887478D01*
X6849588Y40080100D01*
X7394200Y40080100D01*
X7394200Y38151900D01*
X6849588Y38151900D01*
X6656966Y38344522D01*
X6607197Y38377491D01*
X6548509Y38388438D01*
X6490200Y38375625D01*
X6444834Y38344522D01*
X6252213Y38151900D01*
X5707600Y38151900D01*
G37*
G36*
X7546600Y39192200D02*
X7546600Y40080100D01*
X8091213Y40080100D01*
X8240000Y39931313D01*
X8240000Y39192200D01*
X7546600Y39192200D01*
G37*
G36*
X4861800Y39192200D02*
X4861800Y39909491D01*
X4857109Y39932591D01*
X4877231Y39946744D01*
X5010588Y40080100D01*
X5555200Y40080100D01*
X5555200Y39192200D01*
X4861800Y39192200D01*
G37*
G36*
X70561538Y38750500D02*
X70412750Y38899288D01*
X70412750Y39510600D01*
X71323200Y39510600D01*
X71323200Y38750500D01*
X70561538Y38750500D01*
G37*
G36*
X71475600Y38750500D02*
X71475600Y39510600D01*
X72386050Y39510600D01*
X72386050Y38899288D01*
X72237263Y38750500D01*
X71475600Y38750500D01*
G37*
G36*
X5010588Y38151900D02*
X4861800Y38300688D01*
X4861800Y39039800D01*
X5555200Y39039800D01*
X5555200Y38151900D01*
X5010588Y38151900D01*
G37*
G36*
X7546600Y38151900D02*
X7546600Y39039800D01*
X8240000Y39039800D01*
X8240000Y38300688D01*
X8091213Y38151900D01*
X7546600Y38151900D01*
G37*
G36*
X95496200Y36498200D02*
X95496200Y37676000D01*
X95975213Y37676000D01*
X96124000Y37527213D01*
X96124000Y36498200D01*
X95496200Y36498200D01*
G37*
G36*
X67619697Y29189700D02*
X67473250Y29336147D01*
X67473250Y30963453D01*
X67619697Y31109900D01*
X68858003Y31109900D01*
X69004450Y30963453D01*
X69004450Y30749800D01*
X69016331Y30691294D01*
X69050088Y30642056D01*
X69100378Y30609884D01*
X69154450Y30599800D01*
X72141472Y30599800D01*
X72199978Y30611681D01*
X72247538Y30643734D01*
X75876066Y34272263D01*
X75909034Y34322031D01*
X75920000Y34378328D01*
X75920000Y35022000D01*
X75908119Y35080506D01*
X75874363Y35129744D01*
X75824072Y35161916D01*
X75817188Y35163200D01*
X75791297Y35180350D01*
X75732609Y35191297D01*
X75674300Y35178484D01*
X75664841Y35172000D01*
X74533903Y35172000D01*
X74521297Y35180350D01*
X74462609Y35191297D01*
X74404300Y35178484D01*
X74394841Y35172000D01*
X73263903Y35172000D01*
X73251297Y35180350D01*
X73192609Y35191297D01*
X73134300Y35178484D01*
X73124841Y35172000D01*
X72006447Y35172000D01*
X71860000Y35318447D01*
X71860000Y37525553D01*
X72006447Y37672000D01*
X73126097Y37672000D01*
X73138703Y37663650D01*
X73197391Y37652703D01*
X73255700Y37665516D01*
X73265159Y37672000D01*
X74396097Y37672000D01*
X74408703Y37663650D01*
X74467391Y37652703D01*
X74525700Y37665516D01*
X74535159Y37672000D01*
X75666097Y37672000D01*
X75678703Y37663650D01*
X75737391Y37652703D01*
X75795700Y37665516D01*
X75805159Y37672000D01*
X76937547Y37672000D01*
X76945888Y37666475D01*
X77004578Y37655534D01*
X77062884Y37668350D01*
X77074041Y37676000D01*
X77563800Y37676000D01*
X77563800Y35168000D01*
X77072847Y35168000D01*
X77058478Y35177519D01*
X76999794Y35188469D01*
X76941481Y35175663D01*
X76921888Y35162231D01*
X76911494Y35160119D01*
X76862256Y35126363D01*
X76830084Y35076072D01*
X76820000Y35022000D01*
X76820000Y33943403D01*
X72576397Y29699800D01*
X69154450Y29699800D01*
X69095944Y29687919D01*
X69046706Y29654163D01*
X69014534Y29603872D01*
X69004450Y29549800D01*
X69004450Y29336147D01*
X68858003Y29189700D01*
X67619697Y29189700D01*
G37*
G36*
X3888000Y36659200D02*
X3888000Y36743722D01*
X4011009Y37040694D01*
X4238306Y37267991D01*
X4535278Y37391000D01*
X5173800Y37391000D01*
X5173800Y36659200D01*
X3888000Y36659200D01*
G37*
G36*
X5326200Y36659200D02*
X5326200Y37391000D01*
X5964722Y37391000D01*
X6261694Y37267991D01*
X6488991Y37040694D01*
X6612000Y36743722D01*
X6612000Y36659200D01*
X5326200Y36659200D01*
G37*
G36*
X1946200Y36659200D02*
X1946200Y37391000D01*
X2584722Y37391000D01*
X2881694Y37267991D01*
X3108991Y37040694D01*
X3232000Y36743722D01*
X3232000Y36659200D01*
X1946200Y36659200D01*
G37*
G36*
X508000Y36659200D02*
X508000Y36743722D01*
X631009Y37040694D01*
X858306Y37267991D01*
X1155278Y37391000D01*
X1793800Y37391000D01*
X1793800Y36659200D01*
X508000Y36659200D01*
G37*
G36*
X1155278Y35775000D02*
X858306Y35898009D01*
X631009Y36125306D01*
X508000Y36422278D01*
X508000Y36506800D01*
X1793800Y36506800D01*
X1793800Y35775000D01*
X1155278Y35775000D01*
G37*
G36*
X1946200Y35775000D02*
X1946200Y36506800D01*
X3232000Y36506800D01*
X3232000Y36422278D01*
X3108991Y36125306D01*
X2881694Y35898009D01*
X2584722Y35775000D01*
X1946200Y35775000D01*
G37*
G36*
X95496200Y35168000D02*
X95496200Y36345800D01*
X96124000Y36345800D01*
X96124000Y35316788D01*
X95975213Y35168000D01*
X95496200Y35168000D01*
G37*
G36*
X65341400Y33807400D02*
X65341400Y34720200D01*
X65880413Y34720200D01*
X66029200Y34571413D01*
X66029200Y33807400D01*
X65341400Y33807400D01*
G37*
G36*
X65341400Y32742200D02*
X65341400Y33655000D01*
X66029200Y33655000D01*
X66029200Y32890988D01*
X65880413Y32742200D01*
X65341400Y32742200D01*
G37*
G36*
X87996200Y28998200D02*
X87996200Y31676000D01*
X90525213Y31676000D01*
X90674000Y31527213D01*
X90674000Y28998200D01*
X87996200Y28998200D01*
G37*
G36*
X85166000Y28998200D02*
X85166000Y31527213D01*
X85314788Y31676000D01*
X87843800Y31676000D01*
X87843800Y28998200D01*
X85166000Y28998200D01*
G37*
G36*
X63044697Y29150500D02*
X62672750Y29304566D01*
X62388066Y29589250D01*
X62234000Y29961197D01*
X62234000Y30363803D01*
X62388066Y30735750D01*
X62672750Y31020434D01*
X63044697Y31174500D01*
X64971303Y31174500D01*
X65343250Y31020434D01*
X65411175Y30952509D01*
X65460944Y30919541D01*
X65519631Y30908594D01*
X65577941Y30921406D01*
X65623306Y30952509D01*
X65780697Y31109900D01*
X67019003Y31109900D01*
X67165450Y30963453D01*
X67165450Y29336147D01*
X67019003Y29189700D01*
X65780697Y29189700D01*
X65610606Y29359791D01*
X65560838Y29392759D01*
X65502150Y29403706D01*
X65443841Y29390894D01*
X65398475Y29359791D01*
X65343250Y29304566D01*
X64971303Y29150500D01*
X63044697Y29150500D01*
G37*
G36*
X42346200Y16670000D02*
X42346200Y18956000D01*
X42497359Y18956000D01*
X42917456Y18781991D01*
X43238991Y18460456D01*
X43403584Y18063091D01*
X43436947Y18013584D01*
X43486978Y17981016D01*
X43545753Y17970538D01*
X43603956Y17983813D01*
X43652372Y18018738D01*
X43680747Y18063091D01*
X43844400Y18458191D01*
X44164809Y18778600D01*
X44583438Y18952000D01*
X45036563Y18952000D01*
X45455191Y18778600D01*
X45775600Y18458191D01*
X45941419Y18057866D01*
X45974781Y18008359D01*
X46024813Y17975791D01*
X46083588Y17965313D01*
X46141791Y17978588D01*
X46190206Y18013513D01*
X46218581Y18057866D01*
X46384400Y18458191D01*
X46704809Y18778600D01*
X46807400Y18821094D01*
X46856906Y18854456D01*
X46889478Y18904488D01*
X46900000Y18959675D01*
X46900000Y23406397D01*
X52317066Y28823463D01*
X52350034Y28873231D01*
X52361000Y28929528D01*
X52361000Y29100213D01*
X52471372Y29366678D01*
X52675322Y29570628D01*
X52941788Y29681000D01*
X53230213Y29681000D01*
X53496678Y29570628D01*
X53700628Y29366678D01*
X53811000Y29100213D01*
X53811000Y28811788D01*
X53700628Y28545322D01*
X53496678Y28341372D01*
X53230213Y28231000D01*
X53059528Y28231000D01*
X53001022Y28219119D01*
X52953463Y28187066D01*
X47843934Y23077538D01*
X47810966Y23027769D01*
X47800000Y22971472D01*
X47800000Y18959675D01*
X47811881Y18901169D01*
X47845638Y18851931D01*
X47892600Y18821094D01*
X47995191Y18778600D01*
X48315600Y18458191D01*
X48481419Y18057866D01*
X48514781Y18008359D01*
X48564813Y17975791D01*
X48623588Y17965313D01*
X48681791Y17978588D01*
X48730206Y18013513D01*
X48758581Y18057866D01*
X48924400Y18458191D01*
X49244809Y18778600D01*
X49347400Y18821094D01*
X49396906Y18854456D01*
X49429478Y18904488D01*
X49440000Y18959675D01*
X49440000Y21628397D01*
X53841066Y26029463D01*
X53874034Y26079231D01*
X53885000Y26135528D01*
X53885000Y26306213D01*
X53995372Y26572678D01*
X54199322Y26776628D01*
X54465788Y26887000D01*
X54754213Y26887000D01*
X55020678Y26776628D01*
X55224628Y26572678D01*
X55335000Y26306213D01*
X55335000Y26017788D01*
X55224628Y25751322D01*
X55020678Y25547372D01*
X54754213Y25437000D01*
X54583528Y25437000D01*
X54525022Y25425119D01*
X54477463Y25393066D01*
X50383934Y21299538D01*
X50350966Y21249769D01*
X50340000Y21193472D01*
X50340000Y18959675D01*
X50351881Y18901169D01*
X50385638Y18851931D01*
X50432600Y18821094D01*
X50535191Y18778600D01*
X50855600Y18458191D01*
X51021419Y18057866D01*
X51054781Y18008359D01*
X51104813Y17975791D01*
X51163588Y17965313D01*
X51221791Y17978588D01*
X51270206Y18013513D01*
X51298581Y18057866D01*
X51464400Y18458191D01*
X51784809Y18778600D01*
X52203438Y18952000D01*
X52656563Y18952000D01*
X53075191Y18778600D01*
X53395600Y18458191D01*
X53559253Y18063091D01*
X53592616Y18013588D01*
X53642647Y17981016D01*
X53701419Y17970538D01*
X53759625Y17983813D01*
X53808041Y18018738D01*
X53836416Y18063091D01*
X54001009Y18460456D01*
X54322544Y18781991D01*
X54742641Y18956000D01*
X54893800Y18956000D01*
X54893800Y16670000D01*
X54742641Y16670000D01*
X54322544Y16844009D01*
X54001009Y17165544D01*
X53836416Y17562909D01*
X53803053Y17612416D01*
X53753022Y17644984D01*
X53694247Y17655463D01*
X53636044Y17642188D01*
X53587628Y17607263D01*
X53559253Y17562909D01*
X53395600Y17167809D01*
X53075191Y16847400D01*
X52656563Y16674000D01*
X52203438Y16674000D01*
X51784809Y16847400D01*
X51464400Y17167809D01*
X51298581Y17568134D01*
X51265219Y17617641D01*
X51215188Y17650209D01*
X51156413Y17660688D01*
X51098209Y17647413D01*
X51049794Y17612488D01*
X51021419Y17568134D01*
X50855600Y17167809D01*
X50535191Y16847400D01*
X50116563Y16674000D01*
X49663438Y16674000D01*
X49244809Y16847400D01*
X48924400Y17167809D01*
X48758581Y17568134D01*
X48725219Y17617641D01*
X48675188Y17650209D01*
X48616413Y17660688D01*
X48558209Y17647413D01*
X48509794Y17612488D01*
X48481419Y17568134D01*
X48315600Y17167809D01*
X47995191Y16847400D01*
X47576563Y16674000D01*
X47123438Y16674000D01*
X46704809Y16847400D01*
X46384400Y17167809D01*
X46218581Y17568134D01*
X46185219Y17617641D01*
X46135188Y17650209D01*
X46076413Y17660688D01*
X46018209Y17647413D01*
X45969794Y17612488D01*
X45941419Y17568134D01*
X45775600Y17167809D01*
X45455191Y16847400D01*
X45036563Y16674000D01*
X44583438Y16674000D01*
X44164809Y16847400D01*
X43844400Y17167809D01*
X43680747Y17562909D01*
X43647384Y17612413D01*
X43597353Y17644984D01*
X43538581Y17655463D01*
X43480375Y17642188D01*
X43431959Y17607263D01*
X43403584Y17562909D01*
X43238991Y17165544D01*
X42917456Y16844009D01*
X42497359Y16670000D01*
X42346200Y16670000D01*
G37*
G36*
X85314788Y26168000D02*
X85166000Y26316788D01*
X85166000Y28845800D01*
X87843800Y28845800D01*
X87843800Y26168000D01*
X85314788Y26168000D01*
G37*
G36*
X87996200Y26168000D02*
X87996200Y28845800D01*
X90674000Y28845800D01*
X90674000Y26316788D01*
X90525213Y26168000D01*
X87996200Y26168000D01*
G37*
G36*
X1946200Y28009200D02*
X1946200Y28741000D01*
X2584722Y28741000D01*
X2881694Y28617991D01*
X3108991Y28390694D01*
X3232000Y28093722D01*
X3232000Y28009200D01*
X1946200Y28009200D01*
G37*
G36*
X508000Y28009200D02*
X508000Y28093722D01*
X631009Y28390694D01*
X858306Y28617991D01*
X1155278Y28741000D01*
X1793800Y28741000D01*
X1793800Y28009200D01*
X508000Y28009200D01*
G37*
G36*
X63044697Y26610500D02*
X62672750Y26764566D01*
X62388066Y27049250D01*
X62234000Y27421197D01*
X62234000Y27823803D01*
X62388066Y28195750D01*
X62672750Y28480434D01*
X63044697Y28634500D01*
X64971303Y28634500D01*
X65343250Y28480434D01*
X65401088Y28422597D01*
X65450856Y28389628D01*
X65509544Y28378681D01*
X65567853Y28391494D01*
X65613219Y28422597D01*
X65780697Y28590075D01*
X67019003Y28590075D01*
X67165450Y28443628D01*
X67165450Y26816322D01*
X67019003Y26669875D01*
X65780697Y26669875D01*
X65620694Y26829878D01*
X65570925Y26862847D01*
X65512238Y26873794D01*
X65453928Y26860981D01*
X65408563Y26829878D01*
X65343250Y26764566D01*
X64971303Y26610500D01*
X63044697Y26610500D01*
G37*
G36*
X9740900Y27107075D02*
X9740900Y27846188D01*
X9889688Y27994975D01*
X10434300Y27994975D01*
X10434300Y27107075D01*
X9740900Y27107075D01*
G37*
G36*
X10586700Y27107075D02*
X10586700Y27994975D01*
X11131313Y27994975D01*
X11280100Y27846188D01*
X11280100Y27107075D01*
X10586700Y27107075D01*
G37*
G36*
X1946200Y27125000D02*
X1946200Y27856800D01*
X3232000Y27856800D01*
X3232000Y27772278D01*
X3108991Y27475306D01*
X2881694Y27248009D01*
X2584722Y27125000D01*
X1946200Y27125000D01*
G37*
G36*
X5326200Y27125000D02*
X5326200Y27856800D01*
X6612000Y27856800D01*
X6612000Y27772278D01*
X6488991Y27475306D01*
X6261694Y27248009D01*
X5964722Y27125000D01*
X5326200Y27125000D01*
G37*
G36*
X4535278Y27125000D02*
X4238306Y27248009D01*
X4011009Y27475306D01*
X3888000Y27772278D01*
X3888000Y27856800D01*
X5173800Y27856800D01*
X5173800Y27125000D01*
X4535278Y27125000D01*
G37*
G36*
X1155278Y27125000D02*
X858306Y27248009D01*
X631009Y27475306D01*
X508000Y27772278D01*
X508000Y27856800D01*
X1793800Y27856800D01*
X1793800Y27125000D01*
X1155278Y27125000D01*
G37*
G36*
X10586700Y26066775D02*
X10586700Y26954675D01*
X11280100Y26954675D01*
X11280100Y26215563D01*
X11131313Y26066775D01*
X10586700Y26066775D01*
G37*
G36*
X27461350Y25843600D02*
X27461350Y26454913D01*
X27610138Y26603700D01*
X28371800Y26603700D01*
X28371800Y25843600D01*
X27461350Y25843600D01*
G37*
G36*
X28524200Y25843600D02*
X28524200Y26603700D01*
X29285863Y26603700D01*
X29434650Y26454913D01*
X29434650Y25843600D01*
X28524200Y25843600D01*
G37*
G36*
X25730200Y25768200D02*
X25730200Y26456000D01*
X26494213Y26456000D01*
X26643000Y26307213D01*
X26643000Y25768200D01*
X25730200Y25768200D01*
G37*
G36*
X24665000Y25768200D02*
X24665000Y26307213D01*
X24813788Y26456000D01*
X25577800Y26456000D01*
X25577800Y25768200D01*
X24665000Y25768200D01*
G37*
G36*
X63044697Y24070500D02*
X62672750Y24224566D01*
X62388066Y24509250D01*
X62234000Y24881197D01*
X62234000Y25283803D01*
X62388066Y25655750D01*
X62672750Y25940434D01*
X63044697Y26094500D01*
X64971303Y26094500D01*
X65343250Y25940434D01*
X65399988Y25883697D01*
X65449756Y25850728D01*
X65508444Y25839781D01*
X65566753Y25852594D01*
X65612119Y25883697D01*
X65780697Y26052275D01*
X67019003Y26052275D01*
X67165450Y25905828D01*
X67165450Y24278522D01*
X67019003Y24132075D01*
X65780697Y24132075D01*
X65621794Y24290978D01*
X65572025Y24323947D01*
X65513338Y24334894D01*
X65455028Y24322081D01*
X65409663Y24290978D01*
X65343250Y24224566D01*
X64971303Y24070500D01*
X63044697Y24070500D01*
G37*
G36*
X25202447Y1782000D02*
X25056000Y1928447D01*
X25056000Y3735553D01*
X25202447Y3882000D01*
X25406000Y3882000D01*
X25464506Y3893881D01*
X25513744Y3927638D01*
X25545916Y3977928D01*
X25556000Y4032000D01*
X25556000Y9632000D01*
X25544119Y9690506D01*
X25510363Y9739744D01*
X25460072Y9771916D01*
X25406000Y9782000D01*
X25202447Y9782000D01*
X25056000Y9928447D01*
X25056000Y11083472D01*
X25044119Y11141978D01*
X25012066Y11189538D01*
X23492638Y12708966D01*
X23442869Y12741934D01*
X23386572Y12752900D01*
X20058500Y12752900D01*
X19999994Y12741019D01*
X19950756Y12707263D01*
X19918584Y12656972D01*
X19908500Y12602900D01*
X19908500Y12583747D01*
X19762053Y12437300D01*
X18134747Y12437300D01*
X17988300Y12583747D01*
X17988300Y12647000D01*
X17976419Y12705506D01*
X17942663Y12754744D01*
X17892372Y12786916D01*
X17838300Y12797000D01*
X17287050Y12797000D01*
X17228544Y12785119D01*
X17179306Y12751363D01*
X17147134Y12701072D01*
X17137050Y12647000D01*
X17137050Y12561147D01*
X16990603Y12414700D01*
X15388984Y12414700D01*
X15330478Y12402819D01*
X15281241Y12369063D01*
X15249069Y12318772D01*
X15239059Y12259919D01*
X15252800Y12201822D01*
X15282919Y12158634D01*
X15336500Y12105053D01*
X15336500Y10866747D01*
X15190053Y10720300D01*
X13562747Y10720300D01*
X13416300Y10866747D01*
X13416300Y10885900D01*
X13404419Y10944406D01*
X13370663Y10993644D01*
X13320372Y11025816D01*
X13266300Y11035900D01*
X13118103Y11035900D01*
X12798566Y11355438D01*
X12748797Y11388406D01*
X12690109Y11399353D01*
X12631800Y11386541D01*
X12583106Y11352003D01*
X12551741Y11301206D01*
X12542500Y11249372D01*
X12542500Y10866747D01*
X12396053Y10720300D01*
X10768747Y10720300D01*
X10622300Y10866747D01*
X10622300Y12105053D01*
X10768747Y12251500D01*
X11011616Y12251500D01*
X11070122Y12263381D01*
X11119359Y12297138D01*
X11151531Y12347428D01*
X11161541Y12406281D01*
X11152400Y12444928D01*
X11152400Y14079953D01*
X11298847Y14226400D01*
X12186716Y14226400D01*
X12245222Y14238281D01*
X12294459Y14272038D01*
X12326631Y14322328D01*
X12336641Y14381181D01*
X12322900Y14439278D01*
X12292781Y14482466D01*
X12102400Y14672847D01*
X12102400Y14690800D01*
X12090519Y14749306D01*
X12056763Y14798544D01*
X12006472Y14830716D01*
X11952400Y14840800D01*
X10432613Y14840800D01*
X10374106Y14828919D01*
X10324869Y14795163D01*
X10294031Y14748203D01*
X10281334Y14717550D01*
X9996650Y14432866D01*
X9624703Y14278800D01*
X7698097Y14278800D01*
X7326150Y14432866D01*
X7041466Y14717550D01*
X6887400Y15089497D01*
X6887400Y15492103D01*
X7041466Y15864050D01*
X7326150Y16148734D01*
X7698097Y16302800D01*
X9624703Y16302800D01*
X9996650Y16148734D01*
X10281334Y15864050D01*
X10294031Y15833397D01*
X10327397Y15783891D01*
X10377428Y15751319D01*
X10432613Y15740800D01*
X11952400Y15740800D01*
X12010906Y15752681D01*
X12060144Y15786438D01*
X12092316Y15836728D01*
X12102400Y15890800D01*
X12102400Y16279953D01*
X12248847Y16426400D01*
X13455953Y16426400D01*
X13602400Y16279953D01*
X13602400Y14672847D01*
X13412019Y14482466D01*
X13379050Y14432697D01*
X13368103Y14374009D01*
X13380916Y14315700D01*
X13415453Y14267006D01*
X13466250Y14235641D01*
X13518084Y14226400D01*
X14405953Y14226400D01*
X14552400Y14079953D01*
X14552400Y13847000D01*
X14564281Y13788494D01*
X14598038Y13739256D01*
X14648328Y13707084D01*
X14702400Y13697000D01*
X15021750Y13697000D01*
X15080256Y13708881D01*
X15129494Y13742638D01*
X15161666Y13792928D01*
X15171750Y13847000D01*
X15171750Y13932853D01*
X15252403Y14013506D01*
X15285372Y14063275D01*
X15296319Y14121963D01*
X15283506Y14180272D01*
X15252403Y14225641D01*
X15167750Y14310291D01*
X15167750Y14921600D01*
X17141050Y14921600D01*
X17141050Y14310288D01*
X17056400Y14225638D01*
X17023431Y14175869D01*
X17012484Y14117181D01*
X17025297Y14058872D01*
X17056397Y14013506D01*
X17137050Y13932850D01*
X17137050Y13847000D01*
X17148931Y13788494D01*
X17182688Y13739256D01*
X17232978Y13707084D01*
X17287050Y13697000D01*
X17838300Y13697000D01*
X17896806Y13708881D01*
X17946044Y13742638D01*
X17978216Y13792928D01*
X17982581Y13816334D01*
X18134747Y13968500D01*
X19762053Y13968500D01*
X19908500Y13822053D01*
X19908500Y13802900D01*
X19920381Y13744394D01*
X19954138Y13695156D01*
X20004428Y13662984D01*
X20058500Y13652900D01*
X23821497Y13652900D01*
X25548463Y11925934D01*
X25598231Y11892966D01*
X25654528Y11882000D01*
X26357472Y11882000D01*
X26415978Y11893881D01*
X26463538Y11925934D01*
X31002066Y16464463D01*
X31035034Y16514231D01*
X31046000Y16570528D01*
X31046000Y22476563D01*
X31034119Y22535069D01*
X31002066Y22582628D01*
X30881372Y22703322D01*
X30771000Y22969788D01*
X30771000Y23258213D01*
X30881372Y23524678D01*
X31085322Y23728628D01*
X31351788Y23839000D01*
X31640213Y23839000D01*
X31906678Y23728628D01*
X32110628Y23524678D01*
X32221000Y23258213D01*
X32221000Y22969788D01*
X32110628Y22703322D01*
X31989934Y22582628D01*
X31956966Y22532859D01*
X31946000Y22476563D01*
X31946000Y16135603D01*
X26999934Y11189538D01*
X26966966Y11139769D01*
X26956000Y11083472D01*
X26956000Y9928447D01*
X26809553Y9782000D01*
X26606000Y9782000D01*
X26547494Y9770119D01*
X26498256Y9736363D01*
X26466084Y9686072D01*
X26456000Y9632000D01*
X26456000Y4032000D01*
X26467881Y3973494D01*
X26501638Y3924256D01*
X26551928Y3892084D01*
X26606000Y3882000D01*
X26809553Y3882000D01*
X26956000Y3735553D01*
X26956000Y1928447D01*
X26809553Y1782000D01*
X25202447Y1782000D01*
G37*
G36*
X63044697Y21530500D02*
X62672750Y21684566D01*
X62388066Y21969250D01*
X62234000Y22341197D01*
X62234000Y22743803D01*
X62388066Y23115750D01*
X62672750Y23400434D01*
X63044697Y23554500D01*
X64971303Y23554500D01*
X65343250Y23400434D01*
X65398475Y23345209D01*
X65448244Y23312241D01*
X65506931Y23301294D01*
X65565241Y23314106D01*
X65610606Y23345209D01*
X65780697Y23515300D01*
X67019003Y23515300D01*
X67165450Y23368853D01*
X67165450Y21741547D01*
X67019003Y21595100D01*
X65780697Y21595100D01*
X65623306Y21752491D01*
X65573538Y21785459D01*
X65514850Y21796406D01*
X65456541Y21783594D01*
X65411175Y21752491D01*
X65343250Y21684566D01*
X64971303Y21530500D01*
X63044697Y21530500D01*
G37*
G36*
X10637500Y22281075D02*
X10637500Y23168975D01*
X11182113Y23168975D01*
X11330900Y23020188D01*
X11330900Y22281075D01*
X10637500Y22281075D01*
G37*
G36*
X5319347Y20357900D02*
X5163466Y20513781D01*
X5113697Y20546750D01*
X5055009Y20557697D01*
X4996700Y20544884D01*
X4951334Y20513781D01*
X4805553Y20368000D01*
X3698447Y20368000D01*
X3552000Y20514447D01*
X3552000Y22121553D01*
X3698447Y22268000D01*
X4805553Y22268000D01*
X4951334Y22122219D01*
X5001103Y22089250D01*
X5059791Y22078303D01*
X5118100Y22091116D01*
X5163466Y22122219D01*
X5319347Y22278100D01*
X6557653Y22278100D01*
X6704100Y22131653D01*
X6704100Y20504347D01*
X6557653Y20357900D01*
X5319347Y20357900D01*
G37*
G36*
X10637500Y21240775D02*
X10637500Y22128675D01*
X11330900Y22128675D01*
X11330900Y21389563D01*
X11182113Y21240775D01*
X10637500Y21240775D01*
G37*
G36*
X95496200Y19498200D02*
X95496200Y20676000D01*
X95975213Y20676000D01*
X96124000Y20527213D01*
X96124000Y19498200D01*
X95496200Y19498200D01*
G37*
G36*
X66380947Y17658100D02*
X66234500Y17804547D01*
X66234500Y18018200D01*
X66222619Y18076706D01*
X66188863Y18125944D01*
X66138572Y18158116D01*
X66084500Y18168200D01*
X65849100Y18168200D01*
X65790594Y18156319D01*
X65741356Y18122563D01*
X65709184Y18072272D01*
X65699100Y18018200D01*
X65699100Y17814647D01*
X65552653Y17668200D01*
X64445547Y17668200D01*
X64299100Y17814647D01*
X64299100Y19421753D01*
X64445547Y19568200D01*
X65552653Y19568200D01*
X65699100Y19421753D01*
X65699100Y19218200D01*
X65710981Y19159694D01*
X65744738Y19110456D01*
X65795028Y19078284D01*
X65849100Y19068200D01*
X66084500Y19068200D01*
X66143006Y19080081D01*
X66192244Y19113838D01*
X66224416Y19164128D01*
X66234500Y19218200D01*
X66234500Y19431853D01*
X66380947Y19578300D01*
X67619253Y19578300D01*
X67765700Y19431853D01*
X67765700Y17804547D01*
X67619253Y17658100D01*
X66380947Y17658100D01*
G37*
G36*
X63175300Y18694400D02*
X63175300Y19572200D01*
X63654313Y19572200D01*
X63803100Y19423413D01*
X63803100Y18694400D01*
X63175300Y18694400D01*
G37*
G36*
X62395100Y18694400D02*
X62395100Y19423413D01*
X62543888Y19572200D01*
X63022900Y19572200D01*
X63022900Y18694400D01*
X62395100Y18694400D01*
G37*
G36*
X95496200Y18168000D02*
X95496200Y19345800D01*
X96124000Y19345800D01*
X96124000Y18316788D01*
X95975213Y18168000D01*
X95496200Y18168000D01*
G37*
G36*
X35451303Y16913000D02*
X35010256Y17095688D01*
X34672688Y17433256D01*
X34490000Y17874303D01*
X34490000Y18351697D01*
X34672688Y18792744D01*
X35010256Y19130313D01*
X35451303Y19313000D01*
X35928697Y19313000D01*
X36369744Y19130313D01*
X36707313Y18792744D01*
X36890000Y18351697D01*
X36890000Y17874303D01*
X36707313Y17433256D01*
X36369744Y17095688D01*
X35928697Y16913000D01*
X35451303Y16913000D01*
G37*
G36*
X58691303Y16913000D02*
X58250256Y17095688D01*
X57912688Y17433256D01*
X57730000Y17874303D01*
X57730000Y18351697D01*
X57912688Y18792744D01*
X58250256Y19130313D01*
X58691303Y19313000D01*
X59168697Y19313000D01*
X59609744Y19130313D01*
X59947313Y18792744D01*
X60130000Y18351697D01*
X60130000Y17874303D01*
X59947313Y17433256D01*
X59609744Y17095688D01*
X59168697Y16913000D01*
X58691303Y16913000D01*
G37*
G36*
X55046200Y17889200D02*
X55046200Y18956000D01*
X55197359Y18956000D01*
X55617456Y18781991D01*
X55938991Y18460456D01*
X56113000Y18040359D01*
X56113000Y17889200D01*
X55046200Y17889200D01*
G37*
G36*
X39806200Y16670000D02*
X39806200Y18956000D01*
X39957359Y18956000D01*
X40377456Y18781991D01*
X40698991Y18460456D01*
X40861419Y18068319D01*
X40894781Y18018813D01*
X40944813Y17986244D01*
X41003588Y17975766D01*
X41061791Y17989041D01*
X41110206Y18023966D01*
X41138581Y18068319D01*
X41301009Y18460456D01*
X41622544Y18781991D01*
X42042641Y18956000D01*
X42193800Y18956000D01*
X42193800Y16670000D01*
X42042641Y16670000D01*
X41622544Y16844009D01*
X41301009Y17165544D01*
X41138581Y17557681D01*
X41105219Y17607188D01*
X41055188Y17639756D01*
X40996413Y17650234D01*
X40938209Y17636959D01*
X40889794Y17602034D01*
X40861419Y17557681D01*
X40698991Y17165544D01*
X40377456Y16844009D01*
X39957359Y16670000D01*
X39806200Y16670000D01*
G37*
G36*
X38587000Y17889200D02*
X38587000Y18040359D01*
X38761009Y18460456D01*
X39082544Y18781991D01*
X39502641Y18956000D01*
X39653800Y18956000D01*
X39653800Y17889200D01*
X38587000Y17889200D01*
G37*
G36*
X62543888Y17664200D02*
X62395100Y17812988D01*
X62395100Y18542000D01*
X63022900Y18542000D01*
X63022900Y17664200D01*
X62543888Y17664200D01*
G37*
G36*
X63175300Y17664200D02*
X63175300Y18542000D01*
X63803100Y18542000D01*
X63803100Y17812988D01*
X63654313Y17664200D01*
X63175300Y17664200D01*
G37*
G36*
X55046200Y16670000D02*
X55046200Y17736800D01*
X56113000Y17736800D01*
X56113000Y17585641D01*
X55938991Y17165544D01*
X55617456Y16844009D01*
X55197359Y16670000D01*
X55046200Y16670000D01*
G37*
G36*
X39502641Y16670000D02*
X39082544Y16844009D01*
X38761009Y17165544D01*
X38587000Y17585641D01*
X38587000Y17736800D01*
X39653800Y17736800D01*
X39653800Y16670000D01*
X39502641Y16670000D01*
G37*
G36*
X15167750Y15074000D02*
X15167750Y15685313D01*
X15316538Y15834100D01*
X16078200Y15834100D01*
X16078200Y15074000D01*
X15167750Y15074000D01*
G37*
G36*
X16230600Y15074000D02*
X16230600Y15834100D01*
X16992263Y15834100D01*
X17141050Y15685313D01*
X17141050Y15074000D01*
X16230600Y15074000D01*
G37*
G36*
X7698097Y11738800D02*
X7326150Y11892866D01*
X7041466Y12177550D01*
X6887400Y12549497D01*
X6887400Y12952103D01*
X7041466Y13324050D01*
X7326150Y13608734D01*
X7698097Y13762800D01*
X9624703Y13762800D01*
X9996650Y13608734D01*
X10281334Y13324050D01*
X10435400Y12952103D01*
X10435400Y12549497D01*
X10281334Y12177550D01*
X9996650Y11892866D01*
X9624703Y11738800D01*
X7698097Y11738800D01*
G37*
G36*
X16820447Y1782000D02*
X16674000Y1928447D01*
X16674000Y2232000D01*
X16662119Y2290506D01*
X16628363Y2339744D01*
X16578072Y2371916D01*
X16524000Y2382000D01*
X15516903Y2382000D01*
X13236438Y4662466D01*
X13186669Y4695434D01*
X13130372Y4706400D01*
X12275347Y4706400D01*
X12128900Y4852847D01*
X12128900Y6459953D01*
X12319281Y6650334D01*
X12352250Y6700103D01*
X12363197Y6758791D01*
X12350384Y6817100D01*
X12315847Y6865794D01*
X12265050Y6897159D01*
X12213216Y6906400D01*
X11325347Y6906400D01*
X11178900Y7052847D01*
X11178900Y7070800D01*
X11167019Y7129306D01*
X11133263Y7178544D01*
X11082972Y7210716D01*
X11028900Y7220800D01*
X10432613Y7220800D01*
X10374106Y7208919D01*
X10324869Y7175163D01*
X10294031Y7128203D01*
X10281334Y7097550D01*
X9996650Y6812866D01*
X9624703Y6658800D01*
X7698097Y6658800D01*
X7326150Y6812866D01*
X7041466Y7097550D01*
X6887400Y7469497D01*
X6887400Y7872103D01*
X7041466Y8244050D01*
X7326150Y8528734D01*
X7698097Y8682800D01*
X9624703Y8682800D01*
X9996650Y8528734D01*
X10281334Y8244050D01*
X10294031Y8213397D01*
X10327397Y8163891D01*
X10377428Y8131319D01*
X10432613Y8120800D01*
X11028900Y8120800D01*
X11087406Y8132681D01*
X11136644Y8166438D01*
X11168816Y8216728D01*
X11178900Y8270800D01*
X11178900Y8684384D01*
X11188097Y8733691D01*
X11175284Y8792000D01*
X11140747Y8840694D01*
X11089950Y8872059D01*
X11038116Y8881300D01*
X10768747Y8881300D01*
X10622300Y9027747D01*
X10622300Y9706616D01*
X10610419Y9765122D01*
X10576663Y9814359D01*
X10526372Y9846531D01*
X10467519Y9856541D01*
X10409422Y9842800D01*
X10361284Y9807491D01*
X10333719Y9764019D01*
X10281334Y9637550D01*
X9996650Y9352866D01*
X9624703Y9198800D01*
X7698097Y9198800D01*
X7326150Y9352866D01*
X7041466Y9637550D01*
X6887400Y10009497D01*
X6887400Y10412103D01*
X7041466Y10784050D01*
X7326150Y11068734D01*
X7698097Y11222800D01*
X9624703Y11222800D01*
X9996650Y11068734D01*
X10281334Y10784050D01*
X10446819Y10384534D01*
X10446916Y10384575D01*
X10447281Y10382778D01*
X10481038Y10333541D01*
X10531328Y10301369D01*
X10590181Y10291359D01*
X10648278Y10305100D01*
X10691466Y10335219D01*
X10768747Y10412500D01*
X12396053Y10412500D01*
X12542500Y10266053D01*
X12542500Y9027747D01*
X12532869Y9018116D01*
X12499900Y8968347D01*
X12488953Y8909659D01*
X12501766Y8851350D01*
X12532869Y8805984D01*
X12678900Y8659953D01*
X12678900Y7052847D01*
X12488519Y6862466D01*
X12455550Y6812697D01*
X12444603Y6754009D01*
X12457416Y6695700D01*
X12491953Y6647006D01*
X12542750Y6615641D01*
X12594584Y6606400D01*
X13163216Y6606400D01*
X13221722Y6618281D01*
X13270959Y6652038D01*
X13303131Y6702328D01*
X13313141Y6761181D01*
X13299400Y6819278D01*
X13269281Y6862466D01*
X13078900Y7052847D01*
X13078900Y8659953D01*
X13225347Y8806400D01*
X13228900Y8806400D01*
X13287406Y8818281D01*
X13336644Y8852038D01*
X13368816Y8902328D01*
X13378900Y8956400D01*
X13378900Y9289128D01*
X13405334Y9329031D01*
X13416300Y9385328D01*
X13416300Y10266053D01*
X13562747Y10412500D01*
X15190053Y10412500D01*
X15336500Y10266053D01*
X15336500Y9027747D01*
X15190053Y8881300D01*
X14719684Y8881300D01*
X14661178Y8869419D01*
X14611941Y8835663D01*
X14579769Y8785372D01*
X14569759Y8726519D01*
X14578900Y8687872D01*
X14578900Y7052847D01*
X14432453Y6906400D01*
X13544584Y6906400D01*
X13486078Y6894519D01*
X13436841Y6860763D01*
X13404669Y6810472D01*
X13394659Y6751619D01*
X13408400Y6693522D01*
X13438519Y6650334D01*
X13628900Y6459953D01*
X13628900Y5604928D01*
X13640781Y5546422D01*
X13672834Y5498863D01*
X15845763Y3325934D01*
X15895531Y3292966D01*
X15951828Y3282000D01*
X16524000Y3282000D01*
X16582506Y3293881D01*
X16631744Y3327638D01*
X16663916Y3377928D01*
X16674000Y3432000D01*
X16674000Y3735553D01*
X16820447Y3882000D01*
X17024000Y3882000D01*
X17082506Y3893881D01*
X17131744Y3927638D01*
X17163916Y3977928D01*
X17174000Y4032000D01*
X17174000Y9632000D01*
X17162119Y9690506D01*
X17128363Y9739744D01*
X17078072Y9771916D01*
X17024000Y9782000D01*
X16820447Y9782000D01*
X16674000Y9928447D01*
X16674000Y11735553D01*
X16820447Y11882000D01*
X18427553Y11882000D01*
X18584306Y11725247D01*
X18585881Y11717494D01*
X18619638Y11668256D01*
X18669928Y11636084D01*
X18724000Y11626000D01*
X19174563Y11626000D01*
X19233069Y11637881D01*
X19280628Y11669934D01*
X19401322Y11790628D01*
X19667788Y11901000D01*
X19956213Y11901000D01*
X20222678Y11790628D01*
X20426628Y11586678D01*
X20537000Y11320213D01*
X20537000Y11031788D01*
X20426628Y10765322D01*
X20222678Y10561372D01*
X19956213Y10451000D01*
X19667788Y10451000D01*
X19401322Y10561372D01*
X19280628Y10682066D01*
X19230859Y10715034D01*
X19174563Y10726000D01*
X18724000Y10726000D01*
X18665494Y10714119D01*
X18616256Y10680363D01*
X18584084Y10630072D01*
X18574000Y10576000D01*
X18574000Y9928447D01*
X18427553Y9782000D01*
X18224000Y9782000D01*
X18165494Y9770119D01*
X18116256Y9736363D01*
X18084084Y9686072D01*
X18074000Y9632000D01*
X18074000Y4032000D01*
X18085881Y3973494D01*
X18119638Y3924256D01*
X18169928Y3892084D01*
X18224000Y3882000D01*
X18427553Y3882000D01*
X18574000Y3735553D01*
X18574000Y1928447D01*
X18427553Y1782000D01*
X16820447Y1782000D01*
G37*
G36*
X21170000Y10908200D02*
X21170000Y11737213D01*
X21318788Y11886000D01*
X22047800Y11886000D01*
X22047800Y10908200D01*
X21170000Y10908200D01*
G37*
G36*
X29552000Y10908200D02*
X29552000Y11737213D01*
X29700788Y11886000D01*
X30429800Y11886000D01*
X30429800Y10908200D01*
X29552000Y10908200D01*
G37*
G36*
X30582200Y10908200D02*
X30582200Y11886000D01*
X31311213Y11886000D01*
X31460000Y11737213D01*
X31460000Y10908200D01*
X30582200Y10908200D01*
G37*
G36*
X22200200Y10908200D02*
X22200200Y11886000D01*
X22929213Y11886000D01*
X23078000Y11737213D01*
X23078000Y10908200D01*
X22200200Y10908200D01*
G37*
G36*
X30582200Y9778000D02*
X30582200Y10755800D01*
X31460000Y10755800D01*
X31460000Y9926788D01*
X31311213Y9778000D01*
X30582200Y9778000D01*
G37*
G36*
X29700788Y9778000D02*
X29552000Y9926788D01*
X29552000Y10755800D01*
X30429800Y10755800D01*
X30429800Y9778000D01*
X29700788Y9778000D01*
G37*
G36*
X22200200Y9778000D02*
X22200200Y10755800D01*
X23078000Y10755800D01*
X23078000Y9926788D01*
X22929213Y9778000D01*
X22200200Y9778000D01*
G37*
G36*
X21318788Y9778000D02*
X21170000Y9926788D01*
X21170000Y10755800D01*
X22047800Y10755800D01*
X22047800Y9778000D01*
X21318788Y9778000D01*
G37*
G36*
X40982900Y7087225D02*
X40982900Y7826338D01*
X41131688Y7975125D01*
X41676300Y7975125D01*
X41676300Y7087225D01*
X40982900Y7087225D01*
G37*
G36*
X41828700Y7087225D02*
X41828700Y7975125D01*
X42373313Y7975125D01*
X42522100Y7826338D01*
X42522100Y7087225D01*
X41828700Y7087225D01*
G37*
G36*
X37415300Y6929100D02*
X37415300Y7473713D01*
X37564088Y7622500D01*
X38303200Y7622500D01*
X38303200Y6929100D01*
X37415300Y6929100D01*
G37*
G36*
X38455600Y6929100D02*
X38455600Y7622500D01*
X39194713Y7622500D01*
X39343500Y7473713D01*
X39343500Y6929100D01*
X38455600Y6929100D01*
G37*
G36*
X41131688Y6046925D02*
X40982900Y6195713D01*
X40982900Y6934825D01*
X41676300Y6934825D01*
X41676300Y6046925D01*
X41131688Y6046925D01*
G37*
G36*
X38455600Y6083300D02*
X38455600Y6776700D01*
X39343500Y6776700D01*
X39343500Y6232088D01*
X39194713Y6083300D01*
X38455600Y6083300D01*
G37*
G36*
X93555081Y607250D02*
X92885878Y786563D01*
X92285875Y1132975D01*
X91795975Y1622875D01*
X91449563Y2222878D01*
X91270250Y2892081D01*
X91270250Y3584919D01*
X91449563Y4254122D01*
X91795975Y4854125D01*
X92285875Y5344025D01*
X92885878Y5690438D01*
X93555081Y5869750D01*
X94247919Y5869750D01*
X94917122Y5690438D01*
X95517125Y5344025D01*
X96007025Y4854125D01*
X96353438Y4254122D01*
X96532750Y3584919D01*
X96532750Y2892081D01*
X96353438Y2222878D01*
X96007025Y1622875D01*
X95517125Y1132975D01*
X94917122Y786563D01*
X94247919Y607250D01*
X93555081Y607250D01*
G37*
G36*
X2892081Y607250D02*
X2222878Y786563D01*
X1622875Y1132975D01*
X1132975Y1622875D01*
X786563Y2222878D01*
X607250Y2892081D01*
X607250Y3584919D01*
X786563Y4254122D01*
X1132975Y4854125D01*
X1622875Y5344025D01*
X2222878Y5690438D01*
X2892081Y5869750D01*
X3584919Y5869750D01*
X4254122Y5690438D01*
X4854125Y5344025D01*
X5344025Y4854125D01*
X5690438Y4254122D01*
X5869750Y3584919D01*
X5869750Y2892081D01*
X5690438Y2222878D01*
X5344025Y1622875D01*
X4854125Y1132975D01*
X4254122Y786563D01*
X3584919Y607250D01*
X2892081Y607250D01*
G37*
G36*
X56841250Y3277225D02*
X56841250Y4979025D01*
X56967147Y4979025D01*
X57340569Y4824350D01*
X57626375Y4538544D01*
X57781050Y4165122D01*
X57781050Y3277225D01*
X56841250Y3277225D01*
G37*
G36*
X55749050Y3277225D02*
X55749050Y4165122D01*
X55903725Y4538544D01*
X56189531Y4824350D01*
X56562953Y4979025D01*
X56688850Y4979025D01*
X56688850Y3277225D01*
X55749050Y3277225D01*
G37*
G36*
X48943747Y1427025D02*
X48571800Y1581091D01*
X48287116Y1865775D01*
X48133050Y2237722D01*
X48133050Y4164328D01*
X48287116Y4536275D01*
X48571800Y4820959D01*
X48943747Y4975025D01*
X49346353Y4975025D01*
X49718300Y4820959D01*
X50002984Y4536275D01*
X50157050Y4164328D01*
X50157050Y2237722D01*
X50002984Y1865775D01*
X49718300Y1581091D01*
X49346353Y1427025D01*
X48943747Y1427025D01*
G37*
G36*
X7570856Y1397000D02*
X7010725Y1629013D01*
X6582013Y2057725D01*
X6350000Y2617856D01*
X6350000Y3224144D01*
X6582013Y3784275D01*
X7010725Y4212988D01*
X7570856Y4445000D01*
X8177144Y4445000D01*
X8737275Y4212988D01*
X9165988Y3784275D01*
X9398000Y3224144D01*
X9398000Y2617856D01*
X9165988Y2057725D01*
X8737275Y1629013D01*
X8177144Y1397000D01*
X7570856Y1397000D01*
G37*
G36*
X88850856Y1397000D02*
X88290725Y1629013D01*
X87862013Y2057725D01*
X87630000Y2617856D01*
X87630000Y3224144D01*
X87862013Y3784275D01*
X88290725Y4212988D01*
X88850856Y4445000D01*
X89457144Y4445000D01*
X90017275Y4212988D01*
X90445988Y3784275D01*
X90678000Y3224144D01*
X90678000Y2617856D01*
X90445988Y2057725D01*
X90017275Y1629013D01*
X89457144Y1397000D01*
X88850856Y1397000D01*
G37*
G36*
X29552000Y2908200D02*
X29552000Y3737213D01*
X29700788Y3886000D01*
X30429800Y3886000D01*
X30429800Y2908200D01*
X29552000Y2908200D01*
G37*
G36*
X21170000Y2908200D02*
X21170000Y3737213D01*
X21318788Y3886000D01*
X22047800Y3886000D01*
X22047800Y2908200D01*
X21170000Y2908200D01*
G37*
G36*
X22200200Y2908200D02*
X22200200Y3886000D01*
X22929213Y3886000D01*
X23078000Y3737213D01*
X23078000Y2908200D01*
X22200200Y2908200D01*
G37*
G36*
X30582200Y2908200D02*
X30582200Y3886000D01*
X31311213Y3886000D01*
X31460000Y3737213D01*
X31460000Y2908200D01*
X30582200Y2908200D01*
G37*
G36*
X43573700Y1453650D02*
X43573700Y3155450D01*
X44513500Y3155450D01*
X44513500Y2267553D01*
X44358825Y1894131D01*
X44073019Y1608325D01*
X43699597Y1453650D01*
X43573700Y1453650D01*
G37*
G36*
X43295403Y1453650D02*
X42921981Y1608325D01*
X42636175Y1894131D01*
X42481500Y2267553D01*
X42481500Y3155450D01*
X43421300Y3155450D01*
X43421300Y1453650D01*
X43295403Y1453650D01*
G37*
G36*
X56841250Y1423025D02*
X56841250Y3124825D01*
X57781050Y3124825D01*
X57781050Y2236928D01*
X57626375Y1863506D01*
X57340569Y1577700D01*
X56967147Y1423025D01*
X56841250Y1423025D01*
G37*
G36*
X56562953Y1423025D02*
X56189531Y1577700D01*
X55903725Y1863506D01*
X55749050Y2236928D01*
X55749050Y3124825D01*
X56688850Y3124825D01*
X56688850Y1423025D01*
X56562953Y1423025D01*
G37*
G36*
X30582200Y1778000D02*
X30582200Y2755800D01*
X31460000Y2755800D01*
X31460000Y1926788D01*
X31311213Y1778000D01*
X30582200Y1778000D01*
G37*
G36*
X29700788Y1778000D02*
X29552000Y1926788D01*
X29552000Y2755800D01*
X30429800Y2755800D01*
X30429800Y1778000D01*
X29700788Y1778000D01*
G37*
G36*
X22200200Y1778000D02*
X22200200Y2755800D01*
X23078000Y2755800D01*
X23078000Y1926788D01*
X22929213Y1778000D01*
X22200200Y1778000D01*
G37*
G36*
X21318788Y1778000D02*
X21170000Y1926788D01*
X21170000Y2755800D01*
X22047800Y2755800D01*
X22047800Y1778000D01*
X21318788Y1778000D01*
G37*
%LPD*%
G36*
X5616794Y35371694D02*
X5665209Y35406622D01*
X5693581Y35450972D01*
X5741891Y35567597D01*
X5753303Y35626194D01*
X5740959Y35684603D01*
X5706809Y35733572D01*
X5656266Y35765341D01*
X5603309Y35775000D01*
X5506691Y35775000D01*
X5448184Y35763119D01*
X5398947Y35729363D01*
X5366775Y35679072D01*
X5356766Y35620219D01*
X5368109Y35567597D01*
X5416419Y35450972D01*
X5449784Y35401466D01*
X5499816Y35368894D01*
X5558588Y35358419D01*
X5616794Y35371694D01*
G37*
G36*
X20383531Y34658347D02*
X20428897Y34689450D01*
X20550381Y34810934D01*
X20583350Y34860703D01*
X20594297Y34919391D01*
X20581484Y34977700D01*
X20546947Y35026394D01*
X20496150Y35057759D01*
X20444316Y35067000D01*
X20201344Y35067000D01*
X20142838Y35055119D01*
X20093600Y35021363D01*
X20061428Y34971072D01*
X20051419Y34912219D01*
X20065159Y34854122D01*
X20095278Y34810931D01*
X20216766Y34689447D01*
X20266538Y34656481D01*
X20325225Y34645534D01*
X20383531Y34658347D01*
G37*
G36*
X20293278Y29059744D02*
X20336466Y29089863D01*
X20566466Y29319863D01*
X20599434Y29369631D01*
X20610400Y29425928D01*
X20610400Y30000953D01*
X20751466Y30142019D01*
X20784434Y30191788D01*
X20795400Y30248084D01*
X20795400Y30363350D01*
X20783519Y30421856D01*
X20749763Y30471094D01*
X20699472Y30503266D01*
X20645400Y30513350D01*
X20509550Y30513350D01*
X20428900Y30594003D01*
X20379128Y30626972D01*
X20320441Y30637919D01*
X20262134Y30625109D01*
X20216766Y30594003D01*
X20132113Y30509350D01*
X19520800Y30509350D01*
X19520800Y32482650D01*
X20132109Y32482650D01*
X20216766Y32397997D01*
X20266538Y32365031D01*
X20325225Y32354084D01*
X20383531Y32366897D01*
X20428897Y32398000D01*
X20509547Y32478650D01*
X20595400Y32478650D01*
X20653906Y32490531D01*
X20703144Y32524288D01*
X20735316Y32574578D01*
X20745400Y32628650D01*
X20745400Y32647000D01*
X20733519Y32705506D01*
X20699763Y32754744D01*
X20649472Y32786916D01*
X20595400Y32797000D01*
X20506450Y32797000D01*
X20428900Y32874553D01*
X20379128Y32907522D01*
X20320441Y32918469D01*
X20262134Y32905659D01*
X20216766Y32874553D01*
X20135213Y32793000D01*
X19596200Y32793000D01*
X19596200Y33858200D01*
X19443800Y33858200D01*
X19443800Y32793000D01*
X18853494Y32793000D01*
X18837209Y32796038D01*
X18778900Y32783225D01*
X18730206Y32748688D01*
X18698841Y32697891D01*
X18689600Y32646056D01*
X18689600Y32632650D01*
X18701481Y32574144D01*
X18735238Y32524906D01*
X18785528Y32492734D01*
X18839600Y32482650D01*
X19368400Y32482650D01*
X19368400Y30509350D01*
X18776016Y30509350D01*
X18717509Y30497469D01*
X18668272Y30463713D01*
X18636100Y30413422D01*
X18626091Y30354569D01*
X18639831Y30296472D01*
X18669950Y30253284D01*
X18760275Y30162959D01*
X18810044Y30129991D01*
X18868731Y30119044D01*
X18927041Y30131856D01*
X18949713Y30147400D01*
X19933953Y30147400D01*
X20080400Y30000953D01*
X20080400Y29195928D01*
X20092281Y29137422D01*
X20126038Y29088184D01*
X20176328Y29056013D01*
X20235181Y29046003D01*
X20293278Y29059744D01*
G37*
G36*
X5661816Y28752881D02*
X5711053Y28786638D01*
X5743225Y28836928D01*
X5753234Y28895781D01*
X5741891Y28948403D01*
X5693581Y29065028D01*
X5660216Y29114534D01*
X5610184Y29147106D01*
X5551413Y29157581D01*
X5493206Y29144306D01*
X5444791Y29109378D01*
X5416419Y29065028D01*
X5368109Y28948403D01*
X5356697Y28889806D01*
X5369041Y28831397D01*
X5403191Y28782428D01*
X5453734Y28750659D01*
X5506691Y28741000D01*
X5603309Y28741000D01*
X5661816Y28752881D01*
G37*
G36*
X69237781Y1480281D02*
X69287019Y1514038D01*
X69319191Y1564328D01*
X69329200Y1623181D01*
X69315459Y1681278D01*
X69285341Y1724466D01*
X69115675Y1894131D01*
X68961000Y2267553D01*
X68961000Y3155450D01*
X70993000Y3155450D01*
X70993000Y2267553D01*
X70838325Y1894131D01*
X70668659Y1724466D01*
X70635691Y1674697D01*
X70624744Y1616009D01*
X70637556Y1557700D01*
X70672094Y1509006D01*
X70722891Y1477641D01*
X70774725Y1468400D01*
X75509534Y1468400D01*
X75568041Y1480281D01*
X75617278Y1514038D01*
X75649450Y1564328D01*
X75659459Y1623181D01*
X75645719Y1681278D01*
X75615600Y1724466D01*
X75443666Y1896400D01*
X75289600Y2268347D01*
X75289600Y3469884D01*
X75277719Y3528391D01*
X75245666Y3575950D01*
X75234906Y3586709D01*
X75158300Y3771656D01*
X75158300Y5233050D01*
X75146419Y5291556D01*
X75112663Y5340794D01*
X75062372Y5372966D01*
X75050153Y5375244D01*
X74895900Y5529497D01*
X74895900Y5689950D01*
X74884019Y5748456D01*
X74850263Y5797694D01*
X74799972Y5829866D01*
X74745900Y5839950D01*
X71710500Y5839950D01*
X71651994Y5828069D01*
X71602756Y5794313D01*
X71570584Y5744022D01*
X71560500Y5689950D01*
X71560500Y5529497D01*
X71414053Y5383050D01*
X70175747Y5383050D01*
X70029300Y5529497D01*
X70029300Y7156803D01*
X70175747Y7303250D01*
X71414053Y7303250D01*
X71560500Y7156803D01*
X71560500Y6996350D01*
X71572381Y6937844D01*
X71606138Y6888606D01*
X71656428Y6856434D01*
X71710500Y6846350D01*
X74745900Y6846350D01*
X74804406Y6858231D01*
X74853644Y6891988D01*
X74885816Y6942278D01*
X74895900Y6996350D01*
X74895900Y7156803D01*
X75042347Y7303250D01*
X76280653Y7303250D01*
X76427100Y7156803D01*
X76427100Y5529497D01*
X76271978Y5374375D01*
X76256194Y5371169D01*
X76206956Y5337413D01*
X76174784Y5287122D01*
X76164700Y5233050D01*
X76164700Y5155650D01*
X76176581Y5097144D01*
X76210338Y5047906D01*
X76260628Y5015734D01*
X76314700Y5005650D01*
X76502903Y5005650D01*
X76887916Y4846172D01*
X76946516Y4834759D01*
X77004922Y4847103D01*
X77053891Y4881253D01*
X77085659Y4931797D01*
X77095200Y4990728D01*
X77080997Y5048716D01*
X77051384Y5090819D01*
X77050500Y5091703D01*
X77050500Y5233050D01*
X77038619Y5291556D01*
X77004863Y5340794D01*
X76954572Y5372966D01*
X76900500Y5383050D01*
X76881347Y5383050D01*
X76734900Y5529497D01*
X76734900Y7156803D01*
X76881347Y7303250D01*
X76900500Y7303250D01*
X76959006Y7315131D01*
X77008244Y7348888D01*
X77040416Y7399178D01*
X77050500Y7453250D01*
X77050500Y7989297D01*
X78426603Y9365400D01*
X80726672Y9365400D01*
X80785178Y9377281D01*
X80832738Y9409334D01*
X81563138Y10139734D01*
X81596106Y10189503D01*
X81607053Y10248191D01*
X81594241Y10306500D01*
X81559703Y10355194D01*
X81508906Y10386559D01*
X81457072Y10395800D01*
X72028928Y10395800D01*
X71970422Y10383919D01*
X71922863Y10351866D01*
X69449834Y7878838D01*
X69416866Y7829069D01*
X69405900Y7772772D01*
X69405900Y7453250D01*
X69417781Y7394744D01*
X69451538Y7345506D01*
X69501828Y7313334D01*
X69555900Y7303250D01*
X69575053Y7303250D01*
X69721500Y7156803D01*
X69721500Y5529497D01*
X69575053Y5383050D01*
X69555900Y5383050D01*
X69497394Y5371169D01*
X69448156Y5337413D01*
X69415984Y5287122D01*
X69405900Y5233050D01*
X69405900Y5081294D01*
X69417781Y5022788D01*
X69451538Y4973550D01*
X69501828Y4941378D01*
X69560681Y4931369D01*
X69613303Y4942713D01*
X69774903Y5009650D01*
X69900800Y5009650D01*
X69900800Y3307850D01*
X68961000Y3307850D01*
X68961000Y4081472D01*
X68949119Y4139978D01*
X68915363Y4189216D01*
X68865072Y4221388D01*
X68806219Y4231397D01*
X68748122Y4217656D01*
X68704934Y4187538D01*
X68492934Y3975538D01*
X68459966Y3925769D01*
X68449000Y3869472D01*
X68449000Y2268347D01*
X68294934Y1896400D01*
X68123000Y1724466D01*
X68090031Y1674697D01*
X68079084Y1616009D01*
X68091897Y1557700D01*
X68126434Y1509006D01*
X68177231Y1477641D01*
X68229066Y1468400D01*
X69179275Y1468400D01*
X69237781Y1480281D01*
G37*
%LPC*%
G36*
X70053200Y3307850D02*
X70053200Y5009650D01*
X70179097Y5009650D01*
X70552519Y4854975D01*
X70838325Y4569169D01*
X70993000Y4195747D01*
X70993000Y3307850D01*
X70053200Y3307850D01*
G37*
%LPD*%
G36*
X83182381Y1480281D02*
X83231619Y1514038D01*
X83263791Y1564328D01*
X83273800Y1623181D01*
X83260059Y1681278D01*
X83229941Y1724466D01*
X83060275Y1894131D01*
X82905600Y2267553D01*
X82905600Y3155450D01*
X84937600Y3155450D01*
X84937600Y2267556D01*
X84898281Y2172631D01*
X84886869Y2114031D01*
X84899213Y2055625D01*
X84933363Y2006656D01*
X84983906Y1974888D01*
X85042838Y1965347D01*
X85100825Y1979550D01*
X85142928Y2009163D01*
X85304866Y2171100D01*
X85337834Y2220869D01*
X85348800Y2277166D01*
X85348800Y4833084D01*
X85336919Y4891591D01*
X85304866Y4939150D01*
X84904900Y5339116D01*
X84855131Y5372084D01*
X84798834Y5383050D01*
X83993347Y5383050D01*
X83846900Y5529497D01*
X83846900Y6902372D01*
X83835019Y6960878D01*
X83801263Y7010116D01*
X83750972Y7042288D01*
X83692119Y7052297D01*
X83634022Y7038556D01*
X83590834Y7008438D01*
X83583034Y7000638D01*
X83550066Y6950869D01*
X83539100Y6894572D01*
X83539100Y5529497D01*
X83392653Y5383050D01*
X83373500Y5383050D01*
X83314994Y5371169D01*
X83265756Y5337413D01*
X83233584Y5287122D01*
X83223500Y5233050D01*
X83223500Y5028691D01*
X83235381Y4970184D01*
X83269138Y4920947D01*
X83319428Y4888775D01*
X83378281Y4878766D01*
X83430903Y4890109D01*
X83719503Y5009650D01*
X83845400Y5009650D01*
X83845400Y3307850D01*
X82905600Y3307850D01*
X82905600Y4195747D01*
X83007806Y4442494D01*
X83019219Y4501094D01*
X83006875Y4559500D01*
X82972725Y4608469D01*
X82922181Y4640238D01*
X82863250Y4649778D01*
X82805263Y4635575D01*
X82763159Y4605963D01*
X82437534Y4280338D01*
X82404566Y4230569D01*
X82393600Y4174272D01*
X82393600Y2268347D01*
X82239534Y1896400D01*
X82067600Y1724466D01*
X82034631Y1674697D01*
X82023684Y1616009D01*
X82036497Y1557700D01*
X82071034Y1509006D01*
X82121831Y1477641D01*
X82173666Y1468400D01*
X83123875Y1468400D01*
X83182381Y1480281D01*
G37*
%LPC*%
G36*
X83997800Y3307850D02*
X83997800Y5009650D01*
X84123697Y5009650D01*
X84497119Y4854975D01*
X84782925Y4569169D01*
X84937600Y4195747D01*
X84937600Y3307850D01*
X83997800Y3307850D01*
G37*
%LPD*%
D10*
X30175200Y46736000D02*
X30175200Y48260000D01*
X32715200Y48260000D02*
X32715200Y46736000D01*
X18237200Y46736000D02*
X18237200Y48260000D01*
X20777200Y48260000D02*
X20777200Y46736000D01*
X3683000Y43002200D02*
X2159000Y43002200D01*
X2159000Y40462200D02*
X3683000Y40462200D01*
D11*
X11379200Y38721400D03*
X11379200Y36970600D03*
D12*
X25654000Y25692000D03*
X25654000Y24092000D03*
D11*
X28448000Y25767400D03*
X28448000Y24016600D03*
D13*
X95287700Y40386000D03*
X93536900Y40386000D03*
X95287700Y43180000D03*
X93536900Y43180000D03*
D14*
X19520000Y33782000D03*
X21120000Y33782000D03*
D13*
X19444600Y31496000D03*
X21195400Y31496000D03*
D11*
X23063200Y42277400D03*
X23063200Y40526600D03*
X23063200Y38721400D03*
X23063200Y36970600D03*
X16154400Y14997800D03*
X16154400Y13247000D03*
D15*
X27940000Y19812000D03*
D16*
X25589000Y19812000D03*
D15*
X27940000Y29464000D03*
D16*
X25589000Y29464000D03*
D17*
X21245400Y29362400D03*
X19445400Y29362400D03*
D10*
X76301600Y3993650D02*
X76301600Y2469650D01*
X78841600Y2469650D02*
X78841600Y3993650D01*
X81381600Y3993650D02*
X81381600Y2469650D01*
X83921600Y2469650D02*
X83921600Y3993650D01*
X49145050Y3963025D02*
X49145050Y2439025D01*
X51685050Y2439025D02*
X51685050Y3963025D01*
X54225050Y3963025D02*
X54225050Y2439025D01*
X56765050Y2439025D02*
X56765050Y3963025D01*
X62357000Y3993650D02*
X62357000Y2469650D01*
X64897000Y2469650D02*
X64897000Y3993650D01*
X67437000Y3993650D02*
X67437000Y2469650D01*
X69977000Y2469650D02*
X69977000Y3993650D01*
D18*
X95420000Y36422000D03*
X94150000Y36422000D03*
X92880000Y36422000D03*
X91610000Y36422000D03*
X90340000Y36422000D03*
X89070000Y36422000D03*
X87800000Y36422000D03*
X86530000Y36422000D03*
X85260000Y36422000D03*
X83990000Y36422000D03*
X82720000Y36422000D03*
X81450000Y36422000D03*
X80180000Y36422000D03*
X78910000Y36422000D03*
X77640000Y36422000D03*
X76370000Y36422000D03*
X75100000Y36422000D03*
X73830000Y36422000D03*
X72560000Y36422000D03*
X72560000Y19422000D03*
X73830000Y19422000D03*
X75100000Y19422000D03*
X76370000Y19422000D03*
X77640000Y19422000D03*
X78910000Y19422000D03*
X80180000Y19422000D03*
X81450000Y19422000D03*
X82720000Y19422000D03*
X83990000Y19422000D03*
X85260000Y19422000D03*
X86530000Y19422000D03*
X87800000Y19422000D03*
X89070000Y19422000D03*
X90340000Y19422000D03*
X91610000Y19422000D03*
X92880000Y19422000D03*
X94150000Y19422000D03*
X95420000Y19422000D03*
D19*
X87920000Y28922000D03*
D10*
X64770000Y30162500D02*
X63246000Y30162500D01*
X63246000Y27622500D02*
X64770000Y27622500D01*
X64770000Y25082500D02*
X63246000Y25082500D01*
X63246000Y22542500D02*
X64770000Y22542500D01*
D20*
X27061200Y47244000D03*
X25161200Y47244000D03*
X15123200Y47244000D03*
X13223200Y47244000D03*
X4252000Y24130000D03*
X2352000Y24130000D03*
X63099100Y18618200D03*
X64999100Y18618200D03*
X4252000Y21318000D03*
X2352000Y21318000D03*
D10*
X60756800Y46814800D02*
X60756800Y48338800D01*
X58216800Y48338800D02*
X58216800Y46814800D01*
X52374800Y46814800D02*
X52374800Y48338800D01*
X49834800Y48338800D02*
X49834800Y46814800D01*
D21*
X5808000Y43454200D03*
X5808000Y41534200D03*
X7908000Y42494200D03*
D22*
X37927400Y10278400D03*
X39847400Y10278400D03*
X38887400Y12378400D03*
D23*
X12878900Y5656400D03*
X11928900Y7856400D03*
X13828900Y7856400D03*
X12852400Y15476400D03*
X13802400Y13276400D03*
X11902400Y13276400D03*
D24*
X7470400Y39116000D03*
X5631400Y39116000D03*
X67000100Y18618200D03*
X68839100Y18618200D03*
D25*
X35839400Y10662900D03*
X35839400Y12501900D03*
D24*
X10561300Y22204875D03*
X12400300Y22204875D03*
X5938500Y21318000D03*
X7777500Y21318000D03*
X5938500Y24130000D03*
X7777500Y24130000D03*
D25*
X18948400Y13202900D03*
X18948400Y15041900D03*
X38379400Y8691900D03*
X38379400Y6852900D03*
X35839400Y6852900D03*
X35839400Y8691900D03*
D24*
X66399850Y30149800D03*
X68238850Y30149800D03*
X66399850Y27629975D03*
X68238850Y27629975D03*
X66399850Y25092175D03*
X68238850Y25092175D03*
X66399850Y22555200D03*
X68238850Y22555200D03*
D25*
X14376400Y9646900D03*
X14376400Y11485900D03*
D24*
X10485100Y29316875D03*
X12324100Y29316875D03*
D25*
X11582400Y11485900D03*
X11582400Y9646900D03*
D24*
X41752500Y12192000D03*
X43591500Y12192000D03*
X43591500Y9603400D03*
X41752500Y9603400D03*
X41752500Y7011025D03*
X43591500Y7011025D03*
X10510500Y27030875D03*
X12349500Y27030875D03*
X75661500Y6343150D03*
X77500500Y6343150D03*
X84612500Y6343150D03*
X82773500Y6343150D03*
X61843900Y6343150D03*
X63682900Y6343150D03*
X70794900Y6343150D03*
X68955900Y6343150D03*
D25*
X91668600Y14777700D03*
X91668600Y16616700D03*
D24*
X15092700Y44704000D03*
X13253700Y44704000D03*
X27030700Y44704000D03*
X25191700Y44704000D03*
X12400300Y24539475D03*
X10561300Y24539475D03*
D26*
X15329800Y30726200D03*
D20*
X17129800Y30726200D03*
X17129800Y32926200D03*
X15229800Y32926200D03*
D10*
X85661500Y46736000D02*
X85661500Y48260000D01*
X83121500Y48260000D02*
X83121500Y46736000D01*
X80581500Y46736000D02*
X80581500Y48260000D01*
X78041500Y48260000D02*
X78041500Y46736000D01*
X35877500Y3993650D02*
X35877500Y2469650D01*
X38417500Y2469650D02*
X38417500Y3993650D01*
X40957500Y3993650D02*
X40957500Y2469650D01*
X43497500Y2469650D02*
X43497500Y3993650D01*
D27*
X18010000Y26353000D03*
X17510000Y26353000D03*
X17010000Y26353000D03*
X16510000Y26353000D03*
X16010000Y26353000D03*
X15510000Y26353000D03*
X15010000Y26353000D03*
D28*
X14160000Y25503000D03*
X14160000Y25003000D03*
X14160000Y24503000D03*
X14160000Y24003000D03*
X14160000Y23503000D03*
X14160000Y23003000D03*
X14160000Y22503000D03*
D27*
X15010000Y21653000D03*
X15510000Y21653000D03*
X16010000Y21653000D03*
X16510000Y21653000D03*
X17010000Y21653000D03*
X17510000Y21653000D03*
X18010000Y21653000D03*
D28*
X18860000Y22503000D03*
X18860000Y23003000D03*
X18860000Y23503000D03*
X18860000Y24003000D03*
X18860000Y24503000D03*
X18860000Y25003000D03*
X18860000Y25503000D03*
D29*
X16510000Y24003000D03*
D10*
X3683000Y15290800D02*
X2159000Y15290800D01*
X2159000Y12750800D02*
X3683000Y12750800D01*
X3683000Y10210800D02*
X2159000Y10210800D01*
X2159000Y7670800D02*
X3683000Y7670800D01*
X7899400Y7670800D02*
X9423400Y7670800D01*
X9423400Y10210800D02*
X7899400Y10210800D01*
X7899400Y12750800D02*
X9423400Y12750800D01*
X9423400Y15290800D02*
X7899400Y15290800D01*
D30*
X14367200Y41924000D03*
X14367200Y39624000D03*
X14367200Y37324000D03*
D31*
X19567200Y39624000D03*
D30*
X26051200Y41924000D03*
X26051200Y39624000D03*
X26051200Y37324000D03*
D31*
X31251200Y39624000D03*
D32*
X68315000Y42010700D03*
X67665000Y42010700D03*
X67015000Y42010700D03*
X66365000Y42010700D03*
X65715003Y42010700D03*
X65065000Y42010700D03*
X64415003Y42010700D03*
X63765000Y42010700D03*
X63765000Y36312300D03*
X64415000Y36312300D03*
X65065000Y36312300D03*
X65715000Y36312300D03*
X66364997Y36312300D03*
X67015000Y36312300D03*
X67664997Y36312300D03*
X68315000Y36312300D03*
D11*
X71399400Y39586800D03*
X71399400Y41337600D03*
D12*
X11379200Y42202000D03*
X11379200Y40602000D03*
D14*
X65265200Y33731200D03*
X63665200Y33731200D03*
D33*
X22124000Y10832000D03*
X22124000Y2832000D03*
X17624000Y10832000D03*
X17624000Y2832000D03*
X30506000Y10832000D03*
X30506000Y2832000D03*
X26006000Y10832000D03*
X26006000Y2832000D03*
D34*
X44810000Y17813000D03*
X47350000Y17813000D03*
X49890000Y17813000D03*
X52430000Y17813000D03*
X54970000Y17813000D03*
X42270000Y17813000D03*
X39730000Y17813000D03*
D35*
X6230000Y35233000D03*
X6230000Y34383000D03*
X6230000Y33533000D03*
X6230000Y32683000D03*
X6230000Y31833000D03*
X6230000Y30983000D03*
X6230000Y30133000D03*
X6230000Y29283000D03*
X4880000Y29283000D03*
X4880000Y30133000D03*
X4880000Y30983000D03*
X4880000Y31833000D03*
X4880000Y32683000D03*
X4880000Y33533000D03*
X4880000Y34383000D03*
X4880000Y35233000D03*
D36*
X4696000Y36583000D02*
X5804000Y36583000D01*
X5804000Y27933000D02*
X4696000Y27933000D01*
X2424000Y27933000D02*
X1316000Y27933000D01*
X1316000Y36583000D02*
X2424000Y36583000D01*
D37*
X7874000Y47752000D03*
X89154000Y47752000D03*
X89154000Y2921000D03*
X7874000Y2921000D03*
D38*
X3238500Y47465100D03*
X93901500Y3238500D03*
X3238500Y3238500D03*
X93901500Y47465100D03*
D39*
X65065000Y36312300D02*
X65065000Y33931400D01*
X65265200Y33731200D01*
X67015000Y35481000D02*
X67015000Y36312300D01*
X67015000Y35481000D02*
X65265200Y33731200D01*
X68315000Y34787000D02*
X68315000Y36312300D01*
X68315000Y34787000D02*
X67259200Y33731200D01*
X65265200Y33731200D01*
X95287700Y36554300D02*
X95287700Y40386000D01*
X95287700Y36554300D02*
X95420000Y36422000D01*
X95287700Y40386000D02*
X95287700Y43180000D01*
X95420000Y36422000D02*
X95420000Y31970800D01*
X92371200Y28922000D01*
X87920000Y28922000D01*
X73113000Y39586800D02*
X71399400Y39586800D01*
X73113000Y39586800D02*
X74244200Y38455600D01*
X76911200Y38455600D01*
X77640000Y37726800D01*
X77640000Y36422000D01*
X69265800Y33731200D02*
X67259200Y33731200D01*
X69265800Y33731200D02*
X71399400Y35864800D01*
X71399400Y39586800D01*
X63099100Y18618200D02*
X62845100Y18618200D01*
X61143300Y20320000D01*
X61214000Y20320000D01*
X61143300Y20320000D02*
X57150000Y20320000D01*
X54970000Y18140000D01*
X54970000Y17813000D01*
X41752500Y7011025D02*
X41498500Y7011025D01*
X31985475Y2832000D02*
X30506000Y2832000D01*
X30506000Y10832000D02*
X30819525Y10832000D01*
X30506000Y10832000D02*
X30506000Y2832000D01*
X22124000Y2832000D02*
X22124000Y10832000D01*
X6230000Y29283000D02*
X4880000Y29283000D01*
X5250000Y27933000D02*
X1870000Y27933000D01*
X4880000Y29283000D02*
X5250000Y28913000D01*
X5250000Y27933000D01*
X6230000Y29283000D02*
X8482125Y27030875D01*
X10510500Y27030875D01*
X6230000Y35233000D02*
X4880000Y35233000D01*
X5250000Y36583000D02*
X1870000Y36583000D01*
X4880000Y35233000D02*
X5250000Y35603000D01*
X5250000Y36583000D01*
X5631400Y39116000D02*
X7470400Y39116000D01*
X5631400Y39116000D02*
X5250000Y38734600D01*
X5250000Y36583000D01*
X5808000Y39292600D02*
X5808000Y41534200D01*
X5808000Y39292600D02*
X5631400Y39116000D01*
X11379200Y38721400D02*
X11418200Y38721400D01*
X11734800Y38404800D01*
X23063200Y42277400D02*
X23416600Y41924000D01*
X26051200Y41924000D01*
X11657200Y41924000D02*
X11379200Y42202000D01*
X11657200Y41924000D02*
X14367200Y41924000D01*
X11379200Y42202000D02*
X11379200Y48006000D01*
X12420600Y49047400D01*
X14198600Y49047400D01*
X15113000Y48133000D01*
X15123200Y48122800D01*
X15123200Y47244000D01*
X20777200Y44563400D02*
X23063200Y42277400D01*
X20777200Y44563400D02*
X20777200Y47498000D01*
X27061200Y47244000D02*
X27061200Y48173600D01*
X26365200Y48869600D01*
X24358600Y48869600D01*
X22987000Y47498000D01*
X20777200Y47498000D01*
X62407800Y33324800D02*
X62407800Y32867600D01*
X62992000Y32283400D01*
X64262000Y32283400D01*
X65265200Y33286600D01*
X65265200Y33731200D01*
X20777200Y47498000D02*
X20777200Y48183800D01*
X25654000Y25692000D02*
X28372600Y25692000D01*
X28448000Y25767400D01*
X11404600Y27924975D02*
X10510500Y27030875D01*
X11404600Y27924975D02*
X11404600Y30200600D01*
X11930200Y30726200D01*
X15329800Y30726200D01*
X19444600Y31496000D02*
X19444600Y33706600D01*
X19520000Y33782000D01*
X19075456Y26416000D02*
X21082000Y26416000D01*
X23622000Y23876000D01*
X23622000Y19050000D01*
X20574000Y16002000D01*
X17158600Y16002000D01*
X16154400Y14997800D01*
X31985475Y2832000D02*
X33801475Y1016000D01*
X39624000Y1016000D01*
X42164000Y1016000D01*
X43497500Y2349500D01*
X43497500Y3231650D01*
X87920000Y28922000D02*
X95420000Y21422000D01*
X95420000Y19422000D01*
X41594375Y6852900D02*
X38379400Y6852900D01*
X41594375Y6852900D02*
X41752500Y7011025D01*
X39624000Y5608300D02*
X38379400Y6852900D01*
X39624000Y5608300D02*
X39624000Y1016000D01*
X10561300Y22204875D02*
X10561300Y22245300D01*
X11480800Y23164800D01*
X11480800Y26060575D01*
X10510500Y27030875D01*
X32639000Y3485525D02*
X31985475Y2832000D01*
X23536000Y1420000D02*
X22124000Y2832000D01*
X23536000Y1420000D02*
X29094000Y1420000D01*
X30506000Y2832000D01*
X17158600Y16002000D02*
X14554200Y16002000D01*
X13995400Y16560800D01*
X7518400Y16560800D01*
X6680200Y15722600D01*
X6680200Y6223000D01*
X6705600Y6248400D02*
X6858000Y6096000D01*
X8001000Y4953000D01*
X10820400Y4953000D01*
X14353400Y1420000D01*
X20712000Y1420000D01*
X22124000Y2832000D01*
X61214000Y20320000D02*
X61214000Y30505400D01*
X62992000Y32283400D01*
X95287700Y43180000D02*
X95287700Y43725700D01*
X78486000Y49530000D02*
X78041500Y49085500D01*
X78041500Y47498000D01*
X95420000Y19422000D02*
X95420000Y13378000D01*
X87884000Y5842000D01*
X17010000Y24503000D02*
X17010000Y26353000D01*
X17010000Y24503000D02*
X16510000Y24003000D01*
X16510000Y25275344D01*
X1870000Y27933000D02*
X1870000Y36583000D01*
X17010000Y26930656D02*
X17333544Y27254200D01*
X17010000Y26930656D02*
X17010000Y26353000D01*
X17010000Y25775344D01*
X16510000Y25275344D01*
X6705600Y6248400D02*
X6680200Y6223000D01*
X6553200Y6096000D01*
X1420000Y6096000D01*
X6553200Y6096000D02*
X6858000Y6096000D01*
X1420000Y6096000D02*
X762000Y6754000D01*
X762000Y26825000D01*
X1870000Y27933000D01*
X95287700Y43180000D02*
X95287700Y43650300D01*
X94437200Y44500800D01*
X90119200Y44500800D01*
X87122000Y47498000D01*
X87122000Y49022000D01*
X86614000Y49530000D01*
X78486000Y49530000D01*
D40*
X30708306Y25767400D02*
X28448000Y25767400D01*
X30708306Y25767400D02*
X32535000Y23940706D01*
X32535000Y4941506D01*
X32639000Y4837506D01*
X32639000Y3485525D01*
D39*
X20777200Y48183800D02*
X19539000Y49422000D01*
X16402000Y49422000D01*
X15113000Y48133000D01*
X12790144Y35842800D02*
X12180344Y35233000D01*
X6230000Y35233000D01*
X60815600Y34917000D02*
X62407800Y33324800D01*
X60815600Y34917000D02*
X18385000Y34917000D01*
X19520000Y33782000D01*
X17459200Y35842800D02*
X12790144Y35842800D01*
X17459200Y35842800D02*
X18385000Y34917000D01*
X18288000Y27254200D02*
X17333544Y27254200D01*
X18288000Y27254200D02*
X19075456Y26466744D01*
X19075456Y26416000D01*
X65715003Y42010700D02*
X65715003Y43871003D01*
X71120000Y41617000D02*
X71399400Y41337600D01*
D40*
X71120000Y41617000D02*
X71120000Y42672000D01*
D41*
X71120000Y42672000D03*
X66267706Y44730294D03*
D39*
X66267706Y44423706D02*
X65715003Y43871003D01*
X66267706Y44423706D02*
X66267706Y44730294D01*
D40*
X94150000Y37930000D02*
X94150000Y36422000D01*
X94150000Y37930000D02*
X93536900Y38543100D01*
X93536900Y40386000D01*
X93536900Y43180000D01*
X89979500Y43180000D02*
X85661500Y47498000D01*
X89979500Y43180000D02*
X93536900Y43180000D01*
X75661500Y6343150D02*
X75661500Y3871750D01*
X76301600Y3231650D01*
X75661500Y6343150D02*
X70794900Y6343150D01*
X61843900Y6343150D02*
X61181750Y6343150D01*
X60579000Y5740400D01*
X60579000Y1955800D01*
X61569600Y965200D01*
X76301600Y965200D01*
X84810600Y965200D01*
X85852000Y2006600D01*
X85852000Y5103650D01*
X84612500Y6343150D01*
X76301600Y3231650D02*
X76301600Y965200D01*
X31251200Y39624000D02*
X26051200Y39624000D01*
X24259600Y40526600D02*
X23063200Y40526600D01*
D39*
X25162200Y39624000D02*
X26051200Y39624000D01*
D40*
X25162200Y39624000D02*
X24259600Y40526600D01*
X30175200Y40700000D02*
X31251200Y39624000D01*
X30175200Y40700000D02*
X30175200Y44704000D01*
X30175200Y47498000D01*
X30175200Y44704000D02*
X27030700Y44704000D01*
D39*
X10561300Y24539475D02*
X10434300Y24539475D01*
X9296400Y25677375D01*
X9296400Y25679400D01*
D41*
X9296400Y25679400D03*
D39*
X2352000Y24130000D02*
X2352000Y21318000D01*
X2352000Y24130000D02*
X2352000Y24500800D01*
X3683000Y25831800D01*
X9144000Y25831800D01*
X9296400Y25679400D01*
X18948400Y15041900D02*
X23169900Y15041900D01*
X27940000Y19812000D01*
X27940000Y21259800D01*
X27330400Y21869400D01*
D41*
X27330400Y21869400D03*
D40*
X12801600Y39624000D02*
X11823600Y40602000D01*
X11379200Y40602000D01*
X12801600Y39624000D02*
X14367200Y39624000D01*
X19567200Y39624000D01*
X22220600Y36970600D01*
X23063200Y36970600D01*
D39*
X23416600Y37324000D01*
D40*
X26051200Y37324000D01*
X17886700Y47498000D02*
X15092700Y44704000D01*
X17886700Y47498000D02*
X18237200Y47498000D01*
D39*
X18237200Y40954000D02*
X19567200Y39624000D01*
D40*
X18237200Y40954000D02*
X18237200Y47498000D01*
X23672800Y33731200D02*
X27940000Y29464000D01*
D41*
X23672800Y33731200D03*
D40*
X31000913Y26473800D02*
X33241400Y24233313D01*
X31000913Y26473800D02*
X30930200Y26473800D01*
X27940000Y29464000D01*
X33241400Y5867750D02*
X35877500Y3231650D01*
X33241400Y5867750D02*
X33241400Y24233313D01*
D39*
X25654000Y19877000D02*
X25589000Y19812000D01*
X25654000Y19877000D02*
X25654000Y24092000D01*
X28372600Y24092000D01*
X28448000Y24016600D01*
X14782800Y27716913D02*
X14782800Y28321000D01*
X15510000Y26989713D02*
X15510000Y26353000D01*
X15510000Y26989713D02*
X14782800Y27716913D01*
X24295000Y24092000D02*
X25654000Y24092000D01*
X15407800Y28946000D02*
X14782800Y28321000D01*
X15407800Y28946000D02*
X17312250Y28946000D01*
X18450050Y27808200D01*
X20578800Y27808200D01*
X24295000Y24092000D01*
X63638000Y36185300D02*
X63765000Y36312300D01*
D42*
X63638000Y36185300D02*
X63638000Y33758400D01*
X63665200Y33731200D01*
X11379200Y36970600D02*
X10566400Y36970600D01*
X11660800Y37222400D02*
X14240200Y37222400D01*
X11660800Y37222400D02*
X11409000Y36970600D01*
X11379200Y36970600D01*
X14341800Y37324000D02*
X14367200Y37324000D01*
X14341800Y37324000D02*
X14240200Y37222400D01*
X14367200Y37324000D02*
X15027600Y36663600D01*
X63233400Y33731200D02*
X63665200Y33731200D01*
X10566400Y36970600D02*
X9342200Y38194800D01*
X9342200Y42956400D02*
X8819000Y43479600D01*
X9342200Y42956400D02*
X9342200Y38194800D01*
X8819000Y43479600D02*
X5833400Y43479600D01*
X5808000Y43454200D01*
X3373000Y43454200D01*
X2921000Y43002200D01*
X17793500Y36663600D02*
X18836100Y35621000D01*
X61343600Y35621000D01*
X17793500Y36663600D02*
X15027600Y36663600D01*
X61343600Y35621000D02*
X63233400Y33731200D01*
D39*
X4953000Y42494200D02*
X2921000Y40462200D01*
X4953000Y42494200D02*
X7908000Y42494200D01*
X6230000Y31833000D02*
X13882600Y31833000D01*
X14136600Y31833000D02*
X15229800Y32926200D01*
X14136600Y31833000D02*
X13882600Y31833000D01*
D41*
X13882600Y31833000D03*
X15748894Y27997200D03*
D39*
X16010000Y27736094D02*
X16010000Y26353000D01*
X16010000Y27736094D02*
X15748894Y27997200D01*
X6230000Y32683000D02*
X5984888Y32683000D01*
X5134888Y31833000D01*
X4880000Y31833000D01*
X6230000Y32683000D02*
X12672344Y32683000D01*
X14273544Y34284200D01*
X16510000Y27232525D02*
X16510000Y26353000D01*
D41*
X16985494Y28012600D03*
D39*
X16985494Y27708019D01*
X16510000Y27232525D01*
X16187488Y33868513D02*
X16187488Y34209800D01*
X16187488Y33868513D02*
X17129800Y32926200D01*
X16166288Y34284200D02*
X14273544Y34284200D01*
X16166288Y34284200D02*
X16187488Y34263000D01*
D41*
X16187488Y34209800D03*
D39*
X16187488Y34263000D01*
X18860000Y24003000D02*
X20447000Y24003000D01*
X21082000Y23368000D01*
X21082000Y20828000D01*
X18821400Y18567400D01*
X6756400Y18567400D01*
X4851400Y16662400D01*
X4851400Y13741400D01*
X3860800Y12750800D01*
X2921000Y12750800D01*
X18860000Y24503000D02*
X20963000Y24503000D01*
X21844000Y23622000D01*
X21844000Y20574000D01*
X19151600Y17881600D01*
X7035800Y17881600D01*
X5461000Y16306800D01*
X5461000Y12319000D01*
X3352800Y10210800D01*
X2921000Y10210800D01*
X77500500Y6343150D02*
X77500500Y5278100D01*
X78841600Y3937000D01*
X78841600Y3231650D01*
X89070000Y17010200D02*
X89070000Y19422000D01*
X89070000Y17010200D02*
X80975200Y8915400D01*
X78613000Y8915400D01*
X77500500Y7802900D01*
X77500500Y6343150D01*
X89070000Y19422000D02*
X89070000Y21674000D01*
X86106000Y24638000D01*
D41*
X86106000Y24638000D03*
X53086000Y28956000D03*
D39*
X47350000Y23220000D01*
X47350000Y17813000D01*
X82773500Y6343150D02*
X82773500Y5252700D01*
X81381600Y3860800D01*
X81381600Y3231650D01*
X92880000Y13479600D02*
X92880000Y19422000D01*
X92880000Y13479600D02*
X88493600Y9093200D01*
X85039200Y9093200D01*
X82773500Y6827500D01*
X82773500Y6343150D01*
X49890000Y17813000D02*
X49890000Y21442000D01*
X54610000Y26162000D01*
D41*
X54610000Y26162000D03*
X90932000Y22606000D03*
D39*
X92880000Y20658000D01*
X92880000Y19422000D01*
X67664997Y36312300D02*
X67664997Y38507003D01*
X65532000Y40640000D01*
X62738000Y40640000D01*
X62230000Y41148000D01*
X62230000Y46103600D01*
X60756800Y47576800D01*
X66364997Y38283003D02*
X66364997Y36312300D01*
X66364997Y38283003D02*
X65024000Y39624000D01*
X62230000Y39624000D01*
X61214000Y40640000D01*
X61214000Y43688000D01*
X58216800Y46685200D01*
X58216800Y47576800D01*
X65715000Y37409000D02*
X65715000Y36312300D01*
X65715000Y37409000D02*
X64516000Y38608000D01*
X56896000Y38608000D01*
X52374800Y43129200D01*
X52374800Y47576800D01*
X64415000Y37185000D02*
X64415000Y36312300D01*
X64415000Y37185000D02*
X64008000Y37592000D01*
X55626000Y37592000D01*
X49834800Y43383200D01*
X49834800Y47576800D01*
X19931000Y23503000D02*
X18860000Y23503000D01*
X19931000Y23503000D02*
X20320000Y23114000D01*
X20320000Y21082000D01*
X18415000Y19177000D01*
X6426200Y19177000D01*
X2921000Y15671800D01*
X2921000Y15290800D01*
X6070600Y10896600D02*
X2921000Y7747000D01*
X2921000Y7670800D01*
X6070600Y10896600D02*
X6070600Y16052800D01*
X7239000Y17221200D01*
X19761200Y17221200D01*
X22606000Y20066000D01*
X22606000Y23876000D01*
X20979000Y25503000D01*
X18860000Y25503000D01*
X17624000Y10832000D02*
X17624000Y2832000D01*
X78910000Y17645200D02*
X78910000Y19422000D01*
X15703300Y2832000D02*
X12878900Y5656400D01*
X15703300Y2832000D02*
X17624000Y2832000D01*
X77851000Y16586200D02*
X78910000Y17645200D01*
X77851000Y16586200D02*
X61468000Y16586200D01*
D41*
X61468000Y16586200D03*
D39*
X17968000Y11176000D02*
X17624000Y10832000D01*
X17968000Y11176000D02*
X19812000Y11176000D01*
D41*
X19812000Y11176000D03*
D39*
X35839400Y12501900D02*
X38763900Y12501900D01*
X38887400Y12378400D01*
X80180000Y31818400D02*
X80180000Y36422000D01*
X80180000Y31818400D02*
X73453775Y25092175D01*
X68238850Y25092175D01*
X78910000Y33647200D02*
X78910000Y36422000D01*
X78910000Y33647200D02*
X72892775Y27629975D01*
X68238850Y27629975D01*
X76370000Y34129800D02*
X76370000Y36422000D01*
X76370000Y34129800D02*
X72390000Y30149800D01*
X68238850Y30149800D01*
X68238850Y22555200D02*
X74752200Y22555200D01*
X76370000Y20937400D01*
X76370000Y19422000D01*
X66399850Y30149800D02*
X64020700Y30149800D01*
X64008000Y30162500D01*
X64015475Y27629975D02*
X66399850Y27629975D01*
X64015475Y27629975D02*
X64008000Y27622500D01*
X64017675Y25092175D02*
X66399850Y25092175D01*
X64017675Y25092175D02*
X64008000Y25082500D01*
X64020700Y22555200D02*
X66399850Y22555200D01*
X64020700Y22555200D02*
X64008000Y22542500D01*
X14376400Y9646900D02*
X13828900Y9099400D01*
X13828900Y7856400D01*
X11582400Y11485900D02*
X11902400Y11805900D01*
X11902400Y13276400D01*
X92880000Y36422000D02*
X92964000Y36338000D01*
X92964000Y34544000D01*
D41*
X92964000Y34544000D03*
D39*
X26006000Y10832000D02*
X26006000Y2832000D01*
X23635100Y13202900D02*
X18948400Y13202900D01*
X23635100Y13202900D02*
X26006000Y10832000D01*
X18904300Y13247000D02*
X16154400Y13247000D01*
X18904300Y13247000D02*
X18948400Y13202900D01*
X16154400Y13247000D02*
X13831800Y13247000D01*
X13802400Y13276400D01*
X26006000Y10832000D02*
X31496000Y16322000D01*
X31496000Y23114000D01*
D41*
X31496000Y23114000D03*
D39*
X63682900Y6343150D02*
X63682900Y5100300D01*
X64897000Y3886200D01*
X64897000Y3231650D01*
X85260000Y16375200D02*
X85260000Y19422000D01*
X85260000Y16375200D02*
X80853300Y11968500D01*
X65968900Y11968500D02*
X63682900Y9682500D01*
X63682900Y6343150D01*
X51685050Y4441050D02*
X51685050Y3201025D01*
X51685050Y4441050D02*
X59212500Y11968500D01*
X65968900Y11968500D01*
X80853300Y11968500D01*
X68955900Y6343150D02*
X68955900Y5074900D01*
X67437000Y3556000D01*
X67437000Y3231650D01*
X68955900Y6343150D02*
X68955900Y8021300D01*
X71780400Y10845800D01*
X81229200Y10845800D01*
X86530000Y16146600D01*
X86530000Y19422000D01*
X60676025Y10668000D02*
X54225050Y4217025D01*
X54225050Y3201025D01*
X60676025Y10668000D02*
X62230000Y10668000D01*
D41*
X62230000Y10668000D03*
X68326000Y9144000D03*
D39*
X68955900Y8514100D01*
X68955900Y8021300D01*
X37927400Y9143900D02*
X37927400Y10278400D01*
X37927400Y9143900D02*
X38379400Y8691900D01*
X35839400Y8691900D01*
X43591500Y9603400D02*
X43591500Y7011025D01*
X11743300Y7670800D02*
X8661400Y7670800D01*
X11743300Y7670800D02*
X11928900Y7856400D01*
X11928900Y9300400D02*
X11582400Y9646900D01*
X11928900Y9300400D02*
X11928900Y7856400D01*
X12852400Y11938000D02*
X12852400Y15476400D01*
X12852400Y11938000D02*
X13304500Y11485900D01*
X14376400Y11485900D01*
X12666800Y15290800D02*
X8661400Y15290800D01*
X12666800Y15290800D02*
X12852400Y15476400D01*
X82720000Y36422000D02*
X82720000Y37676000D01*
X81788000Y38608000D01*
D41*
X81788000Y38608000D03*
D39*
X81450000Y37676000D02*
X81450000Y36422000D01*
X81450000Y37676000D02*
X80518000Y38608000D01*
D41*
X80518000Y38608000D03*
D39*
X91610000Y19422000D02*
X91668600Y19363400D01*
X91668600Y16616700D01*
X12863825Y25003000D02*
X12400300Y24539475D01*
X12863825Y25003000D02*
X14160000Y25003000D01*
X12400300Y22846356D02*
X12400300Y22204875D01*
X13556944Y24003000D02*
X14160000Y24003000D01*
X13556944Y24003000D02*
X12400300Y22846356D01*
X5938500Y21318000D02*
X4252000Y21318000D01*
X4252000Y24130000D02*
X5938500Y24130000D01*
X7777500Y21318000D02*
X9308900Y19786600D01*
X16383000Y19786600D01*
X17010000Y20413600D01*
X17010000Y21653000D01*
X16510000Y21653000D02*
X16510000Y20828000D01*
X16078200Y20396200D01*
X10058400Y20396200D01*
X9194800Y21259800D01*
X9194800Y22758400D01*
X7823200Y24130000D01*
X7777500Y24130000D01*
D40*
X6230000Y30133000D02*
X4880000Y30133000D01*
X6230000Y30133000D02*
X9668975Y30133000D01*
X10485100Y29316875D01*
X4880000Y34383000D02*
X4406288Y34383000D01*
X3937000Y33913713D01*
X3937000Y30759400D01*
D39*
X4563400Y30133000D02*
X4880000Y30133000D01*
D40*
X4563400Y30133000D02*
X3937000Y30759400D01*
X4880000Y34383000D02*
X6230000Y34383000D01*
X18186400Y33705800D02*
X18186400Y31782800D01*
X17129800Y30726200D01*
X17485400Y30726200D02*
X18798400Y29413200D01*
X17485400Y30726200D02*
X17129800Y30726200D01*
X19394600Y29413200D02*
X19445400Y29362400D01*
X19394600Y29413200D02*
X18798400Y29413200D01*
X12666000Y34383000D02*
X6230000Y34383000D01*
X12666000Y34383000D02*
X13421000Y35138000D01*
X16754200Y35138000D01*
X18186400Y33705800D01*
D39*
X15010000Y26569800D02*
X15010000Y26353000D01*
X15010000Y26569800D02*
X14122400Y27457400D01*
X14122400Y28600400D01*
X15087600Y29565600D01*
X17551400Y29565600D01*
X18694400Y28422600D01*
X20305600Y28422600D01*
X21245400Y29362400D01*
X21347000Y29464000D01*
D40*
X25589000Y29464000D01*
D39*
X21245400Y29362400D02*
X21245400Y31446000D01*
X21195400Y31496000D01*
X21195400Y33706600D01*
X21120000Y33782000D01*
D41*
X86614000Y11938000D03*
D39*
X90340000Y15664000D01*
X90340000Y19422000D01*
D41*
X90424000Y13208000D03*
D39*
X91668600Y14452600D01*
X91668600Y14777700D01*
X40957500Y3873500D02*
X40957500Y3231650D01*
X40957500Y3873500D02*
X42418000Y5334000D01*
X44196000Y5334000D01*
X44958000Y6096000D01*
X44958000Y10825500D01*
X43591500Y12192000D01*
X35839400Y6852900D02*
X38417500Y4274800D01*
X38417500Y3231650D01*
X35839400Y10662900D02*
X35046900Y10662900D01*
X34290000Y9906000D01*
X34290000Y7366000D01*
X34803100Y6852900D01*
X35839400Y6852900D01*
X80180000Y16426000D02*
X80180000Y19422000D01*
X80180000Y16426000D02*
X78232000Y14478000D01*
X41148000Y14478000D01*
X39847400Y13177400D01*
X39847400Y10278400D01*
X41752500Y9603400D02*
X41752500Y12192000D01*
X41752500Y12796500D01*
X42672000Y13716000D01*
X81026000Y13716000D01*
X83990000Y16680000D01*
X83990000Y19422000D01*
X12632125Y27030875D02*
X12349500Y27030875D01*
X12632125Y27030875D02*
X14160000Y25503000D01*
X12349500Y29291475D02*
X12324100Y29316875D01*
X12349500Y29291475D02*
X12349500Y27030875D01*
X25191700Y44704000D02*
X25191700Y47213500D01*
X25161200Y47244000D01*
X13223200Y47244000D02*
X13223200Y44734500D01*
X13253700Y44704000D01*
X77640000Y19422000D02*
X77640000Y17848400D01*
X77317600Y17526000D01*
X69931300Y17526000D01*
X68839100Y18618200D01*
X67000100Y18618200D02*
X64999100Y18618200D01*
X76454000Y42164000D02*
X72898000Y45720000D01*
X76454000Y42164000D02*
X83312000Y42164000D01*
X86530000Y38946000D01*
X86530000Y36422000D01*
X65065000Y42010700D02*
X65065000Y44765025D01*
X66019975Y45720000D01*
X72898000Y45720000D01*
X67015000Y43139000D02*
X67015000Y42010700D01*
X67015000Y43139000D02*
X67564000Y43688000D01*
X71628000Y43688000D01*
X75692000Y39624000D01*
X82042000Y39624000D01*
X83990000Y37676000D01*
X83990000Y36422000D01*
X66365000Y42010700D02*
X66365000Y43505000D01*
X85250400Y36431600D02*
X85260000Y36422000D01*
X85250400Y36431600D02*
X85250400Y38071394D01*
X82681794Y40640000D01*
X75946000Y40640000D01*
X72136000Y44450000D01*
X67310000Y44450000D01*
X66365000Y43505000D01*
X64415003Y42010700D02*
X64415003Y45111003D01*
X66040000Y46736000D01*
X73660000Y46736000D01*
X76200000Y44196000D01*
X83566000Y44196000D01*
X87800000Y39962000D01*
X87800000Y36422000D01*
X63765000Y42010700D02*
X63765000Y45731000D01*
X65786000Y47752000D01*
X74168000Y47752000D01*
X76708000Y45212000D01*
X84328000Y45212000D01*
X89070000Y40470000D01*
X89070000Y36422000D01*
M02*
