M48
;GenerationSoftware,Autodesk,EAGLE,9.7.0*%
;CreationDate,2022-05-19T16:06:26Z*%
FMAT,2
ICI,OFF
METRIC,TZ,000.000
T8C0.400
T7C0.500
T6C0.600
T5C1.000
T4C1.016
T3C2.000
T2C3.175
%
G90
M71
T2
X3238Y3238
X93901Y3238
X3238Y47465
X93901Y47465
T3
X35690Y41413
X35690Y18113
X58930Y41413
X58930Y18113
T4
X8661Y12751
X8661Y10211
X8661Y7671
X2921Y7671
X2921Y10211
X2921Y12751
X58217Y47577
X2921Y15291
X43498Y3232
X40958Y3232
X38418Y3232
X35878Y3232
X78042Y47498
X83122Y47498
X85662Y47498
X49835Y47577
X52375Y47577
X80582Y47498
X8661Y15291
X30175Y47498
X32715Y47498
X18237Y47498
X20777Y47498
X2921Y43002
X2921Y40462
X76302Y3232
X78842Y3232
X81382Y3232
X83922Y3232
X49145Y3201
X51685Y3201
X54225Y3201
X56765Y3201
X62357Y3232
X64897Y3232
X67437Y3232
X69977Y3232
X64008Y30162
X64008Y27622
X64008Y25082
X64008Y22542
X60757Y47577
T5
X39730Y17813
X44810Y17813
X47350Y17813
X49890Y17813
X52430Y17813
X54970Y17813
X42270Y17813
T6
X1870Y27933
X5250Y36583
X5250Y27933
X1870Y36583
T7
X62230Y10668
X31496Y23114
X92964Y34544
X19812Y11176
X61468Y16586
X54610Y26162
X53086Y28956
X86106Y24638
X16187Y34210
X16985Y28013
X15749Y27997
X13883Y31833
X90932Y22606
X90424Y13208
X86614Y11938
X80518Y38608
X81788Y38608
X68326Y9144
X23673Y33731
X71120Y42672
X27330Y21869
X9296Y25679
X66268Y44730
T8
X4880Y29283
X4880Y30133
X4880Y30983
X6230Y35233
X4880Y32683
X6230Y34383
X4880Y34383
X4880Y35233
X6230Y33533
X6230Y32683
X4880Y33533
X6230Y31833
X6230Y30983
X6230Y30133
X6230Y29283
X4880Y31833
M30