G04 EAGLE Gerber X2 export*
%TF.Part,Single*%
%TF.FileFunction,Copper,L2,Bot,Mixed*%
%TF.FilePolarity,Positive*%
%TF.GenerationSoftware,Autodesk,EAGLE,9.7.0*%
%TF.CreationDate,2022-05-23T09:25:57Z*%
G75*
%MOMM*%
%FSLAX46Y46*%
%LPD*%
%INBottom Copper*%
%AMOC8*
5,1,8,0,0,1.08239X$1,22.5*%
G01*
G04 Define Apertures*
%ADD10C,1.524000*%
%ADD11R,1.164600X1.465300*%
%ADD12R,1.031200X1.420200*%
%ADD13C,1.778000*%
%ADD14C,1.524000*%
%ADD15C,4.762500*%
%ADD16C,1.388700*%
%ADD17C,0.300000*%
%ADD18C,1.100000*%
%ADD19C,0.203200*%
%ADD20C,0.508000*%
%ADD21C,0.406400*%
G36*
X96848506Y211881D02*
X96897744Y245638D01*
X96929916Y295928D01*
X96940000Y350000D01*
X96940000Y54290600D01*
X96928119Y54349106D01*
X96894363Y54398344D01*
X96844072Y54430516D01*
X96790000Y54440600D01*
X94341369Y54440600D01*
X94282863Y54428719D01*
X94233625Y54394963D01*
X94201453Y54344672D01*
X94191444Y54285819D01*
X94205184Y54227722D01*
X94240494Y54179584D01*
X94302547Y54145713D01*
X94917122Y53981038D01*
X95517125Y53634625D01*
X96007025Y53144725D01*
X96353438Y52544722D01*
X96532750Y51875519D01*
X96532750Y51182681D01*
X96353438Y50513478D01*
X96007025Y49913475D01*
X95517125Y49423575D01*
X94917122Y49077163D01*
X94247919Y48897850D01*
X93555081Y48897850D01*
X92885878Y49077163D01*
X92285875Y49423575D01*
X91795975Y49913475D01*
X91449563Y50513478D01*
X91270250Y51182681D01*
X91270250Y51470153D01*
X91258369Y51528659D01*
X91224613Y51577897D01*
X91174322Y51610069D01*
X91115469Y51620078D01*
X91057372Y51606338D01*
X91009234Y51571028D01*
X90981669Y51527556D01*
X90953988Y51460725D01*
X90525275Y51032013D01*
X89965144Y50800000D01*
X89358856Y50800000D01*
X88798725Y51032013D01*
X88370013Y51460725D01*
X88138000Y52020856D01*
X88138000Y52627144D01*
X88370013Y53187275D01*
X88798725Y53615988D01*
X89358856Y53848000D01*
X89965144Y53848000D01*
X90525275Y53615988D01*
X90953988Y53187275D01*
X91194319Y52607059D01*
X91197881Y52589516D01*
X91231638Y52540278D01*
X91281928Y52508106D01*
X91340781Y52498097D01*
X91398878Y52511838D01*
X91447016Y52547147D01*
X91465903Y52573022D01*
X91795975Y53144725D01*
X92285875Y53634625D01*
X92885878Y53981038D01*
X93500453Y54145713D01*
X93553891Y54172328D01*
X93592716Y54217681D01*
X93610775Y54274581D01*
X93605209Y54334022D01*
X93576900Y54386584D01*
X93530334Y54423941D01*
X93461631Y54440600D01*
X61316766Y54440600D01*
X61258259Y54428719D01*
X61209022Y54394963D01*
X61176850Y54344672D01*
X61166841Y54285819D01*
X61180581Y54227722D01*
X61210700Y54184534D01*
X62195959Y53199275D01*
X62245728Y53166306D01*
X62304416Y53155359D01*
X62362725Y53168172D01*
X62408091Y53199275D01*
X62469550Y53260734D01*
X62841497Y53414800D01*
X63244103Y53414800D01*
X63616050Y53260734D01*
X63900734Y52976050D01*
X64054800Y52604103D01*
X64054800Y50677497D01*
X63900734Y50305550D01*
X63616050Y50020866D01*
X63244103Y49866800D01*
X62841497Y49866800D01*
X62469550Y50020866D01*
X62184866Y50305550D01*
X62030800Y50677497D01*
X62030800Y51879034D01*
X62018919Y51937541D01*
X61986866Y51985100D01*
X60516100Y53455866D01*
X60466331Y53488834D01*
X60410034Y53499800D01*
X45002566Y53499800D01*
X44944059Y53487919D01*
X44896500Y53455866D01*
X44336734Y52896100D01*
X44303766Y52846331D01*
X44292800Y52790034D01*
X44292800Y50830844D01*
X44304681Y50772338D01*
X44336734Y50724778D01*
X44590181Y50471331D01*
X44733950Y50124244D01*
X44733950Y49748556D01*
X44590181Y49401469D01*
X44324531Y49135819D01*
X43977444Y48992050D01*
X43601756Y48992050D01*
X43254669Y49135819D01*
X42989019Y49401469D01*
X42845250Y49748556D01*
X42845250Y50124244D01*
X42989019Y50471331D01*
X43242466Y50724778D01*
X43275434Y50774547D01*
X43286400Y50830844D01*
X43286400Y53160694D01*
X43363006Y53345641D01*
X44201900Y54184534D01*
X44234869Y54234303D01*
X44245816Y54292991D01*
X44233003Y54351300D01*
X44198466Y54399994D01*
X44147669Y54431359D01*
X44095834Y54440600D01*
X350000Y54440600D01*
X291494Y54428719D01*
X242256Y54394963D01*
X210084Y54344672D01*
X200000Y54290600D01*
X200000Y350000D01*
X211881Y291494D01*
X245638Y242256D01*
X295928Y210084D01*
X350000Y200000D01*
X96790000Y200000D01*
X96848506Y211881D01*
G37*
%LPC*%
G36*
X2790481Y48567650D02*
X2121278Y48746963D01*
X1521275Y49093375D01*
X1031375Y49583275D01*
X684963Y50183278D01*
X505650Y50852481D01*
X505650Y51545319D01*
X684963Y52214522D01*
X1031375Y52814525D01*
X1521275Y53304425D01*
X2121278Y53650838D01*
X2790481Y53830150D01*
X3483319Y53830150D01*
X4152522Y53650838D01*
X4752525Y53304425D01*
X5242425Y52814525D01*
X5588838Y52214522D01*
X5768150Y51545319D01*
X5768150Y50852481D01*
X5588838Y50183278D01*
X5242425Y49583275D01*
X4752525Y49093375D01*
X4152522Y48746963D01*
X3483319Y48567650D01*
X2790481Y48567650D01*
G37*
G36*
X53747906Y46994800D02*
X53562959Y47071406D01*
X51686250Y48948116D01*
X51636481Y48981084D01*
X51580184Y48992050D01*
X51221756Y48992050D01*
X50874669Y49135819D01*
X50609019Y49401469D01*
X50465250Y49748556D01*
X50465250Y50124244D01*
X50609019Y50471331D01*
X50874669Y50736981D01*
X51221756Y50880750D01*
X51597444Y50880750D01*
X51944531Y50736981D01*
X52210181Y50471331D01*
X52353950Y50124244D01*
X52353950Y49765816D01*
X52365831Y49707309D01*
X52397884Y49659750D01*
X54012500Y48045134D01*
X54062269Y48012166D01*
X54118566Y48001200D01*
X62975434Y48001200D01*
X63033941Y48013081D01*
X63081500Y48045134D01*
X64927325Y49890959D01*
X64960294Y49940728D01*
X64971241Y49999416D01*
X64958428Y50057725D01*
X64927325Y50103091D01*
X64724866Y50305550D01*
X64570800Y50677497D01*
X64570800Y52604103D01*
X64724866Y52976050D01*
X65009550Y53260734D01*
X65381497Y53414800D01*
X65784103Y53414800D01*
X66156050Y53260734D01*
X66440734Y52976050D01*
X66594800Y52604103D01*
X66594800Y50677497D01*
X66440734Y50305550D01*
X66138106Y50002922D01*
X66129103Y49996856D01*
X66096528Y49946828D01*
X66086000Y49891625D01*
X66086000Y49734706D01*
X66009394Y49549759D01*
X63531041Y47071406D01*
X63346094Y46994800D01*
X53747906Y46994800D01*
G37*
G36*
X77025500Y51638200D02*
X77025500Y52526097D01*
X77180175Y52899519D01*
X77465981Y53185325D01*
X77839403Y53340000D01*
X77965300Y53340000D01*
X77965300Y51638200D01*
X77025500Y51638200D01*
G37*
G36*
X7494656Y50292000D02*
X6934525Y50524013D01*
X6505813Y50952725D01*
X6273800Y51512856D01*
X6273800Y52119144D01*
X6505813Y52679275D01*
X6934525Y53107988D01*
X7494656Y53340000D01*
X8100944Y53340000D01*
X8661075Y53107988D01*
X9089788Y52679275D01*
X9321800Y52119144D01*
X9321800Y51512856D01*
X9089788Y50952725D01*
X8661075Y50524013D01*
X8100944Y50292000D01*
X7494656Y50292000D01*
G37*
G36*
X78117700Y51638200D02*
X78117700Y53340000D01*
X78243597Y53340000D01*
X78617019Y53185325D01*
X78902825Y52899519D01*
X79057500Y52526097D01*
X79057500Y51638200D01*
X78117700Y51638200D01*
G37*
G36*
X80330300Y48590200D02*
X80330300Y49351863D01*
X80510372Y49531934D01*
X80543341Y49581703D01*
X80554288Y49640391D01*
X80541475Y49698700D01*
X80506938Y49747394D01*
X80456141Y49778759D01*
X80404306Y49788000D01*
X80380197Y49788000D01*
X80008250Y49942066D01*
X79723566Y50226750D01*
X79569500Y50598697D01*
X79569500Y52525303D01*
X79723566Y52897250D01*
X80008250Y53181934D01*
X80380197Y53336000D01*
X80782803Y53336000D01*
X81154750Y53181934D01*
X81439434Y52897250D01*
X81593500Y52525303D01*
X81593500Y50598697D01*
X81439434Y50226750D01*
X81154750Y49942066D01*
X80785775Y49789231D01*
X80736269Y49755866D01*
X80703700Y49705838D01*
X80693222Y49647063D01*
X80706497Y49588859D01*
X80741422Y49540441D01*
X80792466Y49509481D01*
X80843178Y49500650D01*
X81090400Y49500650D01*
X81090400Y48590200D01*
X80330300Y48590200D01*
G37*
G36*
X76100297Y1457650D02*
X75728350Y1611716D01*
X75443666Y1896400D01*
X75289600Y2268347D01*
X75289600Y4194953D01*
X75443666Y4566900D01*
X75746294Y4869528D01*
X75755297Y4875594D01*
X75787872Y4925622D01*
X75798400Y4980825D01*
X75798400Y5078494D01*
X75875006Y5263441D01*
X77287184Y6675619D01*
X77472131Y6752225D01*
X77742509Y6752225D01*
X77801016Y6764106D01*
X77850253Y6797863D01*
X77882425Y6848153D01*
X77892434Y6907006D01*
X77878694Y6965103D01*
X77848575Y7008291D01*
X74990000Y9866866D01*
X74940231Y9899834D01*
X74883934Y9910800D01*
X67560094Y9910800D01*
X67375147Y9987406D01*
X63558403Y13804150D01*
X63508634Y13837119D01*
X63449947Y13848066D01*
X63391638Y13835253D01*
X63342944Y13800716D01*
X63311578Y13749919D01*
X63302509Y13690913D01*
X63313756Y13640681D01*
X63366581Y13513150D01*
X63366581Y13194888D01*
X63244791Y12900856D01*
X63019744Y12675809D01*
X62725713Y12554019D01*
X62706347Y12554019D01*
X62647841Y12542138D01*
X62600281Y12510084D01*
X60765397Y10675200D01*
X21482928Y10675200D01*
X21424422Y10663319D01*
X21376863Y10631266D01*
X21189334Y10443738D01*
X21156366Y10393969D01*
X21145400Y10337672D01*
X21145400Y10077069D01*
X21023609Y9783038D01*
X20798563Y9557991D01*
X20504531Y9436200D01*
X20186269Y9436200D01*
X19892238Y9557991D01*
X19667191Y9783038D01*
X19545400Y10077069D01*
X19545400Y10395331D01*
X19667191Y10689363D01*
X19892238Y10914409D01*
X20186269Y11036200D01*
X20446872Y11036200D01*
X20505378Y11048081D01*
X20552938Y11080134D01*
X21048003Y11575200D01*
X60330472Y11575200D01*
X60388978Y11587081D01*
X60436538Y11619134D01*
X61767678Y12950275D01*
X61800647Y13000044D01*
X61811594Y13058731D01*
X61800194Y13113744D01*
X61766581Y13194891D01*
X61766581Y13513150D01*
X61888372Y13807181D01*
X62113419Y14032228D01*
X62407450Y14154019D01*
X62725713Y14154019D01*
X62853244Y14101194D01*
X62911844Y14089781D01*
X62970253Y14102125D01*
X63019219Y14136275D01*
X63050988Y14186819D01*
X63060528Y14245753D01*
X63046325Y14303738D01*
X63016713Y14345841D01*
X58478688Y18883866D01*
X58428919Y18916834D01*
X58372622Y18927800D01*
X55252500Y18927800D01*
X55193994Y18915919D01*
X55144756Y18882163D01*
X55112584Y18831872D01*
X55102500Y18777800D01*
X55102500Y18084800D01*
X54190000Y18084800D01*
X54190000Y17021950D01*
X53578691Y17021950D01*
X53494041Y17106603D01*
X53444269Y17139572D01*
X53385581Y17150519D01*
X53327275Y17137709D01*
X53281906Y17106603D01*
X53201253Y17025950D01*
X53168600Y17025950D01*
X53110094Y17014069D01*
X53060856Y16980313D01*
X53028684Y16930022D01*
X53018600Y16875950D01*
X53018600Y15849909D01*
X53030481Y15791403D01*
X53064238Y15742166D01*
X53111194Y15711328D01*
X53125994Y15705197D01*
X53446400Y15384791D01*
X53610053Y14989691D01*
X53643416Y14940188D01*
X53693447Y14907616D01*
X53752219Y14897138D01*
X53810425Y14910413D01*
X53858841Y14945338D01*
X53887216Y14989691D01*
X54051809Y15387056D01*
X54373344Y15708591D01*
X54793441Y15882600D01*
X54944600Y15882600D01*
X54944600Y13596600D01*
X54793441Y13596600D01*
X54373344Y13770609D01*
X54051809Y14092144D01*
X53887216Y14489509D01*
X53853853Y14539016D01*
X53803822Y14571584D01*
X53745047Y14582063D01*
X53686844Y14568788D01*
X53638428Y14533863D01*
X53610053Y14489509D01*
X53446400Y14094409D01*
X53125991Y13774000D01*
X52707363Y13600600D01*
X52254238Y13600600D01*
X51835609Y13774000D01*
X51515200Y14094409D01*
X51349381Y14494734D01*
X51316019Y14544241D01*
X51265988Y14576809D01*
X51207213Y14587288D01*
X51149009Y14574013D01*
X51100594Y14539088D01*
X51072219Y14494734D01*
X50906400Y14094409D01*
X50585991Y13774000D01*
X50167363Y13600600D01*
X49714238Y13600600D01*
X49295609Y13774000D01*
X48975200Y14094409D01*
X48809381Y14494734D01*
X48776019Y14544241D01*
X48725988Y14576809D01*
X48667213Y14587288D01*
X48609009Y14574013D01*
X48560594Y14539088D01*
X48532219Y14494734D01*
X48366400Y14094409D01*
X48306959Y14034969D01*
X48273991Y13985200D01*
X48263044Y13926513D01*
X48275856Y13868203D01*
X48306959Y13822838D01*
X48433463Y13696334D01*
X48483231Y13663366D01*
X48539528Y13652400D01*
X48800131Y13652400D01*
X49094163Y13530609D01*
X49319209Y13305563D01*
X49441000Y13011531D01*
X49441000Y12693269D01*
X49319209Y12399238D01*
X49094163Y12174191D01*
X48800131Y12052400D01*
X48481869Y12052400D01*
X48187838Y12174191D01*
X47962791Y12399238D01*
X47841000Y12693269D01*
X47841000Y12953872D01*
X47829119Y13012378D01*
X47797066Y13059938D01*
X47300338Y13556666D01*
X47250569Y13589634D01*
X47194272Y13600600D01*
X47174238Y13600600D01*
X46755609Y13774000D01*
X46435200Y14094409D01*
X46269381Y14494734D01*
X46236019Y14544241D01*
X46185988Y14576809D01*
X46127213Y14587288D01*
X46069009Y14574013D01*
X46020594Y14539088D01*
X45992219Y14494734D01*
X45826400Y14094409D01*
X45505991Y13774000D01*
X45087363Y13600600D01*
X44634238Y13600600D01*
X44215609Y13774000D01*
X43895200Y14094409D01*
X43731547Y14489509D01*
X43698184Y14539013D01*
X43648153Y14571584D01*
X43589381Y14582063D01*
X43531175Y14568788D01*
X43482759Y14533863D01*
X43454384Y14489509D01*
X43289791Y14092144D01*
X42968256Y13770609D01*
X42548159Y13596600D01*
X42397000Y13596600D01*
X42397000Y15882600D01*
X42548159Y15882600D01*
X42968256Y15708591D01*
X43289791Y15387056D01*
X43454384Y14989691D01*
X43487747Y14940184D01*
X43537778Y14907616D01*
X43596553Y14897138D01*
X43654756Y14910413D01*
X43703172Y14945338D01*
X43731547Y14989691D01*
X43895200Y15384791D01*
X44215609Y15705200D01*
X44308703Y15743759D01*
X44358206Y15777122D01*
X44390778Y15827153D01*
X44401300Y15882341D01*
X44401300Y16898500D01*
X44389419Y16957006D01*
X44355663Y17006244D01*
X44305372Y17038416D01*
X44251300Y17048500D01*
X44232147Y17048500D01*
X44085700Y17194947D01*
X44085700Y17408600D01*
X44073819Y17467106D01*
X44040063Y17516344D01*
X43989772Y17548516D01*
X43935700Y17558600D01*
X42548500Y17558600D01*
X42489994Y17546719D01*
X42440756Y17512963D01*
X42408584Y17462672D01*
X42398500Y17408600D01*
X42398500Y17172397D01*
X42252053Y17025950D01*
X40880350Y17025950D01*
X40799700Y17106603D01*
X40749928Y17139572D01*
X40691241Y17150519D01*
X40632934Y17137709D01*
X40587566Y17106603D01*
X40502913Y17021950D01*
X39891600Y17021950D01*
X39891600Y18995250D01*
X40502909Y18995250D01*
X40587566Y18910597D01*
X40637338Y18877631D01*
X40696025Y18866684D01*
X40754331Y18879497D01*
X40799697Y18910600D01*
X40880347Y18991250D01*
X42252053Y18991250D01*
X42398500Y18844803D01*
X42398500Y18608600D01*
X42410381Y18550094D01*
X42444138Y18500856D01*
X42494428Y18468684D01*
X42548500Y18458600D01*
X43935700Y18458600D01*
X43994206Y18470481D01*
X44043444Y18504238D01*
X44075616Y18554528D01*
X44085700Y18608600D01*
X44085700Y18822253D01*
X44232147Y18968700D01*
X45470453Y18968700D01*
X45616900Y18822253D01*
X45616900Y17194947D01*
X45470453Y17048500D01*
X45451300Y17048500D01*
X45392794Y17036619D01*
X45343556Y17002863D01*
X45311384Y16952572D01*
X45301300Y16898500D01*
X45301300Y15890209D01*
X45313181Y15831703D01*
X45346938Y15782466D01*
X45393900Y15751628D01*
X45505991Y15705200D01*
X45826400Y15384791D01*
X45992219Y14984466D01*
X46025581Y14934959D01*
X46075613Y14902391D01*
X46134388Y14891913D01*
X46192591Y14905188D01*
X46241006Y14940113D01*
X46269381Y14984466D01*
X46435200Y15384791D01*
X46755609Y15705200D01*
X47174238Y15878600D01*
X47627363Y15878600D01*
X48045991Y15705200D01*
X48366400Y15384791D01*
X48532219Y14984466D01*
X48565581Y14934959D01*
X48615613Y14902391D01*
X48674388Y14891913D01*
X48732591Y14905188D01*
X48781006Y14940113D01*
X48809381Y14984466D01*
X48975200Y15384791D01*
X49268794Y15678384D01*
X49301763Y15728153D01*
X49312709Y15786841D01*
X49299897Y15845150D01*
X49265359Y15893844D01*
X49220131Y15923031D01*
X48949838Y16034991D01*
X48724791Y16260038D01*
X48603000Y16554069D01*
X48603000Y16872331D01*
X48724791Y17166363D01*
X48807763Y17249334D01*
X48840731Y17299103D01*
X48851678Y17357791D01*
X48838866Y17416100D01*
X48804328Y17464794D01*
X48753531Y17496159D01*
X48701697Y17505400D01*
X47605900Y17505400D01*
X47547394Y17493519D01*
X47498156Y17459763D01*
X47465984Y17409472D01*
X47455900Y17355400D01*
X47455900Y17194947D01*
X47309453Y17048500D01*
X46071147Y17048500D01*
X45924700Y17194947D01*
X45924700Y18822253D01*
X46071147Y18968700D01*
X47309453Y18968700D01*
X47455900Y18822253D01*
X47455900Y18661800D01*
X47467781Y18603294D01*
X47501538Y18554056D01*
X47551828Y18521884D01*
X47605900Y18511800D01*
X51533100Y18511800D01*
X51591606Y18523681D01*
X51640844Y18557438D01*
X51673016Y18607728D01*
X51683100Y18661800D01*
X51683100Y18844803D01*
X51829547Y18991250D01*
X52380484Y18991250D01*
X52438991Y19003131D01*
X52486550Y19035184D01*
X53308959Y19857594D01*
X53493906Y19934200D01*
X58743281Y19934200D01*
X58928228Y19857594D01*
X67824688Y10961134D01*
X67874456Y10928166D01*
X67930753Y10917200D01*
X75254594Y10917200D01*
X75439541Y10840594D01*
X78873184Y7406950D01*
X78922953Y7373981D01*
X78981641Y7363034D01*
X79039950Y7375847D01*
X79085316Y7406950D01*
X80232959Y8554594D01*
X80417906Y8631200D01*
X88629434Y8631200D01*
X88687941Y8643081D01*
X88735500Y8675134D01*
X94575866Y14515500D01*
X94608834Y14565269D01*
X94619800Y14621566D01*
X94619800Y18523800D01*
X94607919Y18582306D01*
X94574163Y18631544D01*
X94523872Y18663716D01*
X94469800Y18673800D01*
X66574906Y18673800D01*
X66389959Y18750406D01*
X60033500Y25106866D01*
X59983731Y25139834D01*
X59927434Y25150800D01*
X35449566Y25150800D01*
X35391059Y25138919D01*
X35343500Y25106866D01*
X33254241Y23017606D01*
X33069294Y22941000D01*
X30100506Y22941000D01*
X29915559Y23017606D01*
X28707206Y24225959D01*
X28630600Y24410906D01*
X28630600Y27024094D01*
X28707206Y27209041D01*
X29932866Y28434700D01*
X29965834Y28484469D01*
X29976800Y28540766D01*
X29976800Y37816097D01*
X29964919Y37874603D01*
X29932866Y37922163D01*
X29801791Y38053238D01*
X29680000Y38347269D01*
X29680000Y38532634D01*
X29668119Y38591141D01*
X29636066Y38638700D01*
X29275950Y38998816D01*
X29226181Y39031784D01*
X29169884Y39042750D01*
X12796534Y39042750D01*
X12738028Y39030869D01*
X12690469Y38998816D01*
X9864134Y36172481D01*
X9831166Y36122713D01*
X9820200Y36066416D01*
X9820200Y28025503D01*
X9832081Y27966997D01*
X9864134Y27919438D01*
X9974609Y27808963D01*
X10096400Y27514931D01*
X10096400Y27329566D01*
X10108281Y27271059D01*
X10140334Y27223500D01*
X13601100Y23762734D01*
X13650869Y23729766D01*
X13707166Y23718800D01*
X26043834Y23718800D01*
X26102341Y23730681D01*
X26149900Y23762734D01*
X26511866Y24124700D01*
X26544834Y24174469D01*
X26555800Y24230766D01*
X26555800Y24416131D01*
X26677591Y24710163D01*
X26902638Y24935209D01*
X27196669Y25057000D01*
X27514931Y25057000D01*
X27808963Y24935209D01*
X28034009Y24710163D01*
X28155800Y24416131D01*
X28155800Y24097869D01*
X28034009Y23803838D01*
X27808963Y23578791D01*
X27514931Y23457000D01*
X27329566Y23457000D01*
X27271059Y23445119D01*
X27223500Y23413066D01*
X26599441Y22789006D01*
X26414494Y22712400D01*
X13336506Y22712400D01*
X13151559Y22789006D01*
X9428700Y26511866D01*
X9378931Y26544834D01*
X9322634Y26555800D01*
X9137269Y26555800D01*
X8843238Y26677591D01*
X8618191Y26902638D01*
X8496400Y27196669D01*
X8496400Y27514931D01*
X8618191Y27808963D01*
X8769866Y27960638D01*
X8802834Y28010406D01*
X8813800Y28066703D01*
X8813800Y36437075D01*
X8890406Y36622022D01*
X12240928Y39972544D01*
X12425875Y40049150D01*
X29540544Y40049150D01*
X29725491Y39972544D01*
X29759734Y39938300D01*
X29809503Y39905331D01*
X29868191Y39894384D01*
X29926500Y39907197D01*
X29975194Y39941734D01*
X30006559Y39992531D01*
X30015800Y40044366D01*
X30015800Y47406750D01*
X30003919Y47465256D01*
X29970163Y47514494D01*
X29919872Y47546666D01*
X29865800Y47556750D01*
X29833147Y47556750D01*
X29686700Y47703197D01*
X29686700Y48717781D01*
X29675284Y48775181D01*
X29672000Y48783109D01*
X29672000Y49558825D01*
X29660119Y49617331D01*
X29626363Y49666569D01*
X29617872Y49672144D01*
X29317266Y49972750D01*
X29163200Y50344697D01*
X29163200Y52271303D01*
X29317266Y52643250D01*
X29601950Y52927934D01*
X29973897Y53082000D01*
X30376503Y53082000D01*
X30748450Y52927934D01*
X31033134Y52643250D01*
X31187200Y52271303D01*
X31187200Y50344697D01*
X31033134Y49972750D01*
X30838500Y49778116D01*
X30805531Y49728347D01*
X30794584Y49669659D01*
X30807397Y49611350D01*
X30841934Y49562656D01*
X30892731Y49531291D01*
X30944566Y49522050D01*
X31204850Y49522050D01*
X31285506Y49441397D01*
X31335278Y49408431D01*
X31393966Y49397484D01*
X31452272Y49410297D01*
X31497638Y49441400D01*
X31582288Y49526050D01*
X31936175Y49526050D01*
X31994681Y49537931D01*
X32043919Y49571688D01*
X32076091Y49621978D01*
X32086100Y49680831D01*
X32072359Y49738928D01*
X32042241Y49782116D01*
X31853875Y49970481D01*
X31699200Y50343903D01*
X31699200Y51231800D01*
X33731200Y51231800D01*
X33731200Y50343903D01*
X33576525Y49970481D01*
X33290719Y49684675D01*
X33150200Y49626472D01*
X33100697Y49593109D01*
X33068125Y49543078D01*
X33057647Y49484306D01*
X33070922Y49426100D01*
X33101538Y49381825D01*
X33106100Y49377263D01*
X33106100Y48615600D01*
X32193600Y48615600D01*
X32193600Y47552750D01*
X31582291Y47552750D01*
X31497641Y47637403D01*
X31447869Y47670372D01*
X31389181Y47681319D01*
X31330875Y47668509D01*
X31285506Y47637403D01*
X31204853Y47556750D01*
X31172200Y47556750D01*
X31113694Y47544869D01*
X31064456Y47511113D01*
X31032284Y47460822D01*
X31022200Y47406750D01*
X31022200Y39157703D01*
X31034081Y39099197D01*
X31066134Y39051638D01*
X31158209Y38959563D01*
X31280000Y38665531D01*
X31280000Y38480166D01*
X31291881Y38421659D01*
X31323934Y38374100D01*
X33239850Y36458184D01*
X33289619Y36425216D01*
X33345916Y36414250D01*
X71962484Y36414250D01*
X72020991Y36426131D01*
X72068550Y36458184D01*
X82383866Y46773500D01*
X82416834Y46823269D01*
X82427800Y46879566D01*
X82427800Y47381350D01*
X82415919Y47439856D01*
X82382163Y47489094D01*
X82331872Y47521266D01*
X82277800Y47531350D01*
X82231550Y47531350D01*
X82150900Y47612003D01*
X82101128Y47644972D01*
X82042441Y47655919D01*
X81984134Y47643109D01*
X81938766Y47612003D01*
X81854113Y47527350D01*
X81242800Y47527350D01*
X81242800Y49500650D01*
X81854109Y49500650D01*
X81938766Y49415997D01*
X81988538Y49383031D01*
X82047225Y49372084D01*
X82105531Y49384897D01*
X82150897Y49416000D01*
X82231547Y49496650D01*
X82869478Y49496650D01*
X82927984Y49508531D01*
X82977222Y49542288D01*
X83009394Y49592578D01*
X83019403Y49651431D01*
X83005663Y49709528D01*
X82970353Y49757666D01*
X82926881Y49785231D01*
X82548250Y49942066D01*
X82263566Y50226750D01*
X82109500Y50598697D01*
X82109500Y52525303D01*
X82263566Y52897250D01*
X82548250Y53181934D01*
X82920197Y53336000D01*
X83322803Y53336000D01*
X83694750Y53181934D01*
X83979434Y52897250D01*
X84133500Y52525303D01*
X84133500Y50598697D01*
X83979434Y50226750D01*
X83694750Y49942066D01*
X83316119Y49785231D01*
X83266613Y49751866D01*
X83234044Y49701834D01*
X83223566Y49643063D01*
X83236841Y49584859D01*
X83271766Y49536441D01*
X83322809Y49505481D01*
X83373522Y49496650D01*
X83603253Y49496650D01*
X83749700Y49350203D01*
X83749700Y49167200D01*
X83761581Y49108694D01*
X83795338Y49059456D01*
X83845628Y49027284D01*
X83899700Y49017200D01*
X84565434Y49017200D01*
X84623941Y49029081D01*
X84671500Y49061134D01*
X85114366Y49504000D01*
X85147334Y49553769D01*
X85158300Y49610066D01*
X85158300Y49812825D01*
X85146419Y49871331D01*
X85112663Y49920569D01*
X85104172Y49926144D01*
X84803566Y50226750D01*
X84649500Y50598697D01*
X84649500Y52525303D01*
X84803566Y52897250D01*
X85088250Y53181934D01*
X85460197Y53336000D01*
X85862803Y53336000D01*
X86234750Y53181934D01*
X86519434Y52897250D01*
X86673500Y52525303D01*
X86673500Y50598697D01*
X86519434Y50226750D01*
X86216806Y49924122D01*
X86207803Y49918056D01*
X86175228Y49868028D01*
X86164700Y49812825D01*
X86164700Y49239406D01*
X86088094Y49054459D01*
X85121041Y48087406D01*
X84936094Y48010800D01*
X83899700Y48010800D01*
X83841194Y47998919D01*
X83791956Y47965163D01*
X83759784Y47914872D01*
X83749700Y47860800D01*
X83749700Y47677797D01*
X83603253Y47531350D01*
X83584200Y47531350D01*
X83525694Y47519469D01*
X83476456Y47485713D01*
X83444284Y47435422D01*
X83434200Y47381350D01*
X83434200Y46508906D01*
X83357594Y46323959D01*
X73703950Y36670316D01*
X73670981Y36620547D01*
X73660034Y36561859D01*
X73672847Y36503550D01*
X73707384Y36454856D01*
X73758181Y36423491D01*
X73810016Y36414250D01*
X93983044Y36414250D01*
X94167991Y36337644D01*
X95549594Y34956041D01*
X95626200Y34771094D01*
X95626200Y14250906D01*
X95549594Y14065959D01*
X89185041Y7701406D01*
X89000094Y7624800D01*
X80788566Y7624800D01*
X80730059Y7612919D01*
X80682500Y7580866D01*
X80593375Y7491741D01*
X80560406Y7441972D01*
X80549459Y7383284D01*
X80562272Y7324975D01*
X80596809Y7276281D01*
X80647606Y7244916D01*
X80699441Y7235675D01*
X80893100Y7235675D01*
X80893100Y5262375D01*
X80281791Y5262375D01*
X80197141Y5347028D01*
X80147369Y5379997D01*
X80088681Y5390944D01*
X80030375Y5378134D01*
X79985006Y5347028D01*
X79904353Y5266375D01*
X79167556Y5266375D01*
X79109050Y5254494D01*
X79059813Y5220738D01*
X79027641Y5170447D01*
X79017631Y5111594D01*
X79031372Y5053497D01*
X79066681Y5005359D01*
X79110153Y4977794D01*
X79414850Y4851584D01*
X79699534Y4566900D01*
X79853600Y4194953D01*
X79853600Y2268347D01*
X79699534Y1896400D01*
X79414850Y1611716D01*
X79042903Y1457650D01*
X78640297Y1457650D01*
X78268350Y1611716D01*
X77983666Y1896400D01*
X77829600Y2268347D01*
X77829600Y4194953D01*
X77983666Y4566900D01*
X78268350Y4851584D01*
X78573047Y4977794D01*
X78622553Y5011159D01*
X78655122Y5061188D01*
X78665600Y5119963D01*
X78652325Y5178166D01*
X78617400Y5226584D01*
X78566356Y5257544D01*
X78536231Y5262791D01*
X78386200Y5412822D01*
X78386200Y5595825D01*
X78374319Y5654331D01*
X78340563Y5703569D01*
X78290272Y5735741D01*
X78236200Y5745825D01*
X77842791Y5745825D01*
X77784284Y5733944D01*
X77736725Y5701891D01*
X76986700Y4951866D01*
X76953731Y4902097D01*
X76942784Y4843409D01*
X76955597Y4785100D01*
X76986700Y4739734D01*
X77159534Y4566900D01*
X77313600Y4194953D01*
X77313600Y2268347D01*
X77159534Y1896400D01*
X76874850Y1611716D01*
X76502903Y1457650D01*
X76100297Y1457650D01*
G37*
G36*
X44603906Y36834800D02*
X44418959Y36911406D01*
X43363006Y37967359D01*
X43286400Y38152306D01*
X43286400Y41421956D01*
X43274519Y41480463D01*
X43242466Y41528022D01*
X42989019Y41781469D01*
X42845250Y42128556D01*
X42845250Y42504244D01*
X42989019Y42851331D01*
X43254669Y43116981D01*
X43601756Y43260750D01*
X43977444Y43260750D01*
X44324531Y43116981D01*
X44590181Y42851331D01*
X44733950Y42504244D01*
X44733950Y42128556D01*
X44590181Y41781469D01*
X44336734Y41528022D01*
X44303766Y41478253D01*
X44292800Y41421956D01*
X44292800Y38522966D01*
X44304681Y38464459D01*
X44336734Y38416900D01*
X44868500Y37885134D01*
X44918269Y37852166D01*
X44974566Y37841200D01*
X58055013Y37841200D01*
X58113519Y37853081D01*
X58162756Y37886838D01*
X58194928Y37937128D01*
X58204938Y37995981D01*
X58191197Y38054078D01*
X58161078Y38097266D01*
X57988888Y38269456D01*
X57806200Y38710503D01*
X57806200Y39187897D01*
X57988888Y39628944D01*
X58326456Y39966513D01*
X58767503Y40149200D01*
X59244897Y40149200D01*
X59685944Y39966513D01*
X60023513Y39628944D01*
X60206200Y39187897D01*
X60206200Y38710503D01*
X60023513Y38269456D01*
X59851322Y38097266D01*
X59818353Y38047497D01*
X59807406Y37988809D01*
X59820219Y37930500D01*
X59854756Y37881806D01*
X59905553Y37850441D01*
X59957388Y37841200D01*
X63229434Y37841200D01*
X63287941Y37853081D01*
X63335500Y37885134D01*
X72046066Y46595700D01*
X72079034Y46645469D01*
X72090000Y46701766D01*
X72090000Y49734025D01*
X72078119Y49792531D01*
X72044363Y49841769D01*
X72035872Y49847344D01*
X71735266Y50147950D01*
X71581200Y50519897D01*
X71581200Y52446503D01*
X71735266Y52818450D01*
X72019950Y53103134D01*
X72391897Y53257200D01*
X72794503Y53257200D01*
X73166450Y53103134D01*
X73451134Y52818450D01*
X73605200Y52446503D01*
X73605200Y50519897D01*
X73451134Y50147950D01*
X73148506Y49845322D01*
X73139503Y49839256D01*
X73106928Y49789228D01*
X73096400Y49734025D01*
X73096400Y46331106D01*
X73019794Y46146159D01*
X63785041Y36911406D01*
X63600094Y36834800D01*
X44603906Y36834800D01*
G37*
G36*
X51221756Y41372050D02*
X50874669Y41515819D01*
X50609019Y41781469D01*
X50465250Y42128556D01*
X50465250Y42504244D01*
X50609019Y42851331D01*
X50874669Y43116981D01*
X51221756Y43260750D01*
X51597444Y43260750D01*
X51752100Y43196688D01*
X51810697Y43185275D01*
X51869106Y43197619D01*
X51915569Y43229203D01*
X53562959Y44876594D01*
X53747906Y44953200D01*
X65007434Y44953200D01*
X65065941Y44965081D01*
X65113500Y44997134D01*
X69506066Y49389700D01*
X69539034Y49439469D01*
X69550000Y49495766D01*
X69550000Y49734025D01*
X69538119Y49792531D01*
X69504363Y49841769D01*
X69495872Y49847344D01*
X69195266Y50147950D01*
X69041200Y50519897D01*
X69041200Y52446503D01*
X69195266Y52818450D01*
X69479950Y53103134D01*
X69851897Y53257200D01*
X70254503Y53257200D01*
X70626450Y53103134D01*
X70911134Y52818450D01*
X71065200Y52446503D01*
X71065200Y50519897D01*
X70911134Y50147950D01*
X70608506Y49845322D01*
X70599503Y49839256D01*
X70566928Y49789228D01*
X70556400Y49734025D01*
X70556400Y49125106D01*
X70479794Y48940159D01*
X65563041Y44023406D01*
X65378094Y43946800D01*
X54118566Y43946800D01*
X54060059Y43934919D01*
X54012500Y43902866D01*
X53626450Y43516816D01*
X53593481Y43467047D01*
X53582534Y43408359D01*
X53595347Y43350050D01*
X53629884Y43301356D01*
X53680681Y43269991D01*
X53732516Y43260750D01*
X54137444Y43260750D01*
X54484531Y43116981D01*
X54750181Y42851331D01*
X54893950Y42504244D01*
X54893950Y42128556D01*
X54750181Y41781469D01*
X54484531Y41515819D01*
X54137444Y41372050D01*
X53761756Y41372050D01*
X53414669Y41515819D01*
X53149019Y41781469D01*
X53005250Y42128556D01*
X53005250Y42533484D01*
X52993369Y42591991D01*
X52959613Y42641228D01*
X52909322Y42673400D01*
X52850469Y42683409D01*
X52792372Y42669669D01*
X52749184Y42639550D01*
X52397884Y42288250D01*
X52364916Y42238481D01*
X52353950Y42182184D01*
X52353950Y42128556D01*
X52210181Y41781469D01*
X51944531Y41515819D01*
X51597444Y41372050D01*
X51221756Y41372050D01*
G37*
G36*
X32791400Y51384200D02*
X32791400Y53086000D01*
X32917297Y53086000D01*
X33290719Y52931325D01*
X33576525Y52645519D01*
X33731200Y52272097D01*
X33731200Y51384200D01*
X32791400Y51384200D01*
G37*
G36*
X20853400Y51384200D02*
X20853400Y53086000D01*
X20979297Y53086000D01*
X21352719Y52931325D01*
X21638525Y52645519D01*
X21793200Y52272097D01*
X21793200Y51384200D01*
X20853400Y51384200D01*
G37*
G36*
X31699200Y51384200D02*
X31699200Y52272097D01*
X31853875Y52645519D01*
X32139681Y52931325D01*
X32513103Y53086000D01*
X32639000Y53086000D01*
X32639000Y51384200D01*
X31699200Y51384200D01*
G37*
G36*
X19761200Y51384200D02*
X19761200Y52272097D01*
X19915875Y52645519D01*
X20201681Y52931325D01*
X20575103Y53086000D01*
X20701000Y53086000D01*
X20701000Y51384200D01*
X19761200Y51384200D01*
G37*
G36*
X19695091Y47247950D02*
X19610441Y47332603D01*
X19560669Y47365572D01*
X19501981Y47376519D01*
X19443675Y47363709D01*
X19398306Y47332603D01*
X19317653Y47251950D01*
X17945947Y47251950D01*
X17799500Y47398397D01*
X17799500Y48341138D01*
X17788081Y48398538D01*
X17734000Y48529103D01*
X17734000Y49558825D01*
X17722119Y49617331D01*
X17688363Y49666569D01*
X17679872Y49672144D01*
X17379266Y49972750D01*
X17225200Y50344697D01*
X17225200Y52271303D01*
X17379266Y52643250D01*
X17663950Y52927934D01*
X18035897Y53082000D01*
X18438503Y53082000D01*
X18810450Y52927934D01*
X19095134Y52643250D01*
X19249200Y52271303D01*
X19249200Y50344697D01*
X19095134Y49972750D01*
X18792506Y49670122D01*
X18783503Y49664056D01*
X18750928Y49614028D01*
X18740400Y49558825D01*
X18740400Y49367250D01*
X18752281Y49308744D01*
X18786038Y49259506D01*
X18836328Y49227334D01*
X18890400Y49217250D01*
X19317650Y49217250D01*
X19398306Y49136597D01*
X19448078Y49103631D01*
X19506766Y49092684D01*
X19565072Y49105497D01*
X19610438Y49136600D01*
X19695088Y49221250D01*
X20306400Y49221250D01*
X20306400Y47247950D01*
X19695091Y47247950D01*
G37*
G36*
X38521756Y48992050D02*
X38174669Y49135819D01*
X37909019Y49401469D01*
X37765250Y49748556D01*
X37765250Y50124244D01*
X37909019Y50471331D01*
X38192103Y50754416D01*
X38202331Y50761313D01*
X38234891Y50811350D01*
X38245400Y50866506D01*
X38245400Y50937350D01*
X38233519Y50995856D01*
X38199763Y51045094D01*
X38149472Y51077266D01*
X38095400Y51087350D01*
X38062747Y51087350D01*
X37916300Y51233797D01*
X37916300Y52906203D01*
X38062747Y53052650D01*
X39434450Y53052650D01*
X39515106Y52971997D01*
X39564878Y52939031D01*
X39623566Y52928084D01*
X39681872Y52940897D01*
X39727238Y52972000D01*
X39811888Y53056650D01*
X40423200Y53056650D01*
X40423200Y51083350D01*
X39811891Y51083350D01*
X39727241Y51168003D01*
X39677469Y51200972D01*
X39618781Y51211919D01*
X39560475Y51199109D01*
X39515106Y51168003D01*
X39434453Y51087350D01*
X39401800Y51087350D01*
X39343294Y51075469D01*
X39294056Y51041713D01*
X39261884Y50991422D01*
X39251800Y50937350D01*
X39251800Y50791844D01*
X39263681Y50733338D01*
X39295734Y50685778D01*
X39510181Y50471331D01*
X39653950Y50124244D01*
X39653950Y49748556D01*
X39510181Y49401469D01*
X39244531Y49135819D01*
X38897444Y48992050D01*
X38521756Y48992050D01*
G37*
G36*
X40575600Y52146200D02*
X40575600Y53056650D01*
X41186913Y53056650D01*
X41335700Y52907863D01*
X41335700Y52146200D01*
X40575600Y52146200D01*
G37*
G36*
X41061756Y48992050D02*
X40714669Y49135819D01*
X40449019Y49401469D01*
X40305250Y49748556D01*
X40305250Y50124244D01*
X40449019Y50471331D01*
X40714669Y50736981D01*
X40854181Y50794769D01*
X40903688Y50828134D01*
X40936256Y50878163D01*
X40946734Y50936938D01*
X40933459Y50995141D01*
X40898534Y51043559D01*
X40847491Y51074519D01*
X40796778Y51083350D01*
X40575600Y51083350D01*
X40575600Y51993800D01*
X41335700Y51993800D01*
X41335700Y51232138D01*
X41240378Y51136816D01*
X41207409Y51087047D01*
X41196463Y51028359D01*
X41209275Y50970050D01*
X41243813Y50921356D01*
X41294609Y50889991D01*
X41346444Y50880750D01*
X41437444Y50880750D01*
X41784531Y50736981D01*
X42050181Y50471331D01*
X42193950Y50124244D01*
X42193950Y49748556D01*
X42050181Y49401469D01*
X41784531Y49135819D01*
X41437444Y48992050D01*
X41061756Y48992050D01*
G37*
G36*
X78117700Y49784000D02*
X78117700Y51485800D01*
X79057500Y51485800D01*
X79057500Y50597903D01*
X78902825Y50224481D01*
X78617019Y49938675D01*
X78243597Y49784000D01*
X78117700Y49784000D01*
G37*
G36*
X77839403Y49784000D02*
X77465981Y49938675D01*
X77180175Y50224481D01*
X77025500Y50597903D01*
X77025500Y51485800D01*
X77965300Y51485800D01*
X77965300Y49784000D01*
X77839403Y49784000D01*
G37*
G36*
X20853400Y49530000D02*
X20853400Y51231800D01*
X21793200Y51231800D01*
X21793200Y50343903D01*
X21638525Y49970481D01*
X21352719Y49684675D01*
X20979297Y49530000D01*
X20853400Y49530000D01*
G37*
G36*
X20575103Y49530000D02*
X20201681Y49684675D01*
X19915875Y49970481D01*
X19761200Y50343903D01*
X19761200Y51231800D01*
X20701000Y51231800D01*
X20701000Y49530000D01*
X20575103Y49530000D01*
G37*
G36*
X47921250Y50012600D02*
X47921250Y50125041D01*
X48065625Y50473597D01*
X48332403Y50740375D01*
X48680959Y50884750D01*
X48793400Y50884750D01*
X48793400Y50012600D01*
X47921250Y50012600D01*
G37*
G36*
X45381250Y50012600D02*
X45381250Y50125041D01*
X45525625Y50473597D01*
X45792403Y50740375D01*
X46140959Y50884750D01*
X46253400Y50884750D01*
X46253400Y50012600D01*
X45381250Y50012600D01*
G37*
G36*
X46405800Y50012600D02*
X46405800Y50884750D01*
X46518241Y50884750D01*
X46866797Y50740375D01*
X47133575Y50473597D01*
X47277950Y50125041D01*
X47277950Y50012600D01*
X46405800Y50012600D01*
G37*
G36*
X48945800Y50012600D02*
X48945800Y50884750D01*
X49058241Y50884750D01*
X49406797Y50740375D01*
X49673575Y50473597D01*
X49817950Y50125041D01*
X49817950Y50012600D01*
X48945800Y50012600D01*
G37*
G36*
X53761756Y48992050D02*
X53414669Y49135819D01*
X53149019Y49401469D01*
X53005250Y49748556D01*
X53005250Y50124244D01*
X53149019Y50471331D01*
X53414669Y50736981D01*
X53761756Y50880750D01*
X54137444Y50880750D01*
X54484531Y50736981D01*
X54750181Y50471331D01*
X54893950Y50124244D01*
X54893950Y49748556D01*
X54750181Y49401469D01*
X54484531Y49135819D01*
X54137444Y48992050D01*
X53761756Y48992050D01*
G37*
G36*
X56301756Y48992050D02*
X55954669Y49135819D01*
X55689019Y49401469D01*
X55545250Y49748556D01*
X55545250Y50124244D01*
X55689019Y50471331D01*
X55954669Y50736981D01*
X56301756Y50880750D01*
X56677444Y50880750D01*
X57024531Y50736981D01*
X57290181Y50471331D01*
X57433950Y50124244D01*
X57433950Y49748556D01*
X57290181Y49401469D01*
X57024531Y49135819D01*
X56677444Y48992050D01*
X56301756Y48992050D01*
G37*
G36*
X48945800Y48988050D02*
X48945800Y49860200D01*
X49817950Y49860200D01*
X49817950Y49747759D01*
X49673575Y49399203D01*
X49406797Y49132425D01*
X49058241Y48988050D01*
X48945800Y48988050D01*
G37*
G36*
X46140959Y48988050D02*
X45792403Y49132425D01*
X45525625Y49399203D01*
X45381250Y49747759D01*
X45381250Y49860200D01*
X46253400Y49860200D01*
X46253400Y48988050D01*
X46140959Y48988050D01*
G37*
G36*
X46405800Y48988050D02*
X46405800Y49860200D01*
X47277950Y49860200D01*
X47277950Y49747759D01*
X47133575Y49399203D01*
X46866797Y49132425D01*
X46518241Y48988050D01*
X46405800Y48988050D01*
G37*
G36*
X48680959Y48988050D02*
X48332403Y49132425D01*
X48065625Y49399203D01*
X47921250Y49747759D01*
X47921250Y49860200D01*
X48793400Y49860200D01*
X48793400Y48988050D01*
X48680959Y48988050D01*
G37*
G36*
X20458800Y48310800D02*
X20458800Y49221250D01*
X21070113Y49221250D01*
X21218900Y49072463D01*
X21218900Y48310800D01*
X20458800Y48310800D01*
G37*
G36*
X32346000Y47552750D02*
X32346000Y48463200D01*
X33106100Y48463200D01*
X33106100Y47701538D01*
X32957313Y47552750D01*
X32346000Y47552750D01*
G37*
G36*
X80479088Y47527350D02*
X80330300Y47676138D01*
X80330300Y48437800D01*
X81090400Y48437800D01*
X81090400Y47527350D01*
X80479088Y47527350D01*
G37*
G36*
X20458800Y47247950D02*
X20458800Y48158400D01*
X21218900Y48158400D01*
X21218900Y47396738D01*
X21070113Y47247950D01*
X20458800Y47247950D01*
G37*
G36*
X1348097Y45495400D02*
X976150Y45649466D01*
X691466Y45934150D01*
X537400Y46306097D01*
X537400Y46708703D01*
X691466Y47080650D01*
X976150Y47365334D01*
X1348097Y47519400D01*
X3274703Y47519400D01*
X3646650Y47365334D01*
X3931334Y47080650D01*
X4085400Y46708703D01*
X4085400Y46306097D01*
X3931334Y45934150D01*
X3646650Y45649466D01*
X3274703Y45495400D01*
X1348097Y45495400D01*
G37*
G36*
X1348097Y42955400D02*
X976150Y43109466D01*
X691466Y43394150D01*
X537400Y43766097D01*
X537400Y44168703D01*
X691466Y44540650D01*
X976150Y44825334D01*
X1348097Y44979400D01*
X3274703Y44979400D01*
X3646650Y44825334D01*
X3931334Y44540650D01*
X4085400Y44168703D01*
X4085400Y43766097D01*
X3931334Y43394150D01*
X3646650Y43109466D01*
X3274703Y42955400D01*
X1348097Y42955400D01*
G37*
G36*
X45381250Y42392600D02*
X45381250Y42505041D01*
X45525625Y42853597D01*
X45792403Y43120375D01*
X46140959Y43264750D01*
X46253400Y43264750D01*
X46253400Y42392600D01*
X45381250Y42392600D01*
G37*
G36*
X47921250Y42392600D02*
X47921250Y42505041D01*
X48065625Y42853597D01*
X48332403Y43120375D01*
X48680959Y43264750D01*
X48793400Y43264750D01*
X48793400Y42392600D01*
X47921250Y42392600D01*
G37*
G36*
X48945800Y42392600D02*
X48945800Y43264750D01*
X49058241Y43264750D01*
X49406797Y43120375D01*
X49673575Y42853597D01*
X49817950Y42505041D01*
X49817950Y42392600D01*
X48945800Y42392600D01*
G37*
G36*
X46405800Y42392600D02*
X46405800Y43264750D01*
X46518241Y43264750D01*
X46866797Y43120375D01*
X47133575Y42853597D01*
X47277950Y42505041D01*
X47277950Y42392600D01*
X46405800Y42392600D01*
G37*
G36*
X38521756Y41372050D02*
X38174669Y41515819D01*
X37909019Y41781469D01*
X37765250Y42128556D01*
X37765250Y42504244D01*
X37909019Y42851331D01*
X38174669Y43116981D01*
X38521756Y43260750D01*
X38897444Y43260750D01*
X39244531Y43116981D01*
X39510181Y42851331D01*
X39653950Y42504244D01*
X39653950Y42128556D01*
X39510181Y41781469D01*
X39244531Y41515819D01*
X38897444Y41372050D01*
X38521756Y41372050D01*
G37*
G36*
X41061756Y41372050D02*
X40714669Y41515819D01*
X40449019Y41781469D01*
X40305250Y42128556D01*
X40305250Y42504244D01*
X40449019Y42851331D01*
X40714669Y43116981D01*
X41061756Y43260750D01*
X41437444Y43260750D01*
X41784531Y43116981D01*
X42050181Y42851331D01*
X42193950Y42504244D01*
X42193950Y42128556D01*
X42050181Y41781469D01*
X41784531Y41515819D01*
X41437444Y41372050D01*
X41061756Y41372050D01*
G37*
G36*
X54826800Y38967550D02*
X54826800Y40940850D01*
X55438109Y40940850D01*
X55522766Y40856197D01*
X55572538Y40823231D01*
X55631225Y40812284D01*
X55689531Y40825097D01*
X55734897Y40856200D01*
X55815547Y40936850D01*
X55848200Y40936850D01*
X55906706Y40948731D01*
X55955944Y40982488D01*
X55988116Y41032778D01*
X55998200Y41086850D01*
X55998200Y41410156D01*
X55986319Y41468663D01*
X55954266Y41516222D01*
X55689019Y41781469D01*
X55545250Y42128556D01*
X55545250Y42504244D01*
X55689019Y42851331D01*
X55954669Y43116981D01*
X56301756Y43260750D01*
X56677444Y43260750D01*
X57024531Y43116981D01*
X57290181Y42851331D01*
X57433950Y42504244D01*
X57433950Y42128556D01*
X57290181Y41781469D01*
X57048534Y41539822D01*
X57015566Y41490053D01*
X57004600Y41433756D01*
X57004600Y41086850D01*
X57016481Y41028344D01*
X57050238Y40979106D01*
X57100528Y40946934D01*
X57154600Y40936850D01*
X57187253Y40936850D01*
X57333700Y40790403D01*
X57333700Y39117997D01*
X57187253Y38971550D01*
X55815550Y38971550D01*
X55734900Y39052203D01*
X55685128Y39085172D01*
X55626441Y39096119D01*
X55568134Y39083309D01*
X55522766Y39052203D01*
X55438113Y38967550D01*
X54826800Y38967550D01*
G37*
G36*
X48680959Y41368050D02*
X48332403Y41512425D01*
X48065625Y41779203D01*
X47921250Y42127759D01*
X47921250Y42240200D01*
X48793400Y42240200D01*
X48793400Y41368050D01*
X48680959Y41368050D01*
G37*
G36*
X48945800Y41368050D02*
X48945800Y42240200D01*
X49817950Y42240200D01*
X49817950Y42127759D01*
X49673575Y41779203D01*
X49406797Y41512425D01*
X49058241Y41368050D01*
X48945800Y41368050D01*
G37*
G36*
X46405800Y41368050D02*
X46405800Y42240200D01*
X47277950Y42240200D01*
X47277950Y42127759D01*
X47133575Y41779203D01*
X46866797Y41512425D01*
X46518241Y41368050D01*
X46405800Y41368050D01*
G37*
G36*
X46140959Y41368050D02*
X45792403Y41512425D01*
X45525625Y41779203D01*
X45381250Y42127759D01*
X45381250Y42240200D01*
X46253400Y42240200D01*
X46253400Y41368050D01*
X46140959Y41368050D01*
G37*
G36*
X53914300Y40030400D02*
X53914300Y40792063D01*
X54063088Y40940850D01*
X54674400Y40940850D01*
X54674400Y40030400D01*
X53914300Y40030400D01*
G37*
G36*
X35527503Y37749200D02*
X35086456Y37931888D01*
X34748888Y38269456D01*
X34566200Y38710503D01*
X34566200Y39187897D01*
X34748888Y39628944D01*
X35086456Y39966513D01*
X35527503Y40149200D01*
X36004897Y40149200D01*
X36445944Y39966513D01*
X36783513Y39628944D01*
X36966200Y39187897D01*
X36966200Y38710503D01*
X36783513Y38269456D01*
X36445944Y37931888D01*
X36004897Y37749200D01*
X35527503Y37749200D01*
G37*
G36*
X54063088Y38967550D02*
X53914300Y39116338D01*
X53914300Y39878000D01*
X54674400Y39878000D01*
X54674400Y38967550D01*
X54063088Y38967550D01*
G37*
G36*
X17639163Y29193800D02*
X17345131Y29315591D01*
X17120084Y29540638D01*
X16998294Y29834669D01*
X16998294Y30152931D01*
X17120084Y30446963D01*
X17304359Y30631238D01*
X17337328Y30681006D01*
X17348294Y30737303D01*
X17348294Y34664366D01*
X17336413Y34722872D01*
X17304359Y34770431D01*
X15075475Y36999316D01*
X15025706Y37032284D01*
X14969409Y37043250D01*
X14708806Y37043250D01*
X14414775Y37165041D01*
X14189728Y37390088D01*
X14067938Y37684119D01*
X14067938Y38002381D01*
X14189728Y38296413D01*
X14414775Y38521459D01*
X14708806Y38643250D01*
X15027069Y38643250D01*
X15321100Y38521459D01*
X15546147Y38296413D01*
X15667938Y38002381D01*
X15667938Y37741778D01*
X15679819Y37683272D01*
X15711872Y37635713D01*
X18248294Y35099291D01*
X18248294Y30737303D01*
X18260175Y30678797D01*
X18292228Y30631238D01*
X18476503Y30446963D01*
X18598294Y30152931D01*
X18598294Y29834669D01*
X18476503Y29540638D01*
X18251456Y29315591D01*
X17957425Y29193800D01*
X17639163Y29193800D01*
G37*
G36*
X6283169Y37112200D02*
X6090213Y37192125D01*
X5942525Y37339813D01*
X5862600Y37532769D01*
X5862600Y37741631D01*
X5942525Y37934588D01*
X6090213Y38082275D01*
X6283169Y38162200D01*
X6492031Y38162200D01*
X6684988Y38082275D01*
X6832675Y37934588D01*
X6912600Y37741631D01*
X6912600Y37532769D01*
X6832675Y37339813D01*
X6684988Y37192125D01*
X6492031Y37112200D01*
X6283169Y37112200D01*
G37*
G36*
X15564363Y29153000D02*
X15270331Y29274791D01*
X15045284Y29499838D01*
X14923494Y29793869D01*
X14923494Y30054472D01*
X14911613Y30112978D01*
X14879559Y30160538D01*
X11680000Y33360097D01*
X11680000Y35407497D01*
X11668119Y35466003D01*
X11636066Y35513563D01*
X11451791Y35697838D01*
X11330000Y35991869D01*
X11330000Y36310131D01*
X11451791Y36604163D01*
X11676838Y36829209D01*
X11970869Y36951000D01*
X12289131Y36951000D01*
X12583163Y36829209D01*
X12808209Y36604163D01*
X12930000Y36310131D01*
X12930000Y35991869D01*
X12808209Y35697838D01*
X12623934Y35513563D01*
X12590966Y35463794D01*
X12580000Y35407497D01*
X12580000Y33795022D01*
X12591881Y33736516D01*
X12623934Y33688956D01*
X15515956Y30796934D01*
X15565725Y30763966D01*
X15622022Y30753000D01*
X15882625Y30753000D01*
X16176656Y30631209D01*
X16401703Y30406163D01*
X16523494Y30112131D01*
X16523494Y29793869D01*
X16401703Y29499838D01*
X16176656Y29274791D01*
X15882625Y29153000D01*
X15564363Y29153000D01*
G37*
G36*
X6283169Y31332200D02*
X6090213Y31412125D01*
X5942525Y31559813D01*
X5862600Y31752769D01*
X5862600Y31961631D01*
X5942525Y32154588D01*
X6090213Y32302275D01*
X6283169Y32382200D01*
X6492031Y32382200D01*
X6684988Y32302275D01*
X6832675Y32154588D01*
X6912600Y31961631D01*
X6912600Y31752769D01*
X6832675Y31559813D01*
X6684988Y31412125D01*
X6492031Y31332200D01*
X6283169Y31332200D01*
G37*
G36*
X8968097Y8614600D02*
X8596150Y8768666D01*
X8311466Y9053350D01*
X8157400Y9425297D01*
X8157400Y9827903D01*
X8311466Y10199850D01*
X8596150Y10484534D01*
X8968097Y10638600D01*
X10894703Y10638600D01*
X11266650Y10484534D01*
X11551334Y10199850D01*
X11564031Y10169197D01*
X11597397Y10119691D01*
X11647428Y10087119D01*
X11702613Y10076600D01*
X14204072Y10076600D01*
X14262578Y10088481D01*
X14310138Y10120534D01*
X22673603Y18484000D01*
X32009472Y18484000D01*
X32067978Y18495881D01*
X32115538Y18527934D01*
X34865603Y21278000D01*
X59622397Y21278000D01*
X68468463Y12431934D01*
X68518231Y12398966D01*
X68574528Y12388000D01*
X86022897Y12388000D01*
X86081403Y12399881D01*
X86128963Y12431934D01*
X86198963Y12501934D01*
X86231931Y12551703D01*
X86242878Y12610391D01*
X86230066Y12668700D01*
X86195528Y12717394D01*
X86144731Y12748759D01*
X86092897Y12758000D01*
X68647603Y12758000D01*
X59547538Y21858066D01*
X59497769Y21891034D01*
X59441472Y21902000D01*
X34538528Y21902000D01*
X34480022Y21890119D01*
X34432463Y21858066D01*
X31936397Y19362000D01*
X21584528Y19362000D01*
X21526022Y19350119D01*
X21478463Y19318066D01*
X13876997Y11716600D01*
X11702613Y11716600D01*
X11644106Y11704719D01*
X11594869Y11670963D01*
X11564031Y11624003D01*
X11551334Y11593350D01*
X11266650Y11308666D01*
X10894703Y11154600D01*
X8968097Y11154600D01*
X8596150Y11308666D01*
X8311466Y11593350D01*
X8157400Y11965297D01*
X8157400Y12367903D01*
X8311466Y12739850D01*
X8596150Y13024534D01*
X8968097Y13178600D01*
X10894703Y13178600D01*
X11266650Y13024534D01*
X11551334Y12739850D01*
X11564031Y12709197D01*
X11597397Y12659691D01*
X11647428Y12627119D01*
X11702613Y12616600D01*
X13442072Y12616600D01*
X13500578Y12628481D01*
X13548138Y12660534D01*
X21149603Y20262000D01*
X31501472Y20262000D01*
X31559978Y20273881D01*
X31607538Y20305934D01*
X34103603Y22802000D01*
X59876397Y22802000D01*
X68976463Y13701934D01*
X69026231Y13668966D01*
X69082528Y13658000D01*
X89528097Y13658000D01*
X89586603Y13669881D01*
X89634163Y13701934D01*
X89818438Y13886209D01*
X90112469Y14008000D01*
X90430731Y14008000D01*
X90724763Y13886209D01*
X90949809Y13661163D01*
X91071600Y13367131D01*
X91071600Y13048869D01*
X90949809Y12754838D01*
X90724763Y12529791D01*
X90430731Y12408000D01*
X90112469Y12408000D01*
X89818438Y12529791D01*
X89634163Y12714066D01*
X89584394Y12747034D01*
X89528097Y12758000D01*
X87439903Y12758000D01*
X87381397Y12746119D01*
X87332159Y12712363D01*
X87299988Y12662072D01*
X87289978Y12603219D01*
X87303719Y12545122D01*
X87333838Y12501934D01*
X87444609Y12391163D01*
X87566400Y12097131D01*
X87566400Y11778869D01*
X87444609Y11484838D01*
X87219563Y11259791D01*
X86925531Y11138000D01*
X86607269Y11138000D01*
X86313238Y11259791D01*
X86128963Y11444066D01*
X86079194Y11477034D01*
X86022897Y11488000D01*
X68139603Y11488000D01*
X59293538Y20334066D01*
X59243769Y20367034D01*
X59187472Y20378000D01*
X35300528Y20378000D01*
X35242022Y20366119D01*
X35194463Y20334066D01*
X32444397Y17584000D01*
X23108528Y17584000D01*
X23050022Y17572119D01*
X23002463Y17540066D01*
X14638997Y9176600D01*
X11702613Y9176600D01*
X11644106Y9164719D01*
X11594869Y9130963D01*
X11564031Y9084003D01*
X11551334Y9053350D01*
X11266650Y8768666D01*
X10894703Y8614600D01*
X8968097Y8614600D01*
G37*
G36*
X38979100Y18084800D02*
X38979100Y18846463D01*
X39127888Y18995250D01*
X39739200Y18995250D01*
X39739200Y18084800D01*
X38979100Y18084800D01*
G37*
G36*
X54342400Y17021950D02*
X54342400Y17932400D01*
X55102500Y17932400D01*
X55102500Y17170738D01*
X54953713Y17021950D01*
X54342400Y17021950D01*
G37*
G36*
X39127888Y17021950D02*
X38979100Y17170738D01*
X38979100Y17932400D01*
X39739200Y17932400D01*
X39739200Y17021950D01*
X39127888Y17021950D01*
G37*
G36*
X35502103Y13687200D02*
X35061056Y13869888D01*
X34723488Y14207456D01*
X34540800Y14648503D01*
X34540800Y15125897D01*
X34723488Y15566944D01*
X35061056Y15904513D01*
X35502103Y16087200D01*
X35979497Y16087200D01*
X36420544Y15904513D01*
X36758113Y15566944D01*
X36940800Y15125897D01*
X36940800Y14648503D01*
X36758113Y14207456D01*
X36420544Y13869888D01*
X35979497Y13687200D01*
X35502103Y13687200D01*
G37*
G36*
X58742103Y13687200D02*
X58301056Y13869888D01*
X57963488Y14207456D01*
X57780800Y14648503D01*
X57780800Y15125897D01*
X57963488Y15566944D01*
X58301056Y15904513D01*
X58742103Y16087200D01*
X59219497Y16087200D01*
X59660544Y15904513D01*
X59998113Y15566944D01*
X60180800Y15125897D01*
X60180800Y14648503D01*
X59998113Y14207456D01*
X59660544Y13869888D01*
X59219497Y13687200D01*
X58742103Y13687200D01*
G37*
G36*
X1322697Y13999400D02*
X950750Y14153466D01*
X666066Y14438150D01*
X512000Y14810097D01*
X512000Y15212703D01*
X666066Y15584650D01*
X950750Y15869334D01*
X1322697Y16023400D01*
X3249303Y16023400D01*
X3621250Y15869334D01*
X3905934Y15584650D01*
X4060000Y15212703D01*
X4060000Y14810097D01*
X3905934Y14438150D01*
X3621250Y14153466D01*
X3249303Y13999400D01*
X1322697Y13999400D01*
G37*
G36*
X39857000Y13596600D02*
X39857000Y15882600D01*
X40008159Y15882600D01*
X40428256Y15708591D01*
X40749791Y15387056D01*
X40912219Y14994919D01*
X40945581Y14945413D01*
X40995613Y14912844D01*
X41054388Y14902366D01*
X41112591Y14915641D01*
X41161006Y14950566D01*
X41189381Y14994919D01*
X41351809Y15387056D01*
X41673344Y15708591D01*
X42093441Y15882600D01*
X42244600Y15882600D01*
X42244600Y13596600D01*
X42093441Y13596600D01*
X41673344Y13770609D01*
X41351809Y14092144D01*
X41189381Y14484281D01*
X41156019Y14533788D01*
X41105988Y14566356D01*
X41047213Y14576834D01*
X40989009Y14563559D01*
X40940594Y14528634D01*
X40912219Y14484281D01*
X40749791Y14092144D01*
X40428256Y13770609D01*
X40008159Y13596600D01*
X39857000Y13596600D01*
G37*
G36*
X38637800Y14815800D02*
X38637800Y14966959D01*
X38811809Y15387056D01*
X39133344Y15708591D01*
X39553441Y15882600D01*
X39704600Y15882600D01*
X39704600Y14815800D01*
X38637800Y14815800D01*
G37*
G36*
X55097000Y14815800D02*
X55097000Y15882600D01*
X55248159Y15882600D01*
X55668256Y15708591D01*
X55989791Y15387056D01*
X56163800Y14966959D01*
X56163800Y14815800D01*
X55097000Y14815800D01*
G37*
G36*
X8968097Y13694600D02*
X8596150Y13848666D01*
X8311466Y14133350D01*
X8157400Y14505297D01*
X8157400Y14907903D01*
X8311466Y15279850D01*
X8596150Y15564534D01*
X8968097Y15718600D01*
X10894703Y15718600D01*
X11266650Y15564534D01*
X11551334Y15279850D01*
X11705400Y14907903D01*
X11705400Y14505297D01*
X11551334Y14133350D01*
X11266650Y13848666D01*
X10894703Y13694600D01*
X8968097Y13694600D01*
G37*
G36*
X55097000Y13596600D02*
X55097000Y14663400D01*
X56163800Y14663400D01*
X56163800Y14512241D01*
X55989791Y14092144D01*
X55668256Y13770609D01*
X55248159Y13596600D01*
X55097000Y13596600D01*
G37*
G36*
X39553441Y13596600D02*
X39133344Y13770609D01*
X38811809Y14092144D01*
X38637800Y14512241D01*
X38637800Y14663400D01*
X39704600Y14663400D01*
X39704600Y13596600D01*
X39553441Y13596600D01*
G37*
G36*
X1322697Y11459400D02*
X950750Y11613466D01*
X666066Y11898150D01*
X512000Y12270097D01*
X512000Y12672703D01*
X666066Y13044650D01*
X950750Y13329334D01*
X1322697Y13483400D01*
X3249303Y13483400D01*
X3621250Y13329334D01*
X3905934Y13044650D01*
X4060000Y12672703D01*
X4060000Y12270097D01*
X3905934Y11898150D01*
X3621250Y11613466D01*
X3249303Y11459400D01*
X1322697Y11459400D01*
G37*
G36*
X1322697Y8919400D02*
X950750Y9073466D01*
X666066Y9358150D01*
X512000Y9730097D01*
X512000Y10132703D01*
X666066Y10504650D01*
X950750Y10789334D01*
X1322697Y10943400D01*
X3249303Y10943400D01*
X3621250Y10789334D01*
X3905934Y10504650D01*
X4060000Y10132703D01*
X4060000Y9730097D01*
X3905934Y9358150D01*
X3621250Y9073466D01*
X3249303Y8919400D01*
X1322697Y8919400D01*
G37*
G36*
X48943747Y1427025D02*
X48571800Y1581091D01*
X48287116Y1865775D01*
X48133050Y2237722D01*
X48133050Y4164328D01*
X48287116Y4536275D01*
X48589744Y4838903D01*
X48598747Y4844969D01*
X48631322Y4894997D01*
X48641850Y4950200D01*
X48641850Y4972944D01*
X48718456Y5157891D01*
X50236184Y6675619D01*
X50421131Y6752225D01*
X50974300Y6752225D01*
X51032806Y6764106D01*
X51082044Y6797863D01*
X51114216Y6848153D01*
X51124300Y6902225D01*
X51124300Y7085228D01*
X51270747Y7231675D01*
X51303400Y7231675D01*
X51361906Y7243556D01*
X51411144Y7277313D01*
X51443316Y7327603D01*
X51453400Y7381675D01*
X51453400Y8063894D01*
X51530006Y8248841D01*
X52046900Y8765734D01*
X52079869Y8815503D01*
X52090816Y8874191D01*
X52078003Y8932500D01*
X52043466Y8981194D01*
X51992669Y9012559D01*
X51940834Y9021800D01*
X40605766Y9021800D01*
X40547259Y9009919D01*
X40499700Y8977866D01*
X39051384Y7529550D01*
X39018416Y7479781D01*
X39007450Y7423484D01*
X39007450Y7381675D01*
X39019331Y7323169D01*
X39053088Y7273931D01*
X39103378Y7241759D01*
X39157450Y7231675D01*
X39190100Y7231675D01*
X39270756Y7151022D01*
X39320528Y7118056D01*
X39379216Y7107109D01*
X39437522Y7119922D01*
X39482888Y7151025D01*
X39567538Y7235675D01*
X40178850Y7235675D01*
X40178850Y5262375D01*
X39567541Y5262375D01*
X39482891Y5347028D01*
X39433119Y5379997D01*
X39374431Y5390944D01*
X39316125Y5378134D01*
X39270756Y5347028D01*
X39190103Y5266375D01*
X38743456Y5266375D01*
X38684950Y5254494D01*
X38635713Y5220738D01*
X38603541Y5170447D01*
X38593531Y5111594D01*
X38607272Y5053497D01*
X38642581Y5005359D01*
X38686053Y4977794D01*
X38990750Y4851584D01*
X39275434Y4566900D01*
X39429500Y4194953D01*
X39429500Y2268347D01*
X39275434Y1896400D01*
X38990750Y1611716D01*
X38618803Y1457650D01*
X38216197Y1457650D01*
X37844250Y1611716D01*
X37559566Y1896400D01*
X37405500Y2268347D01*
X37405500Y4194953D01*
X37559566Y4566900D01*
X37844250Y4851584D01*
X38148947Y4977794D01*
X38198453Y5011159D01*
X38231022Y5061188D01*
X38241500Y5119963D01*
X38228225Y5178166D01*
X38193300Y5226584D01*
X38142256Y5257544D01*
X38091544Y5266375D01*
X37818397Y5266375D01*
X37671950Y5412822D01*
X37671950Y5595825D01*
X37660069Y5654331D01*
X37626313Y5703569D01*
X37576022Y5735741D01*
X37521950Y5745825D01*
X37151991Y5745825D01*
X37093484Y5733944D01*
X37045925Y5701891D01*
X36429084Y5085050D01*
X36396116Y5035281D01*
X36385169Y4976594D01*
X36397981Y4918284D01*
X36430047Y4873075D01*
X36429653Y4872681D01*
X36431969Y4870366D01*
X36432519Y4869591D01*
X36433156Y4869178D01*
X36735434Y4566900D01*
X36889500Y4194953D01*
X36889500Y2268347D01*
X36735434Y1896400D01*
X36450750Y1611716D01*
X36078803Y1457650D01*
X35676197Y1457650D01*
X35304250Y1611716D01*
X35019566Y1896400D01*
X34865500Y2268347D01*
X34865500Y4194953D01*
X35019566Y4566900D01*
X35322194Y4869528D01*
X35331197Y4875594D01*
X35363772Y4925622D01*
X35374300Y4980825D01*
X35374300Y5345194D01*
X35450906Y5530141D01*
X36596384Y6675619D01*
X36781331Y6752225D01*
X37521950Y6752225D01*
X37580456Y6764106D01*
X37629694Y6797863D01*
X37661866Y6848153D01*
X37671950Y6902225D01*
X37671950Y7085228D01*
X37818397Y7231675D01*
X37851050Y7231675D01*
X37909556Y7243556D01*
X37958794Y7277313D01*
X37990966Y7327603D01*
X38001050Y7381675D01*
X38001050Y7794144D01*
X38077656Y7979091D01*
X40050159Y9951594D01*
X40235106Y10028200D01*
X60481138Y10028200D01*
X60666084Y9951594D01*
X63104334Y7513344D01*
X63154103Y7480375D01*
X63212791Y7469428D01*
X63271100Y7482241D01*
X63319794Y7516778D01*
X63351159Y7567575D01*
X63360400Y7619409D01*
X63360400Y7694531D01*
X63482191Y7988563D01*
X63707238Y8213609D01*
X64001269Y8335400D01*
X64261872Y8335400D01*
X64320378Y8347281D01*
X64367938Y8379334D01*
X65074603Y9086000D01*
X68369897Y9086000D01*
X68428403Y9097881D01*
X68475963Y9129934D01*
X68711038Y9365009D01*
X69005069Y9486800D01*
X69323331Y9486800D01*
X69617363Y9365009D01*
X69842409Y9139963D01*
X69964200Y8845931D01*
X69964200Y8527669D01*
X69842409Y8233638D01*
X69617363Y8008591D01*
X69323331Y7886800D01*
X69005069Y7886800D01*
X68711038Y8008591D01*
X68577563Y8142066D01*
X68527794Y8175034D01*
X68471497Y8186000D01*
X65509528Y8186000D01*
X65451022Y8174119D01*
X65403463Y8142066D01*
X65004334Y7742938D01*
X64971366Y7693169D01*
X64960400Y7636872D01*
X64960400Y7381675D01*
X64972281Y7323169D01*
X65006038Y7273931D01*
X65056328Y7241759D01*
X65110400Y7231675D01*
X66104450Y7231675D01*
X66185106Y7151022D01*
X66234878Y7118056D01*
X66293566Y7107109D01*
X66351872Y7119922D01*
X66397238Y7151025D01*
X66481888Y7235675D01*
X67093200Y7235675D01*
X67093200Y5262375D01*
X66481891Y5262375D01*
X66397241Y5347028D01*
X66347469Y5379997D01*
X66288781Y5390944D01*
X66230475Y5378134D01*
X66185106Y5347028D01*
X66104453Y5266375D01*
X65222956Y5266375D01*
X65164450Y5254494D01*
X65115213Y5220738D01*
X65083041Y5170447D01*
X65073031Y5111594D01*
X65086772Y5053497D01*
X65122081Y5005359D01*
X65165553Y4977794D01*
X65470250Y4851584D01*
X65754934Y4566900D01*
X65909000Y4194953D01*
X65909000Y2268347D01*
X65754934Y1896400D01*
X65470250Y1611716D01*
X65098303Y1457650D01*
X64695697Y1457650D01*
X64323750Y1611716D01*
X64039066Y1896400D01*
X63885000Y2268347D01*
X63885000Y4194953D01*
X64039066Y4566900D01*
X64323750Y4851584D01*
X64698856Y5006956D01*
X64748359Y5040319D01*
X64780931Y5090350D01*
X64791409Y5149125D01*
X64778134Y5207328D01*
X64747519Y5251603D01*
X64586300Y5412822D01*
X64586300Y5595825D01*
X64574419Y5654331D01*
X64540663Y5703569D01*
X64490372Y5735741D01*
X64436300Y5745825D01*
X64050591Y5745825D01*
X63992084Y5733944D01*
X63944525Y5701891D01*
X63118300Y4875666D01*
X63085331Y4825897D01*
X63074384Y4767209D01*
X63087197Y4708900D01*
X63118300Y4663534D01*
X63214934Y4566900D01*
X63369000Y4194953D01*
X63369000Y2268347D01*
X63214934Y1896400D01*
X62930250Y1611716D01*
X62558303Y1457650D01*
X62155697Y1457650D01*
X61783750Y1611716D01*
X61499066Y1896400D01*
X61345000Y2268347D01*
X61345000Y4194953D01*
X61499066Y4566900D01*
X61791791Y4859625D01*
X61823150Y4880756D01*
X61854831Y4928581D01*
X61930406Y5111041D01*
X62900822Y6081456D01*
X62933791Y6131225D01*
X62944738Y6189913D01*
X62931925Y6248222D01*
X62900822Y6293588D01*
X60216544Y8977866D01*
X60166775Y9010834D01*
X60110478Y9021800D01*
X53788366Y9021800D01*
X53729859Y9009919D01*
X53682300Y8977866D01*
X52503734Y7799300D01*
X52470766Y7749531D01*
X52459800Y7693234D01*
X52459800Y7381675D01*
X52471681Y7323169D01*
X52505438Y7273931D01*
X52555728Y7241759D01*
X52609800Y7231675D01*
X52642450Y7231675D01*
X52723106Y7151022D01*
X52772878Y7118056D01*
X52831566Y7107109D01*
X52889872Y7119922D01*
X52935238Y7151025D01*
X53019888Y7235675D01*
X53631200Y7235675D01*
X53631200Y5262375D01*
X53019891Y5262375D01*
X52935241Y5347028D01*
X52885469Y5379997D01*
X52826781Y5390944D01*
X52768475Y5378134D01*
X52723106Y5347028D01*
X52642453Y5266375D01*
X51937072Y5266375D01*
X51878566Y5254494D01*
X51829328Y5220738D01*
X51797156Y5170447D01*
X51787147Y5111594D01*
X51800888Y5053497D01*
X51836197Y5005359D01*
X51879669Y4977794D01*
X52258300Y4820959D01*
X52542984Y4536275D01*
X52697050Y4164328D01*
X52697050Y2237722D01*
X52542984Y1865775D01*
X52258300Y1581091D01*
X51886353Y1427025D01*
X51483747Y1427025D01*
X51111800Y1581091D01*
X50827116Y1865775D01*
X50673050Y2237722D01*
X50673050Y4164328D01*
X50827116Y4536275D01*
X51111800Y4820959D01*
X51490431Y4977794D01*
X51539938Y5011159D01*
X51572506Y5061191D01*
X51582984Y5119963D01*
X51569709Y5178166D01*
X51534784Y5226584D01*
X51483741Y5257544D01*
X51433028Y5266375D01*
X51270747Y5266375D01*
X51124300Y5412822D01*
X51124300Y5595825D01*
X51112419Y5654331D01*
X51078663Y5703569D01*
X51028372Y5735741D01*
X50974300Y5745825D01*
X50791791Y5745825D01*
X50733284Y5733944D01*
X50685725Y5701891D01*
X49867613Y4883778D01*
X49834644Y4834009D01*
X49823697Y4775322D01*
X49836509Y4717013D01*
X49867613Y4671647D01*
X50002984Y4536275D01*
X50157050Y4164328D01*
X50157050Y2237722D01*
X50002984Y1865775D01*
X49718300Y1581091D01*
X49346353Y1427025D01*
X48943747Y1427025D01*
G37*
G36*
X1322697Y6379400D02*
X950750Y6533466D01*
X666066Y6818150D01*
X512000Y7190097D01*
X512000Y7592703D01*
X666066Y7964650D01*
X950750Y8249334D01*
X1322697Y8403400D01*
X3249303Y8403400D01*
X3621250Y8249334D01*
X3905934Y7964650D01*
X4060000Y7592703D01*
X4060000Y7190097D01*
X3905934Y6818150D01*
X3621250Y6533466D01*
X3249303Y6379400D01*
X1322697Y6379400D01*
G37*
G36*
X8968097Y6074600D02*
X8596150Y6228666D01*
X8311466Y6513350D01*
X8157400Y6885297D01*
X8157400Y7287903D01*
X8311466Y7659850D01*
X8596150Y7944534D01*
X8968097Y8098600D01*
X10894703Y8098600D01*
X11266650Y7944534D01*
X11551334Y7659850D01*
X11705400Y7287903D01*
X11705400Y6885297D01*
X11551334Y6513350D01*
X11266650Y6228666D01*
X10894703Y6074600D01*
X8968097Y6074600D01*
G37*
G36*
X67245600Y6325225D02*
X67245600Y7235675D01*
X67856913Y7235675D01*
X68005700Y7086888D01*
X68005700Y6325225D01*
X67245600Y6325225D01*
G37*
G36*
X53783600Y6325225D02*
X53783600Y7235675D01*
X54394913Y7235675D01*
X54543700Y7086888D01*
X54543700Y6325225D01*
X53783600Y6325225D01*
G37*
G36*
X40331250Y6325225D02*
X40331250Y7235675D01*
X40942563Y7235675D01*
X41091350Y7086888D01*
X41091350Y6325225D01*
X40331250Y6325225D01*
G37*
G36*
X81045500Y6325225D02*
X81045500Y7235675D01*
X81656813Y7235675D01*
X81805600Y7086888D01*
X81805600Y6325225D01*
X81045500Y6325225D01*
G37*
G36*
X81180297Y1457650D02*
X80808350Y1611716D01*
X80523666Y1896400D01*
X80369600Y2268347D01*
X80369600Y4194953D01*
X80523666Y4566900D01*
X80808350Y4851584D01*
X81103391Y4973794D01*
X81152897Y5007159D01*
X81185466Y5057188D01*
X81195944Y5115963D01*
X81182669Y5174166D01*
X81147744Y5222581D01*
X81096700Y5253544D01*
X81045988Y5262375D01*
X81045500Y5262375D01*
X81045500Y6172825D01*
X81805600Y6172825D01*
X81805600Y5411163D01*
X81614897Y5220459D01*
X81609469Y5216738D01*
X81577297Y5166447D01*
X81567288Y5107594D01*
X81581028Y5049497D01*
X81616338Y5001359D01*
X81659809Y4973794D01*
X81954850Y4851584D01*
X82239534Y4566900D01*
X82393600Y4194953D01*
X82393600Y2268347D01*
X82239534Y1896400D01*
X81954850Y1611716D01*
X81582903Y1457650D01*
X81180297Y1457650D01*
G37*
G36*
X67235697Y1457650D02*
X66863750Y1611716D01*
X66579066Y1896400D01*
X66425000Y2268347D01*
X66425000Y4194953D01*
X66579066Y4566900D01*
X66863750Y4851584D01*
X67158791Y4973794D01*
X67208297Y5007159D01*
X67240866Y5057188D01*
X67251344Y5115963D01*
X67238069Y5174166D01*
X67203144Y5222581D01*
X67200350Y5224275D01*
X67245600Y5224275D01*
X67245600Y6172825D01*
X68005700Y6172825D01*
X68005700Y5411163D01*
X67856913Y5262375D01*
X67772613Y5262375D01*
X67714106Y5250494D01*
X67664869Y5216738D01*
X67632697Y5166447D01*
X67622688Y5107594D01*
X67636428Y5049497D01*
X67671738Y5001359D01*
X67715209Y4973794D01*
X68010250Y4851584D01*
X68294934Y4566900D01*
X68449000Y4194953D01*
X68449000Y2268347D01*
X68294934Y1896400D01*
X68010250Y1611716D01*
X67638303Y1457650D01*
X67235697Y1457650D01*
G37*
G36*
X54023747Y1427025D02*
X53651800Y1581091D01*
X53367116Y1865775D01*
X53213050Y2237722D01*
X53213050Y4164328D01*
X53367116Y4536275D01*
X53651800Y4820959D01*
X54020775Y4973794D01*
X54070281Y5007159D01*
X54102850Y5057188D01*
X54113328Y5115963D01*
X54100053Y5174166D01*
X54065128Y5222584D01*
X54014084Y5253544D01*
X53963372Y5262375D01*
X53783600Y5262375D01*
X53783600Y6172825D01*
X54543700Y6172825D01*
X54543700Y5411163D01*
X54359672Y5227134D01*
X54326703Y5177366D01*
X54315756Y5118678D01*
X54328569Y5060369D01*
X54363106Y5011675D01*
X54408334Y4982488D01*
X54798300Y4820959D01*
X55082984Y4536275D01*
X55237050Y4164328D01*
X55237050Y2237722D01*
X55082984Y1865775D01*
X54798300Y1581091D01*
X54426353Y1427025D01*
X54023747Y1427025D01*
G37*
G36*
X40756197Y1457650D02*
X40384250Y1611716D01*
X40099566Y1896400D01*
X39945500Y2268347D01*
X39945500Y4194953D01*
X40099566Y4566900D01*
X40384250Y4851584D01*
X40679291Y4973794D01*
X40728797Y5007159D01*
X40761366Y5057188D01*
X40771844Y5115963D01*
X40758569Y5174166D01*
X40723644Y5222581D01*
X40672600Y5253544D01*
X40621888Y5262375D01*
X40331250Y5262375D01*
X40331250Y6172825D01*
X41091350Y6172825D01*
X41091350Y5411163D01*
X40941903Y5261716D01*
X40908934Y5211947D01*
X40897988Y5153259D01*
X40910800Y5094950D01*
X40945338Y5046256D01*
X40996134Y5014891D01*
X41047969Y5005650D01*
X41158803Y5005650D01*
X41530750Y4851584D01*
X41815434Y4566900D01*
X41969500Y4194953D01*
X41969500Y2268347D01*
X41815434Y1896400D01*
X41530750Y1611716D01*
X41158803Y1457650D01*
X40756197Y1457650D01*
G37*
G36*
X93555081Y607250D02*
X92885878Y786563D01*
X92285875Y1132975D01*
X91795975Y1622875D01*
X91449563Y2222878D01*
X91270250Y2892081D01*
X91270250Y3584919D01*
X91449563Y4254122D01*
X91795975Y4854125D01*
X92285875Y5344025D01*
X92885878Y5690438D01*
X93555081Y5869750D01*
X94247919Y5869750D01*
X94917122Y5690438D01*
X95517125Y5344025D01*
X96007025Y4854125D01*
X96353438Y4254122D01*
X96532750Y3584919D01*
X96532750Y2892081D01*
X96353438Y2222878D01*
X96007025Y1622875D01*
X95517125Y1132975D01*
X94917122Y786563D01*
X94247919Y607250D01*
X93555081Y607250D01*
G37*
G36*
X2892081Y607250D02*
X2222878Y786563D01*
X1622875Y1132975D01*
X1132975Y1622875D01*
X786563Y2222878D01*
X607250Y2892081D01*
X607250Y3584919D01*
X786563Y4254122D01*
X1132975Y4854125D01*
X1622875Y5344025D01*
X2222878Y5690438D01*
X2892081Y5869750D01*
X3584919Y5869750D01*
X4254122Y5690438D01*
X4854125Y5344025D01*
X5344025Y4854125D01*
X5690438Y4254122D01*
X5869750Y3584919D01*
X5869750Y2892081D01*
X5690438Y2222878D01*
X5344025Y1622875D01*
X4854125Y1132975D01*
X4254122Y786563D01*
X3584919Y607250D01*
X2892081Y607250D01*
G37*
G36*
X82905600Y3307850D02*
X82905600Y4195747D01*
X83060275Y4569169D01*
X83346081Y4854975D01*
X83719503Y5009650D01*
X83845400Y5009650D01*
X83845400Y3307850D01*
X82905600Y3307850D01*
G37*
G36*
X68961000Y3307850D02*
X68961000Y4195747D01*
X69115675Y4569169D01*
X69401481Y4854975D01*
X69774903Y5009650D01*
X69900800Y5009650D01*
X69900800Y3307850D01*
X68961000Y3307850D01*
G37*
G36*
X42481500Y3307850D02*
X42481500Y4195747D01*
X42636175Y4569169D01*
X42921981Y4854975D01*
X43295403Y5009650D01*
X43421300Y5009650D01*
X43421300Y3307850D01*
X42481500Y3307850D01*
G37*
G36*
X43573700Y3307850D02*
X43573700Y5009650D01*
X43699597Y5009650D01*
X44073019Y4854975D01*
X44358825Y4569169D01*
X44513500Y4195747D01*
X44513500Y3307850D01*
X43573700Y3307850D01*
G37*
G36*
X70053200Y3307850D02*
X70053200Y5009650D01*
X70179097Y5009650D01*
X70552519Y4854975D01*
X70838325Y4569169D01*
X70993000Y4195747D01*
X70993000Y3307850D01*
X70053200Y3307850D01*
G37*
G36*
X83997800Y3307850D02*
X83997800Y5009650D01*
X84123697Y5009650D01*
X84497119Y4854975D01*
X84782925Y4569169D01*
X84937600Y4195747D01*
X84937600Y3307850D01*
X83997800Y3307850D01*
G37*
G36*
X55749050Y3277225D02*
X55749050Y4165122D01*
X55903725Y4538544D01*
X56189531Y4824350D01*
X56562953Y4979025D01*
X56688850Y4979025D01*
X56688850Y3277225D01*
X55749050Y3277225D01*
G37*
G36*
X56841250Y3277225D02*
X56841250Y4979025D01*
X56967147Y4979025D01*
X57340569Y4824350D01*
X57626375Y4538544D01*
X57781050Y4165122D01*
X57781050Y3277225D01*
X56841250Y3277225D01*
G37*
G36*
X88850856Y1397000D02*
X88290725Y1629013D01*
X87862013Y2057725D01*
X87630000Y2617856D01*
X87630000Y3224144D01*
X87862013Y3784275D01*
X88290725Y4212988D01*
X88850856Y4445000D01*
X89457144Y4445000D01*
X90017275Y4212988D01*
X90445988Y3784275D01*
X90678000Y3224144D01*
X90678000Y2617856D01*
X90445988Y2057725D01*
X90017275Y1629013D01*
X89457144Y1397000D01*
X88850856Y1397000D01*
G37*
G36*
X7570856Y1397000D02*
X7010725Y1629013D01*
X6582013Y2057725D01*
X6350000Y2617856D01*
X6350000Y3224144D01*
X6582013Y3784275D01*
X7010725Y4212988D01*
X7570856Y4445000D01*
X8177144Y4445000D01*
X8737275Y4212988D01*
X9165988Y3784275D01*
X9398000Y3224144D01*
X9398000Y2617856D01*
X9165988Y2057725D01*
X8737275Y1629013D01*
X8177144Y1397000D01*
X7570856Y1397000D01*
G37*
G36*
X83997800Y1453650D02*
X83997800Y3155450D01*
X84937600Y3155450D01*
X84937600Y2267553D01*
X84782925Y1894131D01*
X84497119Y1608325D01*
X84123697Y1453650D01*
X83997800Y1453650D01*
G37*
G36*
X83719503Y1453650D02*
X83346081Y1608325D01*
X83060275Y1894131D01*
X82905600Y2267553D01*
X82905600Y3155450D01*
X83845400Y3155450D01*
X83845400Y1453650D01*
X83719503Y1453650D01*
G37*
G36*
X70053200Y1453650D02*
X70053200Y3155450D01*
X70993000Y3155450D01*
X70993000Y2267553D01*
X70838325Y1894131D01*
X70552519Y1608325D01*
X70179097Y1453650D01*
X70053200Y1453650D01*
G37*
G36*
X69774903Y1453650D02*
X69401481Y1608325D01*
X69115675Y1894131D01*
X68961000Y2267553D01*
X68961000Y3155450D01*
X69900800Y3155450D01*
X69900800Y1453650D01*
X69774903Y1453650D01*
G37*
G36*
X43573700Y1453650D02*
X43573700Y3155450D01*
X44513500Y3155450D01*
X44513500Y2267553D01*
X44358825Y1894131D01*
X44073019Y1608325D01*
X43699597Y1453650D01*
X43573700Y1453650D01*
G37*
G36*
X43295403Y1453650D02*
X42921981Y1608325D01*
X42636175Y1894131D01*
X42481500Y2267553D01*
X42481500Y3155450D01*
X43421300Y3155450D01*
X43421300Y1453650D01*
X43295403Y1453650D01*
G37*
G36*
X56841250Y1423025D02*
X56841250Y3124825D01*
X57781050Y3124825D01*
X57781050Y2236928D01*
X57626375Y1863506D01*
X57340569Y1577700D01*
X56967147Y1423025D01*
X56841250Y1423025D01*
G37*
G36*
X56562953Y1423025D02*
X56189531Y1577700D01*
X55903725Y1863506D01*
X55749050Y2236928D01*
X55749050Y3124825D01*
X56688850Y3124825D01*
X56688850Y1423025D01*
X56562953Y1423025D01*
G37*
%LPD*%
G36*
X94528306Y19692081D02*
X94577544Y19725838D01*
X94609716Y19776128D01*
X94619800Y19830200D01*
X94619800Y30872003D01*
X94607919Y30930509D01*
X94574163Y30979747D01*
X94523872Y31011919D01*
X94465019Y31021928D01*
X94412400Y31010584D01*
X94266134Y30950000D01*
X93947869Y30950000D01*
X93653838Y31071791D01*
X93428791Y31296838D01*
X93307000Y31590869D01*
X93307000Y31909131D01*
X93428791Y32203163D01*
X93653838Y32428209D01*
X93947869Y32550000D01*
X94266134Y32550000D01*
X94412400Y32489416D01*
X94470997Y32478003D01*
X94529406Y32490347D01*
X94578372Y32524497D01*
X94610141Y32575041D01*
X94619800Y32627997D01*
X94619800Y34400434D01*
X94607919Y34458941D01*
X94575866Y34506500D01*
X93718450Y35363916D01*
X93668681Y35396884D01*
X93612384Y35407850D01*
X32975256Y35407850D01*
X32790309Y35484456D01*
X31239266Y37035500D01*
X31189497Y37068469D01*
X31130809Y37079416D01*
X31072500Y37066603D01*
X31023806Y37032066D01*
X30992441Y36981269D01*
X30983200Y36929434D01*
X30983200Y28170106D01*
X30906594Y27985159D01*
X29680934Y26759500D01*
X29647966Y26709731D01*
X29637000Y26653434D01*
X29637000Y24781566D01*
X29648881Y24723059D01*
X29680934Y24675500D01*
X30365100Y23991334D01*
X30414869Y23958366D01*
X30471166Y23947400D01*
X32698634Y23947400D01*
X32757141Y23959281D01*
X32804700Y23991334D01*
X34893959Y26080594D01*
X35078906Y26157200D01*
X60298094Y26157200D01*
X60483041Y26080594D01*
X66839500Y19724134D01*
X66889269Y19691166D01*
X66945566Y19680200D01*
X94469800Y19680200D01*
X94528306Y19692081D01*
G37*
%LPC*%
G36*
X30877169Y25311200D02*
X30583138Y25432991D01*
X30358091Y25658038D01*
X30236300Y25952069D01*
X30236300Y26270331D01*
X30358091Y26564363D01*
X30583138Y26789409D01*
X30877169Y26911200D01*
X31195431Y26911200D01*
X31489463Y26789409D01*
X31673738Y26605134D01*
X31723506Y26572166D01*
X31779803Y26561200D01*
X32847672Y26561200D01*
X32906178Y26573081D01*
X32953738Y26605134D01*
X41365853Y35017250D01*
X92619147Y35017250D01*
X92641034Y34995363D01*
X92690803Y34962394D01*
X92749491Y34951447D01*
X92804506Y34962847D01*
X92804875Y34963000D01*
X93123131Y34963000D01*
X93417163Y34841209D01*
X93642209Y34616163D01*
X93764000Y34322131D01*
X93764000Y34003869D01*
X93642209Y33709838D01*
X93417163Y33484791D01*
X93123131Y33363000D01*
X92804869Y33363000D01*
X92510838Y33484791D01*
X92285791Y33709838D01*
X92155391Y34024653D01*
X92122028Y34074159D01*
X92071997Y34106728D01*
X92016809Y34117250D01*
X65874288Y34117250D01*
X65815781Y34105369D01*
X65766544Y34071613D01*
X65734372Y34021322D01*
X65724363Y33962469D01*
X65738103Y33904372D01*
X65773413Y33856234D01*
X65816884Y33828669D01*
X65851250Y33814434D01*
X66135934Y33529750D01*
X66290000Y33157803D01*
X66290000Y32755197D01*
X66135934Y32383250D01*
X65851250Y32098566D01*
X65479303Y31944500D01*
X63552697Y31944500D01*
X63180750Y32098566D01*
X62896066Y32383250D01*
X62742000Y32755197D01*
X62742000Y33157803D01*
X62896066Y33529750D01*
X63180750Y33814434D01*
X63215116Y33828669D01*
X63264622Y33862034D01*
X63297191Y33912066D01*
X63307669Y33970838D01*
X63294394Y34029041D01*
X63259469Y34077459D01*
X63208425Y34108419D01*
X63157713Y34117250D01*
X41800778Y34117250D01*
X41742272Y34105369D01*
X41694713Y34073316D01*
X33282597Y25661200D01*
X31779803Y25661200D01*
X31721297Y25649319D01*
X31673738Y25617266D01*
X31489463Y25432991D01*
X31195431Y25311200D01*
X30877169Y25311200D01*
G37*
G36*
X63552697Y29404500D02*
X63180750Y29558566D01*
X62896066Y29843250D01*
X62742000Y30215197D01*
X62742000Y30617803D01*
X62896066Y30989750D01*
X63180750Y31274434D01*
X63552697Y31428500D01*
X65479303Y31428500D01*
X65851250Y31274434D01*
X66135934Y30989750D01*
X66290000Y30617803D01*
X66290000Y30215197D01*
X66135934Y29843250D01*
X65851250Y29558566D01*
X65479303Y29404500D01*
X63552697Y29404500D01*
G37*
G36*
X63552697Y26864500D02*
X63180750Y27018566D01*
X62896066Y27303250D01*
X62742000Y27675197D01*
X62742000Y28077803D01*
X62896066Y28449750D01*
X63180750Y28734434D01*
X63552697Y28888500D01*
X65479303Y28888500D01*
X65851250Y28734434D01*
X66135934Y28449750D01*
X66290000Y28077803D01*
X66290000Y27675197D01*
X66135934Y27303250D01*
X65851250Y27018566D01*
X65479303Y26864500D01*
X63552697Y26864500D01*
G37*
G36*
X63552697Y24324500D02*
X63180750Y24478566D01*
X62896066Y24763250D01*
X62742000Y25135197D01*
X62742000Y25537803D01*
X62896066Y25909750D01*
X63180750Y26194434D01*
X63552697Y26348500D01*
X65479303Y26348500D01*
X65851250Y26194434D01*
X66135934Y25909750D01*
X66290000Y25537803D01*
X66290000Y25135197D01*
X66135934Y24763250D01*
X65851250Y24478566D01*
X65479303Y24324500D01*
X63552697Y24324500D01*
G37*
G36*
X76040869Y20536000D02*
X75746838Y20657791D01*
X75521791Y20882838D01*
X75400000Y21176869D01*
X75400000Y21437472D01*
X75388119Y21495978D01*
X75356066Y21543538D01*
X72448000Y24451603D01*
X72448000Y24656497D01*
X72436119Y24715003D01*
X72404066Y24762563D01*
X72219791Y24946838D01*
X72098000Y25240869D01*
X72098000Y25559131D01*
X72219791Y25853163D01*
X72444838Y26078209D01*
X72738869Y26200000D01*
X73057131Y26200000D01*
X73351163Y26078209D01*
X73576209Y25853163D01*
X73698000Y25559131D01*
X73698000Y25240869D01*
X73576209Y24946838D01*
X73506950Y24877578D01*
X73473981Y24827809D01*
X73463034Y24769122D01*
X73475847Y24710813D01*
X73506950Y24665447D01*
X75992463Y22179934D01*
X76042231Y22146966D01*
X76098528Y22136000D01*
X76359131Y22136000D01*
X76653163Y22014209D01*
X76878209Y21789163D01*
X77000000Y21495131D01*
X77000000Y21176869D01*
X76878209Y20882838D01*
X76653163Y20657791D01*
X76359131Y20536000D01*
X76040869Y20536000D01*
G37*
%LPD*%
G36*
X51272591Y14905188D02*
X51321006Y14940113D01*
X51349381Y14984466D01*
X51515200Y15384791D01*
X51835609Y15705200D01*
X51919603Y15739991D01*
X51969109Y15773353D01*
X52001678Y15823384D01*
X52012200Y15878572D01*
X52012200Y16875950D01*
X52000319Y16934456D01*
X51966563Y16983694D01*
X51916272Y17015866D01*
X51862200Y17025950D01*
X51829547Y17025950D01*
X51683100Y17172397D01*
X51683100Y17355400D01*
X51671219Y17413906D01*
X51637463Y17463144D01*
X51587172Y17495316D01*
X51533100Y17505400D01*
X50104303Y17505400D01*
X50045797Y17493519D01*
X49996559Y17459763D01*
X49964388Y17409472D01*
X49954378Y17350619D01*
X49968119Y17292522D01*
X49998238Y17249334D01*
X50081209Y17166363D01*
X50203000Y16872331D01*
X50203000Y16611728D01*
X50214881Y16553222D01*
X50246934Y16505663D01*
X50390800Y16361797D01*
X50390800Y15886275D01*
X50402681Y15827769D01*
X50436438Y15778531D01*
X50483400Y15747694D01*
X50585991Y15705200D01*
X50906400Y15384791D01*
X51072219Y14984466D01*
X51105581Y14934959D01*
X51155613Y14902391D01*
X51214388Y14891913D01*
X51272591Y14905188D01*
G37*
D10*
X30175200Y50546000D02*
X30175200Y52070000D01*
X32715200Y52070000D02*
X32715200Y50546000D01*
X18237200Y50546000D02*
X18237200Y52070000D01*
X20777200Y52070000D02*
X20777200Y50546000D01*
X3073400Y46507400D02*
X1549400Y46507400D01*
X1549400Y43967400D02*
X3073400Y43967400D01*
D11*
X20382600Y48234600D03*
X18631800Y48234600D03*
X41566200Y18008600D03*
X39815400Y18008600D03*
X54266200Y18008600D03*
X52515400Y18008600D03*
X40255050Y6249025D03*
X38504250Y6249025D03*
X81166600Y48514000D03*
X82917400Y48514000D03*
X32269800Y48539400D03*
X30519000Y48539400D03*
X67169400Y6249025D03*
X65418600Y6249025D03*
X80969300Y6249025D03*
X79218500Y6249025D03*
X53707400Y6249025D03*
X51956600Y6249025D03*
D10*
X76301600Y3993650D02*
X76301600Y2469650D01*
X78841600Y2469650D02*
X78841600Y3993650D01*
X81381600Y3993650D02*
X81381600Y2469650D01*
X83921600Y2469650D02*
X83921600Y3993650D01*
X49145050Y3963025D02*
X49145050Y2439025D01*
X51685050Y2439025D02*
X51685050Y3963025D01*
X54225050Y3963025D02*
X54225050Y2439025D01*
X56765050Y2439025D02*
X56765050Y3963025D01*
X62357000Y3993650D02*
X62357000Y2469650D01*
X64897000Y2469650D02*
X64897000Y3993650D01*
X67437000Y3993650D02*
X67437000Y2469650D01*
X69977000Y2469650D02*
X69977000Y3993650D01*
X65278000Y32956500D02*
X63754000Y32956500D01*
X63754000Y30416500D02*
X65278000Y30416500D01*
X65278000Y27876500D02*
X63754000Y27876500D01*
X63754000Y25336500D02*
X65278000Y25336500D01*
X65582800Y50878800D02*
X65582800Y52402800D01*
X63042800Y52402800D02*
X63042800Y50878800D01*
X72593200Y50721200D02*
X72593200Y52245200D01*
X70053200Y52245200D02*
X70053200Y50721200D01*
D12*
X46690300Y18008600D03*
X44851300Y18008600D03*
D10*
X85661500Y50800000D02*
X85661500Y52324000D01*
X83121500Y52324000D02*
X83121500Y50800000D01*
X80581500Y50800000D02*
X80581500Y52324000D01*
X78041500Y52324000D02*
X78041500Y50800000D01*
X35877500Y3993650D02*
X35877500Y2469650D01*
X38417500Y2469650D02*
X38417500Y3993650D01*
X40957500Y3993650D02*
X40957500Y2469650D01*
X43497500Y2469650D02*
X43497500Y3993650D01*
X3048000Y15011400D02*
X1524000Y15011400D01*
X1524000Y12471400D02*
X3048000Y12471400D01*
X3048000Y9931400D02*
X1524000Y9931400D01*
X1524000Y7391400D02*
X3048000Y7391400D01*
X9169400Y7086600D02*
X10693400Y7086600D01*
X10693400Y9626600D02*
X9169400Y9626600D01*
X9169400Y12166600D02*
X10693400Y12166600D01*
X10693400Y14706600D02*
X9169400Y14706600D01*
D13*
X44860800Y14739600D03*
X47400800Y14739600D03*
X49940800Y14739600D03*
X52480800Y14739600D03*
X55020800Y14739600D03*
X42320800Y14739600D03*
X39780800Y14739600D03*
D14*
X7797800Y51816000D03*
X89662000Y52324000D03*
X89154000Y2921000D03*
X7874000Y2921000D03*
D15*
X3136900Y51198900D03*
X93901500Y3238500D03*
X3238500Y3238500D03*
X93901500Y51529100D03*
D16*
X56489600Y49936400D03*
X53949600Y49936400D03*
X51409600Y49936400D03*
X48869600Y49936400D03*
X46329600Y49936400D03*
X43789600Y49936400D03*
X41249600Y49936400D03*
X38709600Y49936400D03*
X38709600Y42316400D03*
X41249600Y42316400D03*
X43789600Y42316400D03*
X46329600Y42316400D03*
X48869600Y42316400D03*
X51409600Y42316400D03*
X53949600Y42316400D03*
X56489600Y42316400D03*
D11*
X54750600Y39954200D03*
X56501400Y39954200D03*
X40499400Y52070000D03*
X38748600Y52070000D03*
D17*
X80772000Y48514000D02*
X81166600Y48514000D01*
X68655575Y6249025D02*
X67169400Y6249025D01*
X68655575Y6249025D02*
X69977000Y4927600D01*
X69977000Y3231650D01*
X80969300Y6249025D02*
X82777975Y6249025D01*
X83921600Y5105400D01*
X83921600Y3231650D01*
X43528125Y3201025D02*
X43497500Y3231650D01*
X53707400Y6249025D02*
X55091975Y6249025D01*
X56765050Y4575950D01*
X56765050Y3201025D01*
X42010975Y6249025D02*
X40255050Y6249025D01*
X42010975Y6249025D02*
X43528125Y4731875D01*
X43528125Y3201025D01*
X43497500Y3231650D02*
X45662350Y1066800D01*
X55524400Y1066800D01*
X56765050Y2307450D01*
X56765050Y3201025D01*
X26466800Y51308000D02*
X20777200Y51308000D01*
X26466800Y51308000D02*
X28549600Y53390800D01*
X30886400Y53390800D01*
X32715200Y51562000D01*
X32715200Y51308000D01*
X81959950Y1270000D02*
X83921600Y3231650D01*
X81959950Y1270000D02*
X71938650Y1270000D01*
X69977000Y3231650D01*
X71735450Y1066800D02*
X55524400Y1066800D01*
X71735450Y1066800D02*
X71938650Y1270000D01*
X85273650Y3231650D02*
X87884000Y5842000D01*
X85273650Y3231650D02*
X83921600Y3231650D01*
X78041500Y49974500D02*
X78041500Y51562000D01*
X78041500Y49974500D02*
X79502000Y48514000D01*
X81166600Y48514000D01*
D18*
X50292000Y39471600D03*
X50292000Y40741600D03*
X49022000Y40741600D03*
X49022000Y39471600D03*
X47752000Y40741600D03*
X47752000Y39471600D03*
X46482000Y39471600D03*
X45212000Y39471600D03*
X46482000Y40741600D03*
X45212000Y40741600D03*
X50317400Y43738800D03*
X49047400Y43738800D03*
X50317400Y45008800D03*
X49047400Y45008800D03*
X47777400Y45008800D03*
X47777400Y43738800D03*
X46507400Y43738800D03*
X46507400Y45008800D03*
X45237400Y45008800D03*
X45237400Y43738800D03*
X50241200Y47142400D03*
X50241200Y48412400D03*
X48971200Y48412400D03*
X48971200Y47142400D03*
X47701200Y47142400D03*
X47701200Y48412400D03*
X46431200Y48412400D03*
X46431200Y47142400D03*
X45161200Y48412400D03*
X45161200Y47142400D03*
X50292000Y51409600D03*
X50292000Y52679600D03*
X49022000Y52679600D03*
X49022000Y51409600D03*
X47752000Y51409600D03*
X47752000Y52679600D03*
X46482000Y52679600D03*
X46482000Y51409600D03*
X45212000Y51409600D03*
X45212000Y52679600D03*
X89408000Y27432000D03*
X89408000Y28956000D03*
X89408000Y30480000D03*
X87884000Y30480000D03*
X86360000Y30480000D03*
X86360000Y28956000D03*
X87884000Y28956000D03*
X87884000Y27432000D03*
X86360000Y27432000D03*
X17272000Y26568400D03*
X17272000Y24790400D03*
X15748000Y24790400D03*
X15748000Y26568400D03*
X85039200Y10541000D03*
X73787000Y8585200D03*
X81661000Y16383000D03*
X55880000Y7188200D03*
X90043000Y21971000D03*
X87757000Y17399000D03*
X10769600Y35052000D03*
X89484200Y5867400D03*
X56972200Y17119600D03*
X57531000Y30226000D03*
X43815000Y30226000D03*
X23114000Y37973000D03*
X2921000Y36855400D03*
X2921000Y32410400D03*
X21031200Y6223000D03*
X29489400Y6273800D03*
X23012400Y48336200D03*
X16662400Y47879000D03*
X28702000Y33553400D03*
X23114000Y32918400D03*
X11150600Y47599600D03*
X34137600Y46863000D03*
X26289000Y14732000D03*
X12700000Y37820600D03*
X18262600Y21996400D03*
X47675800Y24053800D03*
D17*
X43248600Y14739600D02*
X42320800Y14739600D01*
X43248600Y14739600D02*
X43561000Y14427200D01*
X43561000Y13081000D01*
X43916600Y12725400D01*
X45059600Y12725400D01*
X46126400Y13792200D01*
D19*
X46126400Y15367000D01*
D17*
X46964600Y16205200D01*
X47955200Y16205200D01*
X48666400Y15494000D01*
D19*
X48666400Y14173200D01*
D17*
X49403000Y13436600D01*
X50927000Y13436600D01*
X51206400Y13716000D01*
D19*
X51206400Y15443200D01*
D20*
X39780800Y14739600D02*
X38285400Y14739600D01*
X38252400Y14706600D01*
X38277800Y14681200D01*
X42316400Y14735200D02*
X42320800Y14739600D01*
X42316400Y14735200D02*
X42316400Y13284200D01*
X42320800Y14739600D02*
X42316400Y14744000D01*
X42316400Y16154400D01*
X39780800Y14739600D02*
X39751000Y14709800D01*
X39751000Y13284200D01*
X39780800Y14739600D02*
X39780800Y17974000D01*
X39815400Y18008600D01*
X55020800Y17254000D02*
X55020800Y14739600D01*
X55020800Y17254000D02*
X54266200Y18008600D01*
X55020800Y14739600D02*
X56573400Y14739600D01*
X56616600Y14782800D01*
X55020800Y14739600D02*
X55020800Y13161600D01*
X55016400Y13157200D01*
X46329600Y42316400D02*
X46329600Y43561000D01*
X46507400Y43738800D01*
X46329600Y42316400D02*
X46329600Y40894000D01*
X46482000Y40741600D01*
X46329600Y42316400D02*
X48869600Y42316400D01*
X48869600Y43561000D01*
X49047400Y43738800D01*
X48869600Y42316400D02*
X48869600Y40894000D01*
X49022000Y40741600D01*
X49199800Y41986200D02*
X48869600Y42316400D01*
X49199800Y41986200D02*
X50063400Y41986200D01*
X46329600Y42316400D02*
X45186600Y42316400D01*
X46329600Y49936400D02*
X46329600Y51257200D01*
X46482000Y51409600D01*
X46329600Y49936400D02*
X46329600Y48514000D01*
X46431200Y48412400D01*
X48869600Y49936400D02*
X48869600Y51257200D01*
X49022000Y51409600D01*
X48869600Y49936400D02*
X48869600Y48514000D01*
X48971200Y48412400D01*
X48869600Y49936400D02*
X46329600Y49936400D01*
X45186600Y49936400D01*
X48869600Y49936400D02*
X49250600Y49555400D01*
X50088800Y49555400D01*
X20777200Y48629200D02*
X20777200Y51308000D01*
X20777200Y48629200D02*
X20382600Y48234600D01*
X32715200Y48984800D02*
X32715200Y51308000D01*
X32715200Y48984800D02*
X32269800Y48539400D01*
X33946200Y46863000D01*
X34137600Y46863000D01*
X22910800Y48234600D02*
X20382600Y48234600D01*
X22910800Y48234600D02*
X23012400Y48336200D01*
X39780800Y14739600D02*
X42320800Y14739600D01*
D21*
X52515400Y14774200D02*
X52515400Y18008600D01*
X46690300Y18008600D01*
D17*
X79218500Y6828500D02*
X79218500Y6350000D01*
D21*
X79218500Y6249025D02*
X77572225Y6249025D01*
X76301600Y4978400D01*
X76301600Y3231650D01*
X30175200Y48883200D02*
X30175200Y51308000D01*
X30175200Y48883200D02*
X30519000Y48539400D01*
D18*
X9296400Y27355800D03*
D17*
X9317000Y27376400D01*
D21*
X9317000Y36336981D01*
X52515400Y18352400D02*
X53594000Y19431000D01*
X52515400Y18352400D02*
X52515400Y18008600D01*
X53594000Y19431000D02*
X58643188Y19431000D01*
X67660188Y10414000D01*
X75154500Y10414000D01*
X79218500Y6350000D01*
D18*
X27355800Y24257000D03*
D21*
X26314400Y23215600D01*
X13436600Y23215600D01*
X9296400Y27355800D01*
X95123000Y19177000D02*
X95123000Y14351000D01*
X95123000Y19177000D02*
X95123000Y31750000D01*
X95123000Y34671000D01*
X95123000Y14351000D02*
X88900000Y8128000D01*
X80518000Y8128000D01*
X79218500Y6828500D01*
D17*
X79218500Y6350000D02*
X79218500Y6249025D01*
X52515400Y14774200D02*
X52480800Y14739600D01*
D21*
X82917400Y48514000D02*
X84836000Y48514000D01*
X85661500Y49339500D01*
X85661500Y51562000D01*
X30519000Y48539400D02*
X30519000Y38545400D01*
D18*
X30480000Y38506400D03*
D21*
X30519000Y38545400D01*
X30480000Y38506400D02*
X33075350Y35911050D01*
X72233050Y35911050D02*
X93882950Y35911050D01*
X72233050Y35911050D02*
X33075350Y35911050D01*
X82917400Y48514000D02*
X82931000Y48500400D01*
X82931000Y46609000D01*
X72233050Y35911050D01*
D18*
X94107000Y31750000D03*
D21*
X95123000Y31750000D01*
X95123000Y34671000D02*
X93882950Y35911050D01*
X30480000Y38506400D02*
X30480000Y28270200D01*
X29133800Y26924000D01*
X29133800Y24511000D01*
X30200600Y23444200D01*
X32969200Y23444200D01*
X35179000Y25654000D01*
X60198000Y25654000D01*
X66675000Y19177000D01*
X95123000Y19177000D01*
X30480000Y38506400D02*
X29440450Y39545950D01*
X12525969Y39545950D01*
X9317000Y36336981D01*
X63780025Y6249025D02*
X65418600Y6249025D01*
X63780025Y6249025D02*
X62357000Y4826000D01*
X62357000Y3231650D01*
X51956600Y6249025D02*
X50521225Y6249025D01*
X49145050Y4872850D01*
X49145050Y3201025D01*
X51956600Y6249025D02*
X51956600Y7963800D01*
X53517800Y9525000D01*
X40335200Y9525000D01*
X38504250Y7694050D01*
X38504250Y6249025D01*
X36881425Y6249025D01*
X35877500Y5245100D01*
X35877500Y3231650D01*
X18237200Y48629200D02*
X18237200Y51308000D01*
X18237200Y48629200D02*
X18631800Y48234600D01*
X56489600Y42316400D02*
X56501400Y42304600D01*
X56501400Y39954200D01*
X63657019Y6249025D02*
X65418600Y6249025D01*
X60381044Y9525000D02*
X53517800Y9525000D01*
X60381044Y9525000D02*
X63657019Y6249025D01*
X38748600Y49975400D02*
X38748600Y52070000D01*
X38748600Y49975400D02*
X38709600Y49936400D01*
D18*
X12130000Y36151000D03*
X15723494Y29953000D03*
D17*
X12130000Y33546494D02*
X12130000Y36151000D01*
X12130000Y33546494D02*
X15723494Y29953000D01*
D18*
X17798294Y29993800D03*
X14867938Y37843250D03*
D17*
X17798294Y34912894D01*
X17798294Y29993800D01*
D18*
X48641000Y12852400D03*
D17*
X47400800Y14092600D01*
X47400800Y14739600D01*
D18*
X49403000Y16713200D03*
D17*
X49940800Y16175400D01*
X49940800Y14739600D01*
D21*
X53848000Y47498000D02*
X51409600Y49936400D01*
X53848000Y47498000D02*
X63246000Y47498000D01*
X65582800Y49834800D01*
X65582800Y51640800D01*
X44732000Y54003000D02*
X43789600Y53060600D01*
X43789600Y49936400D01*
X60680600Y54003000D02*
X63042800Y51640800D01*
X60680600Y54003000D02*
X44732000Y54003000D01*
X43789600Y42316400D02*
X43789600Y38252400D01*
X44704000Y37338000D01*
X63500000Y37338000D01*
X72593200Y46431200D01*
X72593200Y51483200D01*
D17*
X44851300Y18008600D02*
X41566200Y18008600D01*
X44851300Y18008600D02*
X44851300Y14749100D01*
X44860800Y14739600D01*
D18*
X20345400Y10236200D03*
D17*
X21234400Y11125200D02*
X60579000Y11125200D01*
X21234400Y11125200D02*
X20345400Y10236200D01*
D18*
X62566581Y13354019D03*
D17*
X62566581Y13112781D01*
X60579000Y11125200D01*
D18*
X76200000Y21336000D03*
D17*
X72898000Y24638000D01*
X72898000Y25400000D01*
D18*
X72898000Y25400000D03*
X92964000Y34163000D03*
D17*
X41552250Y34567250D02*
X33096200Y26111200D01*
X92837000Y34163000D02*
X92964000Y34163000D01*
X92837000Y34163000D02*
X92432750Y34567250D01*
X41552250Y34567250D01*
D18*
X31036300Y26111200D03*
D17*
X33096200Y26111200D01*
X69113400Y8636000D02*
X69164200Y8686800D01*
D18*
X69164200Y8686800D03*
X64160400Y7535400D03*
D17*
X65261000Y8636000D01*
X69113400Y8636000D01*
X14452600Y9626600D02*
X9931400Y9626600D01*
X14452600Y9626600D02*
X22860000Y18034000D01*
X32258000Y18034000D01*
X35052000Y20828000D01*
X59436000Y20828000D01*
X68326000Y11938000D01*
X86766400Y11938000D01*
D18*
X86766400Y11938000D03*
D17*
X13690600Y12166600D02*
X9931400Y12166600D01*
X13690600Y12166600D02*
X21336000Y19812000D01*
X31750000Y19812000D01*
X34290000Y22352000D01*
X59690000Y22352000D01*
X68834000Y13208000D01*
X90271600Y13208000D01*
D18*
X90271600Y13208000D03*
D21*
X70053200Y49225200D02*
X70053200Y51483200D01*
X70053200Y49225200D02*
X65278000Y44450000D01*
X53848000Y44450000D01*
X51714400Y42316400D01*
X51409600Y42316400D01*
M02*
