M48
;GenerationSoftware,Autodesk,EAGLE,9.7.0*%
;CreationDate,2022-05-23T09:25:57Z*%
FMAT,2
ICI,OFF
METRIC,TZ,000.000
T7C0.650
T6C0.789
T5C1.000
T4C1.016
T3C2.000
T2C3.175
%
G90
M71
T2
X3137Y51199
X93901Y3238
X3238Y3238
X93901Y51529
T3
X58981Y14887
X59006Y38949
X35766Y38949
X35741Y14887
T4
X18237Y51308
X2311Y46507
X2311Y43967
X76302Y3232
X78842Y3232
X81382Y3232
X83922Y3232
X49145Y3201
X51685Y3201
X54225Y3201
X56765Y3201
X62357Y3232
X64897Y3232
X67437Y3232
X69977Y3232
X64516Y32957
X64516Y30416
X64516Y27876
X64516Y25336
X65583Y51641
X63043Y51641
X72593Y51483
X70053Y51483
X85662Y51562
X83122Y51562
X80582Y51562
X78042Y51562
X35878Y3232
X38418Y3232
X40958Y3232
X43498Y3232
X2286Y15011
X2286Y12471
X2286Y9931
X2286Y7391
X9931Y7087
X9931Y9627
X9931Y12167
X9931Y14707
X20777Y51308
X30175Y51308
X32715Y51308
T5
X52481Y14740
X55021Y14740
X39781Y14740
X42321Y14740
X44861Y14740
X47401Y14740
X49941Y14740
T6
X56490Y49936
X53950Y49936
X51410Y49936
X48870Y49936
X46330Y49936
X43790Y49936
X41250Y49936
X38710Y49936
X38710Y42316
X41250Y42316
X43790Y42316
X46330Y42316
X48870Y42316
X51410Y42316
X53950Y42316
X56490Y42316
T7
X11151Y47600
X34138Y46863
X26289Y14732
X12700Y37821
X18263Y21996
X47676Y24054
X9296Y27356
X27356Y24257
X30480Y38506
X94107Y31750
X12130Y36151
X15723Y29953
X17798Y29994
X14868Y37843
X50241Y48412
X49403Y16713
X20345Y10236
X62567Y13354
X76200Y21336
X72898Y25400
X92964Y34163
X31036Y26111
X69164Y8687
X64160Y7535
X86766Y11938
X90272Y13208
X50292Y39472
X50292Y40742
X49022Y40742
X49022Y39472
X6388Y37637
X6388Y31857
X47752Y40742
X47752Y39472
X46482Y39472
X48641Y12852
X45212Y39472
X46482Y40742
X45212Y40742
X50317Y43739
X49047Y43739
X50317Y45009
X49047Y45009
X47777Y45009
X47777Y43739
X46507Y43739
X46507Y45009
X45237Y45009
X45237Y43739
X50241Y47142
X48971Y48412
X48971Y47142
X47701Y47142
X47701Y48412
X46431Y48412
X46431Y47142
X45161Y48412
X45161Y47142
X50292Y51410
X50292Y52680
X49022Y52680
X49022Y51410
X47752Y51410
X47752Y52680
X46482Y52680
X46482Y51410
X45212Y51410
X45212Y52680
X89408Y27432
X89408Y28956
X89408Y30480
X87884Y30480
X86360Y30480
X86360Y28956
X87884Y28956
X87884Y27432
X86360Y27432
X17272Y26568
X17272Y24790
X2921Y32410
X15748Y24790
X15748Y26568
X85039Y10541
X73787Y8585
X81661Y16383
X55880Y7188
X90043Y21971
X87757Y17399
X10770Y35052
X89484Y5867
X56972Y17120
X57531Y30226
X43815Y30226
X23114Y37973
X2921Y36855
X21031Y6223
X29489Y6274
X23012Y48336
X16662Y47879
X28702Y33553
X23114Y32918
M30