G04 EAGLE Gerber X2 export*
%TF.Part,Single*%
%TF.FileFunction,Copper,L2,Bot,Mixed*%
%TF.FilePolarity,Positive*%
%TF.GenerationSoftware,Autodesk,EAGLE,9.7.0*%
%TF.CreationDate,2022-05-12T22:10:33Z*%
G75*
%MOMM*%
%FSLAX46Y46*%
%LPD*%
%INBottom Copper*%
%AMOC8*
5,1,8,0,0,1.08239X$1,22.5*%
G01*
G04 Define Apertures*
%ADD10C,1.524000*%
%ADD11C,1.524000*%
%ADD12C,4.762500*%
D10*
X21336000Y2286000D03*
X2286000Y2286000D03*
X21082000Y39878000D03*
X2286000Y39878000D03*
D11*
X3810000Y32766000D02*
X5334000Y32766000D01*
X5334000Y30226000D02*
X3810000Y30226000D01*
D12*
X25527000Y39116000D03*
X25527000Y3048000D03*
X6858000Y39116000D03*
X6858000Y3048000D03*
D11*
X4572000Y20066000D02*
X4572000Y21590000D01*
X7112000Y21590000D02*
X7112000Y20066000D01*
X4572000Y23414000D02*
X4572000Y24938000D01*
X7112000Y24938000D02*
X7112000Y23414000D01*
X17526000Y38856100D02*
X17526000Y40380100D01*
X14986000Y40380100D02*
X14986000Y38856100D01*
X12446000Y38856100D02*
X12446000Y40380100D01*
X3810000Y6858000D02*
X2286000Y6858000D01*
X2286000Y9398000D02*
X3810000Y9398000D01*
X22860000Y16056000D02*
X24384000Y16056000D01*
X24384000Y18596000D02*
X22860000Y18596000D01*
X22860000Y21136000D02*
X24384000Y21136000D01*
X24384000Y23676000D02*
X22860000Y23676000D01*
X23839000Y7620000D02*
X25363000Y7620000D01*
X25363000Y10160000D02*
X23839000Y10160000D01*
X23839000Y12700000D02*
X25363000Y12700000D01*
X25363000Y34852000D02*
X23839000Y34852000D01*
X23839000Y32312000D02*
X25363000Y32312000D01*
X25363000Y29772000D02*
X23839000Y29772000D01*
X23839000Y27232000D02*
X25363000Y27232000D01*
M02*
