G04 EAGLE Gerber X2 export*
%TF.Part,Single*%
%TF.FileFunction,Paste,Top*%
%TF.FilePolarity,Positive*%
%TF.GenerationSoftware,Autodesk,EAGLE,9.7.0*%
%TF.CreationDate,2022-05-12T22:10:33Z*%
G75*
%MOMM*%
%FSLAX46Y46*%
%LPD*%
%INSolderpaste Top*%
%AMOC8*
5,1,8,0,0,1.08239X$1,22.5*%
G01*
G04 Define Apertures*
%ADD10R,1.164600X1.465300*%
%ADD11R,1.470000X1.020000*%
%ADD12R,1.465300X1.164600*%
%ADD13C,1.524000*%
%ADD14R,0.600000X1.500000*%
%ADD15R,1.500000X0.600000*%
%ADD16R,1.031200X1.420200*%
%ADD17R,1.420200X1.031200*%
%ADD18R,1.600000X1.400000*%
%ADD19R,5.500000X2.000000*%
D10*
X13067400Y5842000D03*
X11316600Y5842000D03*
X14872600Y5842000D03*
X16623400Y5842000D03*
X14364600Y26670000D03*
X16115400Y26670000D03*
D11*
X5531350Y15719000D03*
X5531350Y14119000D03*
D12*
X3057750Y15861400D03*
X3057750Y14110600D03*
X8024050Y15814100D03*
X8024050Y14063300D03*
D10*
X5220600Y27432000D03*
X6971400Y27432000D03*
D13*
X21336000Y2286000D03*
X2286000Y2286000D03*
X21082000Y39878000D03*
X2286000Y39878000D03*
D14*
X12109800Y15663600D03*
X12909800Y15663600D03*
X13709800Y15663600D03*
X14509800Y15663600D03*
X15309800Y15663600D03*
X16109800Y15663600D03*
X16909800Y15663600D03*
X17709800Y15663600D03*
D15*
X19159800Y17113600D03*
X19159800Y17913600D03*
X19159800Y18713600D03*
X19159800Y19513600D03*
X19159800Y20313600D03*
X19159800Y21113600D03*
X19159800Y21913600D03*
X19159800Y22713600D03*
D14*
X17709800Y24163600D03*
X16909800Y24163600D03*
X16109800Y24163600D03*
X15309800Y24163600D03*
X14509800Y24163600D03*
X13709800Y24163600D03*
X12909800Y24163600D03*
X12109800Y24163600D03*
D15*
X10659800Y22713600D03*
X10659800Y21913600D03*
X10659800Y21113600D03*
X10659800Y20313600D03*
X10659800Y19513600D03*
X10659800Y18713600D03*
X10659800Y17913600D03*
X10659800Y17113600D03*
D16*
X10510500Y36830000D03*
X12349500Y36830000D03*
D17*
X15117800Y35402500D03*
X15117800Y37241500D03*
D16*
X17622500Y36830000D03*
X19461500Y36830000D03*
X1620500Y11938000D03*
X3459500Y11938000D03*
D18*
X18986000Y28992000D03*
X10986000Y28992000D03*
X18986000Y33492000D03*
X10986000Y33492000D03*
D19*
X18212000Y10057600D03*
X8712000Y10057600D03*
M02*
