M48
;GenerationSoftware,Autodesk,EAGLE,9.7.0*%
;CreationDate,2022-05-12T22:12:44Z*%
FMAT,2
ICI,OFF
METRIC,TZ,000.000
T3C1.016
T2C3.175
%
G90
M71
T2
X25527Y39116
X25527Y3048
X6858Y39116
X6858Y3048
T3
X4572Y32766
X4572Y30226
X23368Y33020
X23368Y30480
X23368Y27940
X23368Y25400
X23368Y22860
X23368Y20320
X23368Y17780
X23368Y15240
X23368Y12700
X23368Y10160
X23368Y7620
X4572Y20828
X7112Y20828
X4572Y24176
X7112Y24176
X17526Y39618
X14986Y39618
X12446Y39618
X3048Y6858
X3048Y9398
M30