G04 EAGLE Gerber X2 export*
%TF.Part,Single*%
%TF.FileFunction,Copper,L2,Bot,Mixed*%
%TF.FilePolarity,Positive*%
%TF.GenerationSoftware,Autodesk,EAGLE,9.7.0*%
%TF.CreationDate,2022-05-19T00:33:23Z*%
G75*
%MOMM*%
%FSLAX46Y46*%
%LPD*%
%INBottom Copper*%
%AMOC8*
5,1,8,0,0,1.08239X$1,22.5*%
G01*
G04 Define Apertures*
%ADD10C,1.524000*%
%ADD11R,1.164600X1.465300*%
%ADD12R,1.031200X1.420200*%
%ADD13C,1.778000*%
%ADD14C,0.908000*%
%ADD15C,1.108000*%
%ADD16C,1.524000*%
%ADD17C,4.445000*%
%ADD18C,0.300000*%
%ADD19C,0.906400*%
G36*
X7488475Y1027881D02*
X7537713Y1061638D01*
X7569884Y1111928D01*
X7579894Y1170781D01*
X7566153Y1228878D01*
X7530844Y1277016D01*
X7487372Y1304581D01*
X7010725Y1502013D01*
X6582013Y1930725D01*
X6350000Y2490856D01*
X6350000Y3097144D01*
X6582013Y3657275D01*
X7010725Y4085988D01*
X7570856Y4318000D01*
X8177144Y4318000D01*
X8737275Y4085988D01*
X9165988Y3657275D01*
X9398000Y3097144D01*
X9398000Y2490856D01*
X9165988Y1930725D01*
X8737275Y1502013D01*
X8260628Y1304581D01*
X8211125Y1271219D01*
X8178553Y1221188D01*
X8168075Y1162413D01*
X8181350Y1104209D01*
X8216275Y1055794D01*
X8267319Y1024831D01*
X8318031Y1016000D01*
X92403253Y1016000D01*
X92461759Y1027881D01*
X92510997Y1061638D01*
X92543169Y1111928D01*
X92553178Y1170781D01*
X92539438Y1228878D01*
X92509319Y1272066D01*
X91888156Y1893228D01*
X91526600Y2766100D01*
X91526600Y3710900D01*
X91888156Y4583772D01*
X92556228Y5251844D01*
X93429100Y5613400D01*
X94373900Y5613400D01*
X95246772Y5251844D01*
X95867934Y4630681D01*
X95917703Y4597713D01*
X95976391Y4586766D01*
X96034700Y4599578D01*
X96083394Y4634116D01*
X96114759Y4684913D01*
X96124000Y4736747D01*
X96124000Y45966853D01*
X96112119Y46025359D01*
X96078363Y46074597D01*
X96028072Y46106769D01*
X95969219Y46116778D01*
X95911122Y46103038D01*
X95867934Y46072919D01*
X95246772Y45451756D01*
X94373900Y45090200D01*
X93429100Y45090200D01*
X92556228Y45451756D01*
X91888156Y46119828D01*
X91527409Y46990750D01*
X91494047Y47040256D01*
X91444016Y47072825D01*
X91385241Y47083303D01*
X91327038Y47070028D01*
X91278622Y47035103D01*
X91250247Y46990750D01*
X91207988Y46888725D01*
X90779275Y46460013D01*
X90219144Y46228000D01*
X89612856Y46228000D01*
X89052725Y46460013D01*
X88624013Y46888725D01*
X88392000Y47448856D01*
X88392000Y48055144D01*
X88624013Y48615275D01*
X89052725Y49043988D01*
X89612856Y49276000D01*
X90219144Y49276000D01*
X90779275Y49043988D01*
X91207988Y48615275D01*
X91369084Y48226350D01*
X91402447Y48176844D01*
X91452478Y48144275D01*
X91511253Y48133797D01*
X91569456Y48147072D01*
X91617872Y48181997D01*
X91646247Y48226350D01*
X91888156Y48810372D01*
X92509319Y49431534D01*
X92542288Y49481303D01*
X92553234Y49539991D01*
X92540422Y49598300D01*
X92505884Y49646994D01*
X92455088Y49678359D01*
X92403253Y49687600D01*
X4736747Y49687600D01*
X4678241Y49675719D01*
X4629003Y49641963D01*
X4596831Y49591672D01*
X4586822Y49532819D01*
X4600563Y49474722D01*
X4630681Y49431534D01*
X5251844Y48810372D01*
X5613400Y47937500D01*
X5613400Y46992700D01*
X5251844Y46119828D01*
X4583772Y45451756D01*
X3710900Y45090200D01*
X2766100Y45090200D01*
X1893228Y45451756D01*
X1272066Y46072919D01*
X1222297Y46105888D01*
X1163609Y46116834D01*
X1105300Y46104022D01*
X1056606Y46069484D01*
X1025241Y46018688D01*
X1016000Y45966853D01*
X1016000Y43386300D01*
X1027881Y43327794D01*
X1061638Y43278556D01*
X1111928Y43246384D01*
X1170781Y43236375D01*
X1228878Y43250116D01*
X1277016Y43285425D01*
X1304581Y43328897D01*
X1383806Y43520166D01*
X1641034Y43777394D01*
X1977113Y43916600D01*
X3864888Y43916600D01*
X4200966Y43777394D01*
X4458194Y43520166D01*
X4597400Y43184088D01*
X4597400Y42820313D01*
X4458194Y42484234D01*
X4200966Y42227006D01*
X3864888Y42087800D01*
X1977113Y42087800D01*
X1641034Y42227006D01*
X1383806Y42484234D01*
X1304581Y42675503D01*
X1271219Y42725009D01*
X1221188Y42757578D01*
X1162413Y42768056D01*
X1104209Y42754781D01*
X1055794Y42719856D01*
X1024831Y42668813D01*
X1016000Y42618100D01*
X1016000Y40846300D01*
X1027881Y40787794D01*
X1061638Y40738556D01*
X1111928Y40706384D01*
X1170781Y40696375D01*
X1228878Y40710116D01*
X1277016Y40745425D01*
X1304581Y40788897D01*
X1383806Y40980166D01*
X1641034Y41237394D01*
X1977113Y41376600D01*
X3864888Y41376600D01*
X4200966Y41237394D01*
X4458194Y40980166D01*
X4597400Y40644088D01*
X4597400Y40280313D01*
X4458194Y39944234D01*
X4200966Y39687006D01*
X3864888Y39547800D01*
X1977113Y39547800D01*
X1641034Y39687006D01*
X1383806Y39944234D01*
X1304581Y40135503D01*
X1271219Y40185009D01*
X1221188Y40217578D01*
X1162413Y40228056D01*
X1104209Y40214781D01*
X1055794Y40179856D01*
X1024831Y40128813D01*
X1016000Y40078100D01*
X1016000Y37541000D01*
X1027881Y37482494D01*
X1061638Y37433256D01*
X1111928Y37401084D01*
X1166000Y37391000D01*
X1793800Y37391000D01*
X1793800Y35775000D01*
X1166000Y35775000D01*
X1107494Y35763119D01*
X1058256Y35729363D01*
X1026084Y35679072D01*
X1016000Y35625000D01*
X1016000Y28891000D01*
X1027881Y28832494D01*
X1061638Y28783256D01*
X1111928Y28751084D01*
X1166000Y28741000D01*
X1793800Y28741000D01*
X1793800Y27125000D01*
X1166000Y27125000D01*
X1107494Y27113119D01*
X1058256Y27079363D01*
X1026084Y27029072D01*
X1016000Y26975000D01*
X1016000Y15674900D01*
X1027881Y15616394D01*
X1061638Y15567156D01*
X1111928Y15534984D01*
X1170781Y15524975D01*
X1228878Y15538716D01*
X1277016Y15574025D01*
X1304581Y15617497D01*
X1383806Y15808766D01*
X1641034Y16065994D01*
X1977113Y16205200D01*
X3864888Y16205200D01*
X4200966Y16065994D01*
X4458194Y15808766D01*
X4597400Y15472688D01*
X4597400Y15108913D01*
X4458194Y14772834D01*
X4200966Y14515606D01*
X3864888Y14376400D01*
X1977113Y14376400D01*
X1641034Y14515606D01*
X1383806Y14772834D01*
X1304581Y14964103D01*
X1271219Y15013609D01*
X1221188Y15046178D01*
X1162413Y15056656D01*
X1104209Y15043381D01*
X1055794Y15008456D01*
X1024831Y14957413D01*
X1016000Y14906700D01*
X1016000Y13134900D01*
X1027881Y13076394D01*
X1061638Y13027156D01*
X1111928Y12994984D01*
X1170781Y12984975D01*
X1228878Y12998716D01*
X1277016Y13034025D01*
X1304581Y13077497D01*
X1383806Y13268766D01*
X1641034Y13525994D01*
X1977113Y13665200D01*
X3864888Y13665200D01*
X4200966Y13525994D01*
X4458194Y13268766D01*
X4597400Y12932688D01*
X4597400Y12568913D01*
X4458194Y12232834D01*
X4200966Y11975606D01*
X3864888Y11836400D01*
X1977113Y11836400D01*
X1641034Y11975606D01*
X1383806Y12232834D01*
X1304581Y12424103D01*
X1271219Y12473609D01*
X1221188Y12506178D01*
X1162413Y12516656D01*
X1104209Y12503381D01*
X1055794Y12468456D01*
X1024831Y12417413D01*
X1016000Y12366700D01*
X1016000Y10594900D01*
X1027881Y10536394D01*
X1061638Y10487156D01*
X1111928Y10454984D01*
X1170781Y10444975D01*
X1228878Y10458716D01*
X1277016Y10494025D01*
X1304581Y10537497D01*
X1383806Y10728766D01*
X1641034Y10985994D01*
X1977113Y11125200D01*
X3864888Y11125200D01*
X4200966Y10985994D01*
X4458194Y10728766D01*
X4597400Y10392688D01*
X4597400Y10028913D01*
X4458194Y9692834D01*
X4200966Y9435606D01*
X3864888Y9296400D01*
X1977113Y9296400D01*
X1641034Y9435606D01*
X1383806Y9692834D01*
X1304581Y9884103D01*
X1271219Y9933609D01*
X1221188Y9966178D01*
X1162413Y9976656D01*
X1104209Y9963381D01*
X1055794Y9928456D01*
X1024831Y9877413D01*
X1016000Y9826700D01*
X1016000Y8054900D01*
X1027881Y7996394D01*
X1061638Y7947156D01*
X1111928Y7914984D01*
X1170781Y7904975D01*
X1228878Y7918716D01*
X1277016Y7954025D01*
X1304581Y7997497D01*
X1383806Y8188766D01*
X1641034Y8445994D01*
X1977113Y8585200D01*
X3864888Y8585200D01*
X4200966Y8445994D01*
X4458194Y8188766D01*
X4597400Y7852688D01*
X4597400Y7488913D01*
X4458194Y7152834D01*
X4200966Y6895606D01*
X3864888Y6756400D01*
X1977113Y6756400D01*
X1641034Y6895606D01*
X1383806Y7152834D01*
X1304581Y7344103D01*
X1271219Y7393609D01*
X1221188Y7426178D01*
X1162413Y7436656D01*
X1104209Y7423381D01*
X1055794Y7388456D01*
X1024831Y7337413D01*
X1016000Y7286700D01*
X1016000Y4736747D01*
X1027881Y4678241D01*
X1061638Y4629003D01*
X1111928Y4596831D01*
X1170781Y4586822D01*
X1228878Y4600563D01*
X1272066Y4630681D01*
X1893228Y5251844D01*
X2766100Y5613400D01*
X3710900Y5613400D01*
X4583772Y5251844D01*
X5251844Y4583772D01*
X5613400Y3710900D01*
X5613400Y2766100D01*
X5251844Y1893228D01*
X4630681Y1272066D01*
X4597713Y1222297D01*
X4586766Y1163609D01*
X4599578Y1105300D01*
X4634116Y1056606D01*
X4684913Y1025241D01*
X4736747Y1016000D01*
X7429969Y1016000D01*
X7488475Y1027881D01*
G37*
%LPC*%
G36*
X30988000Y47574200D02*
X30988000Y48462097D01*
X31142675Y48835519D01*
X31428481Y49121325D01*
X31801903Y49276000D01*
X31927800Y49276000D01*
X31927800Y47574200D01*
X30988000Y47574200D01*
G37*
G36*
X32080200Y47574200D02*
X32080200Y49276000D01*
X32206097Y49276000D01*
X32579519Y49121325D01*
X32865325Y48835519D01*
X33020000Y48462097D01*
X33020000Y47574200D01*
X32080200Y47574200D01*
G37*
G36*
X78117700Y47574200D02*
X78117700Y49276000D01*
X78243597Y49276000D01*
X78617019Y49121325D01*
X78902825Y48835519D01*
X79057500Y48462097D01*
X79057500Y47574200D01*
X78117700Y47574200D01*
G37*
G36*
X20142200Y47574200D02*
X20142200Y49276000D01*
X20268097Y49276000D01*
X20641519Y49121325D01*
X20927325Y48835519D01*
X21082000Y48462097D01*
X21082000Y47574200D01*
X20142200Y47574200D01*
G37*
G36*
X19050000Y47574200D02*
X19050000Y48462097D01*
X19204675Y48835519D01*
X19490481Y49121325D01*
X19863903Y49276000D01*
X19989800Y49276000D01*
X19989800Y47574200D01*
X19050000Y47574200D01*
G37*
G36*
X77025500Y47574200D02*
X77025500Y48462097D01*
X77180175Y48835519D01*
X77465981Y49121325D01*
X77839403Y49276000D01*
X77965300Y49276000D01*
X77965300Y47574200D01*
X77025500Y47574200D01*
G37*
G36*
X7570856Y46228000D02*
X7010725Y46460013D01*
X6582013Y46888725D01*
X6350000Y47448856D01*
X6350000Y48055144D01*
X6582013Y48615275D01*
X7010725Y49043988D01*
X7570856Y49276000D01*
X8177144Y49276000D01*
X8737275Y49043988D01*
X9165988Y48615275D01*
X9398000Y48055144D01*
X9398000Y47448856D01*
X9165988Y46888725D01*
X8737275Y46460013D01*
X8177144Y46228000D01*
X7570856Y46228000D01*
G37*
G36*
X49652913Y45900400D02*
X49316834Y46039606D01*
X49059606Y46296834D01*
X48920400Y46632913D01*
X48920400Y48520688D01*
X49059606Y48856766D01*
X49316834Y49113994D01*
X49652913Y49253200D01*
X50016688Y49253200D01*
X50352766Y49113994D01*
X50609994Y48856766D01*
X50749200Y48520688D01*
X50749200Y46632913D01*
X50609994Y46296834D01*
X50352766Y46039606D01*
X50016688Y45900400D01*
X49652913Y45900400D01*
G37*
G36*
X52192913Y45900400D02*
X51856834Y46039606D01*
X51599606Y46296834D01*
X51460400Y46632913D01*
X51460400Y48520688D01*
X51599606Y48856766D01*
X51856834Y49113994D01*
X52192913Y49253200D01*
X52556688Y49253200D01*
X52892766Y49113994D01*
X53149994Y48856766D01*
X53289200Y48520688D01*
X53289200Y46632913D01*
X53149994Y46296834D01*
X52892766Y46039606D01*
X52556688Y45900400D01*
X52192913Y45900400D01*
G37*
G36*
X58034913Y45900400D02*
X57698834Y46039606D01*
X57441606Y46296834D01*
X57302400Y46632913D01*
X57302400Y48520688D01*
X57441606Y48856766D01*
X57698834Y49113994D01*
X58034913Y49253200D01*
X58398688Y49253200D01*
X58734766Y49113994D01*
X58991994Y48856766D01*
X59131200Y48520688D01*
X59131200Y46632913D01*
X58991994Y46296834D01*
X58734766Y46039606D01*
X58398688Y45900400D01*
X58034913Y45900400D01*
G37*
G36*
X60574913Y45900400D02*
X60238834Y46039606D01*
X59981606Y46296834D01*
X59842400Y46632913D01*
X59842400Y48520688D01*
X59981606Y48856766D01*
X60238834Y49113994D01*
X60574913Y49253200D01*
X60938688Y49253200D01*
X61274766Y49113994D01*
X61531994Y48856766D01*
X61671200Y48520688D01*
X61671200Y46632913D01*
X61531994Y46296834D01*
X61274766Y46039606D01*
X60938688Y45900400D01*
X60574913Y45900400D01*
G37*
G36*
X80397541Y38002400D02*
X80174956Y38094597D01*
X80004597Y38264956D01*
X79912400Y38487541D01*
X79912400Y38728459D01*
X80004597Y38951044D01*
X80171666Y39118113D01*
X80204634Y39167881D01*
X80215600Y39224178D01*
X80215600Y45797594D01*
X80203719Y45856100D01*
X80169963Y45905338D01*
X80123000Y45936175D01*
X80063534Y45960806D01*
X79806306Y46218034D01*
X79667100Y46554113D01*
X79667100Y48441888D01*
X79806306Y48777966D01*
X80063534Y49035194D01*
X80399613Y49174400D01*
X80763388Y49174400D01*
X81099466Y49035194D01*
X81356694Y48777966D01*
X81495900Y48441888D01*
X81495900Y46554113D01*
X81356694Y46218034D01*
X81099466Y45960806D01*
X80912997Y45883569D01*
X80863491Y45850203D01*
X80830922Y45800175D01*
X80820400Y45744988D01*
X80820400Y39224178D01*
X80832281Y39165672D01*
X80864334Y39118113D01*
X81046934Y38935513D01*
X81096703Y38902544D01*
X81155391Y38891597D01*
X81213700Y38904409D01*
X81259066Y38935513D01*
X81441666Y39118113D01*
X81474634Y39167881D01*
X81485600Y39224178D01*
X81485600Y43813259D01*
X82775166Y45102825D01*
X82808134Y45152594D01*
X82819100Y45208891D01*
X82819100Y45771291D01*
X82807219Y45829797D01*
X82773463Y45879034D01*
X82726503Y45909872D01*
X82603534Y45960806D01*
X82346306Y46218034D01*
X82207100Y46554113D01*
X82207100Y48441888D01*
X82346306Y48777966D01*
X82603534Y49035194D01*
X82939613Y49174400D01*
X83303388Y49174400D01*
X83639466Y49035194D01*
X83896694Y48777966D01*
X84035900Y48441888D01*
X84035900Y46554113D01*
X83896694Y46218034D01*
X83639466Y45960806D01*
X83516497Y45909872D01*
X83466991Y45876509D01*
X83434422Y45826478D01*
X83423900Y45771291D01*
X83423900Y44896241D01*
X82134334Y43606675D01*
X82101366Y43556906D01*
X82090400Y43500609D01*
X82090400Y39224178D01*
X82102281Y39165672D01*
X82134334Y39118113D01*
X82301403Y38951044D01*
X82393600Y38728459D01*
X82393600Y38487541D01*
X82301403Y38264956D01*
X82131044Y38094597D01*
X81908459Y38002400D01*
X81667541Y38002400D01*
X81444956Y38094597D01*
X81259066Y38280488D01*
X81209297Y38313456D01*
X81150609Y38324403D01*
X81092300Y38311591D01*
X81046934Y38280488D01*
X80861044Y38094597D01*
X80638459Y38002400D01*
X80397541Y38002400D01*
G37*
G36*
X76119713Y1555250D02*
X75783634Y1694456D01*
X75526406Y1951684D01*
X75387200Y2287763D01*
X75387200Y4175538D01*
X75526406Y4511616D01*
X75783634Y4768844D01*
X75906603Y4819778D01*
X75956109Y4853141D01*
X75988678Y4903172D01*
X75999200Y4958359D01*
X75999200Y5103659D01*
X77446966Y6551425D01*
X78227284Y6551425D01*
X78285791Y6563306D01*
X78335028Y6597063D01*
X78367200Y6647353D01*
X78377209Y6706206D01*
X78363469Y6764303D01*
X78333350Y6807491D01*
X74565175Y10575666D01*
X74515406Y10608634D01*
X74459109Y10619600D01*
X69058928Y10619600D01*
X61202066Y18476463D01*
X61152297Y18509431D01*
X61093609Y18520378D01*
X61035300Y18507566D01*
X60986606Y18473028D01*
X60955241Y18422231D01*
X60946000Y18370397D01*
X60946000Y17711991D01*
X60639084Y16971028D01*
X60071972Y16403916D01*
X59331009Y16097000D01*
X58528991Y16097000D01*
X57788028Y16403916D01*
X57220916Y16971028D01*
X56914000Y17711991D01*
X56914000Y18514009D01*
X57220916Y19254972D01*
X57788028Y19822084D01*
X58528991Y20129000D01*
X59187397Y20129000D01*
X59245903Y20140881D01*
X59295141Y20174638D01*
X59327313Y20224928D01*
X59337322Y20283781D01*
X59323581Y20341878D01*
X59293463Y20385066D01*
X57926863Y21751666D01*
X57877094Y21784634D01*
X57820797Y21795600D01*
X53527391Y21795600D01*
X53468884Y21783719D01*
X53421325Y21751666D01*
X53098434Y21428775D01*
X53065466Y21379006D01*
X53054519Y21320319D01*
X53067331Y21262009D01*
X53098438Y21216641D01*
X53162097Y21152984D01*
X53211866Y21120016D01*
X53270553Y21109072D01*
X53328863Y21121884D01*
X53374225Y21152988D01*
X53527888Y21306650D01*
X54139200Y21306650D01*
X54139200Y19333350D01*
X53527888Y19333350D01*
X53374225Y19487016D01*
X53324456Y19519984D01*
X53265769Y19530931D01*
X53207459Y19518122D01*
X53162094Y19487016D01*
X53110028Y19434950D01*
X52917000Y19434950D01*
X52858494Y19423069D01*
X52809256Y19389313D01*
X52777084Y19339022D01*
X52767000Y19284950D01*
X52767000Y18900841D01*
X52778881Y18842334D01*
X52812638Y18793097D01*
X52859597Y18762259D01*
X53019906Y18695856D01*
X53312856Y18402906D01*
X53471400Y18020147D01*
X53471400Y17605853D01*
X53312856Y17223094D01*
X53019906Y16930144D01*
X52637147Y16771600D01*
X52222853Y16771600D01*
X51840094Y16930144D01*
X51547144Y17223094D01*
X51388600Y17605853D01*
X51388600Y18020147D01*
X51547144Y18402906D01*
X51840094Y18695856D01*
X52069603Y18790922D01*
X52119109Y18824288D01*
X52151678Y18874316D01*
X52162200Y18929503D01*
X52162200Y19284950D01*
X52150319Y19343456D01*
X52116563Y19392694D01*
X52066272Y19424866D01*
X52012200Y19434950D01*
X51819172Y19434950D01*
X51729900Y19524222D01*
X51729900Y19867600D01*
X51718019Y19926106D01*
X51684263Y19975344D01*
X51633972Y20007516D01*
X51579900Y20017600D01*
X47457500Y20017600D01*
X47398994Y20005719D01*
X47349756Y19971963D01*
X47317584Y19921672D01*
X47307500Y19867600D01*
X47307500Y19546772D01*
X47218228Y19457500D01*
X46060772Y19457500D01*
X45971500Y19546772D01*
X45971500Y21093228D01*
X46060772Y21182500D01*
X47218228Y21182500D01*
X47307500Y21093228D01*
X47307500Y20772400D01*
X47319381Y20713894D01*
X47353138Y20664656D01*
X47403428Y20632484D01*
X47457500Y20622400D01*
X51579900Y20622400D01*
X51638406Y20634281D01*
X51687644Y20668038D01*
X51719816Y20718328D01*
X51729900Y20772400D01*
X51729900Y21115778D01*
X51819172Y21205050D01*
X52012200Y21205050D01*
X52070706Y21216931D01*
X52119944Y21250688D01*
X52152116Y21300978D01*
X52160550Y21346209D01*
X53214741Y22400400D01*
X58133447Y22400400D01*
X69265513Y11268334D01*
X69315281Y11235366D01*
X69371578Y11224400D01*
X74771759Y11224400D01*
X78818150Y7178009D01*
X78867919Y7145041D01*
X78924216Y7134075D01*
X79034284Y7134075D01*
X79092791Y7145956D01*
X79140350Y7178009D01*
X80392741Y8430400D01*
X88712609Y8430400D01*
X88771116Y8442281D01*
X88818675Y8474334D01*
X93887666Y13543325D01*
X93920634Y13593094D01*
X93931600Y13649391D01*
X93931600Y35880609D01*
X93919719Y35939116D01*
X93887666Y35986675D01*
X91245275Y38629066D01*
X91195506Y38662034D01*
X91139209Y38673000D01*
X86914791Y38673000D01*
X86856284Y38661119D01*
X86808725Y38629066D01*
X82421259Y34241600D01*
X38228741Y34241600D01*
X30417066Y42053275D01*
X30367297Y42086244D01*
X30308609Y42097191D01*
X30250300Y42084378D01*
X30201606Y42049841D01*
X30170241Y41999044D01*
X30161000Y41947209D01*
X30161000Y36331872D01*
X27061128Y33232000D01*
X12416809Y33232000D01*
X12358303Y33220119D01*
X12310744Y33188066D01*
X9663334Y30540656D01*
X9630366Y30490888D01*
X9619400Y30434591D01*
X9619400Y26274978D01*
X9631281Y26216472D01*
X9663334Y26168913D01*
X9809803Y26022444D01*
X9902000Y25799859D01*
X9902000Y25563591D01*
X9913881Y25505084D01*
X9945934Y25457525D01*
X13187725Y22215734D01*
X13237494Y22182766D01*
X13293791Y22171800D01*
X26714222Y22171800D01*
X26772728Y22183681D01*
X26820288Y22215734D01*
X26987356Y22382803D01*
X27209941Y22475000D01*
X27450859Y22475000D01*
X27673444Y22382803D01*
X27843803Y22212444D01*
X27936000Y21989859D01*
X27936000Y21748941D01*
X27843803Y21526356D01*
X27673444Y21355997D01*
X27450859Y21263800D01*
X27209941Y21263800D01*
X26987356Y21355997D01*
X26820288Y21523066D01*
X26770519Y21556034D01*
X26714222Y21567000D01*
X12981141Y21567000D01*
X9518275Y25029866D01*
X9468506Y25062834D01*
X9412209Y25073800D01*
X9175941Y25073800D01*
X8953356Y25165997D01*
X8782997Y25336356D01*
X8690800Y25558941D01*
X8690800Y25799859D01*
X8782997Y26022444D01*
X8970666Y26210113D01*
X9003634Y26259881D01*
X9014600Y26316178D01*
X9014600Y30747241D01*
X12104159Y33836800D01*
X22929734Y33836800D01*
X22988241Y33848681D01*
X23037478Y33882438D01*
X23069650Y33932728D01*
X23079659Y33991581D01*
X23068316Y34044203D01*
X23016400Y34169538D01*
X23016400Y34405809D01*
X23004519Y34464316D01*
X22972466Y34511875D01*
X17618200Y39866141D01*
X17618200Y43414950D01*
X17606319Y43473456D01*
X17572563Y43522694D01*
X17522272Y43554866D01*
X17468200Y43564950D01*
X17275172Y43564950D01*
X17185900Y43654222D01*
X17185900Y45248956D01*
X17212634Y45289313D01*
X17223600Y45345609D01*
X17223600Y45771291D01*
X17211719Y45829797D01*
X17177963Y45879034D01*
X17131003Y45909872D01*
X17008034Y45960806D01*
X16750806Y46218034D01*
X16611600Y46554113D01*
X16611600Y48441888D01*
X16750806Y48777966D01*
X17008034Y49035194D01*
X17344113Y49174400D01*
X17707888Y49174400D01*
X18043966Y49035194D01*
X18301194Y48777966D01*
X18440400Y48441888D01*
X18440400Y46554113D01*
X18301194Y46218034D01*
X18043966Y45960806D01*
X17920997Y45909872D01*
X17871491Y45876509D01*
X17838922Y45826478D01*
X17828400Y45771291D01*
X17828400Y45485050D01*
X17840281Y45426544D01*
X17874038Y45377306D01*
X17924328Y45345134D01*
X17978400Y45335050D01*
X18566025Y45335050D01*
X18618094Y45282984D01*
X18667866Y45250016D01*
X18726553Y45239072D01*
X18784863Y45251884D01*
X18830225Y45282988D01*
X18983888Y45436650D01*
X19595200Y45436650D01*
X19595200Y43463350D01*
X18983888Y43463350D01*
X18830225Y43617016D01*
X18780456Y43649984D01*
X18721769Y43660931D01*
X18663459Y43648122D01*
X18618094Y43617016D01*
X18566028Y43564950D01*
X18373000Y43564950D01*
X18314494Y43553069D01*
X18265256Y43519313D01*
X18233084Y43469022D01*
X18223000Y43414950D01*
X18223000Y40178791D01*
X18234881Y40120284D01*
X18266934Y40072725D01*
X23400125Y34939534D01*
X23449894Y34906566D01*
X23506191Y34895600D01*
X23742459Y34895600D01*
X23965044Y34803403D01*
X24135403Y34633044D01*
X24227600Y34410459D01*
X24227600Y34169538D01*
X24175684Y34044203D01*
X24164272Y33985603D01*
X24176616Y33927197D01*
X24210766Y33878228D01*
X24261309Y33846459D01*
X24314266Y33836800D01*
X26748478Y33836800D01*
X26806984Y33848681D01*
X26854544Y33880734D01*
X29512266Y36538456D01*
X29545234Y36588225D01*
X29556200Y36644522D01*
X29556200Y43668950D01*
X29544319Y43727456D01*
X29510563Y43776694D01*
X29460272Y43808866D01*
X29406200Y43818950D01*
X29213172Y43818950D01*
X29123900Y43908222D01*
X29123900Y45502956D01*
X29150634Y45543313D01*
X29161600Y45599609D01*
X29161600Y45771291D01*
X29149719Y45829797D01*
X29115963Y45879034D01*
X29069003Y45909872D01*
X28946034Y45960806D01*
X28688806Y46218034D01*
X28549600Y46554113D01*
X28549600Y48441888D01*
X28688806Y48777966D01*
X28946034Y49035194D01*
X29282113Y49174400D01*
X29645888Y49174400D01*
X29981966Y49035194D01*
X30239194Y48777966D01*
X30378400Y48441888D01*
X30378400Y46554113D01*
X30239194Y46218034D01*
X29981966Y45960806D01*
X29858997Y45909872D01*
X29809491Y45876509D01*
X29776922Y45826478D01*
X29766400Y45771291D01*
X29766400Y45739050D01*
X29778281Y45680544D01*
X29812038Y45631306D01*
X29862328Y45599134D01*
X29916400Y45589050D01*
X30504025Y45589050D01*
X30556094Y45536984D01*
X30605866Y45504016D01*
X30664553Y45493072D01*
X30722863Y45505884D01*
X30768225Y45536988D01*
X30921888Y45690650D01*
X31250375Y45690650D01*
X31308881Y45702531D01*
X31358119Y45736288D01*
X31390291Y45786578D01*
X31400300Y45845431D01*
X31386559Y45903528D01*
X31356441Y45946716D01*
X31142675Y46160481D01*
X30988000Y46533903D01*
X30988000Y47421800D01*
X33020000Y47421800D01*
X33020000Y46533903D01*
X32865325Y46160481D01*
X32579519Y45874675D01*
X32456963Y45823913D01*
X32407456Y45790550D01*
X32374884Y45740519D01*
X32364406Y45681747D01*
X32377681Y45623544D01*
X32408297Y45579266D01*
X32445700Y45541863D01*
X32445700Y44780200D01*
X31533200Y44780200D01*
X31533200Y43717350D01*
X30921888Y43717350D01*
X30768225Y43871016D01*
X30718456Y43903984D01*
X30659769Y43914931D01*
X30601459Y43902122D01*
X30556094Y43871016D01*
X30504028Y43818950D01*
X30311000Y43818950D01*
X30252494Y43807069D01*
X30203256Y43773313D01*
X30171084Y43723022D01*
X30161000Y43668950D01*
X30161000Y43226791D01*
X30172881Y43168284D01*
X30204934Y43120725D01*
X38435325Y34890334D01*
X38485094Y34857366D01*
X38541391Y34846400D01*
X70667600Y34846400D01*
X70726106Y34858281D01*
X70775344Y34892038D01*
X70807516Y34942328D01*
X70817600Y34996400D01*
X70817600Y42309822D01*
X70805719Y42368328D01*
X70773666Y42415888D01*
X70606597Y42582956D01*
X70514400Y42805541D01*
X70514400Y43041809D01*
X70502519Y43100316D01*
X70470466Y43147875D01*
X70098875Y43519466D01*
X70049106Y43552434D01*
X69992809Y43563400D01*
X66752941Y43563400D01*
X66489581Y43826759D01*
X66439813Y43859728D01*
X66383516Y43870694D01*
X66147247Y43870694D01*
X65924663Y43962891D01*
X65754303Y44133250D01*
X65662106Y44355834D01*
X65662106Y44596753D01*
X65754303Y44819338D01*
X65924663Y44989697D01*
X66147247Y45081894D01*
X66388166Y45081894D01*
X66610750Y44989697D01*
X66781109Y44819338D01*
X66873306Y44596753D01*
X66873306Y44360484D01*
X66885188Y44301978D01*
X66917241Y44254419D01*
X66959525Y44212134D01*
X67009294Y44179166D01*
X67065591Y44168200D01*
X70305459Y44168200D01*
X70898125Y43575534D01*
X70947894Y43542566D01*
X71004191Y43531600D01*
X71240459Y43531600D01*
X71463044Y43439403D01*
X71633403Y43269044D01*
X71725600Y43046459D01*
X71725600Y42805541D01*
X71633403Y42582956D01*
X71466334Y42415888D01*
X71433366Y42366119D01*
X71422400Y42309822D01*
X71422400Y34996400D01*
X71434281Y34937894D01*
X71468038Y34888656D01*
X71518328Y34856484D01*
X71572400Y34846400D01*
X82108609Y34846400D01*
X82167116Y34858281D01*
X82214675Y34890334D01*
X86381066Y39056725D01*
X86414034Y39106494D01*
X86425000Y39162791D01*
X86425000Y43668950D01*
X86413119Y43727456D01*
X86379363Y43776694D01*
X86329072Y43808866D01*
X86275000Y43818950D01*
X86081975Y43818950D01*
X86029913Y43871016D01*
X85980141Y43903984D01*
X85921456Y43914931D01*
X85863147Y43902122D01*
X85817778Y43871016D01*
X85664113Y43717350D01*
X85052800Y43717350D01*
X85052800Y45690903D01*
X85110066Y45702531D01*
X85159303Y45736288D01*
X85191475Y45786578D01*
X85201484Y45845431D01*
X85187744Y45903528D01*
X85157625Y45946716D01*
X84886306Y46218034D01*
X84747100Y46554113D01*
X84747100Y48441888D01*
X84886306Y48777966D01*
X85143534Y49035194D01*
X85479613Y49174400D01*
X85843388Y49174400D01*
X86179466Y49035194D01*
X86436694Y48777966D01*
X86575900Y48441888D01*
X86575900Y47073391D01*
X86587781Y47014884D01*
X86619834Y46967325D01*
X87029800Y46557359D01*
X87029800Y45739050D01*
X87041681Y45680544D01*
X87075438Y45631306D01*
X87125728Y45599134D01*
X87179800Y45589050D01*
X87372828Y45589050D01*
X87462100Y45499778D01*
X87462100Y43908222D01*
X87372828Y43818950D01*
X87179800Y43818950D01*
X87121294Y43807069D01*
X87072056Y43773313D01*
X87039884Y43723022D01*
X87029800Y43668950D01*
X87029800Y39427800D01*
X87041681Y39369294D01*
X87075438Y39320056D01*
X87125728Y39287884D01*
X87179800Y39277800D01*
X91451859Y39277800D01*
X94536400Y36193259D01*
X94536400Y13336741D01*
X89025259Y7825600D01*
X80705391Y7825600D01*
X80646884Y7813719D01*
X80599325Y7781666D01*
X80309400Y7491741D01*
X80276431Y7441972D01*
X80265484Y7383284D01*
X80278297Y7324975D01*
X80312834Y7276281D01*
X80363631Y7244916D01*
X80415466Y7235675D01*
X80893100Y7235675D01*
X80893100Y5262375D01*
X80281788Y5262375D01*
X80128125Y5416041D01*
X80078356Y5449009D01*
X80019669Y5459956D01*
X79961359Y5447147D01*
X79915994Y5416041D01*
X79863928Y5363975D01*
X78573072Y5363975D01*
X78483800Y5453247D01*
X78483800Y5796625D01*
X78471919Y5855131D01*
X78438163Y5904369D01*
X78387872Y5936541D01*
X78333800Y5946625D01*
X77759616Y5946625D01*
X77701109Y5934744D01*
X77653550Y5902691D01*
X76766269Y5015409D01*
X76733300Y4965641D01*
X76722353Y4906953D01*
X76735166Y4848644D01*
X76769703Y4799950D01*
X76814931Y4770763D01*
X76819566Y4768844D01*
X77076794Y4511616D01*
X77216000Y4175538D01*
X77216000Y2287763D01*
X77076794Y1951684D01*
X76819566Y1694456D01*
X76483488Y1555250D01*
X76119713Y1555250D01*
G37*
G36*
X19747600Y44526200D02*
X19747600Y45436650D01*
X19793872Y45436650D01*
X19852378Y45448531D01*
X19901616Y45482288D01*
X19933788Y45532578D01*
X19943797Y45591431D01*
X19930056Y45649528D01*
X19894747Y45697666D01*
X19851275Y45725231D01*
X19490481Y45874675D01*
X19204675Y46160481D01*
X19050000Y46533903D01*
X19050000Y47421800D01*
X21082000Y47421800D01*
X21082000Y46533903D01*
X20927325Y46160481D01*
X20641519Y45874675D01*
X20280725Y45725231D01*
X20231222Y45691869D01*
X20198650Y45641838D01*
X20188172Y45583063D01*
X20201447Y45524859D01*
X20236372Y45476444D01*
X20287416Y45445481D01*
X20338128Y45436650D01*
X20358913Y45436650D01*
X20507700Y45287863D01*
X20507700Y44526200D01*
X19747600Y44526200D01*
G37*
G36*
X77839403Y45720000D02*
X77465981Y45874675D01*
X77180175Y46160481D01*
X77025500Y46533903D01*
X77025500Y47421800D01*
X77965300Y47421800D01*
X77965300Y45720000D01*
X77839403Y45720000D01*
G37*
G36*
X78117700Y45720000D02*
X78117700Y47421800D01*
X79057500Y47421800D01*
X79057500Y46533903D01*
X78902825Y46160481D01*
X78617019Y45874675D01*
X78243597Y45720000D01*
X78117700Y45720000D01*
G37*
G36*
X84140300Y44780200D02*
X84140300Y45541863D01*
X84289088Y45690650D01*
X84900400Y45690650D01*
X84900400Y44780200D01*
X84140300Y44780200D01*
G37*
G36*
X31685600Y43717350D02*
X31685600Y44627800D01*
X32445700Y44627800D01*
X32445700Y43866138D01*
X32296913Y43717350D01*
X31685600Y43717350D01*
G37*
G36*
X84289088Y43717350D02*
X84140300Y43866138D01*
X84140300Y44627800D01*
X84900400Y44627800D01*
X84900400Y43717350D01*
X84289088Y43717350D01*
G37*
G36*
X19747600Y43463350D02*
X19747600Y44373800D01*
X20507700Y44373800D01*
X20507700Y43612138D01*
X20358913Y43463350D01*
X19747600Y43463350D01*
G37*
G36*
X58528991Y39397000D02*
X57788028Y39703916D01*
X57220916Y40271028D01*
X56914000Y41011991D01*
X56914000Y41814009D01*
X57220916Y42554972D01*
X57788028Y43122084D01*
X58528991Y43429000D01*
X59331009Y43429000D01*
X60071972Y43122084D01*
X60639084Y42554972D01*
X60946000Y41814009D01*
X60946000Y41011991D01*
X60639084Y40271028D01*
X60071972Y39703916D01*
X59331009Y39397000D01*
X58528991Y39397000D01*
G37*
G36*
X35288991Y39397000D02*
X34548028Y39703916D01*
X33980916Y40271028D01*
X33674000Y41011991D01*
X33674000Y41814009D01*
X33980916Y42554972D01*
X34548028Y43122084D01*
X35288991Y43429000D01*
X36091009Y43429000D01*
X36831972Y43122084D01*
X37399084Y42554972D01*
X37706000Y41814009D01*
X37706000Y41011991D01*
X37399084Y40271028D01*
X36831972Y39703916D01*
X36091009Y39397000D01*
X35288991Y39397000D01*
G37*
G36*
X5326200Y36659200D02*
X5326200Y37391000D01*
X5964722Y37391000D01*
X6261694Y37267991D01*
X6488991Y37040694D01*
X6612000Y36743722D01*
X6612000Y36659200D01*
X5326200Y36659200D01*
G37*
G36*
X3888000Y36659200D02*
X3888000Y36743722D01*
X4011009Y37040694D01*
X4238306Y37267991D01*
X4535278Y37391000D01*
X5173800Y37391000D01*
X5173800Y36659200D01*
X3888000Y36659200D01*
G37*
G36*
X1946200Y36659200D02*
X1946200Y37391000D01*
X2584722Y37391000D01*
X2881694Y37267991D01*
X3108991Y37040694D01*
X3232000Y36743722D01*
X3232000Y36659200D01*
X1946200Y36659200D01*
G37*
G36*
X1946200Y35775000D02*
X1946200Y36506800D01*
X3232000Y36506800D01*
X3232000Y36422278D01*
X3108991Y36125306D01*
X2881694Y35898009D01*
X2584722Y35775000D01*
X1946200Y35775000D01*
G37*
G36*
X3888000Y28009200D02*
X3888000Y28093722D01*
X4011009Y28390694D01*
X4238309Y28617994D01*
X4246888Y28621547D01*
X4296391Y28654913D01*
X4328959Y28704944D01*
X4339434Y28763719D01*
X4326156Y28821922D01*
X4295544Y28866191D01*
X4279784Y28881950D01*
X4172000Y29142169D01*
X4172000Y29206800D01*
X4956200Y29206800D01*
X4956200Y29359200D01*
X4172000Y29359200D01*
X4172000Y29423831D01*
X4279784Y29684050D01*
X4300706Y29704972D01*
X4333675Y29754741D01*
X4344622Y29813428D01*
X4333222Y29868441D01*
X4273600Y30012381D01*
X4273600Y30253619D01*
X4375903Y30500597D01*
X4387316Y30559194D01*
X4375903Y30615403D01*
X4273600Y30862381D01*
X4273600Y31103619D01*
X4375903Y31350597D01*
X4387316Y31409194D01*
X4375903Y31465403D01*
X4273600Y31712381D01*
X4273600Y31953619D01*
X4375903Y32200597D01*
X4387316Y32259194D01*
X4375903Y32315403D01*
X4273600Y32562381D01*
X4273600Y32803619D01*
X4375903Y33050597D01*
X4387316Y33109194D01*
X4375903Y33165403D01*
X4273600Y33412381D01*
X4273600Y33653619D01*
X4375903Y33900597D01*
X4387316Y33959194D01*
X4375903Y34015403D01*
X4273600Y34262381D01*
X4273600Y34503619D01*
X4333222Y34647559D01*
X4344634Y34706156D01*
X4332291Y34764566D01*
X4300706Y34811028D01*
X4279784Y34831950D01*
X4172000Y35092169D01*
X4172000Y35156800D01*
X4956200Y35156800D01*
X4956200Y35309200D01*
X4172000Y35309200D01*
X4172000Y35373831D01*
X4279784Y35634050D01*
X4295544Y35649809D01*
X4328513Y35699578D01*
X4339459Y35758266D01*
X4326647Y35816575D01*
X4292109Y35865269D01*
X4246888Y35894453D01*
X4238309Y35898006D01*
X4011009Y36125306D01*
X3888000Y36422278D01*
X3888000Y36506800D01*
X6612000Y36506800D01*
X6612000Y36422278D01*
X6488991Y36125306D01*
X6482797Y36119113D01*
X6449828Y36069344D01*
X6438881Y36010656D01*
X6451694Y35952347D01*
X6486231Y35903653D01*
X6531463Y35874466D01*
X6631050Y35833216D01*
X6830216Y35634050D01*
X6938000Y35373831D01*
X6938000Y35309200D01*
X6153800Y35309200D01*
X6153800Y35156800D01*
X6938000Y35156800D01*
X6938000Y35092169D01*
X6830216Y34831950D01*
X6809294Y34811028D01*
X6776325Y34761259D01*
X6765378Y34702572D01*
X6776778Y34647559D01*
X6836400Y34503619D01*
X6836400Y34262381D01*
X6734097Y34015403D01*
X6722684Y33956806D01*
X6734097Y33900597D01*
X6836400Y33653619D01*
X6836400Y33412381D01*
X6734097Y33165403D01*
X6722684Y33106806D01*
X6734097Y33050597D01*
X6836400Y32803619D01*
X6836400Y32562381D01*
X6734097Y32315403D01*
X6722684Y32256806D01*
X6734097Y32200597D01*
X6836400Y31953619D01*
X6836400Y31712381D01*
X6734097Y31465403D01*
X6722684Y31406806D01*
X6734097Y31350597D01*
X6836400Y31103619D01*
X6836400Y30862381D01*
X6734097Y30615403D01*
X6722684Y30556806D01*
X6734097Y30500597D01*
X6836400Y30253619D01*
X6836400Y30012381D01*
X6776778Y29868441D01*
X6765366Y29809844D01*
X6777709Y29751434D01*
X6809294Y29704972D01*
X6830216Y29684050D01*
X6938000Y29423831D01*
X6938000Y29359200D01*
X6153800Y29359200D01*
X6153800Y29206800D01*
X6938000Y29206800D01*
X6938000Y29142169D01*
X6830216Y28881950D01*
X6631050Y28682784D01*
X6531463Y28641534D01*
X6481956Y28608172D01*
X6449384Y28558141D01*
X6438906Y28499369D01*
X6452181Y28441163D01*
X6482797Y28396888D01*
X6488991Y28390694D01*
X6612000Y28093722D01*
X6612000Y28009200D01*
X3888000Y28009200D01*
G37*
G36*
X31375541Y22508400D02*
X31152956Y22600597D01*
X30982597Y22770956D01*
X30890400Y22993541D01*
X30890400Y23234459D01*
X30982597Y23457044D01*
X31152956Y23627403D01*
X31375541Y23719600D01*
X31611809Y23719600D01*
X31670316Y23731481D01*
X31717875Y23763534D01*
X40768741Y32814400D01*
X90744609Y32814400D01*
X90803116Y32826281D01*
X90850675Y32858334D01*
X92314466Y34322125D01*
X92347434Y34371894D01*
X92358400Y34428191D01*
X92358400Y34664459D01*
X92450597Y34887044D01*
X92620956Y35057403D01*
X92843541Y35149600D01*
X93084459Y35149600D01*
X93307044Y35057403D01*
X93477403Y34887044D01*
X93569600Y34664459D01*
X93569600Y34423541D01*
X93477403Y34200956D01*
X93307044Y34030597D01*
X93084459Y33938400D01*
X92848191Y33938400D01*
X92789684Y33926519D01*
X92742125Y33894466D01*
X91057259Y32209600D01*
X41081391Y32209600D01*
X41022884Y32197719D01*
X40975325Y32165666D01*
X32145534Y23335875D01*
X32112566Y23286106D01*
X32101600Y23229809D01*
X32101600Y22993541D01*
X32009403Y22770956D01*
X31839044Y22600597D01*
X31616459Y22508400D01*
X31375541Y22508400D01*
G37*
G36*
X15907834Y27086800D02*
X15685250Y27178997D01*
X15514891Y27349356D01*
X15422694Y27571941D01*
X15422694Y27828103D01*
X15410813Y27886609D01*
X15378759Y27934169D01*
X13580200Y29732728D01*
X13580200Y31216822D01*
X13568319Y31275328D01*
X13536266Y31322888D01*
X13369197Y31489956D01*
X13277000Y31712541D01*
X13277000Y31953459D01*
X13369197Y32176044D01*
X13539556Y32346403D01*
X13762141Y32438600D01*
X14003059Y32438600D01*
X14225644Y32346403D01*
X14396003Y32176044D01*
X14488200Y31953459D01*
X14488200Y31712541D01*
X14396003Y31489956D01*
X14228934Y31322888D01*
X14195966Y31273119D01*
X14185000Y31216822D01*
X14185000Y30045378D01*
X14196881Y29986872D01*
X14228934Y29939313D01*
X15721334Y28446913D01*
X15771103Y28413944D01*
X15829791Y28402997D01*
X15888100Y28415809D01*
X15936794Y28450347D01*
X15968159Y28501144D01*
X15977400Y28552978D01*
X15977400Y31266472D01*
X15965519Y31324978D01*
X15933466Y31372538D01*
X15766397Y31539606D01*
X15674200Y31762191D01*
X15674200Y32003109D01*
X15766397Y32225694D01*
X15936756Y32396053D01*
X16159341Y32488250D01*
X16400259Y32488250D01*
X16622844Y32396053D01*
X16793203Y32225694D01*
X16885400Y32003109D01*
X16885400Y31762191D01*
X16793203Y31539606D01*
X16626134Y31372538D01*
X16593166Y31322769D01*
X16582200Y31266472D01*
X16582200Y28905684D01*
X16594081Y28847178D01*
X16626134Y28799619D01*
X16865219Y28560534D01*
X16914988Y28527566D01*
X16971284Y28516600D01*
X17207553Y28516600D01*
X17430138Y28424403D01*
X17600497Y28254044D01*
X17692694Y28031459D01*
X17692694Y27790541D01*
X17600497Y27567956D01*
X17430138Y27397597D01*
X17207553Y27305400D01*
X16966631Y27305400D01*
X16726969Y27404672D01*
X16668369Y27416084D01*
X16609963Y27403741D01*
X16560994Y27369591D01*
X16559244Y27366903D01*
X16371338Y27178997D01*
X16148753Y27086800D01*
X15907834Y27086800D01*
G37*
G36*
X90811541Y22000400D02*
X90588956Y22092597D01*
X90421888Y22259666D01*
X90372119Y22292634D01*
X90315822Y22303600D01*
X77598741Y22303600D01*
X73832675Y26069666D01*
X73782906Y26102634D01*
X73726609Y26113600D01*
X65394191Y26113600D01*
X65335684Y26101719D01*
X65286447Y26067963D01*
X65254275Y26017672D01*
X65244266Y25958819D01*
X65258006Y25900722D01*
X65288125Y25857534D01*
X65545194Y25600466D01*
X65684400Y25264388D01*
X65684400Y24900613D01*
X65545194Y24564534D01*
X65287966Y24307306D01*
X64951888Y24168100D01*
X63064113Y24168100D01*
X62728034Y24307306D01*
X62470806Y24564534D01*
X62331600Y24900613D01*
X62331600Y25264388D01*
X62470806Y25600466D01*
X62727875Y25857534D01*
X62760844Y25907303D01*
X62771791Y25965991D01*
X62758978Y26024300D01*
X62724441Y26072994D01*
X62673644Y26104359D01*
X62621809Y26113600D01*
X55345675Y26113600D01*
X55287169Y26101719D01*
X55237931Y26067963D01*
X55207094Y26021003D01*
X55123403Y25818956D01*
X54953044Y25648597D01*
X54730459Y25556400D01*
X54489541Y25556400D01*
X54266956Y25648597D01*
X54096597Y25818956D01*
X54004400Y26041541D01*
X54004400Y26282459D01*
X54096597Y26505044D01*
X54266956Y26675403D01*
X54489541Y26767600D01*
X54730459Y26767600D01*
X54821672Y26729819D01*
X54879075Y26718400D01*
X62494809Y26718400D01*
X62553316Y26730281D01*
X62602553Y26764038D01*
X62634725Y26814328D01*
X62644734Y26873181D01*
X62630994Y26931278D01*
X62600875Y26974466D01*
X62470806Y27104534D01*
X62331600Y27440613D01*
X62331600Y27804388D01*
X62470806Y28140466D01*
X62727875Y28397534D01*
X62760844Y28447303D01*
X62771791Y28505991D01*
X62758978Y28564300D01*
X62724441Y28612994D01*
X62673644Y28644359D01*
X62621809Y28653600D01*
X53702178Y28653600D01*
X53643672Y28641719D01*
X53596113Y28609666D01*
X53429044Y28442597D01*
X53206459Y28350400D01*
X52965541Y28350400D01*
X52742956Y28442597D01*
X52572597Y28612956D01*
X52480400Y28835541D01*
X52480400Y29076459D01*
X52572597Y29299044D01*
X52742956Y29469403D01*
X52965541Y29561600D01*
X53206459Y29561600D01*
X53429044Y29469403D01*
X53596113Y29302334D01*
X53645881Y29269366D01*
X53702178Y29258400D01*
X62494809Y29258400D01*
X62553316Y29270281D01*
X62602553Y29304038D01*
X62634725Y29354328D01*
X62644734Y29413181D01*
X62630994Y29471278D01*
X62600875Y29514466D01*
X62470806Y29644534D01*
X62331600Y29980613D01*
X62331600Y30344388D01*
X62470806Y30680466D01*
X62728034Y30937694D01*
X63064113Y31076900D01*
X64951888Y31076900D01*
X65287966Y30937694D01*
X65545194Y30680466D01*
X65684400Y30344388D01*
X65684400Y29980613D01*
X65545194Y29644534D01*
X65415125Y29514466D01*
X65382156Y29464697D01*
X65371209Y29406009D01*
X65384022Y29347700D01*
X65418559Y29299006D01*
X65469356Y29267641D01*
X65521191Y29258400D01*
X74801259Y29258400D01*
X79075325Y24984334D01*
X79125094Y24951366D01*
X79181391Y24940400D01*
X85489822Y24940400D01*
X85548328Y24952281D01*
X85595888Y24984334D01*
X85762956Y25151403D01*
X85985541Y25243600D01*
X86226459Y25243600D01*
X86449044Y25151403D01*
X86619403Y24981044D01*
X86711600Y24758459D01*
X86711600Y24517541D01*
X86619403Y24294956D01*
X86449044Y24124597D01*
X86226459Y24032400D01*
X85985541Y24032400D01*
X85762956Y24124597D01*
X85595888Y24291666D01*
X85546119Y24324634D01*
X85489822Y24335600D01*
X78868741Y24335600D01*
X74594675Y28609666D01*
X74544906Y28642634D01*
X74488609Y28653600D01*
X65394191Y28653600D01*
X65335684Y28641719D01*
X65286447Y28607963D01*
X65254275Y28557672D01*
X65244266Y28498819D01*
X65258006Y28440722D01*
X65288125Y28397534D01*
X65545194Y28140466D01*
X65684400Y27804388D01*
X65684400Y27440613D01*
X65545194Y27104534D01*
X65415125Y26974466D01*
X65382156Y26924697D01*
X65371209Y26866009D01*
X65384022Y26807700D01*
X65418559Y26759006D01*
X65469356Y26727641D01*
X65521191Y26718400D01*
X74039259Y26718400D01*
X77805325Y22952334D01*
X77855094Y22919366D01*
X77911391Y22908400D01*
X90315822Y22908400D01*
X90374328Y22920281D01*
X90421888Y22952334D01*
X90588956Y23119403D01*
X90811541Y23211600D01*
X91052459Y23211600D01*
X91275044Y23119403D01*
X91445403Y22949044D01*
X91537600Y22726459D01*
X91537600Y22485541D01*
X91445403Y22262956D01*
X91275044Y22092597D01*
X91052459Y22000400D01*
X90811541Y22000400D01*
G37*
G36*
X1946200Y28009200D02*
X1946200Y28741000D01*
X2584722Y28741000D01*
X2881694Y28617991D01*
X3108991Y28390694D01*
X3232000Y28093722D01*
X3232000Y28009200D01*
X1946200Y28009200D01*
G37*
G36*
X5326200Y27125000D02*
X5326200Y27856800D01*
X6612000Y27856800D01*
X6612000Y27772278D01*
X6488991Y27475306D01*
X6261694Y27248009D01*
X5964722Y27125000D01*
X5326200Y27125000D01*
G37*
G36*
X4535278Y27125000D02*
X4238306Y27248009D01*
X4011009Y27475306D01*
X3888000Y27772278D01*
X3888000Y27856800D01*
X5173800Y27856800D01*
X5173800Y27125000D01*
X4535278Y27125000D01*
G37*
G36*
X1946200Y27125000D02*
X1946200Y27856800D01*
X3232000Y27856800D01*
X3232000Y27772278D01*
X3108991Y27475306D01*
X2881694Y27248009D01*
X2584722Y27125000D01*
X1946200Y27125000D01*
G37*
G36*
X7717513Y11836400D02*
X7381434Y11975606D01*
X7124206Y12232834D01*
X6985000Y12568913D01*
X6985000Y12932688D01*
X7124206Y13268766D01*
X7381434Y13525994D01*
X7717513Y13665200D01*
X9605288Y13665200D01*
X9941366Y13525994D01*
X10198594Y13268766D01*
X10249528Y13145797D01*
X10282891Y13096291D01*
X10332922Y13063722D01*
X10388109Y13053200D01*
X14087409Y13053200D01*
X14145916Y13065081D01*
X14193475Y13097134D01*
X21210741Y20114400D01*
X31562609Y20114400D01*
X31621116Y20126281D01*
X31668675Y20158334D01*
X36704741Y25194400D01*
X58799259Y25194400D01*
X70439325Y13554334D01*
X70489094Y13521366D01*
X70545391Y13510400D01*
X89807822Y13510400D01*
X89866328Y13522281D01*
X89913888Y13554334D01*
X90080956Y13721403D01*
X90303541Y13813600D01*
X90544459Y13813600D01*
X90767044Y13721403D01*
X90937403Y13551044D01*
X91029600Y13328459D01*
X91029600Y13087541D01*
X90937403Y12864956D01*
X90767044Y12694597D01*
X90544459Y12602400D01*
X90303541Y12602400D01*
X90080956Y12694597D01*
X89913888Y12861666D01*
X89864119Y12894634D01*
X89807822Y12905600D01*
X70232741Y12905600D01*
X58592675Y24545666D01*
X58542906Y24578634D01*
X58486609Y24589600D01*
X37017391Y24589600D01*
X36958884Y24577719D01*
X36911325Y24545666D01*
X31875259Y19509600D01*
X21523391Y19509600D01*
X21464884Y19497719D01*
X21417325Y19465666D01*
X14400059Y12448400D01*
X10388109Y12448400D01*
X10329603Y12436519D01*
X10280366Y12402763D01*
X10249528Y12355803D01*
X10198594Y12232834D01*
X9941366Y11975606D01*
X9605288Y11836400D01*
X7717513Y11836400D01*
G37*
G36*
X7717513Y9296400D02*
X7381434Y9435606D01*
X7124206Y9692834D01*
X6985000Y10028913D01*
X6985000Y10392688D01*
X7124206Y10728766D01*
X7381434Y10985994D01*
X7717513Y11125200D01*
X9605288Y11125200D01*
X9941366Y10985994D01*
X10198594Y10728766D01*
X10249528Y10605797D01*
X10282891Y10556291D01*
X10332922Y10523722D01*
X10388109Y10513200D01*
X14849409Y10513200D01*
X14907916Y10525081D01*
X14955475Y10557134D01*
X22734741Y18336400D01*
X32070609Y18336400D01*
X32129116Y18348281D01*
X32176675Y18380334D01*
X37720741Y23924400D01*
X58291259Y23924400D01*
X69931325Y12284334D01*
X69981094Y12251366D01*
X70037391Y12240400D01*
X85997822Y12240400D01*
X86056328Y12252281D01*
X86103888Y12284334D01*
X86270956Y12451403D01*
X86493541Y12543600D01*
X86734459Y12543600D01*
X86957044Y12451403D01*
X87127403Y12281044D01*
X87219600Y12058459D01*
X87219600Y11817541D01*
X87127403Y11594956D01*
X86957044Y11424597D01*
X86734459Y11332400D01*
X86493541Y11332400D01*
X86270956Y11424597D01*
X86103888Y11591666D01*
X86054119Y11624634D01*
X85997822Y11635600D01*
X69724741Y11635600D01*
X58084675Y23275666D01*
X58034906Y23308634D01*
X57978609Y23319600D01*
X38033391Y23319600D01*
X37974884Y23307719D01*
X37927325Y23275666D01*
X34954444Y20302784D01*
X34921475Y20253016D01*
X34910528Y20194328D01*
X34923341Y20136019D01*
X34957878Y20087325D01*
X35008675Y20055959D01*
X35067681Y20046891D01*
X35117913Y20058138D01*
X35288991Y20129000D01*
X36091009Y20129000D01*
X36831972Y19822084D01*
X37399084Y19254972D01*
X37706000Y18514009D01*
X37706000Y17711991D01*
X37399084Y16971028D01*
X36831972Y16403916D01*
X36091009Y16097000D01*
X35288991Y16097000D01*
X34548028Y16403916D01*
X33980916Y16971028D01*
X33674000Y17711991D01*
X33674000Y18514009D01*
X33744863Y18685088D01*
X33756275Y18743688D01*
X33743931Y18802097D01*
X33709781Y18851063D01*
X33659238Y18882831D01*
X33600303Y18892372D01*
X33542319Y18878169D01*
X33500216Y18848556D01*
X32383259Y17731600D01*
X23047391Y17731600D01*
X22988884Y17719719D01*
X22941325Y17687666D01*
X15162059Y9908400D01*
X10388109Y9908400D01*
X10329603Y9896519D01*
X10280366Y9862763D01*
X10249528Y9815803D01*
X10198594Y9692834D01*
X9941366Y9435606D01*
X9605288Y9296400D01*
X7717513Y9296400D01*
G37*
G36*
X63064113Y21628100D02*
X62728034Y21767306D01*
X62470806Y22024534D01*
X62331600Y22360613D01*
X62331600Y22724388D01*
X62470806Y23060466D01*
X62728034Y23317694D01*
X63064113Y23456900D01*
X64951888Y23456900D01*
X65287966Y23317694D01*
X65545194Y23060466D01*
X65684400Y22724388D01*
X65684400Y22360613D01*
X65545194Y22024534D01*
X65287966Y21767306D01*
X64951888Y21628100D01*
X63064113Y21628100D01*
G37*
G36*
X54291600Y20396200D02*
X54291600Y21306650D01*
X54902913Y21306650D01*
X55051700Y21157863D01*
X55051700Y20396200D01*
X54291600Y20396200D01*
G37*
G36*
X38928300Y20396200D02*
X38928300Y21157863D01*
X39077088Y21306650D01*
X39688400Y21306650D01*
X39688400Y20396200D01*
X38928300Y20396200D01*
G37*
G36*
X44602853Y16771600D02*
X44220094Y16930144D01*
X43927144Y17223094D01*
X43768600Y17605853D01*
X43768600Y18020147D01*
X43927144Y18402906D01*
X44220094Y18695856D01*
X44405503Y18772656D01*
X44455009Y18806022D01*
X44487581Y18856053D01*
X44498100Y18911238D01*
X44498100Y19307500D01*
X44486219Y19366006D01*
X44452463Y19415244D01*
X44402172Y19447416D01*
X44348100Y19457500D01*
X44221772Y19457500D01*
X44132500Y19546772D01*
X44132500Y19867600D01*
X44120619Y19926106D01*
X44086863Y19975344D01*
X44036572Y20007516D01*
X43982500Y20017600D01*
X42400100Y20017600D01*
X42341594Y20005719D01*
X42292356Y19971963D01*
X42260184Y19921672D01*
X42250100Y19867600D01*
X42250100Y19524222D01*
X42160828Y19434950D01*
X40869975Y19434950D01*
X40817913Y19487016D01*
X40768141Y19519984D01*
X40709456Y19530931D01*
X40651147Y19518122D01*
X40605778Y19487016D01*
X40452113Y19333350D01*
X39840800Y19333350D01*
X39840800Y21306650D01*
X40452113Y21306650D01*
X40605778Y21152988D01*
X40655550Y21120019D01*
X40714238Y21109072D01*
X40772544Y21121884D01*
X40817909Y21152988D01*
X40869972Y21205050D01*
X42160828Y21205050D01*
X42250100Y21115778D01*
X42250100Y20772400D01*
X42261981Y20713894D01*
X42295738Y20664656D01*
X42346028Y20632484D01*
X42400100Y20622400D01*
X43982500Y20622400D01*
X44041006Y20634281D01*
X44090244Y20668038D01*
X44122416Y20718328D01*
X44132500Y20772400D01*
X44132500Y21093228D01*
X44221772Y21182500D01*
X45379228Y21182500D01*
X45468500Y21093228D01*
X45468500Y19546772D01*
X45379228Y19457500D01*
X45252900Y19457500D01*
X45194394Y19445619D01*
X45145156Y19411863D01*
X45112984Y19361572D01*
X45102900Y19307500D01*
X45102900Y18919106D01*
X45114781Y18860600D01*
X45148538Y18811363D01*
X45195497Y18780525D01*
X45399906Y18695856D01*
X45692856Y18402906D01*
X45851400Y18020147D01*
X45851400Y17605853D01*
X45692856Y17223094D01*
X45399906Y16930144D01*
X45017147Y16771600D01*
X44602853Y16771600D01*
G37*
G36*
X39077088Y19333350D02*
X38928300Y19482138D01*
X38928300Y20243800D01*
X39688400Y20243800D01*
X39688400Y19333350D01*
X39077088Y19333350D01*
G37*
G36*
X54291600Y19333350D02*
X54291600Y20243800D01*
X55051700Y20243800D01*
X55051700Y19482138D01*
X54902913Y19333350D01*
X54291600Y19333350D01*
G37*
G36*
X42346200Y17889200D02*
X42346200Y18956000D01*
X42497359Y18956000D01*
X42917456Y18781991D01*
X43238991Y18460456D01*
X43413000Y18040359D01*
X43413000Y17889200D01*
X42346200Y17889200D01*
G37*
G36*
X53827000Y17889200D02*
X53827000Y18040359D01*
X54001009Y18460456D01*
X54322544Y18781991D01*
X54742641Y18956000D01*
X54893800Y18956000D01*
X54893800Y17889200D01*
X53827000Y17889200D01*
G37*
G36*
X38587000Y17889200D02*
X38587000Y18040359D01*
X38761009Y18460456D01*
X39082544Y18781991D01*
X39502641Y18956000D01*
X39653800Y18956000D01*
X39653800Y17889200D01*
X38587000Y17889200D01*
G37*
G36*
X39806200Y16670000D02*
X39806200Y18956000D01*
X39957359Y18956000D01*
X40377456Y18781991D01*
X40698991Y18460456D01*
X40861419Y18068319D01*
X40894781Y18018813D01*
X40944813Y17986244D01*
X41003588Y17975766D01*
X41061791Y17989041D01*
X41110206Y18023966D01*
X41138581Y18068319D01*
X41301009Y18460456D01*
X41622544Y18781991D01*
X42042641Y18956000D01*
X42193800Y18956000D01*
X42193800Y16670000D01*
X42042641Y16670000D01*
X41622544Y16844009D01*
X41301009Y17165544D01*
X41138581Y17557681D01*
X41105219Y17607188D01*
X41055188Y17639756D01*
X40996413Y17650234D01*
X40938209Y17636959D01*
X40889794Y17602034D01*
X40861419Y17557681D01*
X40698991Y17165544D01*
X40377456Y16844009D01*
X39957359Y16670000D01*
X39806200Y16670000D01*
G37*
G36*
X55046200Y17889200D02*
X55046200Y18956000D01*
X55197359Y18956000D01*
X55617456Y18781991D01*
X55938991Y18460456D01*
X56113000Y18040359D01*
X56113000Y17889200D01*
X55046200Y17889200D01*
G37*
G36*
X49682853Y16771600D02*
X49300094Y16930144D01*
X49007144Y17223094D01*
X48848600Y17605853D01*
X48848600Y18020147D01*
X49007144Y18402906D01*
X49300094Y18695856D01*
X49682853Y18854400D01*
X50097147Y18854400D01*
X50479906Y18695856D01*
X50772856Y18402906D01*
X50931400Y18020147D01*
X50931400Y17605853D01*
X50772856Y17223094D01*
X50479906Y16930144D01*
X50097147Y16771600D01*
X49682853Y16771600D01*
G37*
G36*
X47142853Y16771600D02*
X46760094Y16930144D01*
X46467144Y17223094D01*
X46308600Y17605853D01*
X46308600Y18020147D01*
X46467144Y18402906D01*
X46760094Y18695856D01*
X47142853Y18854400D01*
X47557147Y18854400D01*
X47939906Y18695856D01*
X48232856Y18402906D01*
X48391400Y18020147D01*
X48391400Y17605853D01*
X48232856Y17223094D01*
X47939906Y16930144D01*
X47557147Y16771600D01*
X47142853Y16771600D01*
G37*
G36*
X42346200Y16670000D02*
X42346200Y17736800D01*
X43413000Y17736800D01*
X43413000Y17585641D01*
X43238991Y17165544D01*
X42917456Y16844009D01*
X42497359Y16670000D01*
X42346200Y16670000D01*
G37*
G36*
X55046200Y16670000D02*
X55046200Y17736800D01*
X56113000Y17736800D01*
X56113000Y17585641D01*
X55938991Y17165544D01*
X55617456Y16844009D01*
X55197359Y16670000D01*
X55046200Y16670000D01*
G37*
G36*
X54742641Y16670000D02*
X54322544Y16844009D01*
X54001009Y17165544D01*
X53827000Y17585641D01*
X53827000Y17736800D01*
X54893800Y17736800D01*
X54893800Y16670000D01*
X54742641Y16670000D01*
G37*
G36*
X39502641Y16670000D02*
X39082544Y16844009D01*
X38761009Y17165544D01*
X38587000Y17585641D01*
X38587000Y17736800D01*
X39653800Y17736800D01*
X39653800Y16670000D01*
X39502641Y16670000D01*
G37*
G36*
X19691541Y10570400D02*
X19468956Y10662597D01*
X19298597Y10832956D01*
X19206400Y11055541D01*
X19206400Y11296459D01*
X19298597Y11519044D01*
X19468956Y11689403D01*
X19691541Y11781600D01*
X19932459Y11781600D01*
X20155044Y11689403D01*
X20326322Y11518125D01*
X20358291Y11470691D01*
X20408322Y11438119D01*
X20463506Y11427600D01*
X55819609Y11427600D01*
X55878116Y11439481D01*
X55925675Y11471534D01*
X60818466Y16364325D01*
X60851434Y16414094D01*
X60862400Y16470391D01*
X60862400Y16706659D01*
X60954597Y16929244D01*
X61124956Y17099603D01*
X61347541Y17191800D01*
X61588459Y17191800D01*
X61811044Y17099603D01*
X61981403Y16929244D01*
X62073600Y16706659D01*
X62073600Y16465741D01*
X61981403Y16243156D01*
X61811044Y16072797D01*
X61588459Y15980600D01*
X61352191Y15980600D01*
X61293684Y15968719D01*
X61246125Y15936666D01*
X56132259Y10822800D01*
X20377378Y10822800D01*
X20318872Y10810919D01*
X20271313Y10778866D01*
X20155044Y10662597D01*
X19932459Y10570400D01*
X19691541Y10570400D01*
G37*
G36*
X7717513Y14376400D02*
X7381434Y14515606D01*
X7124206Y14772834D01*
X6985000Y15108913D01*
X6985000Y15472688D01*
X7124206Y15808766D01*
X7381434Y16065994D01*
X7717513Y16205200D01*
X9605288Y16205200D01*
X9941366Y16065994D01*
X10198594Y15808766D01*
X10337800Y15472688D01*
X10337800Y15108913D01*
X10198594Y14772834D01*
X9941366Y14515606D01*
X9605288Y14376400D01*
X7717513Y14376400D01*
G37*
G36*
X48963163Y1524625D02*
X48627084Y1663831D01*
X48369856Y1921059D01*
X48230650Y2257138D01*
X48230650Y4144913D01*
X48369856Y4480991D01*
X48627084Y4738219D01*
X48750053Y4789153D01*
X48799559Y4822516D01*
X48832128Y4872547D01*
X48842650Y4927734D01*
X48842650Y4998109D01*
X50395966Y6551425D01*
X51071900Y6551425D01*
X51130406Y6563306D01*
X51179644Y6597063D01*
X51211816Y6647353D01*
X51221900Y6701425D01*
X51221900Y7044803D01*
X51311172Y7134075D01*
X51504200Y7134075D01*
X51562706Y7145956D01*
X51611944Y7179713D01*
X51644116Y7230003D01*
X51654200Y7284075D01*
X51654200Y8089059D01*
X52531675Y8966534D01*
X52564644Y9016303D01*
X52575591Y9074991D01*
X52562778Y9133300D01*
X52528241Y9181994D01*
X52477444Y9213359D01*
X52425609Y9222600D01*
X40522591Y9222600D01*
X40464084Y9210719D01*
X40416525Y9178666D01*
X38850584Y7612725D01*
X38817616Y7562956D01*
X38806650Y7506659D01*
X38806650Y7284075D01*
X38818531Y7225569D01*
X38852288Y7176331D01*
X38902578Y7144159D01*
X38956650Y7134075D01*
X39149675Y7134075D01*
X39201744Y7082009D01*
X39251516Y7049041D01*
X39310203Y7038097D01*
X39368513Y7050909D01*
X39413875Y7082013D01*
X39567538Y7235675D01*
X40178850Y7235675D01*
X40178850Y5262375D01*
X39567538Y5262375D01*
X39413875Y5416041D01*
X39364106Y5449009D01*
X39305419Y5459956D01*
X39247109Y5447147D01*
X39201744Y5416041D01*
X39149678Y5363975D01*
X37858822Y5363975D01*
X37769550Y5453247D01*
X37769550Y5796625D01*
X37757669Y5855131D01*
X37723913Y5904369D01*
X37673622Y5936541D01*
X37619550Y5946625D01*
X37068816Y5946625D01*
X37010309Y5934744D01*
X36962750Y5902691D01*
X36223834Y5163775D01*
X36190866Y5114006D01*
X36179900Y5057709D01*
X36179900Y4958359D01*
X36191781Y4899853D01*
X36225538Y4850616D01*
X36272497Y4819778D01*
X36395466Y4768844D01*
X36652694Y4511616D01*
X36791900Y4175538D01*
X36791900Y2287763D01*
X36652694Y1951684D01*
X36395466Y1694456D01*
X36059388Y1555250D01*
X35695613Y1555250D01*
X35359534Y1694456D01*
X35102306Y1951684D01*
X34963100Y2287763D01*
X34963100Y4175538D01*
X35102306Y4511616D01*
X35359534Y4768844D01*
X35482503Y4819778D01*
X35532009Y4853141D01*
X35564578Y4903172D01*
X35575100Y4958359D01*
X35575100Y5370359D01*
X36756166Y6551425D01*
X37619550Y6551425D01*
X37678056Y6563306D01*
X37727294Y6597063D01*
X37759466Y6647353D01*
X37769550Y6701425D01*
X37769550Y7044803D01*
X37858822Y7134075D01*
X38051850Y7134075D01*
X38110356Y7145956D01*
X38159594Y7179713D01*
X38191766Y7230003D01*
X38201850Y7284075D01*
X38201850Y7819309D01*
X40209941Y9827400D01*
X61922781Y9827400D01*
X61981288Y9839281D01*
X62030525Y9873038D01*
X62062697Y9923328D01*
X62072706Y9982181D01*
X62058966Y10040278D01*
X62023656Y10088416D01*
X61980184Y10115981D01*
X61886956Y10154597D01*
X61716597Y10324956D01*
X61624400Y10547541D01*
X61624400Y10788459D01*
X61716597Y11011044D01*
X61886956Y11181403D01*
X62109541Y11273600D01*
X62350459Y11273600D01*
X62573044Y11181403D01*
X62740113Y11014334D01*
X62789881Y10981366D01*
X62846178Y10970400D01*
X66927259Y10970400D01*
X68104125Y9793534D01*
X68153894Y9760566D01*
X68210191Y9749600D01*
X68446459Y9749600D01*
X68669044Y9657403D01*
X68839403Y9487044D01*
X68931600Y9264459D01*
X68931600Y9023541D01*
X68839403Y8800956D01*
X68669044Y8630597D01*
X68446459Y8538400D01*
X68205541Y8538400D01*
X67982956Y8630597D01*
X67812597Y8800956D01*
X67720400Y9023541D01*
X67720400Y9259809D01*
X67708519Y9318316D01*
X67676466Y9365875D01*
X66720675Y10321666D01*
X66670906Y10354634D01*
X66614609Y10365600D01*
X62846178Y10365600D01*
X62787672Y10353719D01*
X62740113Y10321666D01*
X62573044Y10154597D01*
X62333300Y10055294D01*
X62283797Y10021931D01*
X62251225Y9971900D01*
X62240747Y9913128D01*
X62254022Y9854922D01*
X62284638Y9810647D01*
X64917275Y7178009D01*
X64967044Y7145041D01*
X65023341Y7134075D01*
X66064025Y7134075D01*
X66116094Y7082009D01*
X66165866Y7049041D01*
X66224553Y7038097D01*
X66282863Y7050909D01*
X66328225Y7082013D01*
X66481888Y7235675D01*
X67093200Y7235675D01*
X67093200Y5262375D01*
X66481888Y5262375D01*
X66328225Y5416041D01*
X66278456Y5449009D01*
X66219769Y5459956D01*
X66161459Y5447147D01*
X66116094Y5416041D01*
X66064028Y5363975D01*
X64773172Y5363975D01*
X64683900Y5453247D01*
X64683900Y5796625D01*
X64672019Y5855131D01*
X64638263Y5904369D01*
X64587972Y5936541D01*
X64533900Y5946625D01*
X63967416Y5946625D01*
X63908909Y5934744D01*
X63861350Y5902691D01*
X62907300Y4948641D01*
X62874331Y4898872D01*
X62863384Y4840184D01*
X62876197Y4781875D01*
X62907300Y4736509D01*
X63132194Y4511616D01*
X63271400Y4175538D01*
X63271400Y2287763D01*
X63132194Y1951684D01*
X62874966Y1694456D01*
X62538888Y1555250D01*
X62175113Y1555250D01*
X61839034Y1694456D01*
X61581806Y1951684D01*
X61442600Y2287763D01*
X61442600Y4175538D01*
X61581806Y4511616D01*
X61839034Y4768844D01*
X61962003Y4819778D01*
X62011509Y4853141D01*
X62044078Y4903172D01*
X62052928Y4949588D01*
X63654766Y6551425D01*
X64326409Y6551425D01*
X64384916Y6563306D01*
X64434153Y6597063D01*
X64466325Y6647353D01*
X64476334Y6706206D01*
X64462594Y6764303D01*
X64432475Y6807491D01*
X62061300Y9178666D01*
X62011531Y9211634D01*
X61955234Y9222600D01*
X53705191Y9222600D01*
X53646684Y9210719D01*
X53599125Y9178666D01*
X52302934Y7882475D01*
X52269966Y7832706D01*
X52259000Y7776409D01*
X52259000Y7284075D01*
X52270881Y7225569D01*
X52304638Y7176331D01*
X52354928Y7144159D01*
X52409000Y7134075D01*
X52602025Y7134075D01*
X52654094Y7082009D01*
X52703866Y7049041D01*
X52762553Y7038097D01*
X52820863Y7050909D01*
X52866225Y7082013D01*
X53019888Y7235675D01*
X53631200Y7235675D01*
X53631200Y5262375D01*
X53019888Y5262375D01*
X52866225Y5416041D01*
X52816456Y5449009D01*
X52757769Y5459956D01*
X52699459Y5447147D01*
X52654094Y5416041D01*
X52602028Y5363975D01*
X51311172Y5363975D01*
X51221900Y5453247D01*
X51221900Y5796625D01*
X51210019Y5855131D01*
X51176263Y5904369D01*
X51125972Y5936541D01*
X51071900Y5946625D01*
X50708616Y5946625D01*
X50650109Y5934744D01*
X50602550Y5902691D01*
X49656613Y4956753D01*
X49623644Y4906984D01*
X49612697Y4848297D01*
X49625509Y4789988D01*
X49656613Y4744622D01*
X49920244Y4480991D01*
X50059450Y4144913D01*
X50059450Y2257138D01*
X49920244Y1921059D01*
X49663016Y1663831D01*
X49326938Y1524625D01*
X48963163Y1524625D01*
G37*
G36*
X7717513Y6756400D02*
X7381434Y6895606D01*
X7124206Y7152834D01*
X6985000Y7488913D01*
X6985000Y7852688D01*
X7124206Y8188766D01*
X7381434Y8445994D01*
X7717513Y8585200D01*
X9605288Y8585200D01*
X9941366Y8445994D01*
X10198594Y8188766D01*
X10337800Y7852688D01*
X10337800Y7488913D01*
X10198594Y7152834D01*
X9941366Y6895606D01*
X9605288Y6756400D01*
X7717513Y6756400D01*
G37*
G36*
X53783600Y6325225D02*
X53783600Y7235675D01*
X54394913Y7235675D01*
X54543700Y7086888D01*
X54543700Y6325225D01*
X53783600Y6325225D01*
G37*
G36*
X81045500Y6325225D02*
X81045500Y7235675D01*
X81656813Y7235675D01*
X81805600Y7086888D01*
X81805600Y6325225D01*
X81045500Y6325225D01*
G37*
G36*
X40331250Y6325225D02*
X40331250Y7235675D01*
X40942563Y7235675D01*
X41091350Y7086888D01*
X41091350Y6325225D01*
X40331250Y6325225D01*
G37*
G36*
X67245600Y6325225D02*
X67245600Y7235675D01*
X67856913Y7235675D01*
X68005700Y7086888D01*
X68005700Y6325225D01*
X67245600Y6325225D01*
G37*
G36*
X81045500Y5262375D02*
X81045500Y6172825D01*
X81805600Y6172825D01*
X81805600Y5411163D01*
X81656813Y5262375D01*
X81045500Y5262375D01*
G37*
G36*
X67245600Y5262375D02*
X67245600Y6172825D01*
X68005700Y6172825D01*
X68005700Y5411163D01*
X67856913Y5262375D01*
X67245600Y5262375D01*
G37*
G36*
X53783600Y5262375D02*
X53783600Y6172825D01*
X54543700Y6172825D01*
X54543700Y5411163D01*
X54394913Y5262375D01*
X53783600Y5262375D01*
G37*
G36*
X40331250Y5262375D02*
X40331250Y6172825D01*
X41091350Y6172825D01*
X41091350Y5411163D01*
X40942563Y5262375D01*
X40331250Y5262375D01*
G37*
G36*
X42481500Y3307850D02*
X42481500Y4195747D01*
X42636175Y4569169D01*
X42921981Y4854975D01*
X43295403Y5009650D01*
X43421300Y5009650D01*
X43421300Y3307850D01*
X42481500Y3307850D01*
G37*
G36*
X82905600Y3307850D02*
X82905600Y4195747D01*
X83060275Y4569169D01*
X83346081Y4854975D01*
X83719503Y5009650D01*
X83845400Y5009650D01*
X83845400Y3307850D01*
X82905600Y3307850D01*
G37*
G36*
X68961000Y3307850D02*
X68961000Y4195747D01*
X69115675Y4569169D01*
X69401481Y4854975D01*
X69774903Y5009650D01*
X69900800Y5009650D01*
X69900800Y3307850D01*
X68961000Y3307850D01*
G37*
G36*
X70053200Y3307850D02*
X70053200Y5009650D01*
X70179097Y5009650D01*
X70552519Y4854975D01*
X70838325Y4569169D01*
X70993000Y4195747D01*
X70993000Y3307850D01*
X70053200Y3307850D01*
G37*
G36*
X83997800Y3307850D02*
X83997800Y5009650D01*
X84123697Y5009650D01*
X84497119Y4854975D01*
X84782925Y4569169D01*
X84937600Y4195747D01*
X84937600Y3307850D01*
X83997800Y3307850D01*
G37*
G36*
X43573700Y3307850D02*
X43573700Y5009650D01*
X43699597Y5009650D01*
X44073019Y4854975D01*
X44358825Y4569169D01*
X44513500Y4195747D01*
X44513500Y3307850D01*
X43573700Y3307850D01*
G37*
G36*
X55749050Y3277225D02*
X55749050Y4165122D01*
X55903725Y4538544D01*
X56189531Y4824350D01*
X56562953Y4979025D01*
X56688850Y4979025D01*
X56688850Y3277225D01*
X55749050Y3277225D01*
G37*
G36*
X56841250Y3277225D02*
X56841250Y4979025D01*
X56967147Y4979025D01*
X57340569Y4824350D01*
X57626375Y4538544D01*
X57781050Y4165122D01*
X57781050Y3277225D01*
X56841250Y3277225D01*
G37*
G36*
X78659713Y1555250D02*
X78323634Y1694456D01*
X78066406Y1951684D01*
X77927200Y2287763D01*
X77927200Y4175538D01*
X78066406Y4511616D01*
X78323634Y4768844D01*
X78659713Y4908050D01*
X79023488Y4908050D01*
X79359566Y4768844D01*
X79616794Y4511616D01*
X79756000Y4175538D01*
X79756000Y2287763D01*
X79616794Y1951684D01*
X79359566Y1694456D01*
X79023488Y1555250D01*
X78659713Y1555250D01*
G37*
G36*
X81199713Y1555250D02*
X80863634Y1694456D01*
X80606406Y1951684D01*
X80467200Y2287763D01*
X80467200Y4175538D01*
X80606406Y4511616D01*
X80863634Y4768844D01*
X81199713Y4908050D01*
X81563488Y4908050D01*
X81899566Y4768844D01*
X82156794Y4511616D01*
X82296000Y4175538D01*
X82296000Y2287763D01*
X82156794Y1951684D01*
X81899566Y1694456D01*
X81563488Y1555250D01*
X81199713Y1555250D01*
G37*
G36*
X38235613Y1555250D02*
X37899534Y1694456D01*
X37642306Y1951684D01*
X37503100Y2287763D01*
X37503100Y4175538D01*
X37642306Y4511616D01*
X37899534Y4768844D01*
X38235613Y4908050D01*
X38599388Y4908050D01*
X38935466Y4768844D01*
X39192694Y4511616D01*
X39331900Y4175538D01*
X39331900Y2287763D01*
X39192694Y1951684D01*
X38935466Y1694456D01*
X38599388Y1555250D01*
X38235613Y1555250D01*
G37*
G36*
X40775613Y1555250D02*
X40439534Y1694456D01*
X40182306Y1951684D01*
X40043100Y2287763D01*
X40043100Y4175538D01*
X40182306Y4511616D01*
X40439534Y4768844D01*
X40775613Y4908050D01*
X41139388Y4908050D01*
X41475466Y4768844D01*
X41732694Y4511616D01*
X41871900Y4175538D01*
X41871900Y2287763D01*
X41732694Y1951684D01*
X41475466Y1694456D01*
X41139388Y1555250D01*
X40775613Y1555250D01*
G37*
G36*
X64715113Y1555250D02*
X64379034Y1694456D01*
X64121806Y1951684D01*
X63982600Y2287763D01*
X63982600Y4175538D01*
X64121806Y4511616D01*
X64379034Y4768844D01*
X64715113Y4908050D01*
X65078888Y4908050D01*
X65414966Y4768844D01*
X65672194Y4511616D01*
X65811400Y4175538D01*
X65811400Y2287763D01*
X65672194Y1951684D01*
X65414966Y1694456D01*
X65078888Y1555250D01*
X64715113Y1555250D01*
G37*
G36*
X67255113Y1555250D02*
X66919034Y1694456D01*
X66661806Y1951684D01*
X66522600Y2287763D01*
X66522600Y4175538D01*
X66661806Y4511616D01*
X66919034Y4768844D01*
X67255113Y4908050D01*
X67618888Y4908050D01*
X67954966Y4768844D01*
X68212194Y4511616D01*
X68351400Y4175538D01*
X68351400Y2287763D01*
X68212194Y1951684D01*
X67954966Y1694456D01*
X67618888Y1555250D01*
X67255113Y1555250D01*
G37*
G36*
X51503163Y1524625D02*
X51167084Y1663831D01*
X50909856Y1921059D01*
X50770650Y2257138D01*
X50770650Y4144913D01*
X50909856Y4480991D01*
X51167084Y4738219D01*
X51503163Y4877425D01*
X51866938Y4877425D01*
X52203016Y4738219D01*
X52460244Y4480991D01*
X52599450Y4144913D01*
X52599450Y2257138D01*
X52460244Y1921059D01*
X52203016Y1663831D01*
X51866938Y1524625D01*
X51503163Y1524625D01*
G37*
G36*
X54043163Y1524625D02*
X53707084Y1663831D01*
X53449856Y1921059D01*
X53310650Y2257138D01*
X53310650Y4144913D01*
X53449856Y4480991D01*
X53707084Y4738219D01*
X54043163Y4877425D01*
X54406938Y4877425D01*
X54743016Y4738219D01*
X55000244Y4480991D01*
X55139450Y4144913D01*
X55139450Y2257138D01*
X55000244Y1921059D01*
X54743016Y1663831D01*
X54406938Y1524625D01*
X54043163Y1524625D01*
G37*
G36*
X88596856Y1524000D02*
X88036725Y1756013D01*
X87608013Y2184725D01*
X87376000Y2744856D01*
X87376000Y3351144D01*
X87608013Y3911275D01*
X88036725Y4339988D01*
X88596856Y4572000D01*
X89203144Y4572000D01*
X89763275Y4339988D01*
X90191988Y3911275D01*
X90424000Y3351144D01*
X90424000Y2744856D01*
X90191988Y2184725D01*
X89763275Y1756013D01*
X89203144Y1524000D01*
X88596856Y1524000D01*
G37*
G36*
X83997800Y1453650D02*
X83997800Y3155450D01*
X84937600Y3155450D01*
X84937600Y2267553D01*
X84782925Y1894131D01*
X84497119Y1608325D01*
X84123697Y1453650D01*
X83997800Y1453650D01*
G37*
G36*
X83719503Y1453650D02*
X83346081Y1608325D01*
X83060275Y1894131D01*
X82905600Y2267553D01*
X82905600Y3155450D01*
X83845400Y3155450D01*
X83845400Y1453650D01*
X83719503Y1453650D01*
G37*
G36*
X70053200Y1453650D02*
X70053200Y3155450D01*
X70993000Y3155450D01*
X70993000Y2267553D01*
X70838325Y1894131D01*
X70552519Y1608325D01*
X70179097Y1453650D01*
X70053200Y1453650D01*
G37*
G36*
X69774903Y1453650D02*
X69401481Y1608325D01*
X69115675Y1894131D01*
X68961000Y2267553D01*
X68961000Y3155450D01*
X69900800Y3155450D01*
X69900800Y1453650D01*
X69774903Y1453650D01*
G37*
G36*
X43573700Y1453650D02*
X43573700Y3155450D01*
X44513500Y3155450D01*
X44513500Y2267553D01*
X44358825Y1894131D01*
X44073019Y1608325D01*
X43699597Y1453650D01*
X43573700Y1453650D01*
G37*
G36*
X43295403Y1453650D02*
X42921981Y1608325D01*
X42636175Y1894131D01*
X42481500Y2267553D01*
X42481500Y3155450D01*
X43421300Y3155450D01*
X43421300Y1453650D01*
X43295403Y1453650D01*
G37*
G36*
X56841250Y1423025D02*
X56841250Y3124825D01*
X57781050Y3124825D01*
X57781050Y2236928D01*
X57626375Y1863506D01*
X57340569Y1577700D01*
X56967147Y1423025D01*
X56841250Y1423025D01*
G37*
G36*
X56562953Y1423025D02*
X56189531Y1577700D01*
X55903725Y1863506D01*
X55749050Y2236928D01*
X55749050Y3124825D01*
X56688850Y3124825D01*
X56688850Y1423025D01*
X56562953Y1423025D01*
G37*
%LPD*%
D10*
X29464000Y46736000D02*
X29464000Y48260000D01*
X32004000Y48260000D02*
X32004000Y46736000D01*
X17526000Y46736000D02*
X17526000Y48260000D01*
X20066000Y48260000D02*
X20066000Y46736000D01*
X3683000Y43002200D02*
X2159000Y43002200D01*
X2159000Y40462200D02*
X3683000Y40462200D01*
D11*
X19671400Y44450000D03*
X17920600Y44450000D03*
X41515400Y20320000D03*
X39764600Y20320000D03*
X54215400Y20320000D03*
X52464600Y20320000D03*
X40255050Y6249025D03*
X38504250Y6249025D03*
X84976600Y44704000D03*
X86727400Y44704000D03*
X31609400Y44704000D03*
X29858600Y44704000D03*
X67169400Y6249025D03*
X65418600Y6249025D03*
X80969300Y6249025D03*
X79218500Y6249025D03*
X53707400Y6249025D03*
X51956600Y6249025D03*
D10*
X76301600Y3993650D02*
X76301600Y2469650D01*
X78841600Y2469650D02*
X78841600Y3993650D01*
X81381600Y3993650D02*
X81381600Y2469650D01*
X83921600Y2469650D02*
X83921600Y3993650D01*
X49145050Y3963025D02*
X49145050Y2439025D01*
X51685050Y2439025D02*
X51685050Y3963025D01*
X54225050Y3963025D02*
X54225050Y2439025D01*
X56765050Y2439025D02*
X56765050Y3963025D01*
X62357000Y3993650D02*
X62357000Y2469650D01*
X64897000Y2469650D02*
X64897000Y3993650D01*
X67437000Y3993650D02*
X67437000Y2469650D01*
X69977000Y2469650D02*
X69977000Y3993650D01*
X64770000Y30162500D02*
X63246000Y30162500D01*
X63246000Y27622500D02*
X64770000Y27622500D01*
X64770000Y25082500D02*
X63246000Y25082500D01*
X63246000Y22542500D02*
X64770000Y22542500D01*
X60756800Y46814800D02*
X60756800Y48338800D01*
X58216800Y48338800D02*
X58216800Y46814800D01*
X52374800Y46814800D02*
X52374800Y48338800D01*
X49834800Y48338800D02*
X49834800Y46814800D01*
D12*
X46639500Y20320000D03*
X44800500Y20320000D03*
D10*
X85661500Y46736000D02*
X85661500Y48260000D01*
X83121500Y48260000D02*
X83121500Y46736000D01*
X80581500Y46736000D02*
X80581500Y48260000D01*
X78041500Y48260000D02*
X78041500Y46736000D01*
X35877500Y3993650D02*
X35877500Y2469650D01*
X38417500Y2469650D02*
X38417500Y3993650D01*
X40957500Y3993650D02*
X40957500Y2469650D01*
X43497500Y2469650D02*
X43497500Y3993650D01*
X3683000Y15290800D02*
X2159000Y15290800D01*
X2159000Y12750800D02*
X3683000Y12750800D01*
X3683000Y10210800D02*
X2159000Y10210800D01*
X2159000Y7670800D02*
X3683000Y7670800D01*
X7899400Y7670800D02*
X9423400Y7670800D01*
X9423400Y10210800D02*
X7899400Y10210800D01*
X7899400Y12750800D02*
X9423400Y12750800D01*
X9423400Y15290800D02*
X7899400Y15290800D01*
D13*
X44810000Y17813000D03*
X47350000Y17813000D03*
X49890000Y17813000D03*
X52430000Y17813000D03*
X54970000Y17813000D03*
X42270000Y17813000D03*
X39730000Y17813000D03*
D14*
X6230000Y35233000D03*
X6230000Y34383000D03*
X6230000Y33533000D03*
X6230000Y32683000D03*
X6230000Y31833000D03*
X6230000Y30983000D03*
X6230000Y30133000D03*
X6230000Y29283000D03*
X4880000Y29283000D03*
X4880000Y30133000D03*
X4880000Y30983000D03*
X4880000Y31833000D03*
X4880000Y32683000D03*
X4880000Y33533000D03*
X4880000Y34383000D03*
X4880000Y35233000D03*
D15*
X4696000Y36583000D02*
X5804000Y36583000D01*
X5804000Y27933000D02*
X4696000Y27933000D01*
X2424000Y27933000D02*
X1316000Y27933000D01*
X1316000Y36583000D02*
X2424000Y36583000D01*
D16*
X7874000Y47752000D03*
X89916000Y47752000D03*
X88900000Y3048000D03*
X7874000Y2794000D03*
D17*
X3238500Y47465100D03*
X93901500Y3238500D03*
X3238500Y3238500D03*
X93901500Y47465100D03*
D18*
X78486000Y49530000D02*
X78041500Y49085500D01*
X78041500Y47498000D01*
X78486000Y49530000D02*
X84328000Y49530000D01*
X84328000Y44958000D01*
X84582000Y44704000D01*
X84976600Y44704000D01*
X54970000Y19565400D02*
X54215400Y20320000D01*
X54970000Y19565400D02*
X54970000Y17813000D01*
X39764600Y17847600D02*
X39764600Y20320000D01*
X39764600Y17847600D02*
X39730000Y17813000D01*
X42270000Y17813000D01*
X43827000Y16256000D01*
X53413000Y16256000D01*
X54970000Y17813000D01*
X67169400Y6249025D02*
X68655575Y6249025D01*
X69977000Y4927600D01*
X69977000Y3231650D01*
X80969300Y6249025D02*
X82777975Y6249025D01*
X83921600Y5105400D01*
X83921600Y3231650D01*
X43528125Y3201025D02*
X43497500Y3231650D01*
X53707400Y6249025D02*
X55091975Y6249025D01*
X56765050Y4575950D01*
X56765050Y3201025D01*
X42010975Y6249025D02*
X40255050Y6249025D01*
X42010975Y6249025D02*
X43528125Y4731875D01*
X43528125Y3201025D01*
X43497500Y3231650D02*
X45662350Y1066800D01*
X55524400Y1066800D01*
X56765050Y2307450D01*
X56765050Y3201025D01*
X19671400Y44450000D02*
X20066000Y44844600D01*
X20066000Y47498000D01*
X31609400Y44704000D02*
X32004000Y45098600D01*
X32004000Y47498000D01*
X26466800Y47498000D02*
X20066000Y47498000D01*
X26466800Y47498000D02*
X28371800Y49403000D01*
X31064200Y49403000D01*
X32004000Y48463200D01*
X32004000Y47498000D01*
X81959950Y1270000D02*
X83921600Y3231650D01*
X81959950Y1270000D02*
X71938650Y1270000D01*
X69977000Y3231650D01*
X71735450Y1066800D02*
X55524400Y1066800D01*
X71735450Y1066800D02*
X71938650Y1270000D01*
D19*
X87884000Y5842000D03*
D18*
X85273650Y3231650D01*
X83921600Y3231650D01*
D19*
X71120000Y42926000D03*
X66267706Y44476294D03*
D18*
X85661500Y47498000D02*
X86727400Y46432100D01*
X86727400Y44704000D01*
X52464600Y20320000D02*
X52464600Y17847600D01*
X52430000Y17813000D01*
X52464600Y20320000D02*
X46639500Y20320000D01*
X79218500Y6828500D02*
X79218500Y6350000D01*
X79218500Y6249025D02*
X77572225Y6249025D01*
X76301600Y4978400D01*
X76301600Y3231650D01*
X29858600Y44704000D02*
X29464000Y45098600D01*
X29464000Y47498000D01*
D19*
X9296400Y25679400D03*
D18*
X29858600Y36457131D02*
X29858600Y44704000D01*
X9317000Y25700000D02*
X9296400Y25679400D01*
X9317000Y25700000D02*
X9317000Y30621981D01*
X29858600Y43039400D02*
X29858600Y44704000D01*
X29858600Y43039400D02*
X38354000Y34544000D01*
X52464600Y21222600D02*
X52464600Y20320000D01*
X52464600Y21222600D02*
X53340000Y22098000D01*
X58008188Y22098000D01*
X69184188Y10922000D01*
X74646500Y10922000D01*
X79218500Y6350000D01*
X71120000Y34544000D02*
X38354000Y34544000D01*
X71120000Y34544000D02*
X82296000Y34544000D01*
X86727400Y38975400D01*
X86727400Y44704000D01*
D19*
X27330400Y21869400D03*
D18*
X13106400Y21869400D01*
X9296400Y25679400D01*
X71120000Y34544000D02*
X71120000Y42926000D01*
X66878200Y43865800D02*
X66267706Y44476294D01*
X70180200Y43865800D02*
X71120000Y42926000D01*
X70180200Y43865800D02*
X66878200Y43865800D01*
X86727400Y38975400D02*
X91326600Y38975400D01*
X94234000Y36068000D01*
X94234000Y13462000D01*
X88900000Y8128000D01*
X80518000Y8128000D01*
X79218500Y6828500D01*
X79218500Y6350000D02*
X79218500Y6249025D01*
X12229419Y33534400D02*
X9317000Y30621981D01*
X26935869Y33534400D02*
X29858600Y36457131D01*
X26935869Y33534400D02*
X12229419Y33534400D01*
X63780025Y6249025D02*
X65418600Y6249025D01*
X63780025Y6249025D02*
X62357000Y4826000D01*
X62357000Y3231650D01*
X51956600Y6249025D02*
X50521225Y6249025D01*
X49145050Y4872850D01*
X49145050Y3201025D01*
X51956600Y6249025D02*
X51956600Y7963800D01*
X53517800Y9525000D01*
X62142625Y9525000D01*
X65418600Y6249025D01*
X53517800Y9525000D02*
X40335200Y9525000D01*
X38504250Y7694050D01*
X38504250Y6249025D01*
X36881425Y6249025D01*
X35877500Y5245100D01*
X35877500Y3231650D01*
X17920600Y44450000D02*
X17526000Y44844600D01*
X17526000Y47498000D01*
D19*
X23622000Y34290000D03*
D18*
X17920600Y39991400D01*
X17920600Y44450000D01*
X4973600Y32589400D02*
X4880000Y32683000D01*
X4973600Y32589400D02*
X5701313Y32589400D01*
X6230000Y32060713D02*
X6230000Y31833000D01*
X6230000Y32060713D02*
X5701313Y32589400D01*
D19*
X13882600Y31833000D03*
D18*
X13882600Y29857988D02*
X16028294Y27712294D01*
X13882600Y29857988D02*
X13882600Y31833000D01*
D19*
X16028294Y27692400D03*
D18*
X16028294Y27712294D01*
D19*
X17087094Y27911000D03*
X16279800Y31882650D03*
D18*
X16279800Y28718294D02*
X17087094Y27911000D01*
X16279800Y28718294D02*
X16279800Y31882650D01*
D19*
X86106000Y24638000D03*
D18*
X78994000Y24638000D01*
X74676000Y28956000D01*
X53086000Y28956000D01*
D19*
X53086000Y28956000D03*
X54610000Y26162000D03*
D18*
X54864000Y26416000D01*
X73914000Y26416000D01*
X77724000Y22606000D01*
X90932000Y22606000D01*
D19*
X90932000Y22606000D03*
D18*
X44800500Y20320000D02*
X41515400Y20320000D01*
X44800500Y20320000D02*
X44800500Y17822500D01*
X44810000Y17813000D01*
D19*
X61468000Y16586200D03*
D18*
X56007000Y11125200D01*
D19*
X19812000Y11176000D03*
D18*
X19862800Y11125200D02*
X56007000Y11125200D01*
X19862800Y11125200D02*
X19812000Y11176000D01*
D19*
X92964000Y34544000D03*
X31496000Y23114000D03*
D18*
X40894000Y32512000D01*
X90932000Y32512000D01*
X92964000Y34544000D01*
D19*
X62230000Y10668000D03*
D18*
X66802000Y10668000D01*
X68326000Y9144000D01*
D19*
X68326000Y9144000D03*
X81788000Y38608000D03*
D18*
X81788000Y43688000D01*
X83121500Y45021500D01*
X83121500Y47498000D01*
D19*
X80518000Y38608000D03*
D18*
X80518000Y47434500D01*
X80581500Y47498000D01*
X15036800Y10210800D02*
X8661400Y10210800D01*
X15036800Y10210800D02*
X22860000Y18034000D01*
X32258000Y18034000D01*
X37846000Y23622000D01*
X58166000Y23622000D01*
X69850000Y11938000D01*
X86614000Y11938000D01*
D19*
X86614000Y11938000D03*
D18*
X14274800Y12750800D02*
X8661400Y12750800D01*
X14274800Y12750800D02*
X21336000Y19812000D01*
X31750000Y19812000D01*
X36830000Y24892000D01*
X58674000Y24892000D01*
X70358000Y13208000D01*
X90424000Y13208000D01*
D19*
X90424000Y13208000D03*
M02*
