G04 EAGLE Gerber X2 export*
%TF.Part,Single*%
%TF.FileFunction,Copper,L1,Top,Mixed*%
%TF.FilePolarity,Positive*%
%TF.GenerationSoftware,Autodesk,EAGLE,9.7.0*%
%TF.CreationDate,2022-05-19T00:33:23Z*%
G75*
%MOMM*%
%FSLAX46Y46*%
%LPD*%
%INTop Copper*%
%AMOC8*
5,1,8,0,0,1.08239X$1,22.5*%
G01*
G04 Define Apertures*
%ADD10C,1.524000*%
%ADD11R,1.465300X1.164600*%
%ADD12R,1.470000X1.020000*%
%ADD13R,1.164600X1.465300*%
%ADD14R,1.020000X1.470000*%
%ADD15R,2.670000X2.540000*%
%ADD16R,0.762000X1.270000*%
%ADD17R,0.770000X1.070000*%
%ADD18R,0.900000X2.000000*%
%ADD19R,5.000000X5.000000*%
%ADD20R,0.900000X1.400000*%
%ADD21R,1.200000X0.650000*%
%ADD22R,0.650000X1.200000*%
%ADD23R,1.000000X1.400000*%
%ADD24R,1.031200X1.420200*%
%ADD25R,1.420200X1.031200*%
%ADD26R,1.100000X1.400000*%
%ADD27R,0.300000X1.000000*%
%ADD28R,1.000000X0.300000*%
%ADD29R,3.350000X3.350000*%
%ADD30R,2.750000X0.950000*%
%ADD31R,2.750000X3.250000*%
%ADD32R,0.230000X1.006400*%
%ADD33R,1.400000X1.600000*%
%ADD34C,1.778000*%
%ADD35C,0.908000*%
%ADD36C,1.108000*%
%ADD37C,1.524000*%
%ADD38C,4.445000*%
%ADD39C,0.300000*%
%ADD40C,0.906400*%
G36*
X7488475Y1027881D02*
X7537713Y1061638D01*
X7569884Y1111928D01*
X7579894Y1170781D01*
X7566153Y1228878D01*
X7530844Y1277016D01*
X7487372Y1304581D01*
X7010725Y1502013D01*
X6582013Y1930725D01*
X6350000Y2490856D01*
X6350000Y3097144D01*
X6582013Y3657275D01*
X7010725Y4085988D01*
X7570856Y4318000D01*
X8177144Y4318000D01*
X8737275Y4085988D01*
X9165988Y3657275D01*
X9398000Y3097144D01*
X9398000Y2490856D01*
X9165988Y1930725D01*
X8737275Y1502013D01*
X8260628Y1304581D01*
X8211125Y1271219D01*
X8178553Y1221188D01*
X8168075Y1162413D01*
X8181350Y1104209D01*
X8216275Y1055794D01*
X8267319Y1024831D01*
X8318031Y1016000D01*
X60729009Y1016000D01*
X60787516Y1027881D01*
X60836753Y1061638D01*
X60868925Y1111928D01*
X60878934Y1170781D01*
X60865194Y1228878D01*
X60835075Y1272066D01*
X60276600Y1830541D01*
X60276600Y5865659D01*
X61064284Y6653344D01*
X61084406Y6657431D01*
X61133644Y6691188D01*
X61165816Y6741478D01*
X61175900Y6795550D01*
X61175900Y7116378D01*
X61265172Y7205650D01*
X62422628Y7205650D01*
X62511900Y7116378D01*
X62511900Y5569922D01*
X62422628Y5480650D01*
X61265172Y5480650D01*
X61137466Y5608356D01*
X61087697Y5641325D01*
X61029009Y5652272D01*
X60970700Y5639459D01*
X60922006Y5604922D01*
X60890641Y5554125D01*
X60881400Y5502291D01*
X60881400Y2143191D01*
X60893281Y2084684D01*
X60925334Y2037125D01*
X61650925Y1311534D01*
X61700694Y1278566D01*
X61756991Y1267600D01*
X62115463Y1267600D01*
X62173969Y1279481D01*
X62223206Y1313238D01*
X62255378Y1363528D01*
X62265388Y1422381D01*
X62251647Y1480478D01*
X62216338Y1528616D01*
X62172866Y1556181D01*
X61839034Y1694456D01*
X61581806Y1951684D01*
X61442600Y2287763D01*
X61442600Y4175538D01*
X61581806Y4511616D01*
X61839034Y4768844D01*
X62175113Y4908050D01*
X62538888Y4908050D01*
X62874966Y4768844D01*
X63132194Y4511616D01*
X63271400Y4175538D01*
X63271400Y2287763D01*
X63132194Y1951684D01*
X62874966Y1694456D01*
X62541134Y1556181D01*
X62491631Y1522819D01*
X62459059Y1472788D01*
X62448581Y1414016D01*
X62461856Y1355809D01*
X62496781Y1307394D01*
X62547825Y1276431D01*
X62598538Y1267600D01*
X64655463Y1267600D01*
X64713969Y1279481D01*
X64763206Y1313238D01*
X64795378Y1363528D01*
X64805388Y1422381D01*
X64791647Y1480478D01*
X64756338Y1528616D01*
X64712866Y1556181D01*
X64379034Y1694456D01*
X64121806Y1951684D01*
X63982600Y2287763D01*
X63982600Y4175541D01*
X64002063Y4222528D01*
X64013475Y4281125D01*
X64001131Y4339534D01*
X63969547Y4385994D01*
X63380500Y4975041D01*
X63380500Y5330650D01*
X63368619Y5389156D01*
X63334863Y5438394D01*
X63284572Y5470566D01*
X63230500Y5480650D01*
X63104172Y5480650D01*
X63014900Y5569922D01*
X63014900Y7116378D01*
X63104172Y7205650D01*
X63230500Y7205650D01*
X63289006Y7217531D01*
X63338244Y7251288D01*
X63370416Y7301578D01*
X63380500Y7355650D01*
X63380500Y9807759D01*
X64982775Y11410034D01*
X65015744Y11459803D01*
X65026691Y11518491D01*
X65013878Y11576800D01*
X64979341Y11625494D01*
X64928544Y11656859D01*
X64876709Y11666100D01*
X59399891Y11666100D01*
X59341384Y11654219D01*
X59293825Y11622166D01*
X52412513Y4740853D01*
X52379544Y4691084D01*
X52368597Y4632397D01*
X52381409Y4574088D01*
X52412513Y4528722D01*
X52460244Y4480991D01*
X52599450Y4144913D01*
X52599450Y2257138D01*
X52460244Y1921059D01*
X52203016Y1663831D01*
X51866938Y1524625D01*
X51503163Y1524625D01*
X51167084Y1663831D01*
X50909856Y1921059D01*
X50770650Y2257138D01*
X50770650Y4144913D01*
X50909856Y4480991D01*
X51167084Y4738219D01*
X51503163Y4877425D01*
X51631634Y4877425D01*
X51690141Y4889306D01*
X51737700Y4921359D01*
X59087241Y12270900D01*
X80665909Y12270900D01*
X80724416Y12282781D01*
X80771975Y12314834D01*
X84913666Y16456525D01*
X84946634Y16506294D01*
X84957600Y16562591D01*
X84957600Y18119600D01*
X84945719Y18178106D01*
X84911963Y18227344D01*
X84861672Y18259516D01*
X84807600Y18269600D01*
X84746872Y18269600D01*
X84731066Y18285406D01*
X84681297Y18318375D01*
X84622609Y18329322D01*
X84564300Y18316509D01*
X84518934Y18285406D01*
X84503128Y18269600D01*
X84442400Y18269600D01*
X84383894Y18257719D01*
X84334656Y18223963D01*
X84302484Y18173672D01*
X84292400Y18119600D01*
X84292400Y16554741D01*
X81151259Y13413600D01*
X42859391Y13413600D01*
X42800884Y13401719D01*
X42753325Y13369666D01*
X42464434Y13080775D01*
X42431466Y13031006D01*
X42420500Y12974709D01*
X42420500Y11418772D01*
X42331228Y11329500D01*
X42204900Y11329500D01*
X42146394Y11317619D01*
X42097156Y11283863D01*
X42064984Y11233572D01*
X42054900Y11179500D01*
X42054900Y10615900D01*
X42066781Y10557394D01*
X42100538Y10508156D01*
X42150828Y10475984D01*
X42204900Y10465900D01*
X42331228Y10465900D01*
X42420500Y10376628D01*
X42420500Y8830172D01*
X42331228Y8740900D01*
X41173772Y8740900D01*
X41084500Y8830172D01*
X41084500Y10376628D01*
X41173772Y10465900D01*
X41300100Y10465900D01*
X41358606Y10477781D01*
X41407844Y10511538D01*
X41440016Y10561828D01*
X41450100Y10615900D01*
X41450100Y11179500D01*
X41438219Y11238006D01*
X41404463Y11287244D01*
X41354172Y11319416D01*
X41300100Y11329500D01*
X41173772Y11329500D01*
X41084500Y11418772D01*
X41084500Y12965228D01*
X41173772Y13054500D01*
X41520709Y13054500D01*
X41579216Y13066381D01*
X41626775Y13098434D01*
X42447875Y13919534D01*
X42480844Y13969303D01*
X42491791Y14027991D01*
X42478978Y14086300D01*
X42444441Y14134994D01*
X42393644Y14166359D01*
X42341809Y14175600D01*
X41335391Y14175600D01*
X41276884Y14163719D01*
X41229325Y14131666D01*
X40193734Y13096075D01*
X40160766Y13046306D01*
X40149800Y12990009D01*
X40149800Y11178659D01*
X40161681Y11120153D01*
X40193734Y11072594D01*
X40324800Y10941528D01*
X40324800Y9615272D01*
X40235528Y9526000D01*
X39459272Y9526000D01*
X39370000Y9615272D01*
X39370000Y10941528D01*
X39501066Y11072594D01*
X39534034Y11122363D01*
X39545000Y11178659D01*
X39545000Y11533341D01*
X39533119Y11591847D01*
X39499363Y11641084D01*
X39449072Y11673256D01*
X39390219Y11683266D01*
X39332122Y11669525D01*
X39288934Y11639406D01*
X39275528Y11626000D01*
X38499272Y11626000D01*
X38410000Y11715272D01*
X38410000Y12049500D01*
X38398119Y12108006D01*
X38364363Y12157244D01*
X38314072Y12189416D01*
X38260000Y12199500D01*
X36851900Y12199500D01*
X36793394Y12187619D01*
X36744156Y12153863D01*
X36711984Y12103572D01*
X36701900Y12049500D01*
X36701900Y11923172D01*
X36612628Y11833900D01*
X35066172Y11833900D01*
X34976900Y11923172D01*
X34976900Y13080628D01*
X35066172Y13169900D01*
X36612628Y13169900D01*
X36701900Y13080628D01*
X36701900Y12954300D01*
X36713781Y12895794D01*
X36747538Y12846556D01*
X36797828Y12814384D01*
X36851900Y12804300D01*
X38260000Y12804300D01*
X38318506Y12816181D01*
X38367744Y12849938D01*
X38399916Y12900228D01*
X38410000Y12954300D01*
X38410000Y13041528D01*
X38499272Y13130800D01*
X39275528Y13130800D01*
X39288934Y13117394D01*
X39338703Y13084425D01*
X39397391Y13073478D01*
X39455700Y13086291D01*
X39504394Y13120828D01*
X39535759Y13171625D01*
X39545000Y13223459D01*
X39545000Y13302659D01*
X41022741Y14780400D01*
X78044609Y14780400D01*
X78103116Y14792281D01*
X78150675Y14824334D01*
X79833666Y16507325D01*
X79866634Y16557094D01*
X79877600Y16613391D01*
X79877600Y18119600D01*
X79865719Y18178106D01*
X79831963Y18227344D01*
X79781672Y18259516D01*
X79727600Y18269600D01*
X79666872Y18269600D01*
X79651066Y18285406D01*
X79601297Y18318375D01*
X79542609Y18329322D01*
X79484300Y18316509D01*
X79438934Y18285406D01*
X79423128Y18269600D01*
X79362400Y18269600D01*
X79303894Y18257719D01*
X79254656Y18223963D01*
X79222484Y18173672D01*
X79212400Y18119600D01*
X79212400Y17519941D01*
X77976259Y16283800D01*
X62084178Y16283800D01*
X62025672Y16271919D01*
X61978113Y16239866D01*
X61811044Y16072797D01*
X61588459Y15980600D01*
X61347541Y15980600D01*
X61124956Y16072797D01*
X60954597Y16243156D01*
X60862400Y16465741D01*
X60862400Y16706659D01*
X60954597Y16929244D01*
X61124956Y17099603D01*
X61347541Y17191800D01*
X61588459Y17191800D01*
X61811044Y17099603D01*
X61978113Y16932534D01*
X62027881Y16899566D01*
X62084178Y16888600D01*
X77663609Y16888600D01*
X77722116Y16900481D01*
X77769675Y16932534D01*
X78563666Y17726525D01*
X78596634Y17776294D01*
X78607600Y17832591D01*
X78607600Y18119600D01*
X78595719Y18178106D01*
X78561963Y18227344D01*
X78511672Y18259516D01*
X78457600Y18269600D01*
X78396872Y18269600D01*
X78381066Y18285406D01*
X78331297Y18318375D01*
X78272609Y18329322D01*
X78214300Y18316509D01*
X78168934Y18285406D01*
X78153128Y18269600D01*
X78092400Y18269600D01*
X78033894Y18257719D01*
X77984656Y18223963D01*
X77952484Y18173672D01*
X77942400Y18119600D01*
X77942400Y17723141D01*
X77442859Y17223600D01*
X69806041Y17223600D01*
X69317875Y17711766D01*
X69268106Y17744734D01*
X69211809Y17755700D01*
X68260372Y17755700D01*
X68171100Y17844972D01*
X68171100Y19391428D01*
X68260372Y19480700D01*
X69417828Y19480700D01*
X69507100Y19391428D01*
X69507100Y18439991D01*
X69518981Y18381484D01*
X69551034Y18333925D01*
X70012625Y17872334D01*
X70062394Y17839366D01*
X70118691Y17828400D01*
X77130209Y17828400D01*
X77188716Y17840281D01*
X77236275Y17872334D01*
X77293666Y17929725D01*
X77326634Y17979494D01*
X77337600Y18035791D01*
X77337600Y18119600D01*
X77325719Y18178106D01*
X77291963Y18227344D01*
X77241672Y18259516D01*
X77187600Y18269600D01*
X77126872Y18269600D01*
X77111066Y18285406D01*
X77061297Y18318375D01*
X77002609Y18329322D01*
X76944300Y18316509D01*
X76898934Y18285406D01*
X76883128Y18269600D01*
X75856872Y18269600D01*
X75841066Y18285406D01*
X75791297Y18318375D01*
X75732609Y18329322D01*
X75674300Y18316509D01*
X75628934Y18285406D01*
X75613128Y18269600D01*
X74586872Y18269600D01*
X74571066Y18285406D01*
X74521297Y18318375D01*
X74462609Y18329322D01*
X74404300Y18316509D01*
X74358934Y18285406D01*
X74343128Y18269600D01*
X73316872Y18269600D01*
X73301066Y18285406D01*
X73251297Y18318375D01*
X73192609Y18329322D01*
X73134300Y18316509D01*
X73088934Y18285406D01*
X73073128Y18269600D01*
X72046872Y18269600D01*
X71957600Y18358872D01*
X71957600Y20485128D01*
X72046872Y20574400D01*
X73073128Y20574400D01*
X73088934Y20558594D01*
X73138703Y20525625D01*
X73197391Y20514678D01*
X73255700Y20527491D01*
X73301066Y20558594D01*
X73316872Y20574400D01*
X74343128Y20574400D01*
X74358934Y20558594D01*
X74408703Y20525625D01*
X74467391Y20514678D01*
X74525700Y20527491D01*
X74571066Y20558594D01*
X74586872Y20574400D01*
X75613128Y20574400D01*
X75628934Y20558594D01*
X75678703Y20525625D01*
X75737391Y20514678D01*
X75795700Y20527491D01*
X75841066Y20558594D01*
X75856872Y20574400D01*
X75917600Y20574400D01*
X75976106Y20586281D01*
X76025344Y20620038D01*
X76057516Y20670328D01*
X76067600Y20724400D01*
X76067600Y20750009D01*
X76055719Y20808516D01*
X76023666Y20856075D01*
X74670875Y22208866D01*
X74621106Y22241834D01*
X74564809Y22252800D01*
X69056850Y22252800D01*
X68998344Y22240919D01*
X68949106Y22207163D01*
X68916934Y22156872D01*
X68906850Y22102800D01*
X68906850Y21781972D01*
X68817578Y21692700D01*
X67660122Y21692700D01*
X67570850Y21781972D01*
X67570850Y23328428D01*
X67660122Y23417700D01*
X68817578Y23417700D01*
X68906850Y23328428D01*
X68906850Y23007600D01*
X68918731Y22949094D01*
X68952488Y22899856D01*
X69002778Y22867684D01*
X69056850Y22857600D01*
X74877459Y22857600D01*
X76672400Y21062659D01*
X76672400Y20724400D01*
X76684281Y20665894D01*
X76718038Y20616656D01*
X76768328Y20584484D01*
X76822400Y20574400D01*
X76883128Y20574400D01*
X76898934Y20558594D01*
X76948703Y20525625D01*
X77007391Y20514678D01*
X77065700Y20527491D01*
X77111066Y20558594D01*
X77126872Y20574400D01*
X78153128Y20574400D01*
X78168934Y20558594D01*
X78218703Y20525625D01*
X78277391Y20514678D01*
X78335700Y20527491D01*
X78381066Y20558594D01*
X78396872Y20574400D01*
X79423128Y20574400D01*
X79438934Y20558594D01*
X79488703Y20525625D01*
X79547391Y20514678D01*
X79605700Y20527491D01*
X79651066Y20558594D01*
X79666872Y20574400D01*
X80693128Y20574400D01*
X80708934Y20558594D01*
X80758703Y20525625D01*
X80817391Y20514678D01*
X80875700Y20527491D01*
X80921066Y20558594D01*
X80936872Y20574400D01*
X81963128Y20574400D01*
X81978934Y20558594D01*
X82028703Y20525625D01*
X82087391Y20514678D01*
X82145700Y20527491D01*
X82191066Y20558594D01*
X82206872Y20574400D01*
X83233128Y20574400D01*
X83248934Y20558594D01*
X83298703Y20525625D01*
X83357391Y20514678D01*
X83415700Y20527491D01*
X83461066Y20558594D01*
X83476872Y20574400D01*
X84503128Y20574400D01*
X84518934Y20558594D01*
X84568703Y20525625D01*
X84627391Y20514678D01*
X84685700Y20527491D01*
X84731066Y20558594D01*
X84746872Y20574400D01*
X85773128Y20574400D01*
X85788934Y20558594D01*
X85838703Y20525625D01*
X85897391Y20514678D01*
X85955700Y20527491D01*
X86001066Y20558594D01*
X86016872Y20574400D01*
X87043128Y20574400D01*
X87058934Y20558594D01*
X87108703Y20525625D01*
X87167391Y20514678D01*
X87225700Y20527491D01*
X87271066Y20558594D01*
X87286872Y20574400D01*
X88313128Y20574400D01*
X88328934Y20558594D01*
X88378703Y20525625D01*
X88437391Y20514678D01*
X88495700Y20527491D01*
X88541066Y20558594D01*
X88556872Y20574400D01*
X88617600Y20574400D01*
X88676106Y20586281D01*
X88725344Y20620038D01*
X88757516Y20670328D01*
X88767600Y20724400D01*
X88767600Y21486609D01*
X88755719Y21545116D01*
X88723666Y21592675D01*
X86327875Y23988466D01*
X86278106Y24021434D01*
X86221809Y24032400D01*
X85985541Y24032400D01*
X85762956Y24124597D01*
X85592597Y24294956D01*
X85500400Y24517541D01*
X85500400Y24758459D01*
X85592597Y24981044D01*
X85762956Y25151403D01*
X85985541Y25243600D01*
X86226459Y25243600D01*
X86449044Y25151403D01*
X86619403Y24981044D01*
X86711600Y24758459D01*
X86711600Y24522191D01*
X86723481Y24463684D01*
X86755534Y24416125D01*
X89372400Y21799259D01*
X89372400Y20724400D01*
X89384281Y20665894D01*
X89418038Y20616656D01*
X89468328Y20584484D01*
X89522400Y20574400D01*
X89583128Y20574400D01*
X89598934Y20558594D01*
X89648703Y20525625D01*
X89707391Y20514678D01*
X89765700Y20527491D01*
X89811066Y20558594D01*
X89826872Y20574400D01*
X90853128Y20574400D01*
X90868934Y20558594D01*
X90918703Y20525625D01*
X90977391Y20514678D01*
X91035700Y20527491D01*
X91081066Y20558594D01*
X91096872Y20574400D01*
X92173809Y20574400D01*
X92232316Y20586281D01*
X92281553Y20620038D01*
X92313725Y20670328D01*
X92323734Y20729181D01*
X92309994Y20787278D01*
X92279875Y20830466D01*
X91153875Y21956466D01*
X91104106Y21989434D01*
X91047809Y22000400D01*
X90811541Y22000400D01*
X90588956Y22092597D01*
X90418597Y22262956D01*
X90326400Y22485541D01*
X90326400Y22726459D01*
X90418597Y22949044D01*
X90588956Y23119403D01*
X90811541Y23211600D01*
X91052459Y23211600D01*
X91275044Y23119403D01*
X91445403Y22949044D01*
X91537600Y22726459D01*
X91537600Y22490191D01*
X91549481Y22431684D01*
X91581534Y22384125D01*
X93182400Y20783259D01*
X93182400Y20724400D01*
X93194281Y20665894D01*
X93228038Y20616656D01*
X93278328Y20584484D01*
X93332400Y20574400D01*
X93393128Y20574400D01*
X93408934Y20558594D01*
X93458703Y20525625D01*
X93517391Y20514678D01*
X93575700Y20527491D01*
X93621066Y20558594D01*
X93636872Y20574400D01*
X94701056Y20574400D01*
X94759563Y20586281D01*
X94807122Y20618334D01*
X94864788Y20676000D01*
X95343800Y20676000D01*
X95343800Y18168000D01*
X94864788Y18168000D01*
X94807122Y18225666D01*
X94757353Y18258634D01*
X94701056Y18269600D01*
X93636872Y18269600D01*
X93621066Y18285406D01*
X93571297Y18318375D01*
X93512609Y18329322D01*
X93454300Y18316509D01*
X93408934Y18285406D01*
X93393128Y18269600D01*
X93332400Y18269600D01*
X93273894Y18257719D01*
X93224656Y18223963D01*
X93192484Y18173672D01*
X93182400Y18119600D01*
X93182400Y13354341D01*
X88618859Y8790800D01*
X85226591Y8790800D01*
X85168084Y8778919D01*
X85120525Y8746866D01*
X83485434Y7111775D01*
X83452466Y7062006D01*
X83441500Y7005709D01*
X83441500Y5569922D01*
X83352228Y5480650D01*
X83225900Y5480650D01*
X83167394Y5468769D01*
X83118156Y5435013D01*
X83085984Y5384722D01*
X83075900Y5330650D01*
X83075900Y5127441D01*
X82316491Y4368031D01*
X82283522Y4318263D01*
X82272575Y4259575D01*
X82283975Y4204559D01*
X82296000Y4175531D01*
X82296000Y2287763D01*
X82156794Y1951684D01*
X81899566Y1694456D01*
X81565734Y1556181D01*
X81516231Y1522819D01*
X81483659Y1472788D01*
X81473181Y1414016D01*
X81486456Y1355809D01*
X81521381Y1307394D01*
X81572425Y1276431D01*
X81623138Y1267600D01*
X83414566Y1267600D01*
X83473072Y1279481D01*
X83522309Y1313238D01*
X83554481Y1363528D01*
X83564491Y1422381D01*
X83550750Y1480478D01*
X83515441Y1528616D01*
X83471969Y1556181D01*
X83346081Y1608325D01*
X83060275Y1894131D01*
X82905600Y2267553D01*
X82905600Y3155450D01*
X84937600Y3155450D01*
X84937600Y2267553D01*
X84782925Y1894131D01*
X84497119Y1608325D01*
X84371231Y1556181D01*
X84321725Y1522816D01*
X84289156Y1472788D01*
X84278678Y1414013D01*
X84291953Y1355809D01*
X84326878Y1307394D01*
X84377922Y1276431D01*
X84428634Y1267600D01*
X84623209Y1267600D01*
X84681716Y1279481D01*
X84729275Y1311534D01*
X85505666Y2087925D01*
X85538634Y2137694D01*
X85549600Y2193991D01*
X85549600Y4916259D01*
X85537719Y4974766D01*
X85505666Y5022325D01*
X85091275Y5436716D01*
X85041506Y5469684D01*
X84985209Y5480650D01*
X84033772Y5480650D01*
X83944500Y5569922D01*
X83944500Y7116378D01*
X84033772Y7205650D01*
X85191228Y7205650D01*
X85280500Y7116378D01*
X85280500Y6164941D01*
X85292381Y6106434D01*
X85324434Y6058875D01*
X86154400Y5228909D01*
X86154400Y1881341D01*
X85545125Y1272066D01*
X85512156Y1222297D01*
X85501209Y1163609D01*
X85514022Y1105300D01*
X85548559Y1056606D01*
X85599356Y1025241D01*
X85651191Y1016000D01*
X92403253Y1016000D01*
X92461759Y1027881D01*
X92510997Y1061638D01*
X92543169Y1111928D01*
X92553178Y1170781D01*
X92539438Y1228878D01*
X92509319Y1272066D01*
X91888156Y1893228D01*
X91526600Y2766100D01*
X91526600Y3710900D01*
X91888156Y4583772D01*
X92556228Y5251844D01*
X93429100Y5613400D01*
X94373900Y5613400D01*
X95246772Y5251844D01*
X95867934Y4630681D01*
X95917703Y4597713D01*
X95976391Y4586766D01*
X96034700Y4599578D01*
X96083394Y4634116D01*
X96114759Y4684913D01*
X96124000Y4736747D01*
X96124000Y18018000D01*
X96112119Y18076506D01*
X96078363Y18125744D01*
X96028072Y18157916D01*
X95974000Y18168000D01*
X95496200Y18168000D01*
X95496200Y20676000D01*
X95974000Y20676000D01*
X96032506Y20687881D01*
X96081744Y20721638D01*
X96113916Y20771928D01*
X96124000Y20826000D01*
X96124000Y35018000D01*
X96112119Y35076506D01*
X96078363Y35125744D01*
X96028072Y35157916D01*
X95974000Y35168000D01*
X95496200Y35168000D01*
X95496200Y37676000D01*
X95974000Y37676000D01*
X96032506Y37687881D01*
X96081744Y37721638D01*
X96113916Y37771928D01*
X96124000Y37826000D01*
X96124000Y39249350D01*
X96112119Y39307856D01*
X96078363Y39357094D01*
X96028072Y39389266D01*
X95974000Y39399350D01*
X95363900Y39399350D01*
X95363900Y41372650D01*
X95974000Y41372650D01*
X96032506Y41384531D01*
X96081744Y41418288D01*
X96113916Y41468578D01*
X96124000Y41522650D01*
X96124000Y42043350D01*
X96112119Y42101856D01*
X96078363Y42151094D01*
X96028072Y42183266D01*
X95974000Y42193350D01*
X95363900Y42193350D01*
X95363900Y44166650D01*
X95974000Y44166650D01*
X96032506Y44178531D01*
X96081744Y44212288D01*
X96113916Y44262578D01*
X96124000Y44316650D01*
X96124000Y45966853D01*
X96112119Y46025359D01*
X96078363Y46074597D01*
X96028072Y46106769D01*
X95969219Y46116778D01*
X95911122Y46103038D01*
X95867934Y46072919D01*
X95246772Y45451756D01*
X94373900Y45090200D01*
X93429100Y45090200D01*
X92556228Y45451756D01*
X91888156Y46119828D01*
X91527409Y46990750D01*
X91494047Y47040256D01*
X91444016Y47072825D01*
X91385241Y47083303D01*
X91327038Y47070028D01*
X91278622Y47035103D01*
X91250247Y46990750D01*
X91207988Y46888725D01*
X90779275Y46460013D01*
X90219144Y46228000D01*
X89612856Y46228000D01*
X89052725Y46460013D01*
X88624013Y46888725D01*
X88392000Y47448856D01*
X88392000Y48055144D01*
X88624013Y48615275D01*
X89052725Y49043988D01*
X89612856Y49276000D01*
X90219144Y49276000D01*
X90779275Y49043988D01*
X91207988Y48615275D01*
X91369084Y48226350D01*
X91402447Y48176844D01*
X91452478Y48144275D01*
X91511253Y48133797D01*
X91569456Y48147072D01*
X91617872Y48181997D01*
X91646247Y48226350D01*
X91888156Y48810372D01*
X92509319Y49431534D01*
X92542288Y49481303D01*
X92553234Y49539991D01*
X92540422Y49598300D01*
X92505884Y49646994D01*
X92455088Y49678359D01*
X92403253Y49687600D01*
X4736747Y49687600D01*
X4678241Y49675719D01*
X4629003Y49641963D01*
X4596831Y49591672D01*
X4586822Y49532819D01*
X4600563Y49474722D01*
X4630681Y49431534D01*
X5251844Y48810372D01*
X5613400Y47937500D01*
X5613400Y46992700D01*
X5251844Y46119828D01*
X4583772Y45451756D01*
X3710900Y45090200D01*
X2766100Y45090200D01*
X1893228Y45451756D01*
X1272066Y46072919D01*
X1222297Y46105888D01*
X1163609Y46116834D01*
X1105300Y46104022D01*
X1056606Y46069484D01*
X1025241Y46018688D01*
X1016000Y45966853D01*
X1016000Y43386300D01*
X1027881Y43327794D01*
X1061638Y43278556D01*
X1111928Y43246384D01*
X1170781Y43236375D01*
X1228878Y43250116D01*
X1277016Y43285425D01*
X1304581Y43328897D01*
X1383806Y43520166D01*
X1641034Y43777394D01*
X1977113Y43916600D01*
X3864888Y43916600D01*
X4223597Y43768019D01*
X4281000Y43756600D01*
X4907741Y43756600D01*
X4966247Y43768481D01*
X5013806Y43800534D01*
X5144872Y43931600D01*
X6471128Y43931600D01*
X6602194Y43800534D01*
X6651963Y43767566D01*
X6708259Y43756600D01*
X8791859Y43756600D01*
X9370200Y43178259D01*
X9370200Y38123191D01*
X9382081Y38064684D01*
X9414134Y38017125D01*
X9425284Y38005975D01*
X9475053Y37973006D01*
X9533741Y37962059D01*
X9592050Y37974872D01*
X9640744Y38009409D01*
X9672109Y38060206D01*
X9681350Y38112041D01*
X9681350Y38645200D01*
X11654650Y38645200D01*
X11654650Y38033888D01*
X11503228Y37882466D01*
X11470259Y37832697D01*
X11459313Y37774009D01*
X11472125Y37715700D01*
X11506663Y37667006D01*
X11557459Y37635641D01*
X11609294Y37626400D01*
X11978600Y37626400D01*
X12037106Y37638281D01*
X12086344Y37672038D01*
X12118516Y37722328D01*
X12128600Y37776400D01*
X12128600Y37862128D01*
X12217872Y37951400D01*
X15094128Y37951400D01*
X15183400Y37862128D01*
X15183400Y37776400D01*
X15195281Y37717894D01*
X15229038Y37668656D01*
X15279328Y37636484D01*
X15333400Y37626400D01*
X17275941Y37626400D01*
X17334447Y37638281D01*
X17383684Y37672038D01*
X17415856Y37722328D01*
X17425866Y37781181D01*
X17412125Y37839278D01*
X17382006Y37882466D01*
X17328600Y37935872D01*
X17328600Y39171600D01*
X17316719Y39230106D01*
X17282963Y39279344D01*
X17232672Y39311516D01*
X17178600Y39321600D01*
X15333400Y39321600D01*
X15274894Y39309719D01*
X15225656Y39275963D01*
X15193484Y39225672D01*
X15183400Y39171600D01*
X15183400Y39085872D01*
X15094128Y38996600D01*
X12217872Y38996600D01*
X12128600Y39085872D01*
X12128600Y39171600D01*
X12116719Y39230106D01*
X12082963Y39279344D01*
X12032672Y39311516D01*
X11978600Y39321600D01*
X11804650Y39321600D01*
X11746144Y39309719D01*
X11696906Y39275963D01*
X11664734Y39225672D01*
X11654650Y39171600D01*
X11654650Y38797600D01*
X10744200Y38797600D01*
X10744200Y39557700D01*
X10884309Y39557700D01*
X10942816Y39569581D01*
X10992053Y39603338D01*
X11024225Y39653628D01*
X11034234Y39712481D01*
X11020494Y39770578D01*
X10990375Y39813766D01*
X10908475Y39895666D01*
X10858706Y39928634D01*
X10802409Y39939600D01*
X9869872Y39939600D01*
X9780600Y40028872D01*
X9780600Y41175128D01*
X9829566Y41224094D01*
X9862534Y41273863D01*
X9873481Y41332550D01*
X9860669Y41390859D01*
X9829566Y41436225D01*
X9679000Y41586788D01*
X9679000Y42125800D01*
X11657000Y42125800D01*
X11657000Y41586788D01*
X11506438Y41436225D01*
X11473469Y41386456D01*
X11462522Y41327769D01*
X11475334Y41269459D01*
X11506434Y41224094D01*
X11555400Y41175125D01*
X11555400Y40166191D01*
X11567281Y40107684D01*
X11599334Y40060125D01*
X11689125Y39970334D01*
X11738894Y39937366D01*
X11795191Y39926400D01*
X11978600Y39926400D01*
X12037106Y39938281D01*
X12086344Y39972038D01*
X12118516Y40022328D01*
X12128600Y40076400D01*
X12128600Y40162128D01*
X12217872Y40251400D01*
X15094128Y40251400D01*
X15183400Y40162128D01*
X15183400Y40076400D01*
X15195281Y40017894D01*
X15229038Y39968656D01*
X15279328Y39936484D01*
X15333400Y39926400D01*
X17178600Y39926400D01*
X17237106Y39938281D01*
X17286344Y39972038D01*
X17318516Y40022328D01*
X17328600Y40076400D01*
X17328600Y40661609D01*
X17316719Y40720116D01*
X17284666Y40767675D01*
X17223600Y40828741D01*
X17223600Y45771291D01*
X17211719Y45829797D01*
X17177963Y45879034D01*
X17131003Y45909872D01*
X17008034Y45960806D01*
X16750813Y46218028D01*
X16711475Y46313000D01*
X16678109Y46362506D01*
X16628078Y46395078D01*
X16569306Y46405556D01*
X16511103Y46392281D01*
X16466825Y46361666D01*
X15093434Y44988275D01*
X15060466Y44938506D01*
X15049500Y44882209D01*
X15049500Y43930772D01*
X14960228Y43841500D01*
X13802772Y43841500D01*
X13713500Y43930772D01*
X13713500Y45477228D01*
X13802772Y45566500D01*
X14754209Y45566500D01*
X14812716Y45578381D01*
X14860275Y45610434D01*
X16567666Y47317825D01*
X16600634Y47367594D01*
X16611600Y47423891D01*
X16611600Y48441888D01*
X16750806Y48777966D01*
X17008034Y49035194D01*
X17344113Y49174400D01*
X17707888Y49174400D01*
X18043966Y49035194D01*
X18301194Y48777966D01*
X18440400Y48441888D01*
X18440400Y46554113D01*
X18301194Y46218034D01*
X18043966Y45960806D01*
X17920997Y45909872D01*
X17871491Y45876509D01*
X17838922Y45826478D01*
X17828400Y45771291D01*
X17828400Y41551400D01*
X17840281Y41492894D01*
X17874038Y41443656D01*
X17924328Y41411484D01*
X17978400Y41401400D01*
X20294128Y41401400D01*
X20383400Y41312128D01*
X20383400Y38586391D01*
X20395281Y38527884D01*
X20427334Y38480325D01*
X21273225Y37634434D01*
X21322994Y37601466D01*
X21381681Y37590519D01*
X21439991Y37603331D01*
X21485356Y37634434D01*
X21519016Y37668094D01*
X21551984Y37717863D01*
X21562931Y37776550D01*
X21550119Y37834859D01*
X21519016Y37880225D01*
X21365350Y38033888D01*
X21365350Y38645200D01*
X23338650Y38645200D01*
X23338650Y38033888D01*
X23187228Y37882466D01*
X23154259Y37832697D01*
X23143313Y37774009D01*
X23156125Y37715700D01*
X23190663Y37667006D01*
X23241459Y37635641D01*
X23293294Y37626400D01*
X23662600Y37626400D01*
X23721106Y37638281D01*
X23770344Y37672038D01*
X23802516Y37722328D01*
X23812600Y37776400D01*
X23812600Y37862128D01*
X23901872Y37951400D01*
X26778128Y37951400D01*
X26867400Y37862128D01*
X26867400Y36785872D01*
X26778128Y36696600D01*
X23901872Y36696600D01*
X23812600Y36785872D01*
X23812600Y36871600D01*
X23800719Y36930106D01*
X23766963Y36979344D01*
X23716672Y37011516D01*
X23662600Y37021600D01*
X23387050Y37021600D01*
X23328544Y37009719D01*
X23279306Y36975963D01*
X23247134Y36925672D01*
X23237050Y36871600D01*
X23237050Y36325172D01*
X23106544Y36194666D01*
X23073575Y36144897D01*
X23062628Y36086209D01*
X23075441Y36027900D01*
X23109978Y35979206D01*
X23160775Y35947841D01*
X23212609Y35938600D01*
X61885459Y35938600D01*
X62737569Y35086491D01*
X62787338Y35053522D01*
X62789013Y35053209D01*
X62795072Y35035688D01*
X62818172Y35005888D01*
X63161525Y34662534D01*
X63211294Y34629566D01*
X63267591Y34618600D01*
X63312600Y34618600D01*
X63371106Y34630481D01*
X63420344Y34664238D01*
X63452516Y34714528D01*
X63462600Y34768600D01*
X63462600Y35100300D01*
X63450719Y35158806D01*
X63416963Y35208044D01*
X63366672Y35240216D01*
X63312600Y35250300D01*
X62988125Y35250300D01*
X62983078Y35250766D01*
X62982119Y35251063D01*
X62981200Y35258978D01*
X62981200Y37139600D01*
X62969319Y37198106D01*
X62935563Y37247344D01*
X62885272Y37279516D01*
X62831200Y37289600D01*
X55500741Y37289600D01*
X49532400Y43257941D01*
X49532400Y45850091D01*
X49520519Y45908597D01*
X49486763Y45957834D01*
X49439803Y45988672D01*
X49316834Y46039606D01*
X49059606Y46296834D01*
X48920400Y46632913D01*
X48920400Y48520688D01*
X49059606Y48856766D01*
X49316834Y49113994D01*
X49652913Y49253200D01*
X50016688Y49253200D01*
X50352766Y49113994D01*
X50609994Y48856766D01*
X50749200Y48520688D01*
X50749200Y46632913D01*
X50609994Y46296834D01*
X50352766Y46039606D01*
X50229797Y45988672D01*
X50180291Y45955309D01*
X50147722Y45905278D01*
X50137200Y45850091D01*
X50137200Y43570591D01*
X50149081Y43512084D01*
X50181134Y43464525D01*
X55707325Y37938334D01*
X55757094Y37905366D01*
X55813391Y37894400D01*
X62831200Y37894400D01*
X62889706Y37906281D01*
X62938944Y37940038D01*
X62971116Y37990328D01*
X62981200Y38044400D01*
X62981200Y38155600D01*
X62969319Y38214106D01*
X62935563Y38263344D01*
X62885272Y38295516D01*
X62831200Y38305600D01*
X56770741Y38305600D01*
X52072400Y43003941D01*
X52072400Y45850091D01*
X52060519Y45908597D01*
X52026763Y45957834D01*
X51979803Y45988672D01*
X51856834Y46039606D01*
X51599606Y46296834D01*
X51460400Y46632913D01*
X51460400Y48520688D01*
X51599606Y48856766D01*
X51856834Y49113994D01*
X52192913Y49253200D01*
X52556688Y49253200D01*
X52892766Y49113994D01*
X53149994Y48856766D01*
X53289200Y48520688D01*
X53289200Y46632913D01*
X53149994Y46296834D01*
X52892766Y46039606D01*
X52769797Y45988672D01*
X52720291Y45955309D01*
X52687722Y45905278D01*
X52677200Y45850091D01*
X52677200Y43316591D01*
X52689081Y43258084D01*
X52721134Y43210525D01*
X56977325Y38954334D01*
X57027094Y38921366D01*
X57083391Y38910400D01*
X62831200Y38910400D01*
X62889706Y38922281D01*
X62938944Y38956038D01*
X62971116Y39006328D01*
X62981200Y39060400D01*
X62981200Y39171600D01*
X62969319Y39230106D01*
X62935563Y39279344D01*
X62885272Y39311516D01*
X62831200Y39321600D01*
X62104741Y39321600D01*
X60949022Y40477319D01*
X60899253Y40510288D01*
X60840566Y40521234D01*
X60782256Y40508422D01*
X60733563Y40473884D01*
X60704375Y40428656D01*
X60639084Y40271028D01*
X60071972Y39703916D01*
X59331009Y39397000D01*
X58528991Y39397000D01*
X57788028Y39703916D01*
X57220916Y40271028D01*
X56914000Y41011991D01*
X56914000Y41814009D01*
X57220916Y42554972D01*
X57788028Y43122084D01*
X58528991Y43429000D01*
X59331009Y43429000D01*
X60071972Y43122084D01*
X60655534Y42538522D01*
X60705303Y42505553D01*
X60763991Y42494606D01*
X60822300Y42507419D01*
X60870994Y42541956D01*
X60902359Y42592753D01*
X60911600Y42644588D01*
X60911600Y43500609D01*
X60899719Y43559116D01*
X60867666Y43606675D01*
X58593481Y45880859D01*
X58543713Y45913828D01*
X58485025Y45924775D01*
X58430016Y45913375D01*
X58398691Y45900400D01*
X58034913Y45900400D01*
X57698834Y46039606D01*
X57441606Y46296834D01*
X57302400Y46632913D01*
X57302400Y48520688D01*
X57441606Y48856766D01*
X57698834Y49113994D01*
X58034913Y49253200D01*
X58398688Y49253200D01*
X58734766Y49113994D01*
X58991994Y48856766D01*
X59131200Y48520688D01*
X59131200Y46632913D01*
X59042306Y46418306D01*
X59030894Y46359706D01*
X59043238Y46301300D01*
X59074822Y46254838D01*
X61516400Y43813259D01*
X61516400Y40827391D01*
X61528281Y40768884D01*
X61560334Y40721325D01*
X62311325Y39970334D01*
X62361094Y39937366D01*
X62417391Y39926400D01*
X62831200Y39926400D01*
X62889706Y39938281D01*
X62938944Y39972038D01*
X62971116Y40022328D01*
X62981200Y40076400D01*
X62981200Y40187600D01*
X62969319Y40246106D01*
X62935563Y40295344D01*
X62885272Y40327516D01*
X62831200Y40337600D01*
X62612741Y40337600D01*
X61927600Y41022741D01*
X61927600Y45916209D01*
X61915719Y45974716D01*
X61883666Y46022275D01*
X61676616Y46229325D01*
X61626847Y46262294D01*
X61568159Y46273241D01*
X61509850Y46260428D01*
X61464484Y46229325D01*
X61274766Y46039606D01*
X60938688Y45900400D01*
X60574913Y45900400D01*
X60238834Y46039606D01*
X59981606Y46296834D01*
X59842400Y46632913D01*
X59842400Y48520688D01*
X59981606Y48856766D01*
X60238834Y49113994D01*
X60574913Y49253200D01*
X60938688Y49253200D01*
X61274766Y49113994D01*
X61531994Y48856766D01*
X61671200Y48520688D01*
X61671200Y47152191D01*
X61683081Y47093684D01*
X61715134Y47046125D01*
X62532400Y46228859D01*
X62532400Y41335391D01*
X62544281Y41276884D01*
X62576334Y41229325D01*
X62725134Y41080525D01*
X62774903Y41047556D01*
X62833591Y41036609D01*
X62891900Y41049422D01*
X62940594Y41083959D01*
X62971959Y41134756D01*
X62981200Y41186591D01*
X62981200Y43065775D01*
X62981666Y43070822D01*
X62981963Y43071781D01*
X62989878Y43072700D01*
X63312600Y43072700D01*
X63371106Y43084581D01*
X63420344Y43118338D01*
X63452516Y43168628D01*
X63462600Y43222700D01*
X63462600Y45856259D01*
X65660741Y48054400D01*
X74293259Y48054400D01*
X76789325Y45558334D01*
X76839094Y45525366D01*
X76895391Y45514400D01*
X77581666Y45514400D01*
X77640172Y45526281D01*
X77689409Y45560038D01*
X77721581Y45610328D01*
X77731591Y45669181D01*
X77717850Y45727278D01*
X77682541Y45775416D01*
X77639069Y45802981D01*
X77465981Y45874675D01*
X77180175Y46160481D01*
X77025500Y46533903D01*
X77025500Y47421800D01*
X79057500Y47421800D01*
X79057500Y46533903D01*
X78902825Y46160481D01*
X78617019Y45874675D01*
X78443931Y45802981D01*
X78394428Y45769619D01*
X78361856Y45719588D01*
X78351378Y45660813D01*
X78364653Y45602609D01*
X78399578Y45554194D01*
X78450622Y45523231D01*
X78501334Y45514400D01*
X84453259Y45514400D01*
X89372400Y40595259D01*
X89372400Y37724400D01*
X89384281Y37665894D01*
X89418038Y37616656D01*
X89468328Y37584484D01*
X89522400Y37574400D01*
X89583128Y37574400D01*
X89598934Y37558594D01*
X89648703Y37525625D01*
X89707391Y37514678D01*
X89765700Y37527491D01*
X89811066Y37558594D01*
X89826872Y37574400D01*
X90853128Y37574400D01*
X90868934Y37558594D01*
X90918703Y37525625D01*
X90977391Y37514678D01*
X91035700Y37527491D01*
X91081066Y37558594D01*
X91096872Y37574400D01*
X92123128Y37574400D01*
X92138934Y37558594D01*
X92188703Y37525625D01*
X92247391Y37514678D01*
X92305700Y37527491D01*
X92351066Y37558594D01*
X92366872Y37574400D01*
X93393128Y37574400D01*
X93408934Y37558594D01*
X93458703Y37525625D01*
X93517391Y37514678D01*
X93575700Y37527491D01*
X93621066Y37558594D01*
X93636872Y37574400D01*
X93697600Y37574400D01*
X93756106Y37586281D01*
X93805344Y37620038D01*
X93837516Y37670328D01*
X93847600Y37724400D01*
X93847600Y37742609D01*
X93835719Y37801116D01*
X93803666Y37848675D01*
X93234500Y38417841D01*
X93234500Y39350950D01*
X93222619Y39409456D01*
X93188863Y39458694D01*
X93138572Y39490866D01*
X93084500Y39500950D01*
X92891472Y39500950D01*
X92802200Y39590222D01*
X92802200Y41181778D01*
X92891472Y41271050D01*
X93084500Y41271050D01*
X93143006Y41282931D01*
X93192244Y41316688D01*
X93224416Y41366978D01*
X93234500Y41421050D01*
X93234500Y42144950D01*
X93222619Y42203456D01*
X93188863Y42252694D01*
X93138572Y42284866D01*
X93084500Y42294950D01*
X92891472Y42294950D01*
X92802200Y42384222D01*
X92802200Y42727600D01*
X92790319Y42786106D01*
X92756563Y42835344D01*
X92706272Y42867516D01*
X92652200Y42877600D01*
X89854241Y42877600D01*
X86581316Y46150525D01*
X86531547Y46183494D01*
X86472859Y46194441D01*
X86414550Y46181628D01*
X86369184Y46150525D01*
X86179466Y45960806D01*
X85843388Y45821600D01*
X85479613Y45821600D01*
X85143534Y45960806D01*
X84886306Y46218034D01*
X84747100Y46554113D01*
X84747100Y48441888D01*
X84886306Y48777966D01*
X85143534Y49035194D01*
X85479613Y49174400D01*
X85843388Y49174400D01*
X86179466Y49035194D01*
X86436694Y48777966D01*
X86575900Y48441888D01*
X86575900Y47073391D01*
X86587781Y47014884D01*
X86619834Y46967325D01*
X90060825Y43526334D01*
X90110594Y43493366D01*
X90166891Y43482400D01*
X92652200Y43482400D01*
X92710706Y43494281D01*
X92759944Y43528038D01*
X92792116Y43578328D01*
X92802200Y43632400D01*
X92802200Y43975778D01*
X92891472Y44065050D01*
X94182325Y44065050D01*
X94234394Y44012984D01*
X94284166Y43980016D01*
X94342853Y43969072D01*
X94401163Y43981884D01*
X94446525Y44012988D01*
X94600188Y44166650D01*
X95211500Y44166650D01*
X95211500Y42193350D01*
X94600188Y42193350D01*
X94446525Y42347016D01*
X94396756Y42379984D01*
X94338069Y42390931D01*
X94279759Y42378122D01*
X94234394Y42347016D01*
X94182328Y42294950D01*
X93989300Y42294950D01*
X93930794Y42283069D01*
X93881556Y42249313D01*
X93849384Y42199022D01*
X93839300Y42144950D01*
X93839300Y41421050D01*
X93851181Y41362544D01*
X93884938Y41313306D01*
X93935228Y41281134D01*
X93989300Y41271050D01*
X94182325Y41271050D01*
X94234394Y41218984D01*
X94284166Y41186016D01*
X94342853Y41175072D01*
X94401163Y41187884D01*
X94446525Y41218988D01*
X94600188Y41372650D01*
X95211500Y41372650D01*
X95211500Y39399350D01*
X94600188Y39399350D01*
X94446525Y39553016D01*
X94396756Y39585984D01*
X94338069Y39596931D01*
X94279759Y39584122D01*
X94234394Y39553016D01*
X94182328Y39500950D01*
X93989300Y39500950D01*
X93930794Y39489069D01*
X93881556Y39455313D01*
X93849384Y39405022D01*
X93839300Y39350950D01*
X93839300Y38730491D01*
X93851181Y38671984D01*
X93883234Y38624425D01*
X94452400Y38055259D01*
X94452400Y37724400D01*
X94464281Y37665894D01*
X94498038Y37616656D01*
X94548328Y37584484D01*
X94602400Y37574400D01*
X94701056Y37574400D01*
X94759563Y37586281D01*
X94807122Y37618334D01*
X94864788Y37676000D01*
X95343800Y37676000D01*
X95343800Y35168000D01*
X94864788Y35168000D01*
X94807122Y35225666D01*
X94757353Y35258634D01*
X94701056Y35269600D01*
X93636872Y35269600D01*
X93621066Y35285406D01*
X93571297Y35318375D01*
X93512609Y35329322D01*
X93454300Y35316509D01*
X93408934Y35285406D01*
X93350053Y35226525D01*
X93317084Y35176756D01*
X93306138Y35118069D01*
X93318950Y35059759D01*
X93350053Y35014394D01*
X93477403Y34887044D01*
X93569600Y34664459D01*
X93569600Y34423541D01*
X93477403Y34200956D01*
X93307044Y34030597D01*
X93084459Y33938400D01*
X92843541Y33938400D01*
X92620956Y34030597D01*
X92450597Y34200956D01*
X92358400Y34423541D01*
X92358400Y34664459D01*
X92450597Y34887044D01*
X92577088Y35013534D01*
X92610056Y35063303D01*
X92621003Y35121991D01*
X92608191Y35180300D01*
X92573653Y35228994D01*
X92522856Y35260359D01*
X92471022Y35269600D01*
X92366872Y35269600D01*
X92351066Y35285406D01*
X92301297Y35318375D01*
X92242609Y35329322D01*
X92184300Y35316509D01*
X92138934Y35285406D01*
X92123128Y35269600D01*
X91096872Y35269600D01*
X91081066Y35285406D01*
X91031297Y35318375D01*
X90972609Y35329322D01*
X90914300Y35316509D01*
X90868934Y35285406D01*
X90853128Y35269600D01*
X89826872Y35269600D01*
X89811066Y35285406D01*
X89761297Y35318375D01*
X89702609Y35329322D01*
X89644300Y35316509D01*
X89598934Y35285406D01*
X89583128Y35269600D01*
X88556872Y35269600D01*
X88541066Y35285406D01*
X88491297Y35318375D01*
X88432609Y35329322D01*
X88374300Y35316509D01*
X88328934Y35285406D01*
X88313128Y35269600D01*
X87286872Y35269600D01*
X87271066Y35285406D01*
X87221297Y35318375D01*
X87162609Y35329322D01*
X87104300Y35316509D01*
X87058934Y35285406D01*
X87043128Y35269600D01*
X86016872Y35269600D01*
X86001066Y35285406D01*
X85951297Y35318375D01*
X85892609Y35329322D01*
X85834300Y35316509D01*
X85788934Y35285406D01*
X85773128Y35269600D01*
X84746872Y35269600D01*
X84731066Y35285406D01*
X84681297Y35318375D01*
X84622609Y35329322D01*
X84564300Y35316509D01*
X84518934Y35285406D01*
X84503128Y35269600D01*
X83476872Y35269600D01*
X83461066Y35285406D01*
X83411297Y35318375D01*
X83352609Y35329322D01*
X83294300Y35316509D01*
X83248934Y35285406D01*
X83233128Y35269600D01*
X82206872Y35269600D01*
X82191066Y35285406D01*
X82141297Y35318375D01*
X82082609Y35329322D01*
X82024300Y35316509D01*
X81978934Y35285406D01*
X81963128Y35269600D01*
X80936872Y35269600D01*
X80921066Y35285406D01*
X80871297Y35318375D01*
X80812609Y35329322D01*
X80754300Y35316509D01*
X80708934Y35285406D01*
X80693128Y35269600D01*
X80632400Y35269600D01*
X80573894Y35257719D01*
X80524656Y35223963D01*
X80492484Y35173672D01*
X80482400Y35119600D01*
X80482400Y31693141D01*
X73579034Y24789775D01*
X69056850Y24789775D01*
X68998344Y24777894D01*
X68949106Y24744138D01*
X68916934Y24693847D01*
X68906850Y24639775D01*
X68906850Y24318947D01*
X68817578Y24229675D01*
X67660122Y24229675D01*
X67570850Y24318947D01*
X67570850Y25865403D01*
X67660122Y25954675D01*
X68817578Y25954675D01*
X68906850Y25865403D01*
X68906850Y25544575D01*
X68918731Y25486069D01*
X68952488Y25436831D01*
X69002778Y25404659D01*
X69056850Y25394575D01*
X73266384Y25394575D01*
X73324891Y25406456D01*
X73372450Y25438509D01*
X79833666Y31899725D01*
X79866634Y31949494D01*
X79877600Y32005791D01*
X79877600Y35119600D01*
X79865719Y35178106D01*
X79831963Y35227344D01*
X79781672Y35259516D01*
X79727600Y35269600D01*
X79666872Y35269600D01*
X79651066Y35285406D01*
X79601297Y35318375D01*
X79542609Y35329322D01*
X79484300Y35316509D01*
X79438934Y35285406D01*
X79423128Y35269600D01*
X79362400Y35269600D01*
X79303894Y35257719D01*
X79254656Y35223963D01*
X79222484Y35173672D01*
X79212400Y35119600D01*
X79212400Y33521941D01*
X73018034Y27327575D01*
X69056850Y27327575D01*
X68998344Y27315694D01*
X68949106Y27281938D01*
X68916934Y27231647D01*
X68906850Y27177575D01*
X68906850Y26856747D01*
X68817578Y26767475D01*
X67660122Y26767475D01*
X67570850Y26856747D01*
X67570850Y28403203D01*
X67660122Y28492475D01*
X68817578Y28492475D01*
X68906850Y28403203D01*
X68906850Y28082375D01*
X68918731Y28023869D01*
X68952488Y27974631D01*
X69002778Y27942459D01*
X69056850Y27932375D01*
X72705384Y27932375D01*
X72763891Y27944256D01*
X72811450Y27976309D01*
X78563666Y33728525D01*
X78596634Y33778294D01*
X78607600Y33834591D01*
X78607600Y35119600D01*
X78595719Y35178106D01*
X78561963Y35227344D01*
X78511672Y35259516D01*
X78457600Y35269600D01*
X78358944Y35269600D01*
X78300438Y35257719D01*
X78252878Y35225666D01*
X78195213Y35168000D01*
X77716200Y35168000D01*
X77716200Y37676000D01*
X78195213Y37676000D01*
X78252878Y37618334D01*
X78302647Y37585366D01*
X78358944Y37574400D01*
X79423128Y37574400D01*
X79438934Y37558594D01*
X79488703Y37525625D01*
X79547391Y37514678D01*
X79605700Y37527491D01*
X79651066Y37558594D01*
X79666872Y37574400D01*
X80693128Y37574400D01*
X80708934Y37558594D01*
X80758703Y37525625D01*
X80817391Y37514678D01*
X80875700Y37527491D01*
X80921066Y37558594D01*
X80924341Y37561869D01*
X80957309Y37611638D01*
X80968256Y37670325D01*
X80955444Y37728634D01*
X80924341Y37774000D01*
X80739875Y37958466D01*
X80690106Y37991434D01*
X80633809Y38002400D01*
X80397541Y38002400D01*
X80174956Y38094597D01*
X80004597Y38264956D01*
X79912400Y38487541D01*
X79912400Y38728459D01*
X80004597Y38951044D01*
X80119088Y39065534D01*
X80152056Y39115303D01*
X80163003Y39173991D01*
X80150191Y39232300D01*
X80115653Y39280994D01*
X80064856Y39312359D01*
X80013022Y39321600D01*
X75566741Y39321600D01*
X71981666Y42906675D01*
X71931897Y42939644D01*
X71873209Y42950591D01*
X71814900Y42937778D01*
X71766206Y42903241D01*
X71734841Y42852444D01*
X71727144Y42809263D01*
X71633403Y42582956D01*
X71632813Y42582366D01*
X71599844Y42532597D01*
X71588897Y42473909D01*
X71601709Y42415600D01*
X71636247Y42366906D01*
X71687044Y42335541D01*
X71738878Y42326300D01*
X71941178Y42326300D01*
X72030450Y42237028D01*
X72030450Y40946172D01*
X71978388Y40894109D01*
X71945419Y40844341D01*
X71934472Y40785653D01*
X71947284Y40727344D01*
X71978388Y40681978D01*
X72132050Y40528313D01*
X72132050Y39917000D01*
X70158750Y39917000D01*
X70158750Y40528313D01*
X70312416Y40681978D01*
X70345384Y40731747D01*
X70356331Y40790434D01*
X70343519Y40848744D01*
X70312416Y40894113D01*
X70260350Y40946175D01*
X70260350Y42237028D01*
X70349622Y42326300D01*
X70501122Y42326300D01*
X70559628Y42338181D01*
X70608866Y42371938D01*
X70641038Y42422228D01*
X70651047Y42481081D01*
X70637306Y42539178D01*
X70607188Y42582366D01*
X70606597Y42582956D01*
X70514400Y42805541D01*
X70514400Y43046459D01*
X70568969Y43178197D01*
X70580381Y43236794D01*
X70568038Y43295203D01*
X70533888Y43344172D01*
X70483344Y43375941D01*
X70430388Y43385600D01*
X67497391Y43385600D01*
X67438884Y43373719D01*
X67391325Y43341666D01*
X67378425Y43328766D01*
X67345456Y43278997D01*
X67334509Y43220309D01*
X67347322Y43162000D01*
X67381859Y43113306D01*
X67432656Y43081941D01*
X67484491Y43072700D01*
X69091875Y43072700D01*
X69096922Y43072234D01*
X69097881Y43071938D01*
X69098800Y43064022D01*
X69098800Y35257225D01*
X69098334Y35252178D01*
X69098038Y35251219D01*
X69090122Y35250300D01*
X64217400Y35250300D01*
X64158894Y35238419D01*
X64109656Y35204663D01*
X64077484Y35154372D01*
X64067400Y35100300D01*
X64067400Y34768600D01*
X64079281Y34710094D01*
X64113038Y34660856D01*
X64163328Y34628684D01*
X64217400Y34618600D01*
X64238325Y34618600D01*
X64287294Y34569634D01*
X64337066Y34536666D01*
X64395753Y34525722D01*
X64454063Y34538534D01*
X64499425Y34569638D01*
X64649988Y34720200D01*
X65189000Y34720200D01*
X65189000Y32742200D01*
X64649988Y32742200D01*
X64499425Y32892766D01*
X64449656Y32925734D01*
X64390969Y32936681D01*
X64332663Y32923872D01*
X64287294Y32892766D01*
X64238328Y32843800D01*
X63092072Y32843800D01*
X63002800Y32933072D01*
X63002800Y33903809D01*
X62990919Y33962316D01*
X62958866Y34009875D01*
X61678875Y35289866D01*
X61629106Y35322834D01*
X61572809Y35333800D01*
X20042341Y35333800D01*
X18398475Y36977666D01*
X18348706Y37010634D01*
X18292409Y37021600D01*
X15333400Y37021600D01*
X15274894Y37009719D01*
X15225656Y36975963D01*
X15193484Y36925672D01*
X15183400Y36871600D01*
X15183400Y36785872D01*
X15094128Y36696600D01*
X12217872Y36696600D01*
X12128600Y36785872D01*
X12128600Y36871600D01*
X12116719Y36930106D01*
X12082963Y36979344D01*
X12032672Y37011516D01*
X11978600Y37021600D01*
X11703050Y37021600D01*
X11644544Y37009719D01*
X11595306Y36975963D01*
X11563134Y36925672D01*
X11553050Y36871600D01*
X11553050Y36325172D01*
X11463778Y36235900D01*
X9872222Y36235900D01*
X9782950Y36325172D01*
X9782950Y36730859D01*
X9771069Y36789366D01*
X9739016Y36836925D01*
X8765400Y37810541D01*
X8765400Y41866800D01*
X8753519Y41925306D01*
X8719763Y41974544D01*
X8669472Y42006716D01*
X8615400Y42016800D01*
X7244872Y42016800D01*
X7113806Y42147866D01*
X7064038Y42180834D01*
X7007741Y42191800D01*
X6796744Y42191800D01*
X6738238Y42179919D01*
X6689000Y42146163D01*
X6656828Y42095872D01*
X6646819Y42037019D01*
X6660559Y41978922D01*
X6662000Y41976856D01*
X6662000Y41610400D01*
X4954000Y41610400D01*
X4954000Y41705409D01*
X4942119Y41763916D01*
X4908363Y41813153D01*
X4858072Y41845325D01*
X4799219Y41855334D01*
X4741122Y41841594D01*
X4697934Y41811475D01*
X4268475Y41382016D01*
X4235506Y41332247D01*
X4224559Y41273559D01*
X4237372Y41215250D01*
X4268475Y41169884D01*
X4458194Y40980166D01*
X4597400Y40644088D01*
X4597400Y40280313D01*
X4458194Y39944234D01*
X4200966Y39687006D01*
X3864888Y39547800D01*
X1977113Y39547800D01*
X1641034Y39687006D01*
X1383806Y39944234D01*
X1304581Y40135503D01*
X1271219Y40185009D01*
X1221188Y40217578D01*
X1162413Y40228056D01*
X1104209Y40214781D01*
X1055794Y40179856D01*
X1024831Y40128813D01*
X1016000Y40078100D01*
X1016000Y37541000D01*
X1027881Y37482494D01*
X1061638Y37433256D01*
X1111928Y37401084D01*
X1166000Y37391000D01*
X1793800Y37391000D01*
X1793800Y35775000D01*
X1166000Y35775000D01*
X1107494Y35763119D01*
X1058256Y35729363D01*
X1026084Y35679072D01*
X1016000Y35625000D01*
X1016000Y28891000D01*
X1027881Y28832494D01*
X1061638Y28783256D01*
X1111928Y28751084D01*
X1166000Y28741000D01*
X1793800Y28741000D01*
X1793800Y27125000D01*
X1166000Y27125000D01*
X1107494Y27113119D01*
X1058256Y27079363D01*
X1026084Y27029072D01*
X1016000Y26975000D01*
X1016000Y15674900D01*
X1027881Y15616394D01*
X1061638Y15567156D01*
X1111928Y15534984D01*
X1170781Y15524975D01*
X1228878Y15538716D01*
X1277016Y15574025D01*
X1304581Y15617497D01*
X1383806Y15808766D01*
X1641034Y16065994D01*
X1977113Y16205200D01*
X3269409Y16205200D01*
X3327916Y16217081D01*
X3375475Y16249134D01*
X6605741Y19479400D01*
X8826309Y19479400D01*
X8884816Y19491281D01*
X8934053Y19525038D01*
X8966225Y19575328D01*
X8976234Y19634181D01*
X8962494Y19692278D01*
X8932375Y19735466D01*
X8256275Y20411566D01*
X8206506Y20444534D01*
X8150209Y20455500D01*
X7198772Y20455500D01*
X7109500Y20544772D01*
X7109500Y22091228D01*
X7198772Y22180500D01*
X8356228Y22180500D01*
X8445500Y22091228D01*
X8445500Y21139791D01*
X8457381Y21081284D01*
X8489434Y21033725D01*
X9415625Y20107534D01*
X9465394Y20074566D01*
X9521691Y20063600D01*
X9601209Y20063600D01*
X9659716Y20075481D01*
X9708953Y20109238D01*
X9741125Y20159528D01*
X9751134Y20218381D01*
X9737394Y20276478D01*
X9707275Y20319666D01*
X8892400Y21134541D01*
X8892400Y22571009D01*
X8880519Y22629516D01*
X8848466Y22677075D01*
X8301975Y23223566D01*
X8252206Y23256534D01*
X8195909Y23267500D01*
X7198772Y23267500D01*
X7109500Y23356772D01*
X7109500Y24903228D01*
X7198772Y24992500D01*
X8356228Y24992500D01*
X8445500Y24903228D01*
X8445500Y23997491D01*
X8457381Y23938984D01*
X8489434Y23891425D01*
X9535634Y22845225D01*
X9585403Y22812256D01*
X9644091Y22801309D01*
X9702400Y22814122D01*
X9751094Y22848659D01*
X9782459Y22899456D01*
X9791700Y22951291D01*
X9791700Y23020188D01*
X9940488Y23168975D01*
X10485100Y23168975D01*
X10485100Y21240775D01*
X10003616Y21240775D01*
X9945109Y21228894D01*
X9895872Y21195138D01*
X9863700Y21144847D01*
X9853691Y21085994D01*
X9867431Y21027897D01*
X9897550Y20984709D01*
X10139725Y20742534D01*
X10189494Y20709566D01*
X10245791Y20698600D01*
X15890809Y20698600D01*
X15949316Y20710481D01*
X15996875Y20742534D01*
X15998875Y20744534D01*
X16031844Y20794303D01*
X16042791Y20852991D01*
X16029978Y20911300D01*
X15995441Y20959994D01*
X15944644Y20991359D01*
X15892809Y21000600D01*
X14796872Y21000600D01*
X14707600Y21089872D01*
X14707600Y22034056D01*
X14695719Y22092563D01*
X14663666Y22140122D01*
X14647122Y22156666D01*
X14597353Y22189634D01*
X14541056Y22200600D01*
X13596872Y22200600D01*
X13507600Y22289872D01*
X13507600Y23138466D01*
X13495719Y23196972D01*
X13461963Y23246209D01*
X13411672Y23278381D01*
X13352819Y23288391D01*
X13294722Y23274650D01*
X13251534Y23244531D01*
X13112234Y23105231D01*
X13079266Y23055463D01*
X13068300Y22999166D01*
X13068300Y21431647D01*
X12979028Y21342375D01*
X11821572Y21342375D01*
X11732300Y21431647D01*
X11732300Y22978103D01*
X11821572Y23067375D01*
X12156928Y23067375D01*
X12215434Y23079256D01*
X12262994Y23111309D01*
X12572594Y23420909D01*
X12605563Y23470678D01*
X12616509Y23529366D01*
X12603697Y23587675D01*
X12569159Y23636369D01*
X12518363Y23667734D01*
X12466528Y23676975D01*
X11821572Y23676975D01*
X11732300Y23766247D01*
X11732300Y25312703D01*
X11821572Y25401975D01*
X12979028Y25401975D01*
X13031669Y25349334D01*
X13081438Y25316366D01*
X13137734Y25305400D01*
X13357600Y25305400D01*
X13416106Y25317281D01*
X13465344Y25351038D01*
X13497516Y25401328D01*
X13507600Y25455400D01*
X13507600Y25665609D01*
X13495719Y25724116D01*
X13463666Y25771675D01*
X13103663Y26131678D01*
X13053894Y26164647D01*
X12995206Y26175594D01*
X12962353Y26168375D01*
X11770772Y26168375D01*
X11681500Y26257647D01*
X11681500Y27804103D01*
X11770772Y27893375D01*
X11897100Y27893375D01*
X11955606Y27905256D01*
X12004844Y27939013D01*
X12037016Y27989303D01*
X12047100Y28043375D01*
X12047100Y28304375D01*
X12035219Y28362881D01*
X12001463Y28412119D01*
X11951172Y28444291D01*
X11897100Y28454375D01*
X11745372Y28454375D01*
X11656100Y28543647D01*
X11656100Y30090103D01*
X11745372Y30179375D01*
X12902828Y30179375D01*
X12992100Y30090103D01*
X12992100Y28543647D01*
X12902828Y28454375D01*
X12801900Y28454375D01*
X12743394Y28442494D01*
X12694156Y28408738D01*
X12661984Y28358447D01*
X12651900Y28304375D01*
X12651900Y28043375D01*
X12663781Y27984869D01*
X12697538Y27935631D01*
X12747828Y27903459D01*
X12801900Y27893375D01*
X12928228Y27893375D01*
X13017500Y27804103D01*
X13017500Y27135291D01*
X13029381Y27076784D01*
X13061434Y27029225D01*
X14241325Y25849334D01*
X14291094Y25816366D01*
X14347391Y25805400D01*
X14541056Y25805400D01*
X14599563Y25817281D01*
X14647122Y25849334D01*
X14663666Y25865878D01*
X14696634Y25915647D01*
X14707600Y25971944D01*
X14707600Y26458609D01*
X14695719Y26517116D01*
X14663666Y26564675D01*
X13921600Y27306741D01*
X13921600Y28827259D01*
X14615528Y29521188D01*
X14630763Y29524281D01*
X14680000Y29558038D01*
X14712172Y29608328D01*
X14722181Y29667181D01*
X14708441Y29725278D01*
X14678322Y29768466D01*
X14525800Y29920988D01*
X14525800Y30650000D01*
X16133800Y30650000D01*
X16133800Y29920988D01*
X15981278Y29768466D01*
X15948309Y29718697D01*
X15937363Y29660009D01*
X15950175Y29601700D01*
X15984713Y29553006D01*
X16035509Y29521641D01*
X16087344Y29512400D01*
X17553809Y29512400D01*
X17612316Y29524281D01*
X17661553Y29558038D01*
X17693725Y29608328D01*
X17703734Y29667181D01*
X17689994Y29725278D01*
X17659875Y29768466D01*
X17598475Y29829866D01*
X17548706Y29862834D01*
X17492409Y29873800D01*
X16616672Y29873800D01*
X16527400Y29963072D01*
X16527400Y31127050D01*
X16515519Y31185556D01*
X16481763Y31234794D01*
X16431472Y31266966D01*
X16377400Y31277050D01*
X16283800Y31277050D01*
X16225294Y31265169D01*
X16176056Y31231413D01*
X16143884Y31181122D01*
X16133800Y31127050D01*
X16133800Y30802400D01*
X15406000Y30802400D01*
X15406000Y31680200D01*
X15524200Y31680200D01*
X15582706Y31692081D01*
X15631944Y31725838D01*
X15664116Y31776128D01*
X15674200Y31830200D01*
X15674200Y31923800D01*
X15662319Y31982306D01*
X15628563Y32031544D01*
X15578272Y32063716D01*
X15524200Y32073800D01*
X14867191Y32073800D01*
X14808684Y32061919D01*
X14761125Y32029866D01*
X14667525Y31936266D01*
X14634556Y31886497D01*
X14623609Y31827809D01*
X14636422Y31769500D01*
X14670959Y31720806D01*
X14721756Y31689441D01*
X14773591Y31680200D01*
X15253600Y31680200D01*
X15253600Y30802400D01*
X14525800Y30802400D01*
X14525800Y31257622D01*
X14513919Y31316128D01*
X14480163Y31365366D01*
X14429872Y31397538D01*
X14371019Y31407547D01*
X14312922Y31393806D01*
X14269734Y31363688D01*
X14225644Y31319597D01*
X14003059Y31227400D01*
X13762141Y31227400D01*
X13539556Y31319597D01*
X13372488Y31486666D01*
X13322719Y31519634D01*
X13266422Y31530600D01*
X6884028Y31530600D01*
X6825522Y31518719D01*
X6776284Y31484963D01*
X6744113Y31434672D01*
X6734103Y31375819D01*
X6745447Y31323197D01*
X6836400Y31103619D01*
X6836400Y30862381D01*
X6745447Y30642803D01*
X6734034Y30584206D01*
X6746378Y30525797D01*
X6780528Y30476828D01*
X6831072Y30445059D01*
X6884028Y30435400D01*
X9794234Y30435400D01*
X10006325Y30223309D01*
X10056094Y30190341D01*
X10112391Y30179375D01*
X11063828Y30179375D01*
X11153100Y30090103D01*
X11153100Y28543647D01*
X11063828Y28454375D01*
X9906372Y28454375D01*
X9817100Y28543647D01*
X9817100Y29495084D01*
X9805219Y29553591D01*
X9773166Y29601150D01*
X9587650Y29786666D01*
X9537881Y29819634D01*
X9481584Y29830600D01*
X6994003Y29830600D01*
X6935497Y29818719D01*
X6886259Y29784963D01*
X6854088Y29734672D01*
X6844078Y29675819D01*
X6855422Y29623200D01*
X6938000Y29423834D01*
X6938000Y29359200D01*
X6153800Y29359200D01*
X6153800Y29206800D01*
X6938000Y29206800D01*
X6938000Y29142169D01*
X6830216Y28881950D01*
X6631050Y28682784D01*
X6531463Y28641534D01*
X6481956Y28608172D01*
X6449384Y28558141D01*
X6438906Y28499369D01*
X6452181Y28441163D01*
X6482797Y28396888D01*
X6488991Y28390694D01*
X6612000Y28093722D01*
X6612000Y28009200D01*
X3888000Y28009200D01*
X3888000Y28093722D01*
X4011009Y28390694D01*
X4238309Y28617994D01*
X4246888Y28621547D01*
X4296391Y28654913D01*
X4328959Y28704944D01*
X4339434Y28763719D01*
X4326156Y28821922D01*
X4295544Y28866191D01*
X4279784Y28881950D01*
X4172000Y29142169D01*
X4172000Y29206800D01*
X4956200Y29206800D01*
X4956200Y29359200D01*
X4172000Y29359200D01*
X4172000Y29423831D01*
X4279784Y29684050D01*
X4300706Y29704972D01*
X4333675Y29754741D01*
X4344622Y29813428D01*
X4333222Y29868438D01*
X4297209Y29955381D01*
X4264694Y30004047D01*
X3787000Y30481741D01*
X3787000Y34191372D01*
X4252203Y34656575D01*
X4285172Y34706344D01*
X4296119Y34765031D01*
X4284719Y34820044D01*
X4172000Y35092169D01*
X4172000Y35156800D01*
X4956200Y35156800D01*
X4956200Y35309200D01*
X4172000Y35309200D01*
X4172000Y35373831D01*
X4279784Y35634050D01*
X4295544Y35649809D01*
X4328513Y35699578D01*
X4339459Y35758266D01*
X4326647Y35816575D01*
X4292109Y35865269D01*
X4246888Y35894453D01*
X4238309Y35898006D01*
X4011009Y36125306D01*
X3888000Y36422278D01*
X3888000Y36506800D01*
X6612000Y36506800D01*
X6612000Y36422278D01*
X6488991Y36125306D01*
X6482797Y36119113D01*
X6449828Y36069344D01*
X6438881Y36010656D01*
X6451694Y35952347D01*
X6486231Y35903653D01*
X6531463Y35874466D01*
X6631050Y35833216D01*
X6830216Y35634050D01*
X6938000Y35373831D01*
X6938000Y35309200D01*
X6153800Y35309200D01*
X6153800Y35156800D01*
X6938000Y35156800D01*
X6938000Y35092166D01*
X6855422Y34892800D01*
X6844009Y34834203D01*
X6856353Y34775794D01*
X6890503Y34726828D01*
X6941050Y34695059D01*
X6994003Y34685400D01*
X12478609Y34685400D01*
X12537116Y34697281D01*
X12584675Y34729334D01*
X13184341Y35329000D01*
X16990859Y35329000D01*
X18499934Y33819925D01*
X18549703Y33786956D01*
X18608391Y33776009D01*
X18666700Y33788822D01*
X18715394Y33823359D01*
X18746759Y33874156D01*
X18756000Y33925991D01*
X18756000Y34622213D01*
X18904788Y34771000D01*
X19443800Y34771000D01*
X19443800Y32793000D01*
X18904788Y32793000D01*
X18744866Y32952922D01*
X18695097Y32985891D01*
X18636409Y32996838D01*
X18578100Y32984025D01*
X18529406Y32949488D01*
X18498041Y32898691D01*
X18488800Y32846856D01*
X18488800Y32576494D01*
X18500681Y32517988D01*
X18534438Y32468750D01*
X18584728Y32436578D01*
X18643581Y32426569D01*
X18701678Y32440309D01*
X18744866Y32470428D01*
X18757088Y32482650D01*
X19368400Y32482650D01*
X19368400Y31572200D01*
X18570200Y31572200D01*
X18570200Y31511659D01*
X18562663Y31522653D01*
X18512372Y31554825D01*
X18453519Y31564834D01*
X18395422Y31551094D01*
X18352234Y31520975D01*
X17776134Y30944875D01*
X17743166Y30895106D01*
X17732200Y30838809D01*
X17732200Y30613591D01*
X17744081Y30555084D01*
X17776134Y30507525D01*
X18651934Y29631725D01*
X18701703Y29598756D01*
X18760391Y29587809D01*
X18818700Y29600622D01*
X18867394Y29635159D01*
X18898759Y29685956D01*
X18908000Y29737791D01*
X18908000Y29782728D01*
X18997272Y29872000D01*
X19893528Y29872000D01*
X19982800Y29782728D01*
X19982800Y28711791D01*
X19994681Y28653284D01*
X20028438Y28604047D01*
X20078728Y28571875D01*
X20137581Y28561866D01*
X20195678Y28575606D01*
X20238866Y28605725D01*
X20664066Y29030925D01*
X20697034Y29080694D01*
X20708000Y29136991D01*
X20708000Y29782728D01*
X20798359Y29873088D01*
X20851506Y29883881D01*
X20900744Y29917638D01*
X20932916Y29967928D01*
X20943000Y30022000D01*
X20943000Y30460950D01*
X20931119Y30519456D01*
X20897363Y30568694D01*
X20847072Y30600866D01*
X20793000Y30610950D01*
X20549975Y30610950D01*
X20497913Y30663016D01*
X20448141Y30695984D01*
X20389456Y30706931D01*
X20331147Y30694122D01*
X20285778Y30663016D01*
X20132113Y30509350D01*
X19520800Y30509350D01*
X19520800Y32482650D01*
X20132113Y32482650D01*
X20285778Y32328988D01*
X20335550Y32296019D01*
X20394238Y32285072D01*
X20452544Y32297884D01*
X20497909Y32328988D01*
X20549972Y32381050D01*
X20743000Y32381050D01*
X20801506Y32392931D01*
X20850744Y32426688D01*
X20882916Y32476978D01*
X20893000Y32531050D01*
X20893000Y32744600D01*
X20881119Y32803106D01*
X20847363Y32852344D01*
X20797072Y32884516D01*
X20743000Y32894600D01*
X20546875Y32894600D01*
X20497913Y32943566D01*
X20448144Y32976534D01*
X20389456Y32987481D01*
X20331147Y32974672D01*
X20285778Y32943566D01*
X20135213Y32793000D01*
X19596200Y32793000D01*
X19596200Y34771000D01*
X20135213Y34771000D01*
X20285778Y34620438D01*
X20335550Y34587469D01*
X20394238Y34576522D01*
X20452544Y34589334D01*
X20497909Y34620438D01*
X20546872Y34669400D01*
X21693128Y34669400D01*
X21782400Y34580128D01*
X21782400Y32983872D01*
X21693128Y32894600D01*
X21647800Y32894600D01*
X21589294Y32882719D01*
X21540056Y32848963D01*
X21507884Y32798672D01*
X21497800Y32744600D01*
X21497800Y32531050D01*
X21509681Y32472544D01*
X21543438Y32423306D01*
X21593728Y32391134D01*
X21647800Y32381050D01*
X21840828Y32381050D01*
X21930100Y32291778D01*
X21930100Y30700222D01*
X21840828Y30610950D01*
X21697800Y30610950D01*
X21639294Y30599069D01*
X21590056Y30565313D01*
X21557884Y30515022D01*
X21547800Y30460950D01*
X21547800Y30022000D01*
X21559681Y29963494D01*
X21593438Y29914256D01*
X21643728Y29882084D01*
X21692550Y29872978D01*
X21755194Y29810334D01*
X21804963Y29777366D01*
X21861259Y29766400D01*
X24905600Y29766400D01*
X24964106Y29778281D01*
X25013344Y29812038D01*
X25045516Y29862328D01*
X25055600Y29916400D01*
X25055600Y30162128D01*
X25144872Y30251400D01*
X26033128Y30251400D01*
X26122400Y30162128D01*
X26122400Y28765872D01*
X26033128Y28676600D01*
X25144872Y28676600D01*
X25055600Y28765872D01*
X25055600Y29011600D01*
X25043719Y29070106D01*
X25009963Y29119344D01*
X24959672Y29151516D01*
X24905600Y29161600D01*
X21932800Y29161600D01*
X21874294Y29149719D01*
X21825056Y29115963D01*
X21792884Y29065672D01*
X21782800Y29011600D01*
X21782800Y28586472D01*
X21693528Y28497200D01*
X21047791Y28497200D01*
X20989284Y28485319D01*
X20941725Y28453266D01*
X20126059Y27637600D01*
X19232641Y27637600D01*
X19174134Y27625719D01*
X19124897Y27591963D01*
X19092725Y27541672D01*
X19082716Y27482819D01*
X19096456Y27424722D01*
X19126575Y27381534D01*
X19293375Y27214734D01*
X19343144Y27181766D01*
X19399441Y27170800D01*
X21516859Y27170800D01*
X24249325Y24438334D01*
X24299094Y24405366D01*
X24355391Y24394400D01*
X24616600Y24394400D01*
X24675106Y24406281D01*
X24724344Y24440038D01*
X24756516Y24490328D01*
X24766600Y24544400D01*
X24766600Y24665128D01*
X24815566Y24714094D01*
X24848534Y24763863D01*
X24859481Y24822550D01*
X24846669Y24880859D01*
X24815566Y24926225D01*
X24665000Y25076788D01*
X24665000Y25615800D01*
X26643000Y25615800D01*
X26643000Y25076788D01*
X26492438Y24926225D01*
X26459469Y24876456D01*
X26448522Y24817769D01*
X26461334Y24759459D01*
X26492434Y24714094D01*
X26541400Y24665125D01*
X26541400Y24544400D01*
X26553281Y24485894D01*
X26587038Y24436656D01*
X26637328Y24404484D01*
X26691400Y24394400D01*
X27412950Y24394400D01*
X27471456Y24406281D01*
X27520694Y24440038D01*
X27552866Y24490328D01*
X27562950Y24544400D01*
X27562950Y24662028D01*
X27615016Y24714094D01*
X27647984Y24763863D01*
X27658931Y24822550D01*
X27646119Y24880859D01*
X27615016Y24926225D01*
X27461350Y25079888D01*
X27461350Y25691200D01*
X29434650Y25691200D01*
X29434650Y25079888D01*
X29280988Y24926225D01*
X29248019Y24876456D01*
X29237072Y24817769D01*
X29249884Y24759459D01*
X29280984Y24714094D01*
X29333050Y24662025D01*
X29333050Y23371172D01*
X29243778Y23281900D01*
X27652222Y23281900D01*
X27562950Y23371172D01*
X27562950Y23639600D01*
X27551069Y23698106D01*
X27517313Y23747344D01*
X27467022Y23779516D01*
X27412950Y23789600D01*
X26691400Y23789600D01*
X26632894Y23777719D01*
X26583656Y23743963D01*
X26551484Y23693672D01*
X26541400Y23639600D01*
X26541400Y23518872D01*
X26452128Y23429600D01*
X26106400Y23429600D01*
X26047894Y23417719D01*
X25998656Y23383963D01*
X25966484Y23333672D01*
X25956400Y23279600D01*
X25956400Y20738259D01*
X25968281Y20679753D01*
X26000334Y20632194D01*
X26122400Y20510128D01*
X26122400Y19113872D01*
X26033128Y19024600D01*
X25144872Y19024600D01*
X25055600Y19113872D01*
X25055600Y20510128D01*
X25144872Y20599400D01*
X25201600Y20599400D01*
X25260106Y20611281D01*
X25309344Y20645038D01*
X25341516Y20695328D01*
X25351600Y20749400D01*
X25351600Y23279600D01*
X25339719Y23338106D01*
X25305963Y23387344D01*
X25255672Y23419516D01*
X25201600Y23429600D01*
X24855872Y23429600D01*
X24766600Y23518872D01*
X24766600Y23639600D01*
X24754719Y23698106D01*
X24720963Y23747344D01*
X24670672Y23779516D01*
X24616600Y23789600D01*
X24042741Y23789600D01*
X21310275Y26522066D01*
X21260506Y26555034D01*
X21204209Y26566000D01*
X19086791Y26566000D01*
X18568466Y27084325D01*
X18518697Y27117294D01*
X18460009Y27128241D01*
X18428578Y27121334D01*
X18435184Y27160181D01*
X18421444Y27218278D01*
X18391325Y27261466D01*
X17901094Y27751697D01*
X17851325Y27784666D01*
X17792638Y27795613D01*
X17734328Y27782800D01*
X17685634Y27748263D01*
X17656447Y27703034D01*
X17600497Y27567956D01*
X17430138Y27397597D01*
X17315438Y27350088D01*
X17265931Y27316725D01*
X17233359Y27266694D01*
X17222881Y27207922D01*
X17236156Y27149716D01*
X17266772Y27105441D01*
X17322878Y27049334D01*
X17372647Y27016366D01*
X17428944Y27005400D01*
X18285259Y27005400D01*
X18318441Y27012138D01*
X18312400Y26978259D01*
X18312400Y25971944D01*
X18324281Y25913438D01*
X18356334Y25865878D01*
X18372878Y25849334D01*
X18422647Y25816366D01*
X18478944Y25805400D01*
X21104259Y25805400D01*
X22908400Y24001259D01*
X22908400Y19940741D01*
X19886459Y16918800D01*
X7553391Y16918800D01*
X7494884Y16906919D01*
X7447325Y16874866D01*
X6569334Y15996875D01*
X6536366Y15947106D01*
X6525400Y15890809D01*
X6525400Y10923741D01*
X4230375Y8628716D01*
X4197406Y8578947D01*
X4186459Y8520259D01*
X4199272Y8461950D01*
X4230375Y8416584D01*
X4458194Y8188766D01*
X4597400Y7852688D01*
X4597400Y7488913D01*
X4458194Y7152834D01*
X4200966Y6895606D01*
X3864888Y6756400D01*
X1977113Y6756400D01*
X1641034Y6895606D01*
X1383806Y7152834D01*
X1304581Y7344103D01*
X1271219Y7393609D01*
X1221188Y7426178D01*
X1162413Y7436656D01*
X1104209Y7423381D01*
X1055794Y7388456D01*
X1024831Y7337413D01*
X1016000Y7286700D01*
X1016000Y4736747D01*
X1027881Y4678241D01*
X1061638Y4629003D01*
X1111928Y4596831D01*
X1170781Y4586822D01*
X1228878Y4600563D01*
X1272066Y4630681D01*
X1893228Y5251844D01*
X2766100Y5613400D01*
X3710900Y5613400D01*
X4583772Y5251844D01*
X5251844Y4583772D01*
X5613400Y3710900D01*
X5613400Y2766100D01*
X5251844Y1893228D01*
X4630681Y1272066D01*
X4597713Y1222297D01*
X4586766Y1163609D01*
X4599578Y1105300D01*
X4634116Y1056606D01*
X4684913Y1025241D01*
X4736747Y1016000D01*
X7429969Y1016000D01*
X7488475Y1027881D01*
G37*
%LPC*%
G36*
X19050000Y47574200D02*
X19050000Y48462097D01*
X19204675Y48835519D01*
X19490481Y49121325D01*
X19863903Y49276000D01*
X19989800Y49276000D01*
X19989800Y47574200D01*
X19050000Y47574200D01*
G37*
G36*
X77025500Y47574200D02*
X77025500Y48462097D01*
X77180175Y48835519D01*
X77465981Y49121325D01*
X77839403Y49276000D01*
X77965300Y49276000D01*
X77965300Y47574200D01*
X77025500Y47574200D01*
G37*
G36*
X7570856Y46228000D02*
X7010725Y46460013D01*
X6582013Y46888725D01*
X6350000Y47448856D01*
X6350000Y48055144D01*
X6582013Y48615275D01*
X7010725Y49043988D01*
X7570856Y49276000D01*
X8177144Y49276000D01*
X8737275Y49043988D01*
X9165988Y48615275D01*
X9398000Y48055144D01*
X9398000Y47448856D01*
X9165988Y46888725D01*
X8737275Y46460013D01*
X8177144Y46228000D01*
X7570856Y46228000D01*
G37*
G36*
X30988000Y47574200D02*
X30988000Y48462097D01*
X31142675Y48835519D01*
X31428481Y49121325D01*
X31801903Y49276000D01*
X31927800Y49276000D01*
X31927800Y47574200D01*
X30988000Y47574200D01*
G37*
G36*
X78117700Y47574200D02*
X78117700Y49276000D01*
X78243597Y49276000D01*
X78617019Y49121325D01*
X78902825Y48835519D01*
X79057500Y48462097D01*
X79057500Y47574200D01*
X78117700Y47574200D01*
G37*
G36*
X32080200Y47574200D02*
X32080200Y49276000D01*
X32206097Y49276000D01*
X32579519Y49121325D01*
X32865325Y48835519D01*
X33020000Y48462097D01*
X33020000Y47574200D01*
X32080200Y47574200D01*
G37*
G36*
X20142200Y47574200D02*
X20142200Y49276000D01*
X20268097Y49276000D01*
X20641519Y49121325D01*
X20927325Y48835519D01*
X21082000Y48462097D01*
X21082000Y47574200D01*
X20142200Y47574200D01*
G37*
G36*
X82939613Y45821600D02*
X82603534Y45960806D01*
X82346306Y46218034D01*
X82207100Y46554113D01*
X82207100Y48441888D01*
X82346306Y48777966D01*
X82603534Y49035194D01*
X82939613Y49174400D01*
X83303388Y49174400D01*
X83639466Y49035194D01*
X83896694Y48777966D01*
X84035900Y48441888D01*
X84035900Y46554113D01*
X83896694Y46218034D01*
X83639466Y45960806D01*
X83303388Y45821600D01*
X82939613Y45821600D01*
G37*
G36*
X80399613Y45821600D02*
X80063534Y45960806D01*
X79806306Y46218034D01*
X79667100Y46554113D01*
X79667100Y48441888D01*
X79806306Y48777966D01*
X80063534Y49035194D01*
X80399613Y49174400D01*
X80763388Y49174400D01*
X81099466Y49035194D01*
X81356694Y48777966D01*
X81495900Y48441888D01*
X81495900Y46554113D01*
X81356694Y46218034D01*
X81099466Y45960806D01*
X80763388Y45821600D01*
X80399613Y45821600D01*
G37*
G36*
X29101872Y37846600D02*
X29012600Y37935872D01*
X29012600Y39171600D01*
X29000719Y39230106D01*
X28966963Y39279344D01*
X28916672Y39311516D01*
X28862600Y39321600D01*
X27017400Y39321600D01*
X26958894Y39309719D01*
X26909656Y39275963D01*
X26877484Y39225672D01*
X26867400Y39171600D01*
X26867400Y39085872D01*
X26778128Y38996600D01*
X23901872Y38996600D01*
X23812600Y39085872D01*
X23812600Y39772609D01*
X23800719Y39831116D01*
X23768666Y39878675D01*
X23493116Y40154225D01*
X23443347Y40187194D01*
X23384659Y40198141D01*
X23326350Y40185328D01*
X23277656Y40150791D01*
X23246291Y40099994D01*
X23237050Y40048159D01*
X23237050Y39881172D01*
X23157788Y39801909D01*
X23124819Y39752141D01*
X23113872Y39693453D01*
X23126684Y39635144D01*
X23157788Y39589778D01*
X23338650Y39408913D01*
X23338650Y38797600D01*
X21365350Y38797600D01*
X21365350Y39408913D01*
X21546216Y39589778D01*
X21579184Y39639547D01*
X21590131Y39698234D01*
X21577319Y39756544D01*
X21546216Y39801913D01*
X21466950Y39881175D01*
X21466950Y41172028D01*
X21519016Y41224094D01*
X21551984Y41273863D01*
X21562931Y41332550D01*
X21550119Y41390859D01*
X21519016Y41436225D01*
X21365350Y41589888D01*
X21365350Y42201200D01*
X23338650Y42201200D01*
X23338650Y41589888D01*
X23184988Y41436225D01*
X23152019Y41386456D01*
X23141072Y41327769D01*
X23153884Y41269459D01*
X23184984Y41224094D01*
X23237050Y41172025D01*
X23237050Y40979000D01*
X23248931Y40920494D01*
X23282688Y40871256D01*
X23332978Y40839084D01*
X23387050Y40829000D01*
X23673659Y40829000D01*
X24207325Y40295334D01*
X24257094Y40262366D01*
X24313391Y40251400D01*
X26778128Y40251400D01*
X26867400Y40162128D01*
X26867400Y40076400D01*
X26879281Y40017894D01*
X26913038Y39968656D01*
X26963328Y39936484D01*
X27017400Y39926400D01*
X28862600Y39926400D01*
X28921106Y39938281D01*
X28970344Y39972038D01*
X29002516Y40022328D01*
X29012600Y40076400D01*
X29012600Y41312128D01*
X29117666Y41417194D01*
X29150634Y41466963D01*
X29161600Y41523259D01*
X29161600Y44251600D01*
X29149719Y44310106D01*
X29115963Y44359344D01*
X29065672Y44391516D01*
X29011600Y44401600D01*
X27137500Y44401600D01*
X27078994Y44389719D01*
X27029756Y44355963D01*
X26997584Y44305672D01*
X26987500Y44251600D01*
X26987500Y43930772D01*
X26898228Y43841500D01*
X25740772Y43841500D01*
X25651500Y43930772D01*
X25651500Y45477228D01*
X25740772Y45566500D01*
X26898228Y45566500D01*
X26987500Y45477228D01*
X26987500Y45156400D01*
X26999381Y45097894D01*
X27033138Y45048656D01*
X27083428Y45016484D01*
X27137500Y45006400D01*
X29011600Y45006400D01*
X29070106Y45018281D01*
X29119344Y45052038D01*
X29151516Y45102328D01*
X29161600Y45156400D01*
X29161600Y45771291D01*
X29149719Y45829797D01*
X29115963Y45879034D01*
X29069003Y45909872D01*
X28946034Y45960806D01*
X28688806Y46218034D01*
X28549600Y46554113D01*
X28549600Y48441888D01*
X28688806Y48777966D01*
X28946034Y49035194D01*
X29282113Y49174400D01*
X29645888Y49174400D01*
X29981966Y49035194D01*
X30239194Y48777966D01*
X30378400Y48441888D01*
X30378400Y46554113D01*
X30239194Y46218034D01*
X29981966Y45960806D01*
X29858997Y45909872D01*
X29809491Y45876509D01*
X29776922Y45826478D01*
X29766400Y45771291D01*
X29766400Y41551400D01*
X29778281Y41492894D01*
X29812038Y41443656D01*
X29862328Y41411484D01*
X29916400Y41401400D01*
X31978128Y41401400D01*
X32067400Y41312128D01*
X32067400Y37935872D01*
X31978128Y37846600D01*
X29101872Y37846600D01*
G37*
G36*
X14488200Y47320200D02*
X14488200Y48198000D01*
X14967213Y48198000D01*
X15116000Y48049213D01*
X15116000Y47320200D01*
X14488200Y47320200D01*
G37*
G36*
X26426200Y47320200D02*
X26426200Y48198000D01*
X26905213Y48198000D01*
X27054000Y48049213D01*
X27054000Y47320200D01*
X26426200Y47320200D01*
G37*
G36*
X25646000Y47320200D02*
X25646000Y48049213D01*
X25794788Y48198000D01*
X26273800Y48198000D01*
X26273800Y47320200D01*
X25646000Y47320200D01*
G37*
G36*
X13708000Y47320200D02*
X13708000Y48049213D01*
X13856788Y48198000D01*
X14335800Y48198000D01*
X14335800Y47320200D01*
X13708000Y47320200D01*
G37*
G36*
X11963772Y43841500D02*
X11874500Y43930772D01*
X11874500Y45477228D01*
X11963772Y45566500D01*
X12059600Y45566500D01*
X12118106Y45578381D01*
X12167344Y45612138D01*
X12199516Y45662428D01*
X12209600Y45716500D01*
X12209600Y46241600D01*
X12197719Y46300106D01*
X12163963Y46349344D01*
X12113672Y46381516D01*
X12059600Y46391600D01*
X11998872Y46391600D01*
X11909600Y46480872D01*
X11909600Y48007128D01*
X11998872Y48096400D01*
X13025128Y48096400D01*
X13114400Y48007128D01*
X13114400Y46480872D01*
X13025128Y46391600D01*
X12964400Y46391600D01*
X12905894Y46379719D01*
X12856656Y46345963D01*
X12824484Y46295672D01*
X12814400Y46241600D01*
X12814400Y45716500D01*
X12826281Y45657994D01*
X12860038Y45608756D01*
X12910328Y45576584D01*
X12964400Y45566500D01*
X13121228Y45566500D01*
X13210500Y45477228D01*
X13210500Y43930772D01*
X13121228Y43841500D01*
X11963772Y43841500D01*
G37*
G36*
X23901772Y43841500D02*
X23812500Y43930772D01*
X23812500Y45477228D01*
X23901772Y45566500D01*
X24028100Y45566500D01*
X24086606Y45578381D01*
X24135844Y45612138D01*
X24168016Y45662428D01*
X24178100Y45716500D01*
X24178100Y46241600D01*
X24166219Y46300106D01*
X24132463Y46349344D01*
X24082172Y46381516D01*
X24028100Y46391600D01*
X23936872Y46391600D01*
X23847600Y46480872D01*
X23847600Y48007128D01*
X23936872Y48096400D01*
X24963128Y48096400D01*
X25052400Y48007128D01*
X25052400Y46480872D01*
X24963128Y46391600D01*
X24932900Y46391600D01*
X24874394Y46379719D01*
X24825156Y46345963D01*
X24792984Y46295672D01*
X24782900Y46241600D01*
X24782900Y45716500D01*
X24794781Y45657994D01*
X24828538Y45608756D01*
X24878828Y45576584D01*
X24932900Y45566500D01*
X25059228Y45566500D01*
X25148500Y45477228D01*
X25148500Y43930772D01*
X25059228Y43841500D01*
X23901772Y43841500D01*
G37*
G36*
X19863903Y45720000D02*
X19490481Y45874675D01*
X19204675Y46160481D01*
X19050000Y46533903D01*
X19050000Y47421800D01*
X19989800Y47421800D01*
X19989800Y45720000D01*
X19863903Y45720000D01*
G37*
G36*
X31801903Y45720000D02*
X31428481Y45874675D01*
X31142675Y46160481D01*
X30988000Y46533903D01*
X30988000Y47421800D01*
X31927800Y47421800D01*
X31927800Y45720000D01*
X31801903Y45720000D01*
G37*
G36*
X32080200Y45720000D02*
X32080200Y47421800D01*
X33020000Y47421800D01*
X33020000Y46533903D01*
X32865325Y46160481D01*
X32579519Y45874675D01*
X32206097Y45720000D01*
X32080200Y45720000D01*
G37*
G36*
X20142200Y45720000D02*
X20142200Y47421800D01*
X21082000Y47421800D01*
X21082000Y46533903D01*
X20927325Y46160481D01*
X20641519Y45874675D01*
X20268097Y45720000D01*
X20142200Y45720000D01*
G37*
G36*
X25794788Y46290000D02*
X25646000Y46438788D01*
X25646000Y47167800D01*
X26273800Y47167800D01*
X26273800Y46290000D01*
X25794788Y46290000D01*
G37*
G36*
X26426200Y46290000D02*
X26426200Y47167800D01*
X27054000Y47167800D01*
X27054000Y46438788D01*
X26905213Y46290000D01*
X26426200Y46290000D01*
G37*
G36*
X13856788Y46290000D02*
X13708000Y46438788D01*
X13708000Y47167800D01*
X14335800Y47167800D01*
X14335800Y46290000D01*
X13856788Y46290000D01*
G37*
G36*
X14488200Y46290000D02*
X14488200Y47167800D01*
X15116000Y47167800D01*
X15116000Y46438788D01*
X14967213Y46290000D01*
X14488200Y46290000D01*
G37*
G36*
X35288991Y39397000D02*
X34548028Y39703916D01*
X33980916Y40271028D01*
X33674000Y41011991D01*
X33674000Y41814009D01*
X33980916Y42554972D01*
X34548028Y43122084D01*
X35288991Y43429000D01*
X36091009Y43429000D01*
X36831972Y43122084D01*
X37399084Y42554972D01*
X37706000Y41814009D01*
X37706000Y41011991D01*
X37399084Y40271028D01*
X36831972Y39703916D01*
X36091009Y39397000D01*
X35288991Y39397000D01*
G37*
G36*
X21365350Y42353600D02*
X21365350Y42964913D01*
X21514138Y43113700D01*
X22275800Y43113700D01*
X22275800Y42353600D01*
X21365350Y42353600D01*
G37*
G36*
X22428200Y42353600D02*
X22428200Y43113700D01*
X23189863Y43113700D01*
X23338650Y42964913D01*
X23338650Y42353600D01*
X22428200Y42353600D01*
G37*
G36*
X9679000Y42278200D02*
X9679000Y42817213D01*
X9827788Y42966000D01*
X10591800Y42966000D01*
X10591800Y42278200D01*
X9679000Y42278200D01*
G37*
G36*
X10744200Y42278200D02*
X10744200Y42966000D01*
X11508213Y42966000D01*
X11657000Y42817213D01*
X11657000Y42278200D01*
X10744200Y42278200D01*
G37*
G36*
X12027000Y42000200D02*
X12027000Y42504213D01*
X12175788Y42653000D01*
X13579800Y42653000D01*
X13579800Y42000200D01*
X12027000Y42000200D01*
G37*
G36*
X25416200Y42000200D02*
X25416200Y42653000D01*
X26820213Y42653000D01*
X26969000Y42504213D01*
X26969000Y42000200D01*
X25416200Y42000200D01*
G37*
G36*
X23711000Y42000200D02*
X23711000Y42504213D01*
X23859788Y42653000D01*
X25263800Y42653000D01*
X25263800Y42000200D01*
X23711000Y42000200D01*
G37*
G36*
X13732200Y42000200D02*
X13732200Y42653000D01*
X15136213Y42653000D01*
X15285000Y42504213D01*
X15285000Y42000200D01*
X13732200Y42000200D01*
G37*
G36*
X13732200Y41195000D02*
X13732200Y41847800D01*
X15285000Y41847800D01*
X15285000Y41343788D01*
X15136213Y41195000D01*
X13732200Y41195000D01*
G37*
G36*
X25416200Y41195000D02*
X25416200Y41847800D01*
X26969000Y41847800D01*
X26969000Y41343788D01*
X26820213Y41195000D01*
X25416200Y41195000D01*
G37*
G36*
X12175788Y41195000D02*
X12027000Y41343788D01*
X12027000Y41847800D01*
X13579800Y41847800D01*
X13579800Y41195000D01*
X12175788Y41195000D01*
G37*
G36*
X23859788Y41195000D02*
X23711000Y41343788D01*
X23711000Y41847800D01*
X25263800Y41847800D01*
X25263800Y41195000D01*
X23859788Y41195000D01*
G37*
G36*
X5102788Y40955200D02*
X4954000Y41103988D01*
X4954000Y41458000D01*
X5731800Y41458000D01*
X5731800Y40955200D01*
X5102788Y40955200D01*
G37*
G36*
X5884200Y40955200D02*
X5884200Y41458000D01*
X6662000Y41458000D01*
X6662000Y41103988D01*
X6513213Y40955200D01*
X5884200Y40955200D01*
G37*
G36*
X7546600Y39192200D02*
X7546600Y40080100D01*
X8091213Y40080100D01*
X8240000Y39931313D01*
X8240000Y39192200D01*
X7546600Y39192200D01*
G37*
G36*
X5707600Y38151900D02*
X5707600Y40080100D01*
X6252213Y40080100D01*
X6444834Y39887478D01*
X6494603Y39854509D01*
X6553291Y39843563D01*
X6611600Y39856375D01*
X6656966Y39887478D01*
X6849588Y40080100D01*
X7394200Y40080100D01*
X7394200Y38151900D01*
X6849588Y38151900D01*
X6656966Y38344522D01*
X6607197Y38377491D01*
X6548509Y38388438D01*
X6490200Y38375625D01*
X6444834Y38344522D01*
X6252213Y38151900D01*
X5707600Y38151900D01*
G37*
G36*
X4861800Y39192200D02*
X4861800Y39931313D01*
X5010588Y40080100D01*
X5555200Y40080100D01*
X5555200Y39192200D01*
X4861800Y39192200D01*
G37*
G36*
X70307538Y39004500D02*
X70158750Y39153288D01*
X70158750Y39764600D01*
X71069200Y39764600D01*
X71069200Y39004500D01*
X70307538Y39004500D01*
G37*
G36*
X71221600Y39004500D02*
X71221600Y39764600D01*
X72132050Y39764600D01*
X72132050Y39153288D01*
X71983263Y39004500D01*
X71221600Y39004500D01*
G37*
G36*
X9681350Y38797600D02*
X9681350Y39408913D01*
X9830138Y39557700D01*
X10591800Y39557700D01*
X10591800Y38797600D01*
X9681350Y38797600D01*
G37*
G36*
X5010588Y38151900D02*
X4861800Y38300688D01*
X4861800Y39039800D01*
X5555200Y39039800D01*
X5555200Y38151900D01*
X5010588Y38151900D01*
G37*
G36*
X7546600Y38151900D02*
X7546600Y39039800D01*
X8240000Y39039800D01*
X8240000Y38300688D01*
X8091213Y38151900D01*
X7546600Y38151900D01*
G37*
G36*
X67660122Y29287300D02*
X67570850Y29376572D01*
X67570850Y30923028D01*
X67660122Y31012300D01*
X68817578Y31012300D01*
X68906850Y30923028D01*
X68906850Y30602200D01*
X68918731Y30543694D01*
X68952488Y30494456D01*
X69002778Y30462284D01*
X69056850Y30452200D01*
X72202609Y30452200D01*
X72261116Y30464081D01*
X72308675Y30496134D01*
X76023666Y34211125D01*
X76056634Y34260894D01*
X76067600Y34317191D01*
X76067600Y35119600D01*
X76055719Y35178106D01*
X76021963Y35227344D01*
X75971672Y35259516D01*
X75917600Y35269600D01*
X75856872Y35269600D01*
X75841066Y35285406D01*
X75791297Y35318375D01*
X75732609Y35329322D01*
X75674300Y35316509D01*
X75628934Y35285406D01*
X75613128Y35269600D01*
X74586872Y35269600D01*
X74571066Y35285406D01*
X74521297Y35318375D01*
X74462609Y35329322D01*
X74404300Y35316509D01*
X74358934Y35285406D01*
X74343128Y35269600D01*
X73316872Y35269600D01*
X73301066Y35285406D01*
X73251297Y35318375D01*
X73192609Y35329322D01*
X73134300Y35316509D01*
X73088934Y35285406D01*
X73073128Y35269600D01*
X72046872Y35269600D01*
X71957600Y35358872D01*
X71957600Y37485128D01*
X72046872Y37574400D01*
X73073128Y37574400D01*
X73088934Y37558594D01*
X73138703Y37525625D01*
X73197391Y37514678D01*
X73255700Y37527491D01*
X73301066Y37558594D01*
X73316872Y37574400D01*
X74343128Y37574400D01*
X74358934Y37558594D01*
X74408703Y37525625D01*
X74467391Y37514678D01*
X74525700Y37527491D01*
X74571066Y37558594D01*
X74586872Y37574400D01*
X75613128Y37574400D01*
X75628934Y37558594D01*
X75678703Y37525625D01*
X75737391Y37514678D01*
X75795700Y37527491D01*
X75841066Y37558594D01*
X75856872Y37574400D01*
X76921056Y37574400D01*
X76979563Y37586281D01*
X77027122Y37618334D01*
X77084788Y37676000D01*
X77563800Y37676000D01*
X77563800Y35168000D01*
X77084788Y35168000D01*
X77027122Y35225666D01*
X76977353Y35258634D01*
X76921056Y35269600D01*
X76822400Y35269600D01*
X76763894Y35257719D01*
X76714656Y35223963D01*
X76682484Y35173672D01*
X76672400Y35119600D01*
X76672400Y34004541D01*
X72515259Y29847400D01*
X69056850Y29847400D01*
X68998344Y29835519D01*
X68949106Y29801763D01*
X68916934Y29751472D01*
X68906850Y29697400D01*
X68906850Y29376572D01*
X68817578Y29287300D01*
X67660122Y29287300D01*
G37*
G36*
X3888000Y36659200D02*
X3888000Y36743722D01*
X4011009Y37040694D01*
X4238306Y37267991D01*
X4535278Y37391000D01*
X5173800Y37391000D01*
X5173800Y36659200D01*
X3888000Y36659200D01*
G37*
G36*
X1946200Y36659200D02*
X1946200Y37391000D01*
X2584722Y37391000D01*
X2881694Y37267991D01*
X3108991Y37040694D01*
X3232000Y36743722D01*
X3232000Y36659200D01*
X1946200Y36659200D01*
G37*
G36*
X5326200Y36659200D02*
X5326200Y37391000D01*
X5964722Y37391000D01*
X6261694Y37267991D01*
X6488991Y37040694D01*
X6612000Y36743722D01*
X6612000Y36659200D01*
X5326200Y36659200D01*
G37*
G36*
X1946200Y35775000D02*
X1946200Y36506800D01*
X3232000Y36506800D01*
X3232000Y36422278D01*
X3108991Y36125306D01*
X2881694Y35898009D01*
X2584722Y35775000D01*
X1946200Y35775000D01*
G37*
G36*
X35695613Y1555250D02*
X35359534Y1694456D01*
X35102306Y1951684D01*
X34963100Y2287763D01*
X34963100Y2951909D01*
X34951219Y3010416D01*
X34919166Y3057975D01*
X32971600Y5005541D01*
X32971600Y23942609D01*
X32959719Y24001116D01*
X32927666Y24048675D01*
X28978675Y27997666D01*
X28928906Y28030634D01*
X28872609Y28041600D01*
X26541872Y28041600D01*
X26452600Y28130872D01*
X26452600Y30461609D01*
X26440719Y30520116D01*
X26408666Y30567675D01*
X23319600Y33656741D01*
X23319600Y33673822D01*
X23307719Y33732328D01*
X23275666Y33779888D01*
X23108597Y33946956D01*
X23016400Y34169541D01*
X23016400Y34410459D01*
X23108597Y34633044D01*
X23278956Y34803403D01*
X23501541Y34895600D01*
X23742459Y34895600D01*
X23965044Y34803403D01*
X24135403Y34633044D01*
X24227600Y34410459D01*
X24227600Y34169541D01*
X24135403Y33946956D01*
X24116119Y33927672D01*
X24083150Y33877903D01*
X24072203Y33819216D01*
X24085016Y33760906D01*
X24116119Y33715541D01*
X26901325Y30930334D01*
X26951094Y30897366D01*
X27007391Y30886400D01*
X29338128Y30886400D01*
X29427400Y30797128D01*
X29427400Y28466391D01*
X29439281Y28407884D01*
X29471334Y28360325D01*
X33576400Y24255259D01*
X33576400Y19032481D01*
X33588281Y18973975D01*
X33622038Y18924738D01*
X33672328Y18892566D01*
X33731181Y18882556D01*
X33789278Y18896297D01*
X33837416Y18931606D01*
X33864981Y18975078D01*
X33980916Y19254972D01*
X34548028Y19822084D01*
X35288991Y20129000D01*
X36091009Y20129000D01*
X36831972Y19822084D01*
X37399084Y19254972D01*
X37706000Y18514009D01*
X37706000Y17711991D01*
X37399084Y16971028D01*
X36831972Y16403916D01*
X36091009Y16097000D01*
X35288991Y16097000D01*
X34548028Y16403916D01*
X33980916Y16971028D01*
X33864981Y17250922D01*
X33831619Y17300428D01*
X33781588Y17332997D01*
X33722813Y17343475D01*
X33664609Y17330200D01*
X33616194Y17295275D01*
X33585231Y17244231D01*
X33576400Y17193519D01*
X33576400Y5318191D01*
X33588281Y5259684D01*
X33620334Y5212125D01*
X34714684Y4117775D01*
X34764453Y4084806D01*
X34823141Y4073859D01*
X34881450Y4086672D01*
X34930144Y4121209D01*
X34959331Y4166438D01*
X35102306Y4511616D01*
X35359534Y4768844D01*
X35695613Y4908050D01*
X36059388Y4908050D01*
X36395466Y4768844D01*
X36652694Y4511616D01*
X36791900Y4175538D01*
X36791900Y2287763D01*
X36652694Y1951684D01*
X36395466Y1694456D01*
X36059388Y1555250D01*
X35695613Y1555250D01*
G37*
G36*
X65341400Y33807400D02*
X65341400Y34720200D01*
X65880413Y34720200D01*
X66029200Y34571413D01*
X66029200Y33807400D01*
X65341400Y33807400D01*
G37*
G36*
X65341400Y32742200D02*
X65341400Y33655000D01*
X66029200Y33655000D01*
X66029200Y32890988D01*
X65880413Y32742200D01*
X65341400Y32742200D01*
G37*
G36*
X85166000Y28998200D02*
X85166000Y31527213D01*
X85314788Y31676000D01*
X87843800Y31676000D01*
X87843800Y28998200D01*
X85166000Y28998200D01*
G37*
G36*
X87996200Y28998200D02*
X87996200Y31676000D01*
X90525213Y31676000D01*
X90674000Y31527213D01*
X90674000Y28998200D01*
X87996200Y28998200D01*
G37*
G36*
X18757088Y30509350D02*
X18608300Y30658138D01*
X18608300Y31414909D01*
X18607306Y31419800D01*
X19368400Y31419800D01*
X19368400Y30509350D01*
X18757088Y30509350D01*
G37*
G36*
X63064113Y29248100D02*
X62728034Y29387306D01*
X62470806Y29644534D01*
X62331600Y29980613D01*
X62331600Y30344388D01*
X62470806Y30680466D01*
X62728034Y30937694D01*
X63064113Y31076900D01*
X64951888Y31076900D01*
X65287966Y30937694D01*
X65475784Y30749875D01*
X65525553Y30716906D01*
X65584241Y30705959D01*
X65642550Y30718772D01*
X65691244Y30753309D01*
X65722609Y30804106D01*
X65731850Y30855941D01*
X65731850Y30923028D01*
X65821122Y31012300D01*
X66978578Y31012300D01*
X67067850Y30923028D01*
X67067850Y29376572D01*
X66978578Y29287300D01*
X65821122Y29287300D01*
X65731850Y29376572D01*
X65731850Y29469059D01*
X65719969Y29527566D01*
X65686213Y29576803D01*
X65635922Y29608975D01*
X65577069Y29618984D01*
X65518972Y29605244D01*
X65475784Y29575125D01*
X65287966Y29387306D01*
X64951888Y29248100D01*
X63064113Y29248100D01*
G37*
G36*
X47142853Y16771600D02*
X46760094Y16930144D01*
X46467144Y17223094D01*
X46308600Y17605853D01*
X46308600Y18020147D01*
X46467144Y18402906D01*
X46760094Y18695856D01*
X46955003Y18776591D01*
X47004509Y18809956D01*
X47037078Y18859988D01*
X47047600Y18915172D01*
X47047600Y23345259D01*
X52436466Y28734125D01*
X52469434Y28783894D01*
X52480400Y28840191D01*
X52480400Y29076459D01*
X52572597Y29299044D01*
X52742956Y29469403D01*
X52965541Y29561600D01*
X53206459Y29561600D01*
X53429044Y29469403D01*
X53599403Y29299044D01*
X53691600Y29076459D01*
X53691600Y28835541D01*
X53599403Y28612956D01*
X53429044Y28442597D01*
X53206459Y28350400D01*
X52970191Y28350400D01*
X52911684Y28338519D01*
X52864125Y28306466D01*
X47696334Y23138675D01*
X47663366Y23088906D01*
X47652400Y23032609D01*
X47652400Y18915172D01*
X47664281Y18856666D01*
X47698038Y18807428D01*
X47744997Y18776591D01*
X47939906Y18695856D01*
X48232856Y18402906D01*
X48391400Y18020147D01*
X48391400Y17605853D01*
X48232856Y17223094D01*
X47939906Y16930144D01*
X47557147Y16771600D01*
X47142853Y16771600D01*
G37*
G36*
X87996200Y26168000D02*
X87996200Y28845800D01*
X90674000Y28845800D01*
X90674000Y26316788D01*
X90525213Y26168000D01*
X87996200Y26168000D01*
G37*
G36*
X85314788Y26168000D02*
X85166000Y26316788D01*
X85166000Y28845800D01*
X87843800Y28845800D01*
X87843800Y26168000D01*
X85314788Y26168000D01*
G37*
G36*
X1946200Y28009200D02*
X1946200Y28741000D01*
X2584722Y28741000D01*
X2881694Y28617991D01*
X3108991Y28390694D01*
X3232000Y28093722D01*
X3232000Y28009200D01*
X1946200Y28009200D01*
G37*
G36*
X63064113Y26708100D02*
X62728034Y26847306D01*
X62470806Y27104534D01*
X62331600Y27440613D01*
X62331600Y27804388D01*
X62470806Y28140466D01*
X62728034Y28397694D01*
X63064113Y28536900D01*
X64951888Y28536900D01*
X65287966Y28397694D01*
X65475784Y28209875D01*
X65525553Y28176906D01*
X65584241Y28165959D01*
X65642550Y28178772D01*
X65691244Y28213309D01*
X65722609Y28264106D01*
X65731850Y28315941D01*
X65731850Y28403203D01*
X65821122Y28492475D01*
X66978578Y28492475D01*
X67067850Y28403203D01*
X67067850Y26856747D01*
X66978578Y26767475D01*
X65821122Y26767475D01*
X65731850Y26856747D01*
X65731850Y26929059D01*
X65719969Y26987566D01*
X65686213Y27036803D01*
X65635922Y27068975D01*
X65577069Y27078984D01*
X65518972Y27065244D01*
X65475784Y27035125D01*
X65287966Y26847306D01*
X64951888Y26708100D01*
X63064113Y26708100D01*
G37*
G36*
X10586700Y27107075D02*
X10586700Y27994975D01*
X11131313Y27994975D01*
X11280100Y27846188D01*
X11280100Y27107075D01*
X10586700Y27107075D01*
G37*
G36*
X9740900Y27107075D02*
X9740900Y27846188D01*
X9889688Y27994975D01*
X10434300Y27994975D01*
X10434300Y27107075D01*
X9740900Y27107075D01*
G37*
G36*
X5326200Y27125000D02*
X5326200Y27856800D01*
X6612000Y27856800D01*
X6612000Y27772278D01*
X6488991Y27475306D01*
X6261694Y27248009D01*
X5964722Y27125000D01*
X5326200Y27125000D01*
G37*
G36*
X4535278Y27125000D02*
X4238306Y27248009D01*
X4011009Y27475306D01*
X3888000Y27772278D01*
X3888000Y27856800D01*
X5173800Y27856800D01*
X5173800Y27125000D01*
X4535278Y27125000D01*
G37*
G36*
X1946200Y27125000D02*
X1946200Y27856800D01*
X3232000Y27856800D01*
X3232000Y27772278D01*
X3108991Y27475306D01*
X2881694Y27248009D01*
X2584722Y27125000D01*
X1946200Y27125000D01*
G37*
G36*
X1838872Y20465600D02*
X1749600Y20554872D01*
X1749600Y22081128D01*
X1838872Y22170400D01*
X1899600Y22170400D01*
X1958106Y22182281D01*
X2007344Y22216038D01*
X2039516Y22266328D01*
X2049600Y22320400D01*
X2049600Y23127600D01*
X2037719Y23186106D01*
X2003963Y23235344D01*
X1953672Y23267516D01*
X1899600Y23277600D01*
X1838872Y23277600D01*
X1749600Y23366872D01*
X1749600Y24893128D01*
X1838872Y24982400D01*
X2343809Y24982400D01*
X2402316Y24994281D01*
X2449875Y25026334D01*
X3557741Y26134200D01*
X8832622Y26134200D01*
X8891128Y26146081D01*
X8938688Y26178134D01*
X8953356Y26192803D01*
X9175941Y26285000D01*
X9416859Y26285000D01*
X9533497Y26236688D01*
X9592094Y26225275D01*
X9650503Y26237619D01*
X9699472Y26271769D01*
X9731241Y26322313D01*
X9740900Y26375269D01*
X9740900Y26954675D01*
X10434300Y26954675D01*
X10434300Y26066775D01*
X10015931Y26066775D01*
X9957425Y26054894D01*
X9908188Y26021138D01*
X9876016Y25970847D01*
X9866006Y25911994D01*
X9877350Y25859372D01*
X9902000Y25799863D01*
X9902000Y25561566D01*
X9913881Y25503059D01*
X9945934Y25455500D01*
X9955525Y25445909D01*
X10005294Y25412941D01*
X10061591Y25401975D01*
X11140028Y25401975D01*
X11229300Y25312703D01*
X11229300Y23766247D01*
X11140028Y23676975D01*
X9982572Y23676975D01*
X9893300Y23766247D01*
X9893300Y24590684D01*
X9881419Y24649191D01*
X9849366Y24696750D01*
X9516250Y25029866D01*
X9466481Y25062834D01*
X9410184Y25073800D01*
X9175941Y25073800D01*
X8953356Y25165997D01*
X8782997Y25336356D01*
X8741391Y25436803D01*
X8708025Y25486309D01*
X8657994Y25518878D01*
X8602809Y25529400D01*
X3870391Y25529400D01*
X3811884Y25517519D01*
X3764325Y25485466D01*
X2998334Y24719475D01*
X2965366Y24669706D01*
X2954400Y24613409D01*
X2954400Y23366872D01*
X2865128Y23277600D01*
X2804400Y23277600D01*
X2745894Y23265719D01*
X2696656Y23231963D01*
X2664484Y23181672D01*
X2654400Y23127600D01*
X2654400Y22320400D01*
X2666281Y22261894D01*
X2700038Y22212656D01*
X2750328Y22180484D01*
X2804400Y22170400D01*
X2865128Y22170400D01*
X2954400Y22081128D01*
X2954400Y20554872D01*
X2865128Y20465600D01*
X1838872Y20465600D01*
G37*
G36*
X10586700Y26066775D02*
X10586700Y26954675D01*
X11280100Y26954675D01*
X11280100Y26215563D01*
X11131313Y26066775D01*
X10586700Y26066775D01*
G37*
G36*
X49682853Y16771600D02*
X49300094Y16930144D01*
X49007144Y17223094D01*
X48848600Y17605853D01*
X48848600Y18020147D01*
X49007144Y18402906D01*
X49300094Y18695856D01*
X49495003Y18776591D01*
X49544509Y18809956D01*
X49577078Y18859988D01*
X49587600Y18915172D01*
X49587600Y21567259D01*
X53960466Y25940125D01*
X53993434Y25989894D01*
X54004400Y26046191D01*
X54004400Y26282459D01*
X54096597Y26505044D01*
X54266956Y26675403D01*
X54489541Y26767600D01*
X54730459Y26767600D01*
X54953044Y26675403D01*
X55123403Y26505044D01*
X55215600Y26282459D01*
X55215600Y26041541D01*
X55123403Y25818956D01*
X54953044Y25648597D01*
X54730459Y25556400D01*
X54494191Y25556400D01*
X54435684Y25544519D01*
X54388125Y25512466D01*
X50236334Y21360675D01*
X50203366Y21310906D01*
X50192400Y21254609D01*
X50192400Y18915172D01*
X50204281Y18856666D01*
X50238038Y18807428D01*
X50284997Y18776591D01*
X50479906Y18695856D01*
X50772856Y18402906D01*
X50931400Y18020147D01*
X50931400Y17605853D01*
X50772856Y17223094D01*
X50479906Y16930144D01*
X50097147Y16771600D01*
X49682853Y16771600D01*
G37*
G36*
X27461350Y25843600D02*
X27461350Y26454913D01*
X27610138Y26603700D01*
X28371800Y26603700D01*
X28371800Y25843600D01*
X27461350Y25843600D01*
G37*
G36*
X28524200Y25843600D02*
X28524200Y26603700D01*
X29285863Y26603700D01*
X29434650Y26454913D01*
X29434650Y25843600D01*
X28524200Y25843600D01*
G37*
G36*
X24665000Y25768200D02*
X24665000Y26307213D01*
X24813788Y26456000D01*
X25577800Y26456000D01*
X25577800Y25768200D01*
X24665000Y25768200D01*
G37*
G36*
X25730200Y25768200D02*
X25730200Y26456000D01*
X26494213Y26456000D01*
X26643000Y26307213D01*
X26643000Y25768200D01*
X25730200Y25768200D01*
G37*
G36*
X63064113Y24168100D02*
X62728034Y24307306D01*
X62470806Y24564534D01*
X62331600Y24900613D01*
X62331600Y25264388D01*
X62470806Y25600466D01*
X62728034Y25857694D01*
X63064113Y25996900D01*
X64951888Y25996900D01*
X65287966Y25857694D01*
X65475784Y25669875D01*
X65525553Y25636906D01*
X65584241Y25625959D01*
X65642550Y25638772D01*
X65691244Y25673309D01*
X65722609Y25724106D01*
X65731850Y25775941D01*
X65731850Y25865403D01*
X65821122Y25954675D01*
X66978578Y25954675D01*
X67067850Y25865403D01*
X67067850Y24318947D01*
X66978578Y24229675D01*
X65821122Y24229675D01*
X65731850Y24318947D01*
X65731850Y24389059D01*
X65719969Y24447566D01*
X65686213Y24496803D01*
X65635922Y24528975D01*
X65577069Y24538984D01*
X65518972Y24525244D01*
X65475784Y24495125D01*
X65287966Y24307306D01*
X64951888Y24168100D01*
X63064113Y24168100D01*
G37*
G36*
X5359772Y23267500D02*
X5270500Y23356772D01*
X5270500Y23677600D01*
X5258619Y23736106D01*
X5224863Y23785344D01*
X5174572Y23817516D01*
X5120500Y23827600D01*
X5004400Y23827600D01*
X4945894Y23815719D01*
X4896656Y23781963D01*
X4864484Y23731672D01*
X4854400Y23677600D01*
X4854400Y23366872D01*
X4765128Y23277600D01*
X3738872Y23277600D01*
X3649600Y23366872D01*
X3649600Y24893128D01*
X3738872Y24982400D01*
X4765128Y24982400D01*
X4854400Y24893128D01*
X4854400Y24582400D01*
X4866281Y24523894D01*
X4900038Y24474656D01*
X4950328Y24442484D01*
X5004400Y24432400D01*
X5120500Y24432400D01*
X5179006Y24444281D01*
X5228244Y24478038D01*
X5260416Y24528328D01*
X5270500Y24582400D01*
X5270500Y24903228D01*
X5359772Y24992500D01*
X6517228Y24992500D01*
X6606500Y24903228D01*
X6606500Y23356772D01*
X6517228Y23267500D01*
X5359772Y23267500D01*
G37*
G36*
X25242872Y1879600D02*
X25153600Y1968872D01*
X25153600Y3695128D01*
X25242872Y3784400D01*
X25553600Y3784400D01*
X25612106Y3796281D01*
X25661344Y3830038D01*
X25693516Y3880328D01*
X25703600Y3934400D01*
X25703600Y9729600D01*
X25691719Y9788106D01*
X25657963Y9837344D01*
X25607672Y9869516D01*
X25553600Y9879600D01*
X25242872Y9879600D01*
X25153600Y9968872D01*
X25153600Y11194609D01*
X25141719Y11253116D01*
X25109666Y11300675D01*
X23553775Y12856566D01*
X23504006Y12889534D01*
X23447709Y12900500D01*
X19960900Y12900500D01*
X19902394Y12888619D01*
X19853156Y12854863D01*
X19820984Y12804572D01*
X19810900Y12750500D01*
X19810900Y12624172D01*
X19721628Y12534900D01*
X18175172Y12534900D01*
X18085900Y12624172D01*
X18085900Y12794600D01*
X18074019Y12853106D01*
X18040263Y12902344D01*
X17989972Y12934516D01*
X17935900Y12944600D01*
X17189450Y12944600D01*
X17130944Y12932719D01*
X17081706Y12898963D01*
X17049534Y12848672D01*
X17039450Y12794600D01*
X17039450Y12601572D01*
X16950178Y12512300D01*
X15358622Y12512300D01*
X15269350Y12601572D01*
X15269350Y12794600D01*
X15257469Y12853106D01*
X15223713Y12902344D01*
X15173422Y12934516D01*
X15119350Y12944600D01*
X14604800Y12944600D01*
X14546294Y12932719D01*
X14497056Y12898963D01*
X14464884Y12848672D01*
X14454800Y12794600D01*
X14454800Y12513272D01*
X14351494Y12409966D01*
X14318525Y12360197D01*
X14307578Y12301509D01*
X14320391Y12243200D01*
X14354928Y12194506D01*
X14405725Y12163141D01*
X14457559Y12153900D01*
X15149628Y12153900D01*
X15238900Y12064628D01*
X15238900Y10907172D01*
X15149628Y10817900D01*
X13603172Y10817900D01*
X13513900Y10907172D01*
X13513900Y11033500D01*
X13502019Y11092006D01*
X13468263Y11141244D01*
X13417972Y11173416D01*
X13363900Y11183500D01*
X13179241Y11183500D01*
X12700966Y11661775D01*
X12651197Y11694744D01*
X12592509Y11705691D01*
X12534200Y11692878D01*
X12485506Y11658341D01*
X12454141Y11607544D01*
X12444900Y11555709D01*
X12444900Y10907172D01*
X12355628Y10817900D01*
X10809172Y10817900D01*
X10719900Y10907172D01*
X10719900Y12064628D01*
X10809172Y12153900D01*
X11247241Y12153900D01*
X11305747Y12165781D01*
X11354984Y12199538D01*
X11387156Y12249828D01*
X11397166Y12308681D01*
X11383425Y12366778D01*
X11353306Y12409966D01*
X11250000Y12513272D01*
X11250000Y14039528D01*
X11339272Y14128800D01*
X12400000Y14128800D01*
X12458506Y14140681D01*
X12507744Y14174438D01*
X12539916Y14224728D01*
X12550000Y14278800D01*
X12550000Y14474000D01*
X12538119Y14532506D01*
X12504363Y14581744D01*
X12454072Y14613916D01*
X12400000Y14624000D01*
X12289272Y14624000D01*
X12200000Y14713272D01*
X12200000Y14838400D01*
X12188119Y14896906D01*
X12154363Y14946144D01*
X12104072Y14978316D01*
X12050000Y14988400D01*
X10388109Y14988400D01*
X10329603Y14976519D01*
X10280366Y14942763D01*
X10249528Y14895803D01*
X10198594Y14772834D01*
X9941366Y14515606D01*
X9605288Y14376400D01*
X7717513Y14376400D01*
X7381434Y14515606D01*
X7124206Y14772834D01*
X6985000Y15108913D01*
X6985000Y15472688D01*
X7124206Y15808766D01*
X7381434Y16065994D01*
X7717513Y16205200D01*
X9605288Y16205200D01*
X9941366Y16065994D01*
X10198594Y15808766D01*
X10249528Y15685797D01*
X10282891Y15636291D01*
X10332922Y15603722D01*
X10388109Y15593200D01*
X12050000Y15593200D01*
X12108506Y15605081D01*
X12157744Y15638838D01*
X12189916Y15689128D01*
X12200000Y15743200D01*
X12200000Y16239528D01*
X12289272Y16328800D01*
X13415528Y16328800D01*
X13504800Y16239528D01*
X13504800Y14713272D01*
X13415528Y14624000D01*
X13304800Y14624000D01*
X13246294Y14612119D01*
X13197056Y14578363D01*
X13164884Y14528072D01*
X13154800Y14474000D01*
X13154800Y14278800D01*
X13166681Y14220294D01*
X13200438Y14171056D01*
X13250728Y14138884D01*
X13304800Y14128800D01*
X14365528Y14128800D01*
X14454800Y14039528D01*
X14454800Y13699400D01*
X14466681Y13640894D01*
X14500438Y13591656D01*
X14550728Y13559484D01*
X14604800Y13549400D01*
X15119350Y13549400D01*
X15177856Y13561281D01*
X15227094Y13595038D01*
X15259266Y13645328D01*
X15269350Y13699400D01*
X15269350Y13892428D01*
X15321416Y13944494D01*
X15354384Y13994263D01*
X15365331Y14052950D01*
X15352519Y14111259D01*
X15321416Y14156625D01*
X15167750Y14310288D01*
X15167750Y14921600D01*
X17141050Y14921600D01*
X17141050Y14310288D01*
X16987388Y14156625D01*
X16954419Y14106856D01*
X16943472Y14048169D01*
X16956284Y13989859D01*
X16987384Y13944494D01*
X17039450Y13892425D01*
X17039450Y13699400D01*
X17051331Y13640894D01*
X17085088Y13591656D01*
X17135378Y13559484D01*
X17189450Y13549400D01*
X17935900Y13549400D01*
X17994406Y13561281D01*
X18043644Y13595038D01*
X18075816Y13645328D01*
X18085900Y13699400D01*
X18085900Y13781628D01*
X18175172Y13870900D01*
X19721628Y13870900D01*
X19810900Y13781628D01*
X19810900Y13655300D01*
X19822781Y13596794D01*
X19856538Y13547556D01*
X19906828Y13515384D01*
X19960900Y13505300D01*
X23760359Y13505300D01*
X25437325Y11828334D01*
X25487094Y11795366D01*
X25543391Y11784400D01*
X26468609Y11784400D01*
X26527116Y11796281D01*
X26574675Y11828334D01*
X31149666Y16403325D01*
X31182634Y16453094D01*
X31193600Y16509391D01*
X31193600Y22497822D01*
X31181719Y22556328D01*
X31149666Y22603888D01*
X30982597Y22770956D01*
X30890400Y22993541D01*
X30890400Y23234459D01*
X30982597Y23457044D01*
X31152956Y23627403D01*
X31375541Y23719600D01*
X31616459Y23719600D01*
X31839044Y23627403D01*
X32009403Y23457044D01*
X32101600Y23234459D01*
X32101600Y22993541D01*
X32009403Y22770956D01*
X31842334Y22603888D01*
X31809366Y22554119D01*
X31798400Y22497822D01*
X31798400Y16196741D01*
X26902334Y11300675D01*
X26869366Y11250906D01*
X26858400Y11194609D01*
X26858400Y9968872D01*
X26769128Y9879600D01*
X26458400Y9879600D01*
X26399894Y9867719D01*
X26350656Y9833963D01*
X26318484Y9783672D01*
X26308400Y9729600D01*
X26308400Y3934400D01*
X26320281Y3875894D01*
X26354038Y3826656D01*
X26404328Y3794484D01*
X26458400Y3784400D01*
X26769128Y3784400D01*
X26858400Y3695128D01*
X26858400Y1968872D01*
X26769128Y1879600D01*
X25242872Y1879600D01*
G37*
G36*
X63064113Y21628100D02*
X62728034Y21767306D01*
X62470806Y22024534D01*
X62331600Y22360613D01*
X62331600Y22724388D01*
X62470806Y23060466D01*
X62728034Y23317694D01*
X63064113Y23456900D01*
X64951888Y23456900D01*
X65287966Y23317694D01*
X65475784Y23129875D01*
X65525553Y23096906D01*
X65584241Y23085959D01*
X65642550Y23098772D01*
X65691244Y23133309D01*
X65722609Y23184106D01*
X65731850Y23235941D01*
X65731850Y23328428D01*
X65821122Y23417700D01*
X66978578Y23417700D01*
X67067850Y23328428D01*
X67067850Y21781972D01*
X66978578Y21692700D01*
X65821122Y21692700D01*
X65731850Y21781972D01*
X65731850Y21849059D01*
X65719969Y21907566D01*
X65686213Y21956803D01*
X65635922Y21988975D01*
X65577069Y21998984D01*
X65518972Y21985244D01*
X65475784Y21955125D01*
X65287966Y21767306D01*
X64951888Y21628100D01*
X63064113Y21628100D01*
G37*
G36*
X10637500Y22281075D02*
X10637500Y23168975D01*
X11182113Y23168975D01*
X11330900Y23020188D01*
X11330900Y22281075D01*
X10637500Y22281075D01*
G37*
G36*
X18175172Y14373900D02*
X18085900Y14463172D01*
X18085900Y15620628D01*
X18175172Y15709900D01*
X19721628Y15709900D01*
X19810900Y15620628D01*
X19810900Y15494300D01*
X19822781Y15435794D01*
X19856538Y15386556D01*
X19906828Y15354384D01*
X19960900Y15344300D01*
X22982509Y15344300D01*
X23041016Y15356181D01*
X23088575Y15388234D01*
X26408666Y18708325D01*
X26441634Y18758094D01*
X26452600Y18814391D01*
X26452600Y21145128D01*
X26541872Y21234400D01*
X26746822Y21234400D01*
X26805328Y21246281D01*
X26854566Y21280038D01*
X26886738Y21330328D01*
X26896747Y21389181D01*
X26883006Y21447278D01*
X26852888Y21490466D01*
X26816997Y21526356D01*
X26724800Y21748941D01*
X26724800Y21989859D01*
X26816997Y22212444D01*
X26987356Y22382803D01*
X27209941Y22475000D01*
X27450859Y22475000D01*
X27673444Y22382803D01*
X27843803Y22212444D01*
X27936000Y21989859D01*
X27936000Y21753591D01*
X27947881Y21695084D01*
X27979934Y21647525D01*
X28242400Y21385059D01*
X28242400Y21384400D01*
X28254281Y21325894D01*
X28288038Y21276656D01*
X28338328Y21244484D01*
X28392400Y21234400D01*
X29338128Y21234400D01*
X29427400Y21145128D01*
X29427400Y18478872D01*
X29338128Y18389600D01*
X27007391Y18389600D01*
X26948884Y18377719D01*
X26901325Y18345666D01*
X23295159Y14739500D01*
X19960900Y14739500D01*
X19902394Y14727619D01*
X19853156Y14693863D01*
X19820984Y14643572D01*
X19810900Y14589500D01*
X19810900Y14463172D01*
X19721628Y14373900D01*
X18175172Y14373900D01*
G37*
G36*
X5359772Y20455500D02*
X5270500Y20544772D01*
X5270500Y20865600D01*
X5258619Y20924106D01*
X5224863Y20973344D01*
X5174572Y21005516D01*
X5120500Y21015600D01*
X5004400Y21015600D01*
X4945894Y21003719D01*
X4896656Y20969963D01*
X4864484Y20919672D01*
X4854400Y20865600D01*
X4854400Y20554872D01*
X4765128Y20465600D01*
X3738872Y20465600D01*
X3649600Y20554872D01*
X3649600Y22081128D01*
X3738872Y22170400D01*
X4765128Y22170400D01*
X4854400Y22081128D01*
X4854400Y21770400D01*
X4866281Y21711894D01*
X4900038Y21662656D01*
X4950328Y21630484D01*
X5004400Y21620400D01*
X5120500Y21620400D01*
X5179006Y21632281D01*
X5228244Y21666038D01*
X5260416Y21716328D01*
X5270500Y21770400D01*
X5270500Y22091228D01*
X5359772Y22180500D01*
X6517228Y22180500D01*
X6606500Y22091228D01*
X6606500Y20544772D01*
X6517228Y20455500D01*
X5359772Y20455500D01*
G37*
G36*
X10637500Y21240775D02*
X10637500Y22128675D01*
X11330900Y22128675D01*
X11330900Y21389563D01*
X11182113Y21240775D01*
X10637500Y21240775D01*
G37*
G36*
X58528991Y16097000D02*
X57788028Y16403916D01*
X57220916Y16971028D01*
X56914000Y17711991D01*
X56914000Y18514009D01*
X57220916Y19254972D01*
X57788028Y19822084D01*
X58528991Y20129000D01*
X59331009Y20129000D01*
X60071972Y19822084D01*
X60639084Y19254972D01*
X60946000Y18514009D01*
X60946000Y17711991D01*
X60639084Y16971028D01*
X60071972Y16403916D01*
X59331009Y16097000D01*
X58528991Y16097000D01*
G37*
G36*
X62395100Y18694400D02*
X62395100Y19423413D01*
X62543888Y19572200D01*
X63022900Y19572200D01*
X63022900Y18694400D01*
X62395100Y18694400D01*
G37*
G36*
X63175300Y18694400D02*
X63175300Y19572200D01*
X63654313Y19572200D01*
X63803100Y19423413D01*
X63803100Y18694400D01*
X63175300Y18694400D01*
G37*
G36*
X66421372Y17755700D02*
X66332100Y17844972D01*
X66332100Y18165800D01*
X66320219Y18224306D01*
X66286463Y18273544D01*
X66236172Y18305716D01*
X66182100Y18315800D01*
X65751500Y18315800D01*
X65692994Y18303919D01*
X65643756Y18270163D01*
X65611584Y18219872D01*
X65601500Y18165800D01*
X65601500Y17855072D01*
X65512228Y17765800D01*
X64485972Y17765800D01*
X64396700Y17855072D01*
X64396700Y19381328D01*
X64485972Y19470600D01*
X65512228Y19470600D01*
X65601500Y19381328D01*
X65601500Y19070600D01*
X65613381Y19012094D01*
X65647138Y18962856D01*
X65697428Y18930684D01*
X65751500Y18920600D01*
X66182100Y18920600D01*
X66240606Y18932481D01*
X66289844Y18966238D01*
X66322016Y19016528D01*
X66332100Y19070600D01*
X66332100Y19391428D01*
X66421372Y19480700D01*
X67578828Y19480700D01*
X67668100Y19391428D01*
X67668100Y17844972D01*
X67578828Y17755700D01*
X66421372Y17755700D01*
G37*
G36*
X42346200Y17889200D02*
X42346200Y18956000D01*
X42497359Y18956000D01*
X42917456Y18781991D01*
X43238991Y18460456D01*
X43413000Y18040359D01*
X43413000Y17889200D01*
X42346200Y17889200D01*
G37*
G36*
X39806200Y16670000D02*
X39806200Y18956000D01*
X39957359Y18956000D01*
X40377456Y18781991D01*
X40698991Y18460456D01*
X40861419Y18068319D01*
X40894781Y18018813D01*
X40944813Y17986244D01*
X41003588Y17975766D01*
X41061791Y17989041D01*
X41110206Y18023966D01*
X41138581Y18068319D01*
X41301009Y18460456D01*
X41622544Y18781991D01*
X42042641Y18956000D01*
X42193800Y18956000D01*
X42193800Y16670000D01*
X42042641Y16670000D01*
X41622544Y16844009D01*
X41301009Y17165544D01*
X41138581Y17557681D01*
X41105219Y17607188D01*
X41055188Y17639756D01*
X40996413Y17650234D01*
X40938209Y17636959D01*
X40889794Y17602034D01*
X40861419Y17557681D01*
X40698991Y17165544D01*
X40377456Y16844009D01*
X39957359Y16670000D01*
X39806200Y16670000D01*
G37*
G36*
X55046200Y17889200D02*
X55046200Y18956000D01*
X55197359Y18956000D01*
X55617456Y18781991D01*
X55938991Y18460456D01*
X56113000Y18040359D01*
X56113000Y17889200D01*
X55046200Y17889200D01*
G37*
G36*
X38587000Y17889200D02*
X38587000Y18040359D01*
X38761009Y18460456D01*
X39082544Y18781991D01*
X39502641Y18956000D01*
X39653800Y18956000D01*
X39653800Y17889200D01*
X38587000Y17889200D01*
G37*
G36*
X53827000Y17889200D02*
X53827000Y18040359D01*
X54001009Y18460456D01*
X54322544Y18781991D01*
X54742641Y18956000D01*
X54893800Y18956000D01*
X54893800Y17889200D01*
X53827000Y17889200D01*
G37*
G36*
X44602853Y16771600D02*
X44220094Y16930144D01*
X43927144Y17223094D01*
X43768600Y17605853D01*
X43768600Y18020147D01*
X43927144Y18402906D01*
X44220094Y18695856D01*
X44602853Y18854400D01*
X45017147Y18854400D01*
X45399906Y18695856D01*
X45692856Y18402906D01*
X45851400Y18020147D01*
X45851400Y17605853D01*
X45692856Y17223094D01*
X45399906Y16930144D01*
X45017147Y16771600D01*
X44602853Y16771600D01*
G37*
G36*
X52222853Y16771600D02*
X51840094Y16930144D01*
X51547144Y17223094D01*
X51388600Y17605853D01*
X51388600Y18020147D01*
X51547144Y18402906D01*
X51840094Y18695856D01*
X52222853Y18854400D01*
X52637147Y18854400D01*
X53019906Y18695856D01*
X53312856Y18402906D01*
X53471400Y18020147D01*
X53471400Y17605853D01*
X53312856Y17223094D01*
X53019906Y16930144D01*
X52637147Y16771600D01*
X52222853Y16771600D01*
G37*
G36*
X63175300Y17664200D02*
X63175300Y18542000D01*
X63803100Y18542000D01*
X63803100Y17812988D01*
X63654313Y17664200D01*
X63175300Y17664200D01*
G37*
G36*
X62543888Y17664200D02*
X62395100Y17812988D01*
X62395100Y18542000D01*
X63022900Y18542000D01*
X63022900Y17664200D01*
X62543888Y17664200D01*
G37*
G36*
X55046200Y16670000D02*
X55046200Y17736800D01*
X56113000Y17736800D01*
X56113000Y17585641D01*
X55938991Y17165544D01*
X55617456Y16844009D01*
X55197359Y16670000D01*
X55046200Y16670000D01*
G37*
G36*
X54742641Y16670000D02*
X54322544Y16844009D01*
X54001009Y17165544D01*
X53827000Y17585641D01*
X53827000Y17736800D01*
X54893800Y17736800D01*
X54893800Y16670000D01*
X54742641Y16670000D01*
G37*
G36*
X42346200Y16670000D02*
X42346200Y17736800D01*
X43413000Y17736800D01*
X43413000Y17585641D01*
X43238991Y17165544D01*
X42917456Y16844009D01*
X42497359Y16670000D01*
X42346200Y16670000D01*
G37*
G36*
X39502641Y16670000D02*
X39082544Y16844009D01*
X38761009Y17165544D01*
X38587000Y17585641D01*
X38587000Y17736800D01*
X39653800Y17736800D01*
X39653800Y16670000D01*
X39502641Y16670000D01*
G37*
G36*
X15167750Y15074000D02*
X15167750Y15685313D01*
X15316538Y15834100D01*
X16078200Y15834100D01*
X16078200Y15074000D01*
X15167750Y15074000D01*
G37*
G36*
X16230600Y15074000D02*
X16230600Y15834100D01*
X16992263Y15834100D01*
X17141050Y15685313D01*
X17141050Y15074000D01*
X16230600Y15074000D01*
G37*
G36*
X7717513Y11836400D02*
X7381434Y11975606D01*
X7124206Y12232834D01*
X6985000Y12568913D01*
X6985000Y12932688D01*
X7124206Y13268766D01*
X7381434Y13525994D01*
X7717513Y13665200D01*
X9605288Y13665200D01*
X9941366Y13525994D01*
X10198594Y13268766D01*
X10337800Y12932688D01*
X10337800Y12568913D01*
X10198594Y12232834D01*
X9941366Y11975606D01*
X9605288Y11836400D01*
X7717513Y11836400D01*
G37*
G36*
X40775613Y1555250D02*
X40439534Y1694456D01*
X40182306Y1951684D01*
X40043100Y2287763D01*
X40043100Y4175538D01*
X40182306Y4511616D01*
X40439534Y4768844D01*
X40775613Y4908050D01*
X41139388Y4908050D01*
X41347313Y4821925D01*
X41405913Y4810513D01*
X41464322Y4822856D01*
X41510781Y4854441D01*
X42292741Y5636400D01*
X44008609Y5636400D01*
X44067116Y5648281D01*
X44114675Y5680334D01*
X44326800Y5892459D01*
X44359769Y5942228D01*
X44370716Y6000916D01*
X44360703Y6046478D01*
X44414281Y6037366D01*
X44472378Y6051106D01*
X44515566Y6081225D01*
X44611666Y6177325D01*
X44644634Y6227094D01*
X44655600Y6283391D01*
X44655600Y10638109D01*
X44643719Y10696616D01*
X44611666Y10744175D01*
X44070275Y11285566D01*
X44020506Y11318534D01*
X43964209Y11329500D01*
X43012772Y11329500D01*
X42923500Y11418772D01*
X42923500Y12965228D01*
X43012772Y13054500D01*
X44170228Y13054500D01*
X44259500Y12965228D01*
X44259500Y12013791D01*
X44271381Y11955284D01*
X44303434Y11907725D01*
X45260400Y10950759D01*
X45260400Y5970741D01*
X44321259Y5031600D01*
X44258525Y5031600D01*
X44200019Y5019719D01*
X44150781Y4985963D01*
X44118609Y4935672D01*
X44108600Y4876819D01*
X44122341Y4818722D01*
X44152459Y4775534D01*
X44358825Y4569169D01*
X44513500Y4195747D01*
X44513500Y3307850D01*
X42481500Y3307850D01*
X42481500Y4195747D01*
X42636175Y4569169D01*
X42842541Y4775534D01*
X42875509Y4825303D01*
X42886456Y4883991D01*
X42873644Y4942300D01*
X42839106Y4990994D01*
X42788309Y5022359D01*
X42736475Y5031600D01*
X42605391Y5031600D01*
X42546884Y5019719D01*
X42499325Y4987666D01*
X41888672Y4377013D01*
X41855703Y4327244D01*
X41844756Y4268556D01*
X41856156Y4213544D01*
X41871900Y4175534D01*
X41871900Y2287763D01*
X41732694Y1951684D01*
X41475466Y1694456D01*
X41139388Y1555250D01*
X40775613Y1555250D01*
G37*
G36*
X21170000Y10908200D02*
X21170000Y11737213D01*
X21318788Y11886000D01*
X22047800Y11886000D01*
X22047800Y10908200D01*
X21170000Y10908200D01*
G37*
G36*
X29552000Y10908200D02*
X29552000Y11737213D01*
X29700788Y11886000D01*
X30429800Y11886000D01*
X30429800Y10908200D01*
X29552000Y10908200D01*
G37*
G36*
X30582200Y10908200D02*
X30582200Y11886000D01*
X31311213Y11886000D01*
X31460000Y11737213D01*
X31460000Y10908200D01*
X30582200Y10908200D01*
G37*
G36*
X22200200Y10908200D02*
X22200200Y11886000D01*
X22929213Y11886000D01*
X23078000Y11737213D01*
X23078000Y10908200D01*
X22200200Y10908200D01*
G37*
G36*
X16860872Y1879600D02*
X16771600Y1968872D01*
X16771600Y2379600D01*
X16759719Y2438106D01*
X16725963Y2487344D01*
X16675672Y2519516D01*
X16621600Y2529600D01*
X15578041Y2529600D01*
X13347575Y4760066D01*
X13297806Y4793034D01*
X13241509Y4804000D01*
X12315772Y4804000D01*
X12226500Y4893272D01*
X12226500Y6419528D01*
X12315772Y6508800D01*
X13442028Y6508800D01*
X13531300Y6419528D01*
X13531300Y5493791D01*
X13543181Y5435284D01*
X13575234Y5387725D01*
X15784625Y3178334D01*
X15834394Y3145366D01*
X15890691Y3134400D01*
X16621600Y3134400D01*
X16680106Y3146281D01*
X16729344Y3180038D01*
X16761516Y3230328D01*
X16771600Y3284400D01*
X16771600Y3695128D01*
X16860872Y3784400D01*
X17171600Y3784400D01*
X17230106Y3796281D01*
X17279344Y3830038D01*
X17311516Y3880328D01*
X17321600Y3934400D01*
X17321600Y9729600D01*
X17309719Y9788106D01*
X17275963Y9837344D01*
X17225672Y9869516D01*
X17171600Y9879600D01*
X16860872Y9879600D01*
X16771600Y9968872D01*
X16771600Y11695128D01*
X16860872Y11784400D01*
X18387128Y11784400D01*
X18476400Y11695128D01*
X18476400Y11628400D01*
X18488281Y11569894D01*
X18522038Y11520656D01*
X18572328Y11488484D01*
X18626400Y11478400D01*
X19195822Y11478400D01*
X19254328Y11490281D01*
X19301888Y11522334D01*
X19468956Y11689403D01*
X19691541Y11781600D01*
X19932459Y11781600D01*
X20155044Y11689403D01*
X20325403Y11519044D01*
X20417600Y11296459D01*
X20417600Y11055541D01*
X20325403Y10832956D01*
X20155044Y10662597D01*
X19932459Y10570400D01*
X19691541Y10570400D01*
X19468956Y10662597D01*
X19301888Y10829666D01*
X19252119Y10862634D01*
X19195822Y10873600D01*
X18626400Y10873600D01*
X18567894Y10861719D01*
X18518656Y10827963D01*
X18486484Y10777672D01*
X18476400Y10723600D01*
X18476400Y9968872D01*
X18387128Y9879600D01*
X18076400Y9879600D01*
X18017894Y9867719D01*
X17968656Y9833963D01*
X17936484Y9783672D01*
X17926400Y9729600D01*
X17926400Y3934400D01*
X17938281Y3875894D01*
X17972038Y3826656D01*
X18022328Y3794484D01*
X18076400Y3784400D01*
X18387128Y3784400D01*
X18476400Y3695128D01*
X18476400Y1968872D01*
X18387128Y1879600D01*
X16860872Y1879600D01*
G37*
G36*
X38235613Y1555250D02*
X37899534Y1694456D01*
X37642306Y1951684D01*
X37503100Y2287763D01*
X37503100Y4175538D01*
X37636381Y4497306D01*
X37647794Y4555906D01*
X37635450Y4614313D01*
X37603866Y4660775D01*
X36123675Y6140966D01*
X36073906Y6173934D01*
X36017609Y6184900D01*
X35066172Y6184900D01*
X34976900Y6274172D01*
X34976900Y6400500D01*
X34965019Y6459006D01*
X34931263Y6508244D01*
X34880972Y6540416D01*
X34826900Y6550500D01*
X34677841Y6550500D01*
X33987600Y7240741D01*
X33987600Y10031259D01*
X34932966Y10976625D01*
X34965934Y11026394D01*
X34976900Y11082691D01*
X34976900Y11241628D01*
X35066172Y11330900D01*
X36612628Y11330900D01*
X36701900Y11241628D01*
X36701900Y10084172D01*
X36612628Y9994900D01*
X35066172Y9994900D01*
X35042431Y10018641D01*
X34992663Y10051609D01*
X34933975Y10062556D01*
X34875666Y10049744D01*
X34830300Y10018641D01*
X34636334Y9824675D01*
X34603366Y9774906D01*
X34592400Y9718609D01*
X34592400Y7553391D01*
X34604281Y7494884D01*
X34636334Y7447325D01*
X34720834Y7362825D01*
X34770603Y7329856D01*
X34829291Y7318909D01*
X34887600Y7331722D01*
X34936294Y7366259D01*
X34967659Y7417056D01*
X34968816Y7423544D01*
X35066172Y7520900D01*
X36612628Y7520900D01*
X36701900Y7431628D01*
X36701900Y6480191D01*
X36713781Y6421684D01*
X36745834Y6374125D01*
X38167975Y4951984D01*
X38217744Y4919016D01*
X38274041Y4908050D01*
X38599388Y4908050D01*
X38935466Y4768844D01*
X39192694Y4511616D01*
X39331900Y4175538D01*
X39331900Y2287763D01*
X39192694Y1951684D01*
X38935466Y1694456D01*
X38599388Y1555250D01*
X38235613Y1555250D01*
G37*
G36*
X54043163Y1524625D02*
X53707084Y1663831D01*
X53449856Y1921059D01*
X53310650Y2257138D01*
X53310650Y4144913D01*
X53449856Y4480991D01*
X53707084Y4738219D01*
X54043163Y4877425D01*
X54395659Y4877425D01*
X54454166Y4889306D01*
X54501725Y4921359D01*
X60550766Y10970400D01*
X61613822Y10970400D01*
X61672328Y10982281D01*
X61719888Y11014334D01*
X61886956Y11181403D01*
X62109541Y11273600D01*
X62350459Y11273600D01*
X62573044Y11181403D01*
X62743403Y11011044D01*
X62835600Y10788459D01*
X62835600Y10547541D01*
X62743403Y10324956D01*
X62573044Y10154597D01*
X62350459Y10062400D01*
X62109541Y10062400D01*
X61886956Y10154597D01*
X61719888Y10321666D01*
X61670119Y10354634D01*
X61613822Y10365600D01*
X60863416Y10365600D01*
X60804909Y10353719D01*
X60757350Y10321666D01*
X55046638Y4610953D01*
X55013669Y4561184D01*
X55002722Y4502497D01*
X55014122Y4447484D01*
X55139450Y4144913D01*
X55139450Y2257138D01*
X55000244Y1921059D01*
X54743016Y1663831D01*
X54406938Y1524625D01*
X54043163Y1524625D01*
G37*
G36*
X7717513Y9296400D02*
X7381434Y9435606D01*
X7124206Y9692834D01*
X6985000Y10028913D01*
X6985000Y10392688D01*
X7124206Y10728766D01*
X7381434Y10985994D01*
X7717513Y11125200D01*
X9605288Y11125200D01*
X9941366Y10985994D01*
X10198594Y10728766D01*
X10337800Y10392688D01*
X10337800Y10028913D01*
X10198594Y9692834D01*
X9941366Y9435606D01*
X9605288Y9296400D01*
X7717513Y9296400D01*
G37*
G36*
X35066172Y8023900D02*
X34976900Y8113172D01*
X34976900Y9270628D01*
X35066172Y9359900D01*
X36612628Y9359900D01*
X36701900Y9270628D01*
X36701900Y9144300D01*
X36713781Y9085794D01*
X36747538Y9036556D01*
X36797828Y9004384D01*
X36851900Y8994300D01*
X37366900Y8994300D01*
X37425406Y9006181D01*
X37474644Y9039938D01*
X37506816Y9090228D01*
X37516900Y9144300D01*
X37516900Y9270628D01*
X37549706Y9303434D01*
X37582675Y9353203D01*
X37593622Y9411891D01*
X37580809Y9470200D01*
X37549706Y9515566D01*
X37450000Y9615272D01*
X37450000Y10941528D01*
X37539272Y11030800D01*
X38315528Y11030800D01*
X38404800Y10941528D01*
X38404800Y9614919D01*
X38372525Y9566197D01*
X38361578Y9507509D01*
X38374391Y9449200D01*
X38408928Y9400506D01*
X38459725Y9369141D01*
X38511559Y9359900D01*
X39152628Y9359900D01*
X39241900Y9270628D01*
X39241900Y8113172D01*
X39152628Y8023900D01*
X37606172Y8023900D01*
X37516900Y8113172D01*
X37516900Y8239500D01*
X37505019Y8298006D01*
X37471263Y8347244D01*
X37420972Y8379416D01*
X37366900Y8389500D01*
X36851900Y8389500D01*
X36793394Y8377619D01*
X36744156Y8343863D01*
X36711984Y8293572D01*
X36701900Y8239500D01*
X36701900Y8113172D01*
X36612628Y8023900D01*
X35066172Y8023900D01*
G37*
G36*
X30582200Y9778000D02*
X30582200Y10755800D01*
X31460000Y10755800D01*
X31460000Y9926788D01*
X31311213Y9778000D01*
X30582200Y9778000D01*
G37*
G36*
X29700788Y9778000D02*
X29552000Y9926788D01*
X29552000Y10755800D01*
X30429800Y10755800D01*
X30429800Y9778000D01*
X29700788Y9778000D01*
G37*
G36*
X22200200Y9778000D02*
X22200200Y10755800D01*
X23078000Y10755800D01*
X23078000Y9926788D01*
X22929213Y9778000D01*
X22200200Y9778000D01*
G37*
G36*
X21318788Y9778000D02*
X21170000Y9926788D01*
X21170000Y10755800D01*
X22047800Y10755800D01*
X22047800Y9778000D01*
X21318788Y9778000D01*
G37*
G36*
X44220734Y6148525D02*
X43012772Y6148525D01*
X42923500Y6237797D01*
X42923500Y7784253D01*
X43012772Y7873525D01*
X43139100Y7873525D01*
X43197606Y7885406D01*
X43246844Y7919163D01*
X43279016Y7969453D01*
X43289100Y8023525D01*
X43289100Y8590900D01*
X43277219Y8649406D01*
X43243463Y8698644D01*
X43193172Y8730816D01*
X43139100Y8740900D01*
X43012772Y8740900D01*
X42923500Y8830172D01*
X42923500Y10376628D01*
X43012772Y10465900D01*
X44170228Y10465900D01*
X44259500Y10376628D01*
X44259500Y8830172D01*
X44170228Y8740900D01*
X44043900Y8740900D01*
X43985394Y8729019D01*
X43936156Y8695263D01*
X43903984Y8644972D01*
X43893900Y8590900D01*
X43893900Y8023525D01*
X43905781Y7965019D01*
X43939538Y7915781D01*
X43989828Y7883609D01*
X44043900Y7873525D01*
X44170228Y7873525D01*
X44259500Y7784253D01*
X44259500Y6187291D01*
X44269125Y6139897D01*
X44220734Y6148525D01*
G37*
G36*
X7717513Y6756400D02*
X7381434Y6895606D01*
X7124206Y7152834D01*
X6985000Y7488913D01*
X6985000Y7852688D01*
X7124206Y8188766D01*
X7381434Y8445994D01*
X7717513Y8585200D01*
X9605288Y8585200D01*
X9941366Y8445994D01*
X10198594Y8188766D01*
X10249528Y8065797D01*
X10282891Y8016291D01*
X10332922Y7983722D01*
X10388109Y7973200D01*
X11126500Y7973200D01*
X11185006Y7985081D01*
X11234244Y8018838D01*
X11266416Y8069128D01*
X11276500Y8123200D01*
X11276500Y8619528D01*
X11379806Y8722834D01*
X11412775Y8772603D01*
X11423722Y8831291D01*
X11410909Y8889600D01*
X11376372Y8938294D01*
X11325575Y8969659D01*
X11273741Y8978900D01*
X10809172Y8978900D01*
X10719900Y9068172D01*
X10719900Y10225628D01*
X10809172Y10314900D01*
X12355628Y10314900D01*
X12444900Y10225628D01*
X12444900Y9068172D01*
X12341594Y8964866D01*
X12308625Y8915097D01*
X12297678Y8856409D01*
X12310491Y8798100D01*
X12345028Y8749406D01*
X12395825Y8718041D01*
X12447659Y8708800D01*
X12492028Y8708800D01*
X12581300Y8619528D01*
X12581300Y7093272D01*
X12492028Y7004000D01*
X11365772Y7004000D01*
X11276500Y7093272D01*
X11276500Y7218400D01*
X11264619Y7276906D01*
X11230863Y7326144D01*
X11180572Y7358316D01*
X11126500Y7368400D01*
X10388109Y7368400D01*
X10329603Y7356519D01*
X10280366Y7322763D01*
X10249528Y7275803D01*
X10198594Y7152834D01*
X9941366Y6895606D01*
X9605288Y6756400D01*
X7717513Y6756400D01*
G37*
G36*
X13265772Y7004000D02*
X13176500Y7093272D01*
X13176500Y8619528D01*
X13265772Y8708800D01*
X13376500Y8708800D01*
X13435006Y8720681D01*
X13484244Y8754438D01*
X13516416Y8804728D01*
X13526500Y8858800D01*
X13526500Y8993441D01*
X13514619Y9051947D01*
X13513900Y9053013D01*
X13513900Y10225628D01*
X13603172Y10314900D01*
X15149628Y10314900D01*
X15238900Y10225628D01*
X15238900Y9068172D01*
X15149628Y8978900D01*
X14484059Y8978900D01*
X14425553Y8967019D01*
X14376316Y8933263D01*
X14344144Y8882972D01*
X14334134Y8824119D01*
X14347875Y8766022D01*
X14377994Y8722834D01*
X14481300Y8619528D01*
X14481300Y7093272D01*
X14392028Y7004000D01*
X13265772Y7004000D01*
G37*
G36*
X40982900Y7087225D02*
X40982900Y7826338D01*
X41131688Y7975125D01*
X41676300Y7975125D01*
X41676300Y7087225D01*
X40982900Y7087225D01*
G37*
G36*
X41828700Y7087225D02*
X41828700Y7975125D01*
X42373313Y7975125D01*
X42522100Y7826338D01*
X42522100Y7087225D01*
X41828700Y7087225D01*
G37*
G36*
X37415300Y6929100D02*
X37415300Y7473713D01*
X37564088Y7622500D01*
X38303200Y7622500D01*
X38303200Y6929100D01*
X37415300Y6929100D01*
G37*
G36*
X38455600Y6929100D02*
X38455600Y7622500D01*
X39194713Y7622500D01*
X39343500Y7473713D01*
X39343500Y6929100D01*
X38455600Y6929100D01*
G37*
G36*
X41828700Y6046925D02*
X41828700Y6934825D01*
X42522100Y6934825D01*
X42522100Y6195713D01*
X42373313Y6046925D01*
X41828700Y6046925D01*
G37*
G36*
X41131688Y6046925D02*
X40982900Y6195713D01*
X40982900Y6934825D01*
X41676300Y6934825D01*
X41676300Y6046925D01*
X41131688Y6046925D01*
G37*
G36*
X38455600Y6083300D02*
X38455600Y6776700D01*
X39343500Y6776700D01*
X39343500Y6232088D01*
X39194713Y6083300D01*
X38455600Y6083300D01*
G37*
G36*
X37564088Y6083300D02*
X37415300Y6232088D01*
X37415300Y6776700D01*
X38303200Y6776700D01*
X38303200Y6083300D01*
X37564088Y6083300D01*
G37*
G36*
X82905600Y3307850D02*
X82905600Y4195747D01*
X83060275Y4569169D01*
X83346081Y4854975D01*
X83719503Y5009650D01*
X83845400Y5009650D01*
X83845400Y3307850D01*
X82905600Y3307850D01*
G37*
G36*
X83997800Y3307850D02*
X83997800Y5009650D01*
X84123697Y5009650D01*
X84497119Y4854975D01*
X84782925Y4569169D01*
X84937600Y4195747D01*
X84937600Y3307850D01*
X83997800Y3307850D01*
G37*
G36*
X55749050Y3277225D02*
X55749050Y4165122D01*
X55903725Y4538544D01*
X56189531Y4824350D01*
X56562953Y4979025D01*
X56688850Y4979025D01*
X56688850Y3277225D01*
X55749050Y3277225D01*
G37*
G36*
X56841250Y3277225D02*
X56841250Y4979025D01*
X56967147Y4979025D01*
X57340569Y4824350D01*
X57626375Y4538544D01*
X57781050Y4165122D01*
X57781050Y3277225D01*
X56841250Y3277225D01*
G37*
G36*
X48963163Y1524625D02*
X48627084Y1663831D01*
X48369856Y1921059D01*
X48230650Y2257138D01*
X48230650Y4144913D01*
X48369856Y4480991D01*
X48627084Y4738219D01*
X48963163Y4877425D01*
X49326938Y4877425D01*
X49663016Y4738219D01*
X49920244Y4480991D01*
X50059450Y4144913D01*
X50059450Y2257138D01*
X49920244Y1921059D01*
X49663016Y1663831D01*
X49326938Y1524625D01*
X48963163Y1524625D01*
G37*
G36*
X88596856Y1524000D02*
X88036725Y1756013D01*
X87608013Y2184725D01*
X87376000Y2744856D01*
X87376000Y3351144D01*
X87608013Y3911275D01*
X88036725Y4339988D01*
X88596856Y4572000D01*
X89203144Y4572000D01*
X89763275Y4339988D01*
X90191988Y3911275D01*
X90424000Y3351144D01*
X90424000Y2744856D01*
X90191988Y2184725D01*
X89763275Y1756013D01*
X89203144Y1524000D01*
X88596856Y1524000D01*
G37*
G36*
X21170000Y2908200D02*
X21170000Y3737213D01*
X21318788Y3886000D01*
X22047800Y3886000D01*
X22047800Y2908200D01*
X21170000Y2908200D01*
G37*
G36*
X29552000Y2908200D02*
X29552000Y3737213D01*
X29700788Y3886000D01*
X30429800Y3886000D01*
X30429800Y2908200D01*
X29552000Y2908200D01*
G37*
G36*
X30582200Y2908200D02*
X30582200Y3886000D01*
X31311213Y3886000D01*
X31460000Y3737213D01*
X31460000Y2908200D01*
X30582200Y2908200D01*
G37*
G36*
X22200200Y2908200D02*
X22200200Y3886000D01*
X22929213Y3886000D01*
X23078000Y3737213D01*
X23078000Y2908200D01*
X22200200Y2908200D01*
G37*
G36*
X43573700Y1453650D02*
X43573700Y3155450D01*
X44513500Y3155450D01*
X44513500Y2267553D01*
X44358825Y1894131D01*
X44073019Y1608325D01*
X43699597Y1453650D01*
X43573700Y1453650D01*
G37*
G36*
X43295403Y1453650D02*
X42921981Y1608325D01*
X42636175Y1894131D01*
X42481500Y2267553D01*
X42481500Y3155450D01*
X43421300Y3155450D01*
X43421300Y1453650D01*
X43295403Y1453650D01*
G37*
G36*
X56841250Y1423025D02*
X56841250Y3124825D01*
X57781050Y3124825D01*
X57781050Y2236928D01*
X57626375Y1863506D01*
X57340569Y1577700D01*
X56967147Y1423025D01*
X56841250Y1423025D01*
G37*
G36*
X56562953Y1423025D02*
X56189531Y1577700D01*
X55903725Y1863506D01*
X55749050Y2236928D01*
X55749050Y3124825D01*
X56688850Y3124825D01*
X56688850Y1423025D01*
X56562953Y1423025D01*
G37*
G36*
X30582200Y1778000D02*
X30582200Y2755800D01*
X31460000Y2755800D01*
X31460000Y1926788D01*
X31311213Y1778000D01*
X30582200Y1778000D01*
G37*
G36*
X29700788Y1778000D02*
X29552000Y1926788D01*
X29552000Y2755800D01*
X30429800Y2755800D01*
X30429800Y1778000D01*
X29700788Y1778000D01*
G37*
G36*
X22200200Y1778000D02*
X22200200Y2755800D01*
X23078000Y2755800D01*
X23078000Y1926788D01*
X22929213Y1778000D01*
X22200200Y1778000D01*
G37*
G36*
X21318788Y1778000D02*
X21170000Y1926788D01*
X21170000Y2755800D01*
X22047800Y2755800D01*
X22047800Y1778000D01*
X21318788Y1778000D01*
G37*
%LPD*%
G36*
X69528472Y1279481D02*
X69577709Y1313238D01*
X69609881Y1363528D01*
X69619891Y1422381D01*
X69606150Y1480478D01*
X69570841Y1528616D01*
X69527369Y1556181D01*
X69401481Y1608325D01*
X69115675Y1894131D01*
X68961000Y2267553D01*
X68961000Y3155450D01*
X70993000Y3155450D01*
X70993000Y2267553D01*
X70838325Y1894131D01*
X70552519Y1608325D01*
X70426631Y1556181D01*
X70377125Y1522816D01*
X70344556Y1472788D01*
X70334078Y1414013D01*
X70347353Y1355809D01*
X70382278Y1307394D01*
X70433322Y1276431D01*
X70484034Y1267600D01*
X75849200Y1267600D01*
X75907706Y1279481D01*
X75956944Y1313238D01*
X75989116Y1363528D01*
X75999200Y1417600D01*
X75999200Y1504941D01*
X75987319Y1563447D01*
X75953563Y1612684D01*
X75906603Y1643522D01*
X75783634Y1694456D01*
X75526406Y1951684D01*
X75387200Y2287763D01*
X75387200Y3656259D01*
X75375319Y3714766D01*
X75359100Y3738831D01*
X75359100Y5330650D01*
X75347219Y5389156D01*
X75313463Y5438394D01*
X75263172Y5470566D01*
X75209100Y5480650D01*
X75082772Y5480650D01*
X74993500Y5569922D01*
X74993500Y5890750D01*
X74981619Y5949256D01*
X74947863Y5998494D01*
X74897572Y6030666D01*
X74843500Y6040750D01*
X71612900Y6040750D01*
X71554394Y6028869D01*
X71505156Y5995113D01*
X71472984Y5944822D01*
X71462900Y5890750D01*
X71462900Y5569922D01*
X71373628Y5480650D01*
X70216172Y5480650D01*
X70126900Y5569922D01*
X70126900Y7116378D01*
X70216172Y7205650D01*
X71373628Y7205650D01*
X71462900Y7116378D01*
X71462900Y6795550D01*
X71474781Y6737044D01*
X71508538Y6687806D01*
X71558828Y6655634D01*
X71612900Y6645550D01*
X74843500Y6645550D01*
X74902006Y6657431D01*
X74951244Y6691188D01*
X74983416Y6741478D01*
X74993500Y6795550D01*
X74993500Y7116378D01*
X75082772Y7205650D01*
X76240228Y7205650D01*
X76329500Y7116378D01*
X76329500Y5569922D01*
X76240228Y5480650D01*
X76113900Y5480650D01*
X76055394Y5468769D01*
X76006156Y5435013D01*
X75973984Y5384722D01*
X75963900Y5330650D01*
X75963900Y5058050D01*
X75975781Y4999544D01*
X76009538Y4950306D01*
X76059828Y4918134D01*
X76113900Y4908050D01*
X76483488Y4908050D01*
X76819566Y4768844D01*
X77076794Y4511616D01*
X77216000Y4175538D01*
X77216000Y2287763D01*
X77076794Y1951684D01*
X76819566Y1694456D01*
X76696597Y1643522D01*
X76647091Y1610159D01*
X76614522Y1560128D01*
X76604000Y1504941D01*
X76604000Y1417600D01*
X76615881Y1359094D01*
X76649638Y1309856D01*
X76699928Y1277684D01*
X76754000Y1267600D01*
X78600063Y1267600D01*
X78658569Y1279481D01*
X78707806Y1313238D01*
X78739978Y1363528D01*
X78749988Y1422381D01*
X78736247Y1480478D01*
X78700938Y1528616D01*
X78657466Y1556181D01*
X78323634Y1694456D01*
X78066406Y1951684D01*
X77927200Y2287763D01*
X77927200Y4175534D01*
X77961544Y4258450D01*
X77972953Y4317047D01*
X77960606Y4375456D01*
X77929025Y4421916D01*
X77198100Y5152841D01*
X77198100Y5330650D01*
X77186219Y5389156D01*
X77152463Y5438394D01*
X77102172Y5470566D01*
X77048100Y5480650D01*
X76921772Y5480650D01*
X76832500Y5569922D01*
X76832500Y7116378D01*
X76921772Y7205650D01*
X77048100Y7205650D01*
X77106606Y7217531D01*
X77155844Y7251288D01*
X77188016Y7301578D01*
X77198100Y7355650D01*
X77198100Y7928159D01*
X78487741Y9217800D01*
X80787809Y9217800D01*
X80846316Y9229681D01*
X80893875Y9261734D01*
X88723666Y17091525D01*
X88756634Y17141294D01*
X88767600Y17197591D01*
X88767600Y18119600D01*
X88755719Y18178106D01*
X88721963Y18227344D01*
X88671672Y18259516D01*
X88617600Y18269600D01*
X88556872Y18269600D01*
X88541066Y18285406D01*
X88491297Y18318375D01*
X88432609Y18329322D01*
X88374300Y18316509D01*
X88328934Y18285406D01*
X88313128Y18269600D01*
X87286872Y18269600D01*
X87271066Y18285406D01*
X87221297Y18318375D01*
X87162609Y18329322D01*
X87104300Y18316509D01*
X87058934Y18285406D01*
X87043128Y18269600D01*
X86982400Y18269600D01*
X86923894Y18257719D01*
X86874656Y18223963D01*
X86842484Y18173672D01*
X86832400Y18119600D01*
X86832400Y16021341D01*
X81354459Y10543400D01*
X71967791Y10543400D01*
X71909284Y10531519D01*
X71861725Y10499466D01*
X69302234Y7939975D01*
X69269266Y7890206D01*
X69258300Y7833909D01*
X69258300Y7355650D01*
X69270181Y7297144D01*
X69303938Y7247906D01*
X69354228Y7215734D01*
X69408300Y7205650D01*
X69534628Y7205650D01*
X69623900Y7116378D01*
X69623900Y5569922D01*
X69534628Y5480650D01*
X69408300Y5480650D01*
X69349794Y5468769D01*
X69300556Y5435013D01*
X69268384Y5384722D01*
X69258300Y5330650D01*
X69258300Y5020156D01*
X69270181Y4961650D01*
X69303938Y4912413D01*
X69354228Y4880241D01*
X69413081Y4870231D01*
X69465703Y4881575D01*
X69774903Y5009650D01*
X69900800Y5009650D01*
X69900800Y3307850D01*
X68961000Y3307850D01*
X68961000Y4195750D01*
X68995278Y4278506D01*
X69006691Y4337103D01*
X68994347Y4395513D01*
X68960197Y4444478D01*
X68909650Y4476247D01*
X68850719Y4485788D01*
X68792734Y4471584D01*
X68750631Y4441972D01*
X68395334Y4086675D01*
X68362366Y4036906D01*
X68351400Y3980609D01*
X68351400Y2287763D01*
X68212194Y1951684D01*
X67954966Y1694456D01*
X67621134Y1556181D01*
X67571631Y1522819D01*
X67539059Y1472788D01*
X67528581Y1414016D01*
X67541856Y1355809D01*
X67576781Y1307394D01*
X67627825Y1276431D01*
X67678538Y1267600D01*
X69469966Y1267600D01*
X69528472Y1279481D01*
G37*
%LPC*%
G36*
X70053200Y3307850D02*
X70053200Y5009650D01*
X70179097Y5009650D01*
X70552519Y4854975D01*
X70838325Y4569169D01*
X70993000Y4195747D01*
X70993000Y3307850D01*
X70053200Y3307850D01*
G37*
%LPD*%
G36*
X1228878Y12998716D02*
X1277016Y13034025D01*
X1304581Y13077497D01*
X1383806Y13268766D01*
X1641034Y13525994D01*
X1977113Y13665200D01*
X3864891Y13665200D01*
X4113581Y13562191D01*
X4172178Y13550778D01*
X4230588Y13563122D01*
X4277047Y13594706D01*
X4606666Y13924325D01*
X4639634Y13974094D01*
X4650600Y14030391D01*
X4650600Y14603109D01*
X4638719Y14661616D01*
X4604963Y14710853D01*
X4554672Y14743025D01*
X4495819Y14753034D01*
X4437722Y14739294D01*
X4394534Y14709175D01*
X4200966Y14515606D01*
X3864888Y14376400D01*
X1977113Y14376400D01*
X1641034Y14515606D01*
X1383806Y14772834D01*
X1304581Y14964103D01*
X1271219Y15013609D01*
X1221188Y15046178D01*
X1162413Y15056656D01*
X1104209Y15043381D01*
X1055794Y15008456D01*
X1024831Y14957413D01*
X1016000Y14906700D01*
X1016000Y13134900D01*
X1027881Y13076394D01*
X1061638Y13027156D01*
X1111928Y12994984D01*
X1170781Y12984975D01*
X1228878Y12998716D01*
G37*
G36*
X1228878Y10458716D02*
X1277016Y10494025D01*
X1304581Y10537497D01*
X1383806Y10728766D01*
X1641034Y10985994D01*
X1977113Y11125200D01*
X3777409Y11125200D01*
X3835916Y11137081D01*
X3883475Y11169134D01*
X5267066Y12552725D01*
X5300034Y12602494D01*
X5311000Y12658791D01*
X5311000Y13411209D01*
X5299119Y13469716D01*
X5265363Y13518953D01*
X5215072Y13551125D01*
X5156219Y13561134D01*
X5098122Y13547394D01*
X5054934Y13517275D01*
X4631056Y13093397D01*
X4598088Y13043628D01*
X4587141Y12984941D01*
X4597400Y12935441D01*
X4597400Y12568913D01*
X4458194Y12232834D01*
X4200966Y11975606D01*
X3864888Y11836400D01*
X1977113Y11836400D01*
X1641034Y11975606D01*
X1383806Y12232834D01*
X1304581Y12424103D01*
X1271219Y12473609D01*
X1221188Y12506178D01*
X1162413Y12516656D01*
X1104209Y12503381D01*
X1055794Y12468456D01*
X1024831Y12417413D01*
X1016000Y12366700D01*
X1016000Y10594900D01*
X1027881Y10536394D01*
X1061638Y10487156D01*
X1111928Y10454984D01*
X1170781Y10444975D01*
X1228878Y10458716D01*
G37*
G36*
X1228878Y7918716D02*
X1277016Y7954025D01*
X1304581Y7997497D01*
X1383806Y8188766D01*
X1641034Y8445994D01*
X1977113Y8585200D01*
X3269409Y8585200D01*
X3327916Y8597081D01*
X3375475Y8629134D01*
X3786675Y9040334D01*
X3819644Y9090103D01*
X3830591Y9148791D01*
X3817778Y9207100D01*
X3783241Y9255794D01*
X3732444Y9287159D01*
X3680609Y9296400D01*
X1977113Y9296400D01*
X1641034Y9435606D01*
X1383806Y9692834D01*
X1304581Y9884103D01*
X1271219Y9933609D01*
X1221188Y9966178D01*
X1162413Y9976656D01*
X1104209Y9963381D01*
X1055794Y9928456D01*
X1024831Y9877413D01*
X1016000Y9826700D01*
X1016000Y8054900D01*
X1027881Y7996394D01*
X1061638Y7947156D01*
X1111928Y7914984D01*
X1170781Y7904975D01*
X1228878Y7918716D01*
G37*
D10*
X29464000Y46736000D02*
X29464000Y48260000D01*
X32004000Y48260000D02*
X32004000Y46736000D01*
X17526000Y46736000D02*
X17526000Y48260000D01*
X20066000Y48260000D02*
X20066000Y46736000D01*
X3683000Y43002200D02*
X2159000Y43002200D01*
X2159000Y40462200D02*
X3683000Y40462200D01*
D11*
X10668000Y38721400D03*
X10668000Y36970600D03*
D12*
X25654000Y25692000D03*
X25654000Y24092000D03*
D11*
X28448000Y25767400D03*
X28448000Y24016600D03*
D13*
X95287700Y40386000D03*
X93536900Y40386000D03*
X95287700Y43180000D03*
X93536900Y43180000D03*
D14*
X19520000Y33782000D03*
X21120000Y33782000D03*
D13*
X19444600Y31496000D03*
X21195400Y31496000D03*
D11*
X22352000Y42277400D03*
X22352000Y40526600D03*
X22352000Y38721400D03*
X22352000Y36970600D03*
X16154400Y14997800D03*
X16154400Y13247000D03*
D15*
X27940000Y19812000D03*
D16*
X25589000Y19812000D03*
D15*
X27940000Y29464000D03*
D16*
X25589000Y29464000D03*
D17*
X21245400Y29184600D03*
X19445400Y29184600D03*
D10*
X76301600Y3993650D02*
X76301600Y2469650D01*
X78841600Y2469650D02*
X78841600Y3993650D01*
X81381600Y3993650D02*
X81381600Y2469650D01*
X83921600Y2469650D02*
X83921600Y3993650D01*
X49145050Y3963025D02*
X49145050Y2439025D01*
X51685050Y2439025D02*
X51685050Y3963025D01*
X54225050Y3963025D02*
X54225050Y2439025D01*
X56765050Y2439025D02*
X56765050Y3963025D01*
X62357000Y3993650D02*
X62357000Y2469650D01*
X64897000Y2469650D02*
X64897000Y3993650D01*
X67437000Y3993650D02*
X67437000Y2469650D01*
X69977000Y2469650D02*
X69977000Y3993650D01*
D18*
X95420000Y36422000D03*
X94150000Y36422000D03*
X92880000Y36422000D03*
X91610000Y36422000D03*
X90340000Y36422000D03*
X89070000Y36422000D03*
X87800000Y36422000D03*
X86530000Y36422000D03*
X85260000Y36422000D03*
X83990000Y36422000D03*
X82720000Y36422000D03*
X81450000Y36422000D03*
X80180000Y36422000D03*
X78910000Y36422000D03*
X77640000Y36422000D03*
X76370000Y36422000D03*
X75100000Y36422000D03*
X73830000Y36422000D03*
X72560000Y36422000D03*
X72560000Y19422000D03*
X73830000Y19422000D03*
X75100000Y19422000D03*
X76370000Y19422000D03*
X77640000Y19422000D03*
X78910000Y19422000D03*
X80180000Y19422000D03*
X81450000Y19422000D03*
X82720000Y19422000D03*
X83990000Y19422000D03*
X85260000Y19422000D03*
X86530000Y19422000D03*
X87800000Y19422000D03*
X89070000Y19422000D03*
X90340000Y19422000D03*
X91610000Y19422000D03*
X92880000Y19422000D03*
X94150000Y19422000D03*
X95420000Y19422000D03*
D19*
X87920000Y28922000D03*
D10*
X64770000Y30162500D02*
X63246000Y30162500D01*
X63246000Y27622500D02*
X64770000Y27622500D01*
X64770000Y25082500D02*
X63246000Y25082500D01*
X63246000Y22542500D02*
X64770000Y22542500D01*
D20*
X26350000Y47244000D03*
X24450000Y47244000D03*
X14412000Y47244000D03*
X12512000Y47244000D03*
X4252000Y24130000D03*
X2352000Y24130000D03*
X63099100Y18618200D03*
X64999100Y18618200D03*
X4252000Y21318000D03*
X2352000Y21318000D03*
D10*
X60756800Y46814800D02*
X60756800Y48338800D01*
X58216800Y48338800D02*
X58216800Y46814800D01*
X52374800Y46814800D02*
X52374800Y48338800D01*
X49834800Y48338800D02*
X49834800Y46814800D01*
D21*
X5808000Y43454200D03*
X5808000Y41534200D03*
X7908000Y42494200D03*
D22*
X37927400Y10278400D03*
X39847400Y10278400D03*
X38887400Y12378400D03*
D23*
X12878900Y5656400D03*
X11928900Y7856400D03*
X13828900Y7856400D03*
X12852400Y15476400D03*
X13802400Y13276400D03*
X11902400Y13276400D03*
D24*
X7470400Y39116000D03*
X5631400Y39116000D03*
X67000100Y18618200D03*
X68839100Y18618200D03*
D25*
X35839400Y10662900D03*
X35839400Y12501900D03*
D24*
X10561300Y22204875D03*
X12400300Y22204875D03*
X5938500Y21318000D03*
X7777500Y21318000D03*
X5938500Y24130000D03*
X7777500Y24130000D03*
D25*
X18948400Y13202900D03*
X18948400Y15041900D03*
X38379400Y8691900D03*
X38379400Y6852900D03*
X35839400Y6852900D03*
X35839400Y8691900D03*
D24*
X66399850Y30149800D03*
X68238850Y30149800D03*
X66399850Y27629975D03*
X68238850Y27629975D03*
X66399850Y25092175D03*
X68238850Y25092175D03*
X66399850Y22555200D03*
X68238850Y22555200D03*
D25*
X14376400Y9646900D03*
X14376400Y11485900D03*
D24*
X10485100Y29316875D03*
X12324100Y29316875D03*
D25*
X11582400Y11485900D03*
X11582400Y9646900D03*
D24*
X41752500Y12192000D03*
X43591500Y12192000D03*
X43591500Y9603400D03*
X41752500Y9603400D03*
X41752500Y7011025D03*
X43591500Y7011025D03*
X10510500Y27030875D03*
X12349500Y27030875D03*
X75661500Y6343150D03*
X77500500Y6343150D03*
X84612500Y6343150D03*
X82773500Y6343150D03*
X61843900Y6343150D03*
X63682900Y6343150D03*
X70794900Y6343150D03*
X68955900Y6343150D03*
D25*
X91668600Y14777700D03*
X91668600Y16616700D03*
D24*
X14381500Y44704000D03*
X12542500Y44704000D03*
X26319500Y44704000D03*
X24480500Y44704000D03*
X12400300Y24539475D03*
X10561300Y24539475D03*
D26*
X15329800Y30726200D03*
D20*
X17129800Y30726200D03*
X17129800Y32926200D03*
X15229800Y32926200D03*
D10*
X85661500Y46736000D02*
X85661500Y48260000D01*
X83121500Y48260000D02*
X83121500Y46736000D01*
X80581500Y46736000D02*
X80581500Y48260000D01*
X78041500Y48260000D02*
X78041500Y46736000D01*
X35877500Y3993650D02*
X35877500Y2469650D01*
X38417500Y2469650D02*
X38417500Y3993650D01*
X40957500Y3993650D02*
X40957500Y2469650D01*
X43497500Y2469650D02*
X43497500Y3993650D01*
D27*
X18010000Y26353000D03*
X17510000Y26353000D03*
X17010000Y26353000D03*
X16510000Y26353000D03*
X16010000Y26353000D03*
X15510000Y26353000D03*
X15010000Y26353000D03*
D28*
X14160000Y25503000D03*
X14160000Y25003000D03*
X14160000Y24503000D03*
X14160000Y24003000D03*
X14160000Y23503000D03*
X14160000Y23003000D03*
X14160000Y22503000D03*
D27*
X15010000Y21653000D03*
X15510000Y21653000D03*
X16010000Y21653000D03*
X16510000Y21653000D03*
X17010000Y21653000D03*
X17510000Y21653000D03*
X18010000Y21653000D03*
D28*
X18860000Y22503000D03*
X18860000Y23003000D03*
X18860000Y23503000D03*
X18860000Y24003000D03*
X18860000Y24503000D03*
X18860000Y25003000D03*
X18860000Y25503000D03*
D29*
X16510000Y24003000D03*
D10*
X3683000Y15290800D02*
X2159000Y15290800D01*
X2159000Y12750800D02*
X3683000Y12750800D01*
X3683000Y10210800D02*
X2159000Y10210800D01*
X2159000Y7670800D02*
X3683000Y7670800D01*
X7899400Y7670800D02*
X9423400Y7670800D01*
X9423400Y10210800D02*
X7899400Y10210800D01*
X7899400Y12750800D02*
X9423400Y12750800D01*
X9423400Y15290800D02*
X7899400Y15290800D01*
D30*
X13656000Y41924000D03*
X13656000Y39624000D03*
X13656000Y37324000D03*
D31*
X18856000Y39624000D03*
D30*
X25340000Y41924000D03*
X25340000Y39624000D03*
X25340000Y37324000D03*
D31*
X30540000Y39624000D03*
D32*
X68315000Y42010700D03*
X67665000Y42010700D03*
X67015000Y42010700D03*
X66365000Y42010700D03*
X65715003Y42010700D03*
X65065000Y42010700D03*
X64415003Y42010700D03*
X63765000Y42010700D03*
X63765000Y36312300D03*
X64415000Y36312300D03*
X65065000Y36312300D03*
X65715000Y36312300D03*
X66364997Y36312300D03*
X67015000Y36312300D03*
X67664997Y36312300D03*
X68315000Y36312300D03*
D11*
X71145400Y39840800D03*
X71145400Y41591600D03*
D12*
X10668000Y42202000D03*
X10668000Y40602000D03*
D14*
X65265200Y33731200D03*
X63665200Y33731200D03*
D33*
X22124000Y10832000D03*
X22124000Y2832000D03*
X17624000Y10832000D03*
X17624000Y2832000D03*
X30506000Y10832000D03*
X30506000Y2832000D03*
X26006000Y10832000D03*
X26006000Y2832000D03*
D34*
X44810000Y17813000D03*
X47350000Y17813000D03*
X49890000Y17813000D03*
X52430000Y17813000D03*
X54970000Y17813000D03*
X42270000Y17813000D03*
X39730000Y17813000D03*
D35*
X6230000Y35233000D03*
X6230000Y34383000D03*
X6230000Y33533000D03*
X6230000Y32683000D03*
X6230000Y31833000D03*
X6230000Y30983000D03*
X6230000Y30133000D03*
X6230000Y29283000D03*
X4880000Y29283000D03*
X4880000Y30133000D03*
X4880000Y30983000D03*
X4880000Y31833000D03*
X4880000Y32683000D03*
X4880000Y33533000D03*
X4880000Y34383000D03*
X4880000Y35233000D03*
D36*
X4696000Y36583000D02*
X5804000Y36583000D01*
X5804000Y27933000D02*
X4696000Y27933000D01*
X2424000Y27933000D02*
X1316000Y27933000D01*
X1316000Y36583000D02*
X2424000Y36583000D01*
D37*
X7874000Y47752000D03*
X89916000Y47752000D03*
X88900000Y3048000D03*
X7874000Y2794000D03*
D38*
X3238500Y47465100D03*
X93901500Y3238500D03*
X3238500Y3238500D03*
X93901500Y47465100D03*
D39*
X65065000Y36312300D02*
X65065000Y33931400D01*
X65265200Y33731200D01*
X67015000Y35481000D02*
X67015000Y36312300D01*
X67015000Y35481000D02*
X65265200Y33731200D01*
X68315000Y34787000D02*
X68315000Y36312300D01*
X68315000Y34787000D02*
X67259200Y33731200D01*
X65265200Y33731200D01*
X95287700Y36554300D02*
X95287700Y40386000D01*
X95287700Y36554300D02*
X95420000Y36422000D01*
X95287700Y40386000D02*
X95287700Y43180000D01*
X95420000Y36422000D02*
X95420000Y31970800D01*
X92371200Y28922000D01*
X87920000Y28922000D01*
X72859000Y39840800D02*
X71145400Y39840800D01*
X72859000Y39840800D02*
X74244200Y38455600D01*
X76911200Y38455600D01*
X77640000Y37726800D01*
X77640000Y36422000D01*
X69265800Y33731200D02*
X67259200Y33731200D01*
X69265800Y33731200D02*
X71145400Y35610800D01*
X71145400Y39840800D01*
X63099100Y18618200D02*
X62845100Y18618200D01*
X61143300Y20320000D01*
X61214000Y20320000D01*
X61143300Y20320000D02*
X57150000Y20320000D01*
X54970000Y18140000D01*
X54970000Y17813000D01*
X41752500Y7011025D02*
X41498500Y7011025D01*
X31985475Y2832000D02*
X30506000Y2832000D01*
X30506000Y10832000D02*
X30819525Y10832000D01*
X30506000Y10832000D02*
X30506000Y2832000D01*
X22124000Y2832000D02*
X22124000Y10832000D01*
X6230000Y29283000D02*
X4880000Y29283000D01*
X5250000Y27933000D02*
X1870000Y27933000D01*
X4880000Y29283000D02*
X5250000Y28913000D01*
X5250000Y27933000D01*
X6230000Y29283000D02*
X8482125Y27030875D01*
X10510500Y27030875D01*
X6230000Y35233000D02*
X4880000Y35233000D01*
X5250000Y36583000D02*
X1870000Y36583000D01*
X4880000Y35233000D02*
X5250000Y35603000D01*
X5250000Y36583000D01*
X6230000Y35233000D02*
X12576200Y35233000D01*
X12852400Y35509200D01*
X17792800Y35509200D01*
X19520000Y33782000D01*
X7470400Y39116000D02*
X5631400Y39116000D01*
X5250000Y38734600D01*
X5250000Y36583000D01*
X5808000Y39292600D02*
X5808000Y41534200D01*
X5808000Y39292600D02*
X5631400Y39116000D01*
X10668000Y38721400D02*
X10707000Y38721400D01*
X11023600Y38404800D01*
X22352000Y42277400D02*
X22705400Y41924000D01*
X25340000Y41924000D01*
X10946000Y41924000D02*
X10668000Y42202000D01*
X10946000Y41924000D02*
X13656000Y41924000D01*
X10668000Y42202000D02*
X10668000Y48006000D01*
X11709400Y49047400D01*
X13487400Y49047400D01*
X14401800Y48133000D01*
X14412000Y48122800D01*
X14412000Y47244000D01*
X20066000Y44563400D02*
X22352000Y42277400D01*
X20066000Y44563400D02*
X20066000Y47498000D01*
X26350000Y47244000D02*
X26350000Y48173600D01*
X25654000Y48869600D01*
X23647400Y48869600D01*
X22275800Y47498000D01*
X20066000Y47498000D01*
X19380200Y35509200D02*
X17792800Y35509200D01*
X19380200Y35509200D02*
X19786600Y35102800D01*
X61315600Y35102800D01*
X62407800Y34010600D01*
X62407800Y32867600D01*
X62992000Y32283400D01*
X64262000Y32283400D01*
X65265200Y33286600D01*
X65265200Y33731200D01*
X20066000Y47498000D02*
X20066000Y48183800D01*
X18872200Y49377600D01*
X15646400Y49377600D01*
X14401800Y48133000D01*
X25654000Y25692000D02*
X28372600Y25692000D01*
X28448000Y25767400D01*
X11430000Y27950375D02*
X10510500Y27030875D01*
X11430000Y27950375D02*
X11430000Y30226000D01*
X11930200Y30726200D01*
X15329800Y30726200D01*
X19444600Y31496000D02*
X19444600Y33706600D01*
X19520000Y33782000D01*
X18285256Y27155400D02*
X19024656Y26416000D01*
X21082000Y26416000D01*
X23622000Y23876000D01*
X23622000Y19050000D01*
X20574000Y16002000D01*
X17158600Y16002000D01*
X16154400Y14997800D01*
X31985475Y2832000D02*
X33801475Y1016000D01*
X39624000Y1016000D01*
X42164000Y1016000D01*
X43497500Y2349500D01*
X43497500Y3231650D01*
X87920000Y28922000D02*
X95420000Y21422000D01*
X95420000Y19422000D01*
X41594375Y6852900D02*
X38379400Y6852900D01*
X41594375Y6852900D02*
X41752500Y7011025D01*
X39624000Y5608300D02*
X38379400Y6852900D01*
X39624000Y5608300D02*
X39624000Y1016000D01*
X10561300Y22204875D02*
X10561300Y22245300D01*
X11480800Y23164800D01*
X11480800Y26060575D01*
X10510500Y27030875D01*
X28448000Y25767400D02*
X30823800Y25767400D01*
X32766000Y23825200D01*
X32766000Y3612525D01*
X31985475Y2832000D01*
X23536000Y1420000D02*
X22124000Y2832000D01*
X23536000Y1420000D02*
X29094000Y1420000D01*
X30506000Y2832000D01*
X17158600Y16002000D02*
X14554200Y16002000D01*
X13995400Y16560800D01*
X7493000Y16560800D01*
X6705600Y15773400D01*
X6705600Y6248400D01*
X6858000Y6096000D01*
X8001000Y4953000D01*
X10820400Y4953000D01*
X14353400Y1420000D01*
X20712000Y1420000D01*
X22124000Y2832000D01*
X61214000Y20320000D02*
X61214000Y30505400D01*
X62992000Y32283400D01*
X95287700Y43180000D02*
X95287700Y43725700D01*
X78486000Y49530000D02*
X78041500Y49085500D01*
X78041500Y47498000D01*
X95420000Y19422000D02*
X95420000Y13378000D01*
X87884000Y5842000D01*
D40*
X87884000Y5842000D03*
D39*
X17010000Y24503000D02*
X17010000Y26353000D01*
X17010000Y24503000D02*
X16510000Y24003000D01*
X16510000Y25275344D01*
X1870000Y27933000D02*
X1870000Y36583000D01*
X17234744Y27155400D02*
X18285256Y27155400D01*
X17234744Y27155400D02*
X17010000Y26930656D01*
X17010000Y26353000D01*
X17010000Y25775344D01*
X16510000Y25275344D01*
X6705600Y6248400D02*
X6553200Y6096000D01*
X1420000Y6096000D01*
X6553200Y6096000D02*
X6858000Y6096000D01*
X1420000Y6096000D02*
X1016000Y6500000D01*
X1016000Y27079000D01*
X1870000Y27933000D01*
X95287700Y43180000D02*
X95287700Y43650300D01*
X94234000Y44704000D01*
X89916000Y44704000D01*
X87122000Y47498000D01*
X87122000Y49022000D01*
X86614000Y49530000D01*
X78486000Y49530000D01*
X65715003Y43871003D02*
X65715003Y42010700D01*
X71120000Y41617000D02*
X71145400Y41591600D01*
X71120000Y41617000D02*
X71120000Y42926000D01*
D40*
X71120000Y42926000D03*
X66267706Y44476294D03*
D39*
X66267706Y44423706D02*
X65715003Y43871003D01*
X66267706Y44423706D02*
X66267706Y44476294D01*
X94150000Y37930000D02*
X94150000Y36422000D01*
X94150000Y37930000D02*
X93536900Y38543100D01*
X93536900Y40386000D01*
X93536900Y43180000D01*
X89979500Y43180000D02*
X85661500Y47498000D01*
X89979500Y43180000D02*
X93536900Y43180000D01*
X75661500Y6343150D02*
X75661500Y3871750D01*
X76301600Y3231650D01*
X75661500Y6343150D02*
X70794900Y6343150D01*
X61843900Y6343150D02*
X61181750Y6343150D01*
X60579000Y5740400D01*
X60579000Y1955800D01*
X61569600Y965200D01*
X76301600Y965200D01*
X84810600Y965200D01*
X85852000Y2006600D01*
X85852000Y5103650D01*
X84612500Y6343150D01*
X76301600Y3231650D02*
X76301600Y965200D01*
X30540000Y39624000D02*
X25340000Y39624000D01*
X23548400Y40526600D02*
X22352000Y40526600D01*
X24451000Y39624000D02*
X25340000Y39624000D01*
X24451000Y39624000D02*
X23548400Y40526600D01*
X29464000Y40700000D02*
X30540000Y39624000D01*
X29464000Y40700000D02*
X29464000Y44704000D01*
X29464000Y47498000D01*
X29464000Y44704000D02*
X26319500Y44704000D01*
X10561300Y24539475D02*
X10434300Y24539475D01*
X9296400Y25677375D01*
X9296400Y25679400D01*
D40*
X9296400Y25679400D03*
D39*
X2352000Y24130000D02*
X2352000Y21318000D01*
X2352000Y24130000D02*
X2352000Y24500800D01*
X3683000Y25831800D01*
X9144000Y25831800D01*
X9296400Y25679400D01*
X18948400Y15041900D02*
X23169900Y15041900D01*
X27940000Y19812000D01*
X27940000Y21259800D01*
X27330400Y21869400D01*
D40*
X27330400Y21869400D03*
D39*
X10668000Y40563800D02*
X10668000Y40602000D01*
X10668000Y40563800D02*
X11607800Y39624000D01*
X13656000Y39624000D01*
X18856000Y39624000D01*
X21509400Y36970600D01*
X22352000Y36970600D01*
X22705400Y37324000D01*
X25340000Y37324000D01*
X17175500Y47498000D02*
X14381500Y44704000D01*
X17175500Y47498000D02*
X17526000Y47498000D01*
X17526000Y40954000D02*
X18856000Y39624000D01*
X17526000Y40954000D02*
X17526000Y47498000D01*
X33274000Y24130000D02*
X33274000Y5130800D01*
X35173150Y3231650D01*
X35877500Y3231650D01*
X27940000Y29464000D02*
X23622000Y33782000D01*
X23622000Y34290000D01*
D40*
X23622000Y34290000D03*
D39*
X27940000Y29464000D02*
X33274000Y24130000D01*
X25654000Y19877000D02*
X25589000Y19812000D01*
X25654000Y19877000D02*
X25654000Y24092000D01*
X28372600Y24092000D01*
X28448000Y24016600D01*
X14986000Y27666113D02*
X14986000Y28194000D01*
X15510000Y27142113D02*
X15510000Y26353000D01*
X15510000Y27142113D02*
X14986000Y27666113D01*
X24168000Y24092000D02*
X25654000Y24092000D01*
X15458600Y28666600D02*
X14986000Y28194000D01*
X15458600Y28666600D02*
X17413850Y28666600D01*
X19212050Y26868400D01*
X21391600Y26868400D01*
X24168000Y24092000D01*
X63765000Y33831000D02*
X63765000Y36312300D01*
X63765000Y33831000D02*
X63665200Y33731200D01*
X3373000Y43454200D02*
X2921000Y43002200D01*
X3373000Y43454200D02*
X5808000Y43454200D01*
X8666600Y43454200D01*
X9067800Y43053000D01*
X9067800Y37935800D01*
X10033000Y36970600D02*
X10668000Y36970600D01*
X10033000Y36970600D02*
X9067800Y37935800D01*
X10668000Y36970600D02*
X11021400Y37324000D01*
X13656000Y37324000D01*
X18479800Y37324000D01*
X20167600Y35636200D01*
X61760200Y35636200D01*
X63665200Y33731200D01*
X4953000Y42494200D02*
X2921000Y40462200D01*
X4953000Y42494200D02*
X7908000Y42494200D01*
X6230000Y31833000D02*
X13882600Y31833000D01*
X14136600Y31833000D02*
X15229800Y32926200D01*
X14136600Y31833000D02*
X13882600Y31833000D01*
D40*
X13882600Y31833000D03*
X16028294Y27692400D03*
D39*
X16010000Y27674106D02*
X16010000Y26353000D01*
X16010000Y27674106D02*
X16028294Y27692400D01*
X6230000Y32394713D02*
X6230000Y32683000D01*
X6230000Y32394713D02*
X5668288Y31833000D01*
X4880000Y31833000D01*
X14273544Y34284200D02*
X15805056Y34284200D01*
X12672344Y32683000D02*
X6230000Y32683000D01*
X12672344Y32683000D02*
X14273544Y34284200D01*
X17129800Y32959456D02*
X17129800Y32926200D01*
X17129800Y32959456D02*
X15805056Y34284200D01*
X16510000Y27105525D02*
X16510000Y26353000D01*
D40*
X17087094Y27911000D03*
D39*
X17087094Y27682619D01*
X16510000Y27105525D01*
D40*
X16279800Y31882650D03*
D39*
X16279800Y32076200D02*
X17129800Y32926200D01*
X16279800Y32076200D02*
X16279800Y31882650D01*
X18860000Y24003000D02*
X20447000Y24003000D01*
X21082000Y23368000D01*
X21082000Y20828000D01*
X18821400Y18567400D01*
X6908800Y18567400D01*
X4953000Y16611600D01*
X4953000Y13843000D01*
X3860800Y12750800D01*
X2921000Y12750800D01*
X18860000Y24503000D02*
X20963000Y24503000D01*
X21844000Y23622000D01*
X21844000Y20574000D01*
X19151600Y17881600D01*
X7162800Y17881600D01*
X5613400Y16332200D01*
X5613400Y12471400D01*
X3352800Y10210800D01*
X2921000Y10210800D01*
X77500500Y6343150D02*
X77500500Y5278100D01*
X78841600Y3937000D01*
X78841600Y3231650D01*
X89070000Y17010200D02*
X89070000Y19422000D01*
X89070000Y17010200D02*
X80975200Y8915400D01*
X78613000Y8915400D01*
X77500500Y7802900D01*
X77500500Y6343150D01*
X89070000Y19422000D02*
X89070000Y21674000D01*
X86106000Y24638000D01*
D40*
X86106000Y24638000D03*
X53086000Y28956000D03*
D39*
X47350000Y23220000D01*
X47350000Y17813000D01*
X82773500Y6343150D02*
X82773500Y5252700D01*
X81381600Y3860800D01*
X81381600Y3231650D01*
X92880000Y13479600D02*
X92880000Y19422000D01*
X92880000Y13479600D02*
X88493600Y9093200D01*
X85039200Y9093200D01*
X82773500Y6827500D01*
X82773500Y6343150D01*
X49890000Y17813000D02*
X49890000Y21442000D01*
X54610000Y26162000D01*
D40*
X54610000Y26162000D03*
X90932000Y22606000D03*
D39*
X92880000Y20658000D01*
X92880000Y19422000D01*
X67664997Y36312300D02*
X67664997Y38507003D01*
X65532000Y40640000D01*
X62738000Y40640000D01*
X62230000Y41148000D01*
X62230000Y46103600D01*
X60756800Y47576800D01*
X66364997Y38283003D02*
X66364997Y36312300D01*
X66364997Y38283003D02*
X65024000Y39624000D01*
X62230000Y39624000D01*
X61214000Y40640000D01*
X61214000Y43688000D01*
X58216800Y46685200D01*
X58216800Y47576800D01*
X65715000Y37409000D02*
X65715000Y36312300D01*
X65715000Y37409000D02*
X64516000Y38608000D01*
X56896000Y38608000D01*
X52374800Y43129200D01*
X52374800Y47576800D01*
X64415000Y37185000D02*
X64415000Y36312300D01*
X64415000Y37185000D02*
X64008000Y37592000D01*
X55626000Y37592000D01*
X49834800Y43383200D01*
X49834800Y47576800D01*
X19931000Y23503000D02*
X18860000Y23503000D01*
X19931000Y23503000D02*
X20320000Y23114000D01*
X20320000Y21082000D01*
X18415000Y19177000D01*
X6731000Y19177000D01*
X2921000Y15367000D01*
X2921000Y15290800D01*
X6223000Y11049000D02*
X2921000Y7747000D01*
X2921000Y7670800D01*
X6223000Y11049000D02*
X6223000Y16078200D01*
X7366000Y17221200D01*
X19761200Y17221200D01*
X22606000Y20066000D01*
X22606000Y23876000D01*
X20979000Y25503000D01*
X18860000Y25503000D01*
X17624000Y10832000D02*
X17624000Y2832000D01*
X78910000Y17645200D02*
X78910000Y19422000D01*
X15703300Y2832000D02*
X12878900Y5656400D01*
X15703300Y2832000D02*
X17624000Y2832000D01*
X77851000Y16586200D02*
X78910000Y17645200D01*
X77851000Y16586200D02*
X61468000Y16586200D01*
D40*
X61468000Y16586200D03*
D39*
X17968000Y11176000D02*
X17624000Y10832000D01*
X17968000Y11176000D02*
X19812000Y11176000D01*
D40*
X19812000Y11176000D03*
D39*
X35839400Y12501900D02*
X38763900Y12501900D01*
X38887400Y12378400D01*
X80180000Y31818400D02*
X80180000Y36422000D01*
X80180000Y31818400D02*
X73453775Y25092175D01*
X68238850Y25092175D01*
X78910000Y33647200D02*
X78910000Y36422000D01*
X78910000Y33647200D02*
X72892775Y27629975D01*
X68238850Y27629975D01*
X76370000Y34129800D02*
X76370000Y36422000D01*
X76370000Y34129800D02*
X72390000Y30149800D01*
X68238850Y30149800D01*
X68238850Y22555200D02*
X74752200Y22555200D01*
X76370000Y20937400D01*
X76370000Y19422000D01*
X66399850Y30149800D02*
X64020700Y30149800D01*
X64008000Y30162500D01*
X64015475Y27629975D02*
X66399850Y27629975D01*
X64015475Y27629975D02*
X64008000Y27622500D01*
X64017675Y25092175D02*
X66399850Y25092175D01*
X64017675Y25092175D02*
X64008000Y25082500D01*
X64020700Y22555200D02*
X66399850Y22555200D01*
X64020700Y22555200D02*
X64008000Y22542500D01*
X14376400Y9646900D02*
X13828900Y9099400D01*
X13828900Y7856400D01*
X11582400Y11485900D02*
X11902400Y11805900D01*
X11902400Y13276400D01*
X92880000Y36422000D02*
X92964000Y36338000D01*
X92964000Y34544000D01*
D40*
X92964000Y34544000D03*
D39*
X26006000Y10832000D02*
X26006000Y2832000D01*
X23635100Y13202900D02*
X18948400Y13202900D01*
X23635100Y13202900D02*
X26006000Y10832000D01*
X18904300Y13247000D02*
X16154400Y13247000D01*
X18904300Y13247000D02*
X18948400Y13202900D01*
X16154400Y13247000D02*
X13831800Y13247000D01*
X13802400Y13276400D01*
X26006000Y10832000D02*
X31496000Y16322000D01*
X31496000Y23114000D01*
D40*
X31496000Y23114000D03*
D39*
X63682900Y6343150D02*
X63682900Y5100300D01*
X64897000Y3886200D01*
X64897000Y3231650D01*
X85260000Y16375200D02*
X85260000Y19422000D01*
X85260000Y16375200D02*
X80853300Y11968500D01*
X65968900Y11968500D02*
X63682900Y9682500D01*
X63682900Y6343150D01*
X51685050Y4441050D02*
X51685050Y3201025D01*
X51685050Y4441050D02*
X59212500Y11968500D01*
X65968900Y11968500D01*
X80853300Y11968500D01*
X68955900Y6343150D02*
X68955900Y5074900D01*
X67437000Y3556000D01*
X67437000Y3231650D01*
X68955900Y6343150D02*
X68955900Y8021300D01*
X71780400Y10845800D01*
X81229200Y10845800D01*
X86530000Y16146600D01*
X86530000Y19422000D01*
X60676025Y10668000D02*
X54225050Y4217025D01*
X54225050Y3201025D01*
X60676025Y10668000D02*
X62230000Y10668000D01*
D40*
X62230000Y10668000D03*
X68326000Y9144000D03*
D39*
X68955900Y8514100D01*
X68955900Y8021300D01*
X37927400Y9143900D02*
X37927400Y10278400D01*
X37927400Y9143900D02*
X38379400Y8691900D01*
X35839400Y8691900D01*
X43591500Y9603400D02*
X43591500Y7011025D01*
X11743300Y7670800D02*
X8661400Y7670800D01*
X11743300Y7670800D02*
X11928900Y7856400D01*
X11928900Y9300400D02*
X11582400Y9646900D01*
X11928900Y9300400D02*
X11928900Y7856400D01*
X12852400Y11938000D02*
X12852400Y15476400D01*
X12852400Y11938000D02*
X13304500Y11485900D01*
X14376400Y11485900D01*
X12666800Y15290800D02*
X8661400Y15290800D01*
X12666800Y15290800D02*
X12852400Y15476400D01*
X82720000Y36422000D02*
X82720000Y37676000D01*
X81788000Y38608000D01*
D40*
X81788000Y38608000D03*
D39*
X81450000Y37676000D02*
X81450000Y36422000D01*
X81450000Y37676000D02*
X80518000Y38608000D01*
D40*
X80518000Y38608000D03*
D39*
X91610000Y19422000D02*
X91668600Y19363400D01*
X91668600Y16616700D01*
X12863825Y25003000D02*
X12400300Y24539475D01*
X12863825Y25003000D02*
X14160000Y25003000D01*
X12400300Y22820956D02*
X12400300Y22204875D01*
X13582344Y24003000D02*
X14160000Y24003000D01*
X13582344Y24003000D02*
X12400300Y22820956D01*
X5938500Y21318000D02*
X4252000Y21318000D01*
X4252000Y24130000D02*
X5938500Y24130000D01*
X7777500Y21318000D02*
X9334300Y19761200D01*
X16179800Y19761200D01*
X17010000Y20591400D01*
X17010000Y21653000D01*
X16510000Y21653000D02*
X16510000Y20828000D01*
X16078200Y20396200D01*
X10058400Y20396200D01*
X9194800Y21259800D01*
X9194800Y22758400D01*
X7823200Y24130000D01*
X7777500Y24130000D01*
X6230000Y30133000D02*
X4880000Y30133000D01*
X6230000Y30133000D02*
X9668975Y30133000D01*
X10485100Y29316875D01*
X4880000Y34383000D02*
X4406288Y34383000D01*
X4089400Y34066113D01*
X4089400Y30607000D01*
X4563400Y30133000D02*
X4880000Y30133000D01*
X4563400Y30133000D02*
X4089400Y30607000D01*
X4880000Y34383000D02*
X6230000Y34383000D01*
X18186400Y33705800D02*
X18186400Y31782800D01*
X17129800Y30726200D01*
X18671400Y29184600D01*
X19445400Y29184600D01*
X18186400Y33705800D02*
X16865600Y35026600D01*
X12666000Y34383000D02*
X6230000Y34383000D01*
X12666000Y34383000D02*
X13309600Y35026600D01*
X16865600Y35026600D01*
X15010000Y26646000D02*
X15010000Y26353000D01*
X15010000Y26646000D02*
X14224000Y27432000D01*
X14224000Y28702000D01*
X14732000Y29210000D01*
X17526000Y29210000D01*
X18796000Y27940000D01*
X20000800Y27940000D01*
X21245400Y29184600D01*
X21524800Y29464000D01*
X25589000Y29464000D01*
X21245400Y29184600D02*
X21245400Y31446000D01*
X21195400Y31496000D01*
X21195400Y33706600D01*
X21120000Y33782000D01*
D40*
X86614000Y11938000D03*
D39*
X90340000Y15664000D01*
X90340000Y19422000D01*
D40*
X90424000Y13208000D03*
D39*
X91668600Y14452600D01*
X91668600Y14777700D01*
X40957500Y3873500D02*
X40957500Y3231650D01*
X40957500Y3873500D02*
X42418000Y5334000D01*
X44196000Y5334000D01*
X44958000Y6096000D01*
X44958000Y10825500D01*
X43591500Y12192000D01*
X35839400Y6852900D02*
X38417500Y4274800D01*
X38417500Y3231650D01*
X35839400Y10662900D02*
X35046900Y10662900D01*
X34290000Y9906000D01*
X34290000Y7366000D01*
X34803100Y6852900D01*
X35839400Y6852900D01*
X80180000Y16426000D02*
X80180000Y19422000D01*
X80180000Y16426000D02*
X78232000Y14478000D01*
X41148000Y14478000D01*
X39847400Y13177400D01*
X39847400Y10278400D01*
X41752500Y9603400D02*
X41752500Y12192000D01*
X41752500Y12796500D01*
X42672000Y13716000D01*
X81026000Y13716000D01*
X83990000Y16680000D01*
X83990000Y19422000D01*
X12632125Y27030875D02*
X12349500Y27030875D01*
X12632125Y27030875D02*
X14160000Y25503000D01*
X12349500Y29291475D02*
X12324100Y29316875D01*
X12349500Y29291475D02*
X12349500Y27030875D01*
X24480500Y44704000D02*
X24480500Y47213500D01*
X24450000Y47244000D01*
X12512000Y47244000D02*
X12512000Y44734500D01*
X12542500Y44704000D01*
X77640000Y19422000D02*
X77640000Y17848400D01*
X77317600Y17526000D01*
X69931300Y17526000D01*
X68839100Y18618200D01*
X67000100Y18618200D02*
X64999100Y18618200D01*
X65065000Y42010700D02*
X65065000Y44745000D01*
X66040000Y45720000D01*
X72898000Y45720000D01*
X76454000Y42164000D01*
X83312000Y42164000D01*
X86530000Y38946000D01*
X86530000Y36422000D01*
X67015000Y42010700D02*
X67015000Y43393000D01*
X67310000Y43688000D01*
X71628000Y43688000D01*
X75692000Y39624000D01*
X82042000Y39624000D01*
X83990000Y37676000D01*
X83990000Y36422000D01*
X66365000Y42010700D02*
X66365000Y43505000D01*
X85250400Y36431600D02*
X85260000Y36422000D01*
X85250400Y36431600D02*
X85250400Y38071394D01*
X82681794Y40640000D01*
X75946000Y40640000D01*
X72136000Y44450000D01*
X67310000Y44450000D01*
X66365000Y43505000D01*
X64415003Y42010700D02*
X64415003Y45111003D01*
X66040000Y46736000D01*
X73660000Y46736000D01*
X76200000Y44196000D01*
X83566000Y44196000D01*
X87800000Y39962000D01*
X87800000Y36422000D01*
X63765000Y42010700D02*
X63765000Y45731000D01*
X65786000Y47752000D01*
X74168000Y47752000D01*
X76708000Y45212000D01*
X84328000Y45212000D01*
X89070000Y40470000D01*
X89070000Y36422000D01*
M02*
