G04 EAGLE Gerber X2 export*
%TF.Part,Single*%
%TF.FileFunction,Copper,L1,Top,Mixed*%
%TF.FilePolarity,Positive*%
%TF.GenerationSoftware,Autodesk,EAGLE,9.7.0*%
%TF.CreationDate,2022-05-12T22:12:44Z*%
G75*
%MOMM*%
%FSLAX46Y46*%
%LPD*%
%INTop Copper*%
%AMOC8*
5,1,8,0,0,1.08239X$1,22.5*%
G01*
G04 Define Apertures*
%ADD10R,1.164600X1.465300*%
%ADD11R,1.470000X1.020000*%
%ADD12R,1.465300X1.164600*%
%ADD13C,1.524000*%
%ADD14C,1.524000*%
%ADD15R,0.600000X1.500000*%
%ADD16R,1.500000X0.600000*%
%ADD17C,4.762500*%
%ADD18R,1.031200X1.420200*%
%ADD19R,1.420200X1.031200*%
%ADD20R,1.600000X1.400000*%
%ADD21R,5.500000X2.000000*%
%ADD22C,0.300000*%
G36*
X22756450Y3156475D02*
X22805144Y3191013D01*
X22836509Y3241809D01*
X22845750Y3293644D01*
X22845750Y3401000D01*
X23028469Y4082922D01*
X23381466Y4694325D01*
X23880675Y5193534D01*
X24492078Y5546531D01*
X25174000Y5729250D01*
X25880000Y5729250D01*
X26561922Y5546531D01*
X27173325Y5193534D01*
X27672534Y4694325D01*
X27948097Y4217041D01*
X27987638Y4172313D01*
X28041494Y4146550D01*
X28101131Y4143834D01*
X28157103Y4164594D01*
X28200547Y4205541D01*
X28224578Y4260191D01*
X28228000Y4292041D01*
X28228000Y37871959D01*
X28216119Y37930466D01*
X28182363Y37979703D01*
X28132072Y38011875D01*
X28073219Y38021884D01*
X28015122Y38008144D01*
X27966984Y37972834D01*
X27948097Y37946959D01*
X27672534Y37469675D01*
X27173325Y36970466D01*
X26561922Y36617469D01*
X25880000Y36434750D01*
X25174000Y36434750D01*
X24492078Y36617469D01*
X23880675Y36970466D01*
X23381466Y37469675D01*
X23028469Y38081078D01*
X22845750Y38763000D01*
X22845750Y39399566D01*
X22833869Y39458072D01*
X22800113Y39507309D01*
X22749822Y39539481D01*
X22690969Y39549491D01*
X22632872Y39535750D01*
X22584734Y39500441D01*
X22557169Y39456969D01*
X22373988Y39014725D01*
X21945275Y38586013D01*
X21385144Y38354000D01*
X20778856Y38354000D01*
X20218725Y38586013D01*
X19790013Y39014725D01*
X19558000Y39574856D01*
X19558000Y40181144D01*
X19790013Y40741275D01*
X20218725Y41169988D01*
X20778856Y41402000D01*
X21385144Y41402000D01*
X21945275Y41169988D01*
X22373988Y40741275D01*
X22606000Y40181144D01*
X22606000Y39713597D01*
X22617881Y39655091D01*
X22651638Y39605853D01*
X22701928Y39573681D01*
X22760781Y39563672D01*
X22818878Y39577413D01*
X22867016Y39612722D01*
X22900888Y39674775D01*
X23028469Y40150922D01*
X23381466Y40762325D01*
X23880675Y41261534D01*
X24480934Y41608097D01*
X24525663Y41647638D01*
X24551425Y41701494D01*
X24554141Y41761128D01*
X24533381Y41817103D01*
X24492434Y41860547D01*
X24437784Y41884578D01*
X24405934Y41888000D01*
X7979066Y41888000D01*
X7920559Y41876119D01*
X7871322Y41842363D01*
X7839150Y41792072D01*
X7829141Y41733219D01*
X7842881Y41675122D01*
X7878191Y41626984D01*
X7904066Y41608097D01*
X8504325Y41261534D01*
X9003534Y40762325D01*
X9356531Y40150922D01*
X9539250Y39469000D01*
X9539250Y38763000D01*
X9356531Y38081078D01*
X9003534Y37469675D01*
X8504325Y36970466D01*
X8140922Y36760653D01*
X8096194Y36721113D01*
X8070431Y36667256D01*
X8067716Y36607619D01*
X8088475Y36551647D01*
X8129422Y36508203D01*
X8184072Y36484172D01*
X8215922Y36480750D01*
X9462722Y36480750D01*
X9521228Y36492631D01*
X9568788Y36524684D01*
X9650966Y36606863D01*
X9683934Y36656631D01*
X9694900Y36712928D01*
X9694900Y37664366D01*
X9870634Y37840100D01*
X11150366Y37840100D01*
X11323934Y37666531D01*
X11373703Y37633563D01*
X11432391Y37622616D01*
X11490700Y37635428D01*
X11536066Y37666531D01*
X11728803Y37859269D01*
X11761772Y37909038D01*
X11772719Y37967725D01*
X11759906Y38026034D01*
X11728803Y38071400D01*
X11545678Y38254525D01*
X11384000Y38644853D01*
X11384000Y40591347D01*
X11545678Y40981675D01*
X11844425Y41280422D01*
X12234753Y41442100D01*
X12657247Y41442100D01*
X13047575Y41280422D01*
X13346322Y40981675D01*
X13508000Y40591347D01*
X13508000Y38644853D01*
X13346322Y38254525D01*
X13066697Y37974900D01*
X13033728Y37925131D01*
X13022781Y37866444D01*
X13035594Y37808134D01*
X13066697Y37762769D01*
X13165100Y37664366D01*
X13165100Y36002500D01*
X13176981Y35943994D01*
X13210738Y35894756D01*
X13261028Y35862584D01*
X13315100Y35852500D01*
X13957700Y35852500D01*
X14016206Y35864381D01*
X14065444Y35898138D01*
X14097616Y35948428D01*
X14107700Y36002500D01*
X14107700Y36042366D01*
X14281269Y36215934D01*
X14314238Y36265703D01*
X14325184Y36324391D01*
X14312372Y36382700D01*
X14281269Y36428066D01*
X14107700Y36601634D01*
X14107700Y37881366D01*
X14177203Y37950869D01*
X14210172Y38000638D01*
X14221119Y38059325D01*
X14208306Y38117634D01*
X14177203Y38163000D01*
X14085678Y38254525D01*
X13924000Y38644853D01*
X13924000Y40591347D01*
X14085678Y40981675D01*
X14384425Y41280422D01*
X14774753Y41442100D01*
X15197247Y41442100D01*
X15587575Y41280422D01*
X15886322Y40981675D01*
X16048000Y40591347D01*
X16048000Y38644853D01*
X15886138Y38254081D01*
X15874725Y38195481D01*
X15887069Y38137075D01*
X15918653Y38090613D01*
X16127900Y37881366D01*
X16127900Y36601634D01*
X15954331Y36428066D01*
X15921363Y36378297D01*
X15910416Y36319609D01*
X15923228Y36261300D01*
X15954331Y36215934D01*
X16127900Y36042366D01*
X16127900Y34762634D01*
X15952166Y34586900D01*
X14283434Y34586900D01*
X14107700Y34762634D01*
X14107700Y34802500D01*
X14095819Y34861006D01*
X14062063Y34910244D01*
X14011772Y34942416D01*
X13957700Y34952500D01*
X8718028Y34952500D01*
X8659522Y34940619D01*
X8610284Y34906863D01*
X8578113Y34856572D01*
X8568103Y34797719D01*
X8581844Y34739622D01*
X8611963Y34696434D01*
X9322463Y33985934D01*
X9372231Y33952966D01*
X9428528Y33942000D01*
X9736000Y33942000D01*
X9794506Y33953881D01*
X9843744Y33987638D01*
X9875916Y34037928D01*
X9886000Y34092000D01*
X9886000Y34316266D01*
X10061734Y34492000D01*
X11910266Y34492000D01*
X12086000Y34316266D01*
X12086000Y34092000D01*
X12097881Y34033494D01*
X12131638Y33984256D01*
X12181928Y33952084D01*
X12236000Y33942000D01*
X17537472Y33942000D01*
X17595978Y33953881D01*
X17645216Y33987638D01*
X17677388Y34037928D01*
X17687397Y34096781D01*
X17673656Y34154878D01*
X17643538Y34198066D01*
X17172500Y34669103D01*
X17172500Y35669900D01*
X17160619Y35728406D01*
X17126863Y35777644D01*
X17076572Y35809816D01*
X17022500Y35819900D01*
X16982634Y35819900D01*
X16806900Y35995634D01*
X16806900Y37664366D01*
X16905303Y37762769D01*
X16938272Y37812538D01*
X16949219Y37871225D01*
X16936406Y37929534D01*
X16905303Y37974900D01*
X16625678Y38254525D01*
X16464000Y38644853D01*
X16464000Y40591347D01*
X16625678Y40981675D01*
X16924425Y41280422D01*
X17314753Y41442100D01*
X17737247Y41442100D01*
X18127575Y41280422D01*
X18426322Y40981675D01*
X18588000Y40591347D01*
X18588000Y38644853D01*
X18426322Y38254525D01*
X18243197Y38071400D01*
X18210228Y38021631D01*
X18199281Y37962944D01*
X18212094Y37904634D01*
X18243197Y37859269D01*
X18435934Y37666531D01*
X18485703Y37633563D01*
X18544391Y37622616D01*
X18602700Y37635428D01*
X18648066Y37666531D01*
X18821634Y37840100D01*
X20101366Y37840100D01*
X20277100Y37664366D01*
X20277100Y35995634D01*
X20126194Y35844728D01*
X20093225Y35794959D01*
X20082278Y35736272D01*
X20095091Y35677963D01*
X20126194Y35632597D01*
X20940000Y34818791D01*
X20940000Y29804528D01*
X20951881Y29746022D01*
X20985638Y29696784D01*
X21035928Y29664613D01*
X21094781Y29654603D01*
X21152878Y29668344D01*
X21196066Y29698463D01*
X21538256Y30040653D01*
X21571225Y30090422D01*
X21582172Y30149109D01*
X21570772Y30204122D01*
X21544000Y30268753D01*
X21544000Y30691247D01*
X21705678Y31081575D01*
X22004425Y31380322D01*
X22394753Y31542000D01*
X24341247Y31542000D01*
X24731575Y31380322D01*
X25030322Y31081575D01*
X25192000Y30691247D01*
X25192000Y30268753D01*
X25030322Y29878425D01*
X24731575Y29579678D01*
X24341247Y29418000D01*
X22394756Y29418000D01*
X22341431Y29440088D01*
X22282834Y29451497D01*
X22224425Y29439150D01*
X22177966Y29407569D01*
X21865553Y29095156D01*
X21832584Y29045388D01*
X21821638Y28986700D01*
X21834450Y28928391D01*
X21868988Y28879697D01*
X21919784Y28848331D01*
X21978791Y28839263D01*
X22029022Y28850509D01*
X22394753Y29002000D01*
X24341247Y29002000D01*
X24731575Y28840322D01*
X25030322Y28541575D01*
X25192000Y28151247D01*
X25192000Y27728753D01*
X25030322Y27338425D01*
X24731575Y27039678D01*
X24341247Y26878000D01*
X23004528Y26878000D01*
X22946022Y26866119D01*
X22898463Y26834066D01*
X22782463Y26718066D01*
X22749494Y26668297D01*
X22738547Y26609609D01*
X22751359Y26551300D01*
X22785897Y26502606D01*
X22836694Y26471241D01*
X22888528Y26462000D01*
X24341247Y26462000D01*
X24731575Y26300322D01*
X25030322Y26001575D01*
X25192000Y25611247D01*
X25192000Y25188753D01*
X25030322Y24798425D01*
X24731575Y24499678D01*
X24341247Y24338000D01*
X23004528Y24338000D01*
X22946022Y24326119D01*
X22898463Y24294066D01*
X22782463Y24178066D01*
X22749494Y24128297D01*
X22738547Y24069609D01*
X22751359Y24011300D01*
X22785897Y23962606D01*
X22836694Y23931241D01*
X22888528Y23922000D01*
X24341247Y23922000D01*
X24731575Y23760322D01*
X25030322Y23461575D01*
X25192000Y23071247D01*
X25192000Y22648753D01*
X25030322Y22258425D01*
X24731575Y21959678D01*
X24341247Y21798000D01*
X22394750Y21798000D01*
X22335775Y21822428D01*
X22277178Y21833841D01*
X22218769Y21821497D01*
X22172309Y21789913D01*
X21851897Y21469500D01*
X21818928Y21419731D01*
X21807981Y21361044D01*
X21820794Y21302734D01*
X21855331Y21254041D01*
X21906128Y21222675D01*
X21965134Y21213606D01*
X22015366Y21224853D01*
X22394753Y21382000D01*
X24341247Y21382000D01*
X24731575Y21220322D01*
X25030322Y20921575D01*
X25192000Y20531247D01*
X25192000Y20108753D01*
X25030322Y19718425D01*
X24731575Y19419678D01*
X24341247Y19258000D01*
X22888528Y19258000D01*
X22830022Y19246119D01*
X22780784Y19212363D01*
X22748613Y19162072D01*
X22738603Y19103219D01*
X22752344Y19045122D01*
X22782463Y19001934D01*
X22898463Y18885934D01*
X22948231Y18852966D01*
X23004528Y18842000D01*
X24341247Y18842000D01*
X24731575Y18680322D01*
X25030322Y18381575D01*
X25192000Y17991247D01*
X25192000Y17568753D01*
X25030322Y17178425D01*
X24731575Y16879678D01*
X24341247Y16718000D01*
X22888528Y16718000D01*
X22830022Y16706119D01*
X22780784Y16672363D01*
X22748613Y16622072D01*
X22738603Y16563219D01*
X22752344Y16505122D01*
X22782463Y16461934D01*
X22898463Y16345934D01*
X22948231Y16312966D01*
X23004528Y16302000D01*
X24341247Y16302000D01*
X24731575Y16140322D01*
X25030322Y15841575D01*
X25192000Y15451247D01*
X25192000Y15028753D01*
X25030322Y14638425D01*
X24731575Y14339678D01*
X24341247Y14178000D01*
X22952497Y14178000D01*
X22893991Y14166119D01*
X22844753Y14132363D01*
X22812581Y14082072D01*
X22802572Y14023219D01*
X22816313Y13965122D01*
X22846431Y13921934D01*
X22962431Y13805934D01*
X23012200Y13772966D01*
X23068497Y13762000D01*
X24341247Y13762000D01*
X24731575Y13600322D01*
X25030322Y13301575D01*
X25192000Y12911247D01*
X25192000Y12488753D01*
X25030322Y12098425D01*
X24731575Y11799678D01*
X24341247Y11638000D01*
X22952497Y11638000D01*
X22893991Y11626119D01*
X22844753Y11592363D01*
X22812581Y11542072D01*
X22802572Y11483219D01*
X22816313Y11425122D01*
X22846431Y11381934D01*
X22962431Y11265934D01*
X23012200Y11232966D01*
X23068497Y11222000D01*
X24341247Y11222000D01*
X24731575Y11060322D01*
X25030322Y10761575D01*
X25192000Y10371247D01*
X25192000Y9948753D01*
X25030322Y9558425D01*
X24731575Y9259678D01*
X24341247Y9098000D01*
X22394753Y9098000D01*
X22004425Y9259678D01*
X21705678Y9558425D01*
X21550581Y9932866D01*
X21517219Y9982372D01*
X21467188Y10014941D01*
X21408413Y10025419D01*
X21350209Y10012144D01*
X21301794Y9977219D01*
X21270831Y9926175D01*
X21262000Y9875463D01*
X21262000Y8933334D01*
X21086266Y8757600D01*
X17223400Y8757600D01*
X17164894Y8745719D01*
X17115656Y8711963D01*
X17083484Y8661672D01*
X17073400Y8607600D01*
X17073400Y7024650D01*
X17085281Y6966144D01*
X17119038Y6916906D01*
X17169328Y6884734D01*
X17223400Y6874650D01*
X17329966Y6874650D01*
X17505700Y6698916D01*
X17505700Y4985084D01*
X17329966Y4809350D01*
X15916838Y4809350D01*
X15821544Y4904647D01*
X15771772Y4937616D01*
X15713084Y4948563D01*
X15654778Y4935753D01*
X15609409Y4904647D01*
X15560113Y4855350D01*
X14948800Y4855350D01*
X14948800Y6828650D01*
X15560109Y6828650D01*
X15609409Y6779353D01*
X15659181Y6746384D01*
X15717869Y6735441D01*
X15776178Y6748253D01*
X15821541Y6779356D01*
X15916834Y6874650D01*
X16023400Y6874650D01*
X16081906Y6886531D01*
X16131144Y6920288D01*
X16163316Y6970578D01*
X16173400Y7024650D01*
X16173400Y8607600D01*
X16161519Y8666106D01*
X16127763Y8715344D01*
X16077472Y8747516D01*
X16023400Y8757600D01*
X15337734Y8757600D01*
X15162000Y8933334D01*
X15162000Y11181866D01*
X15337734Y11357600D01*
X17109800Y11357600D01*
X17168306Y11369481D01*
X17217544Y11403238D01*
X17249716Y11453528D01*
X17259800Y11507600D01*
X17259800Y13620678D01*
X17247919Y13679184D01*
X17214163Y13728422D01*
X17163872Y13760594D01*
X17105019Y13770603D01*
X17046922Y13756863D01*
X17003734Y13726744D01*
X12732991Y9456000D01*
X11916600Y9456000D01*
X11858094Y9444119D01*
X11808856Y9410363D01*
X11776684Y9360072D01*
X11766600Y9306000D01*
X11766600Y7024650D01*
X11778481Y6966144D01*
X11812238Y6916906D01*
X11862528Y6884734D01*
X11916600Y6874650D01*
X12023163Y6874650D01*
X12118463Y6779353D01*
X12168234Y6746388D01*
X12226922Y6735441D01*
X12285228Y6748253D01*
X12330594Y6779356D01*
X12379888Y6828650D01*
X12991200Y6828650D01*
X12991200Y4855350D01*
X12379891Y4855350D01*
X12330597Y4904647D01*
X12280828Y4937616D01*
X12222141Y4948563D01*
X12163831Y4935753D01*
X12118463Y4904647D01*
X12023166Y4809350D01*
X10610034Y4809350D01*
X10434300Y4985084D01*
X10434300Y6698916D01*
X10610034Y6874650D01*
X10716600Y6874650D01*
X10775106Y6886531D01*
X10824344Y6920288D01*
X10856516Y6970578D01*
X10866600Y7024650D01*
X10866600Y8607600D01*
X10854719Y8666106D01*
X10820963Y8715344D01*
X10770672Y8747516D01*
X10716600Y8757600D01*
X5837734Y8757600D01*
X5728066Y8867269D01*
X5678297Y8900238D01*
X5619609Y8911184D01*
X5561300Y8898372D01*
X5512606Y8863834D01*
X5481241Y8813038D01*
X5472000Y8761203D01*
X5472000Y8645603D01*
X4604213Y7777816D01*
X4571244Y7728047D01*
X4560297Y7669359D01*
X4573109Y7611050D01*
X4604213Y7565684D01*
X4710322Y7459575D01*
X4872000Y7069247D01*
X4872000Y6646753D01*
X4710322Y6256425D01*
X4411575Y5957678D01*
X4021247Y5796000D01*
X2074753Y5796000D01*
X1684425Y5957678D01*
X1385678Y6256425D01*
X1224000Y6646753D01*
X1224000Y7069247D01*
X1385678Y7459575D01*
X1684425Y7758322D01*
X2074753Y7920000D01*
X3411472Y7920000D01*
X3469978Y7931881D01*
X3517538Y7963934D01*
X3679538Y8125934D01*
X3712506Y8175703D01*
X3723453Y8234391D01*
X3710641Y8292700D01*
X3676103Y8341394D01*
X3625306Y8372759D01*
X3573472Y8382000D01*
X3124200Y8382000D01*
X3124200Y10414000D01*
X4012097Y10414000D01*
X4364597Y10267991D01*
X4423197Y10256578D01*
X4481606Y10268922D01*
X4530572Y10303072D01*
X4562341Y10353616D01*
X4572000Y10406572D01*
X4572000Y12255472D01*
X4560119Y12313978D01*
X4528066Y12361538D01*
X4485166Y12404438D01*
X4435397Y12437406D01*
X4376709Y12448353D01*
X4318400Y12435541D01*
X4269706Y12401003D01*
X4238341Y12350206D01*
X4229100Y12298372D01*
X4229100Y12014200D01*
X3535700Y12014200D01*
X3535700Y12902100D01*
X3625372Y12902100D01*
X3683878Y12913981D01*
X3733116Y12947738D01*
X3765288Y12998028D01*
X3775297Y13056881D01*
X3761556Y13114978D01*
X3731438Y13158166D01*
X3705238Y13184366D01*
X3655469Y13217334D01*
X3599172Y13228300D01*
X2200834Y13228300D01*
X2025100Y13404034D01*
X2025100Y14817166D01*
X2120397Y14912463D01*
X2153366Y14962231D01*
X2164313Y15020919D01*
X2151500Y15079228D01*
X2120397Y15124597D01*
X2071100Y15173891D01*
X2071100Y15785200D01*
X4044400Y15785200D01*
X4044400Y15173888D01*
X3995106Y15124594D01*
X3962138Y15074825D01*
X3951191Y15016138D01*
X3964003Y14957828D01*
X3995103Y14912463D01*
X4090400Y14817163D01*
X4090400Y14710600D01*
X4102281Y14652094D01*
X4136038Y14602856D01*
X4186328Y14570684D01*
X4240400Y14560600D01*
X4346350Y14560600D01*
X4404856Y14572481D01*
X4454094Y14606238D01*
X4486266Y14656528D01*
X4496350Y14710600D01*
X4496350Y14753266D01*
X4588547Y14845463D01*
X4621516Y14895231D01*
X4632463Y14953919D01*
X4619650Y15012228D01*
X4588547Y15057597D01*
X4542350Y15103791D01*
X4542350Y15642800D01*
X6520350Y15642800D01*
X6520350Y15103788D01*
X6474156Y15057594D01*
X6441188Y15007825D01*
X6430241Y14949138D01*
X6443053Y14890828D01*
X6474153Y14845463D01*
X6566350Y14753263D01*
X6566350Y14719000D01*
X6578231Y14660494D01*
X6611988Y14611256D01*
X6662278Y14579084D01*
X6716350Y14569000D01*
X6841400Y14569000D01*
X6899906Y14580881D01*
X6949144Y14614638D01*
X6981316Y14664928D01*
X6991400Y14719000D01*
X6991400Y14769866D01*
X7086697Y14865163D01*
X7119666Y14914931D01*
X7130613Y14973619D01*
X7117800Y15031928D01*
X7086697Y15077297D01*
X7037400Y15126591D01*
X7037400Y15737900D01*
X9010700Y15737900D01*
X9010700Y15126588D01*
X8961406Y15077294D01*
X8928438Y15027525D01*
X8917491Y14968838D01*
X8930303Y14910528D01*
X8961403Y14865163D01*
X9056700Y14769863D01*
X9056700Y14501828D01*
X9068581Y14443322D01*
X9100634Y14395763D01*
X9540463Y13955934D01*
X9590231Y13922966D01*
X9646528Y13912000D01*
X13467472Y13912000D01*
X13525978Y13923881D01*
X13573538Y13955934D01*
X14015866Y14398263D01*
X14048834Y14448031D01*
X14059800Y14504328D01*
X14059800Y14509600D01*
X14047919Y14568106D01*
X14014163Y14617344D01*
X13963872Y14649516D01*
X13909800Y14659600D01*
X13786000Y14659600D01*
X13786000Y16667600D01*
X13977403Y16667600D01*
X14035909Y16679481D01*
X14083469Y16711534D01*
X14085534Y16713600D01*
X14934066Y16713600D01*
X14936131Y16711534D01*
X14985900Y16678566D01*
X15042197Y16667600D01*
X15233600Y16667600D01*
X15233600Y15587400D01*
X15386000Y15587400D01*
X15386000Y16667600D01*
X15509800Y16667600D01*
X15568306Y16679481D01*
X15617544Y16713238D01*
X15649716Y16763528D01*
X15659800Y16817600D01*
X15659800Y19852197D01*
X16415866Y20608263D01*
X16448834Y20658031D01*
X16459800Y20714328D01*
X16459800Y22963600D01*
X16447919Y23022106D01*
X16414163Y23071344D01*
X16363872Y23103516D01*
X16309800Y23113600D01*
X14885534Y23113600D01*
X14883469Y23115666D01*
X14833700Y23148634D01*
X14777403Y23159600D01*
X14586000Y23159600D01*
X14586000Y24239800D01*
X14433600Y24239800D01*
X14433600Y23159600D01*
X14242197Y23159600D01*
X14183691Y23147719D01*
X14136131Y23115666D01*
X14134066Y23113600D01*
X11859800Y23113600D01*
X11801294Y23101719D01*
X11752056Y23067963D01*
X11719884Y23017672D01*
X11709800Y22963600D01*
X11709800Y16863600D01*
X11721681Y16805094D01*
X11755438Y16755856D01*
X11805728Y16723684D01*
X11859800Y16713600D01*
X13334066Y16713600D01*
X13336131Y16711534D01*
X13385900Y16678566D01*
X13442197Y16667600D01*
X13633600Y16667600D01*
X13633600Y14659600D01*
X13442197Y14659600D01*
X13383691Y14647719D01*
X13336131Y14615666D01*
X13334066Y14613600D01*
X11685534Y14613600D01*
X11509800Y14789334D01*
X11509800Y15063600D01*
X11497919Y15122106D01*
X11464163Y15171344D01*
X11413872Y15203516D01*
X11359800Y15213600D01*
X10058003Y15213600D01*
X9266766Y16004838D01*
X9216997Y16037806D01*
X9158309Y16048753D01*
X9100000Y16035941D01*
X9051306Y16001403D01*
X9019941Y15950606D01*
X9010700Y15898772D01*
X9010700Y15890300D01*
X7037400Y15890300D01*
X7037400Y16501613D01*
X7101722Y16565934D01*
X7134691Y16615703D01*
X7145638Y16674391D01*
X7132825Y16732700D01*
X7098288Y16781394D01*
X7047491Y16812759D01*
X6995656Y16822000D01*
X4133444Y16822000D01*
X4074938Y16810119D01*
X4025700Y16776363D01*
X3993528Y16726072D01*
X3983519Y16667219D01*
X3997259Y16609122D01*
X4027378Y16565934D01*
X4044400Y16548913D01*
X4044400Y15937600D01*
X2071100Y15937600D01*
X2071100Y16548913D01*
X2088122Y16565934D01*
X2121091Y16615703D01*
X2132038Y16674391D01*
X2119225Y16732700D01*
X2084688Y16781394D01*
X2033891Y16812759D01*
X1982056Y16822000D01*
X1698647Y16822000D01*
X1640141Y16810119D01*
X1592581Y16778066D01*
X894834Y16080319D01*
X861866Y16030550D01*
X850900Y15974253D01*
X850900Y13052100D01*
X862781Y12993594D01*
X896538Y12944356D01*
X946828Y12912184D01*
X1000900Y12902100D01*
X1544300Y12902100D01*
X1544300Y10973900D01*
X1000900Y10973900D01*
X942394Y10962019D01*
X893156Y10928263D01*
X860984Y10877972D01*
X850900Y10823900D01*
X850900Y6197628D01*
X862781Y6139122D01*
X894834Y6091563D01*
X1920463Y5065934D01*
X1970231Y5032966D01*
X2026528Y5022000D01*
X3875478Y5022000D01*
X3933984Y5033881D01*
X3981544Y5065934D01*
X5244859Y6329250D01*
X8531147Y6329250D01*
X10810463Y4049934D01*
X10860231Y4016966D01*
X10916528Y4006000D01*
X19563472Y4006000D01*
X19621978Y4017881D01*
X19669538Y4049934D01*
X22082466Y6462863D01*
X22115434Y6512631D01*
X22126381Y6571319D01*
X22113569Y6629628D01*
X22079031Y6678322D01*
X22033803Y6707509D01*
X22004425Y6719678D01*
X21705678Y7018425D01*
X21544000Y7408753D01*
X21544000Y7831247D01*
X21705678Y8221575D01*
X22004425Y8520322D01*
X22394753Y8682000D01*
X24341247Y8682000D01*
X24731575Y8520322D01*
X25030322Y8221575D01*
X25192000Y7831247D01*
X25192000Y7408753D01*
X25030322Y7018425D01*
X24731575Y6719678D01*
X24341247Y6558000D01*
X23512528Y6558000D01*
X23454022Y6546119D01*
X23406463Y6514066D01*
X20958463Y4066066D01*
X20925494Y4016297D01*
X20914547Y3957609D01*
X20927359Y3899300D01*
X20961897Y3850606D01*
X21012694Y3819241D01*
X21064528Y3810000D01*
X21639144Y3810000D01*
X22199275Y3577988D01*
X22589684Y3187578D01*
X22639453Y3154609D01*
X22698141Y3143663D01*
X22756450Y3156475D01*
G37*
%LPC*%
G36*
X21590000Y33096200D02*
X21590000Y33222097D01*
X21744675Y33595519D01*
X22030481Y33881325D01*
X22403903Y34036000D01*
X23291800Y34036000D01*
X23291800Y33096200D01*
X21590000Y33096200D01*
G37*
G36*
X23444200Y33096200D02*
X23444200Y34036000D01*
X24332097Y34036000D01*
X24705519Y33881325D01*
X24991325Y33595519D01*
X25146000Y33222097D01*
X25146000Y33096200D01*
X23444200Y33096200D01*
G37*
G36*
X23444200Y32004000D02*
X23444200Y32943800D01*
X25146000Y32943800D01*
X25146000Y32817903D01*
X24991325Y32444481D01*
X24705519Y32158675D01*
X24332097Y32004000D01*
X23444200Y32004000D01*
G37*
G36*
X22403903Y32004000D02*
X22030481Y32158675D01*
X21744675Y32444481D01*
X21590000Y32817903D01*
X21590000Y32943800D01*
X23291800Y32943800D01*
X23291800Y32004000D01*
X22403903Y32004000D01*
G37*
G36*
X4542350Y15795200D02*
X4542350Y16334213D01*
X4691138Y16483000D01*
X5455150Y16483000D01*
X5455150Y15795200D01*
X4542350Y15795200D01*
G37*
G36*
X5607550Y15795200D02*
X5607550Y16483000D01*
X6371563Y16483000D01*
X6520350Y16334213D01*
X6520350Y15795200D01*
X5607550Y15795200D01*
G37*
G36*
X1696700Y10973900D02*
X1696700Y12902100D01*
X2241313Y12902100D01*
X2433934Y12709478D01*
X2483703Y12676509D01*
X2542391Y12665563D01*
X2600700Y12678375D01*
X2646066Y12709478D01*
X2838688Y12902100D01*
X3383300Y12902100D01*
X3383300Y10973900D01*
X2838688Y10973900D01*
X2646066Y11166522D01*
X2596297Y11199491D01*
X2537609Y11210438D01*
X2479300Y11197625D01*
X2433934Y11166522D01*
X2241313Y10973900D01*
X1696700Y10973900D01*
G37*
G36*
X3535700Y10973900D02*
X3535700Y11861800D01*
X4229100Y11861800D01*
X4229100Y11122688D01*
X4080313Y10973900D01*
X3535700Y10973900D01*
G37*
G36*
X1270000Y9474200D02*
X1270000Y9600097D01*
X1424675Y9973519D01*
X1710481Y10259325D01*
X2083903Y10414000D01*
X2971800Y10414000D01*
X2971800Y9474200D01*
X1270000Y9474200D01*
G37*
G36*
X2083903Y8382000D02*
X1710481Y8536675D01*
X1424675Y8822481D01*
X1270000Y9195903D01*
X1270000Y9321800D01*
X2971800Y9321800D01*
X2971800Y8382000D01*
X2083903Y8382000D01*
G37*
G36*
X13143600Y4855350D02*
X13143600Y6828650D01*
X13754913Y6828650D01*
X13863934Y6719628D01*
X13913703Y6686659D01*
X13972391Y6675713D01*
X14030700Y6688525D01*
X14076066Y6719628D01*
X14185088Y6828650D01*
X14796400Y6828650D01*
X14796400Y4855350D01*
X14185088Y4855350D01*
X14076066Y4964372D01*
X14026297Y4997341D01*
X13967609Y5008288D01*
X13909300Y4995475D01*
X13863934Y4964372D01*
X13754913Y4855350D01*
X13143600Y4855350D01*
G37*
%LPD*%
G36*
X11418306Y23325481D02*
X11467544Y23359238D01*
X11499716Y23409528D01*
X11509800Y23463600D01*
X11509800Y25037866D01*
X11685534Y25213600D01*
X14196197Y25213600D01*
X14254703Y25225481D01*
X14303941Y25259238D01*
X14336113Y25309528D01*
X14346122Y25368381D01*
X14332381Y25426478D01*
X14302263Y25469666D01*
X14178513Y25593416D01*
X14128744Y25626384D01*
X14072447Y25637350D01*
X13658034Y25637350D01*
X13482300Y25813084D01*
X13482300Y27526916D01*
X13658034Y27702650D01*
X15071163Y27702650D01*
X15166463Y27607353D01*
X15216234Y27574388D01*
X15274922Y27563441D01*
X15333228Y27576253D01*
X15378594Y27607356D01*
X15427888Y27656650D01*
X16039200Y27656650D01*
X16039200Y25683350D01*
X15723503Y25683350D01*
X15664997Y25671469D01*
X15615759Y25637713D01*
X15583588Y25587422D01*
X15573578Y25528569D01*
X15587319Y25470472D01*
X15617438Y25427284D01*
X15717109Y25327613D01*
X15721681Y25305094D01*
X15755438Y25255856D01*
X15805728Y25223684D01*
X15859800Y25213600D01*
X16374878Y25213600D01*
X16433384Y25225481D01*
X16480944Y25257534D01*
X16650694Y25427284D01*
X16683663Y25477053D01*
X16694609Y25535741D01*
X16681797Y25594050D01*
X16647259Y25642744D01*
X16596463Y25674109D01*
X16544628Y25683350D01*
X16191600Y25683350D01*
X16191600Y26593800D01*
X16951700Y26593800D01*
X16951700Y26090422D01*
X16963581Y26031916D01*
X16997338Y25982678D01*
X17047628Y25950506D01*
X17106481Y25940497D01*
X17164578Y25954238D01*
X17207766Y25984356D01*
X17545009Y26321600D01*
X18007466Y26321600D01*
X18065972Y26333481D01*
X18113531Y26365534D01*
X19529931Y27781934D01*
X19562900Y27831703D01*
X19573847Y27890391D01*
X19561034Y27948700D01*
X19526497Y27997394D01*
X19475700Y28028759D01*
X19423866Y28038000D01*
X19062200Y28038000D01*
X19062200Y29946000D01*
X19890000Y29946000D01*
X19948506Y29957881D01*
X19997744Y29991638D01*
X20029916Y30041928D01*
X20040000Y30096000D01*
X20040000Y32342000D01*
X20028119Y32400506D01*
X19994363Y32449744D01*
X19944072Y32481916D01*
X19890000Y32492000D01*
X18061734Y32492000D01*
X17886000Y32667734D01*
X17886000Y32892000D01*
X17874119Y32950506D01*
X17840363Y32999744D01*
X17790072Y33031916D01*
X17736000Y33042000D01*
X12236000Y33042000D01*
X12177494Y33030119D01*
X12128256Y32996363D01*
X12096084Y32946072D01*
X12086000Y32892000D01*
X12086000Y32667734D01*
X11910266Y32492000D01*
X10061734Y32492000D01*
X9886000Y32667734D01*
X9886000Y32892000D01*
X9874119Y32950506D01*
X9840363Y32999744D01*
X9790072Y33031916D01*
X9736000Y33042000D01*
X8993603Y33042000D01*
X7698788Y34336816D01*
X7649019Y34369784D01*
X7592722Y34380750D01*
X3560716Y34380750D01*
X3502209Y34368869D01*
X3454650Y34336816D01*
X2491934Y33374100D01*
X2458966Y33324331D01*
X2448000Y33268034D01*
X2448000Y33007081D01*
X2459881Y32948575D01*
X2493638Y32899338D01*
X2543928Y32867166D01*
X2602781Y32857156D01*
X2660878Y32870897D01*
X2709016Y32906206D01*
X2736581Y32949678D01*
X2909678Y33367575D01*
X3208425Y33666322D01*
X3598753Y33828000D01*
X5545247Y33828000D01*
X5935575Y33666322D01*
X6234322Y33367575D01*
X6258750Y33308600D01*
X6292113Y33259094D01*
X6342144Y33226522D01*
X6397331Y33216000D01*
X7552397Y33216000D01*
X9848000Y30920397D01*
X9848000Y30075344D01*
X9859881Y30016838D01*
X9893638Y29967600D01*
X9943928Y29935428D01*
X10002781Y29925419D01*
X10060878Y29939159D01*
X10070688Y29946000D01*
X10909800Y29946000D01*
X10909800Y28038000D01*
X10068925Y28038000D01*
X10054297Y28047691D01*
X9995609Y28058638D01*
X9937300Y28045825D01*
X9888606Y28011288D01*
X9857241Y27960491D01*
X9848000Y27908656D01*
X9848000Y23463600D01*
X9859881Y23405094D01*
X9893638Y23355856D01*
X9943928Y23323684D01*
X9998000Y23313600D01*
X11359800Y23313600D01*
X11418306Y23325481D01*
G37*
%LPC*%
G36*
X11062200Y29068200D02*
X11062200Y29946000D01*
X11891213Y29946000D01*
X12040000Y29797213D01*
X12040000Y29068200D01*
X11062200Y29068200D01*
G37*
G36*
X17932000Y29068200D02*
X17932000Y29797213D01*
X18080788Y29946000D01*
X18909800Y29946000D01*
X18909800Y29068200D01*
X17932000Y29068200D01*
G37*
G36*
X18080788Y28038000D02*
X17932000Y28186788D01*
X17932000Y28915800D01*
X18909800Y28915800D01*
X18909800Y28038000D01*
X18080788Y28038000D01*
G37*
G36*
X11062200Y28038000D02*
X11062200Y28915800D01*
X12040000Y28915800D01*
X12040000Y28186788D01*
X11891213Y28038000D01*
X11062200Y28038000D01*
G37*
G36*
X16191600Y26746200D02*
X16191600Y27656650D01*
X16802913Y27656650D01*
X16951700Y27507863D01*
X16951700Y26746200D01*
X16191600Y26746200D01*
G37*
%LPD*%
G36*
X8858700Y29759359D02*
X8907394Y29793897D01*
X8938759Y29844694D01*
X8948000Y29896528D01*
X8948000Y30485472D01*
X8936119Y30543978D01*
X8904066Y30591538D01*
X7223538Y32272066D01*
X7173769Y32305034D01*
X7117472Y32316000D01*
X6397331Y32316000D01*
X6338825Y32304119D01*
X6289588Y32270363D01*
X6258750Y32223400D01*
X6234322Y32164425D01*
X5935575Y31865678D01*
X5545247Y31704000D01*
X3598753Y31704000D01*
X3208425Y31865678D01*
X2909678Y32164425D01*
X2736581Y32582322D01*
X2703219Y32631828D01*
X2653188Y32664397D01*
X2594413Y32674875D01*
X2536209Y32661600D01*
X2487794Y32626675D01*
X2456831Y32575631D01*
X2448000Y32524919D01*
X2448000Y30467081D01*
X2459881Y30408575D01*
X2493638Y30359338D01*
X2543928Y30327166D01*
X2602781Y30317156D01*
X2660878Y30330897D01*
X2709016Y30366206D01*
X2736581Y30409678D01*
X2909678Y30827575D01*
X3208425Y31126322D01*
X3598753Y31288000D01*
X5545247Y31288000D01*
X5935575Y31126322D01*
X6234322Y30827575D01*
X6258750Y30768600D01*
X6292113Y30719094D01*
X6342144Y30686522D01*
X6397331Y30676000D01*
X7806397Y30676000D01*
X8691934Y29790463D01*
X8741703Y29757494D01*
X8800391Y29746547D01*
X8858700Y29759359D01*
G37*
G36*
X5958506Y21289881D02*
X6007744Y21323638D01*
X6039916Y21373928D01*
X6050000Y21428000D01*
X6050000Y21801247D01*
X6211678Y22191575D01*
X6416038Y22395934D01*
X6449006Y22445703D01*
X6459953Y22504391D01*
X6447141Y22562700D01*
X6416038Y22608066D01*
X6211678Y22812425D01*
X6050000Y23202753D01*
X6050000Y25149247D01*
X6211678Y25539575D01*
X6510425Y25838322D01*
X6569400Y25862750D01*
X6618906Y25896113D01*
X6651478Y25946144D01*
X6662000Y26001331D01*
X6662000Y26249350D01*
X6650119Y26307856D01*
X6616363Y26357094D01*
X6566072Y26389266D01*
X6512000Y26399350D01*
X6264838Y26399350D01*
X6169544Y26494647D01*
X6119772Y26527616D01*
X6061084Y26538563D01*
X6002778Y26525753D01*
X5957409Y26494647D01*
X5908113Y26445350D01*
X5296800Y26445350D01*
X5296800Y28418650D01*
X5908109Y28418650D01*
X5957409Y28369353D01*
X6007181Y28336384D01*
X6065869Y28325441D01*
X6124178Y28338253D01*
X6169541Y28369356D01*
X6264834Y28464650D01*
X7677966Y28464650D01*
X7853700Y28288916D01*
X7853700Y26575084D01*
X7669294Y26390678D01*
X7653494Y26387469D01*
X7604256Y26353713D01*
X7572084Y26303422D01*
X7562000Y26249350D01*
X7562000Y26001331D01*
X7573881Y25942825D01*
X7607638Y25893588D01*
X7654600Y25862750D01*
X7713575Y25838322D01*
X7929934Y25621963D01*
X7979703Y25588994D01*
X8038391Y25578047D01*
X8096700Y25590859D01*
X8145394Y25625397D01*
X8176759Y25676194D01*
X8186000Y25728028D01*
X8186000Y28961472D01*
X8174119Y29019978D01*
X8142066Y29067538D01*
X7477538Y29732066D01*
X7427769Y29765034D01*
X7371472Y29776000D01*
X6397331Y29776000D01*
X6338825Y29764119D01*
X6289588Y29730363D01*
X6258750Y29683400D01*
X6234322Y29624425D01*
X5935575Y29325678D01*
X5545247Y29164000D01*
X3598753Y29164000D01*
X3208425Y29325678D01*
X2909678Y29624425D01*
X2736581Y30042322D01*
X2703219Y30091828D01*
X2653188Y30124397D01*
X2594413Y30134875D01*
X2536209Y30121600D01*
X2487794Y30086675D01*
X2456831Y30035631D01*
X2448000Y29984919D01*
X2448000Y26998528D01*
X2459881Y26940022D01*
X2491934Y26892463D01*
X3652184Y25732213D01*
X3701953Y25699244D01*
X3760641Y25688297D01*
X3818950Y25701109D01*
X3864316Y25732213D01*
X3970425Y25838322D01*
X4360753Y26000000D01*
X4783247Y26000000D01*
X5173575Y25838322D01*
X5472322Y25539575D01*
X5634000Y25149247D01*
X5634000Y23202753D01*
X5472322Y22812425D01*
X5267963Y22608066D01*
X5234994Y22558297D01*
X5224047Y22499609D01*
X5236859Y22441300D01*
X5267963Y22395934D01*
X5472322Y22191575D01*
X5634000Y21801247D01*
X5634000Y21428000D01*
X5645881Y21369494D01*
X5679638Y21320256D01*
X5729928Y21288084D01*
X5784000Y21278000D01*
X5900000Y21278000D01*
X5958506Y21289881D01*
G37*
%LPC*%
G36*
X4384300Y27508200D02*
X4384300Y28269863D01*
X4533088Y28418650D01*
X5144400Y28418650D01*
X5144400Y27508200D01*
X4384300Y27508200D01*
G37*
G36*
X4533088Y26445350D02*
X4384300Y26594138D01*
X4384300Y27355800D01*
X5144400Y27355800D01*
X5144400Y26445350D01*
X4533088Y26445350D01*
G37*
%LPD*%
D10*
X13067400Y5842000D03*
X11316600Y5842000D03*
X14872600Y5842000D03*
X16623400Y5842000D03*
X14364600Y26670000D03*
X16115400Y26670000D03*
D11*
X5531350Y15719000D03*
X5531350Y14119000D03*
D12*
X3057750Y15861400D03*
X3057750Y14110600D03*
X8024050Y15814100D03*
X8024050Y14063300D03*
D10*
X5220600Y27432000D03*
X6971400Y27432000D03*
D13*
X21336000Y2286000D03*
X2286000Y2286000D03*
X21082000Y39878000D03*
X2286000Y39878000D03*
D14*
X3810000Y32766000D02*
X5334000Y32766000D01*
X5334000Y30226000D02*
X3810000Y30226000D01*
D15*
X12109800Y15663600D03*
X12909800Y15663600D03*
X13709800Y15663600D03*
X14509800Y15663600D03*
X15309800Y15663600D03*
X16109800Y15663600D03*
X16909800Y15663600D03*
X17709800Y15663600D03*
D16*
X19159800Y17113600D03*
X19159800Y17913600D03*
X19159800Y18713600D03*
X19159800Y19513600D03*
X19159800Y20313600D03*
X19159800Y21113600D03*
X19159800Y21913600D03*
X19159800Y22713600D03*
D15*
X17709800Y24163600D03*
X16909800Y24163600D03*
X16109800Y24163600D03*
X15309800Y24163600D03*
X14509800Y24163600D03*
X13709800Y24163600D03*
X12909800Y24163600D03*
X12109800Y24163600D03*
D16*
X10659800Y22713600D03*
X10659800Y21913600D03*
X10659800Y21113600D03*
X10659800Y20313600D03*
X10659800Y19513600D03*
X10659800Y18713600D03*
X10659800Y17913600D03*
X10659800Y17113600D03*
D14*
X22606000Y33020000D02*
X24130000Y33020000D01*
X24130000Y30480000D02*
X22606000Y30480000D01*
X22606000Y27940000D02*
X24130000Y27940000D01*
X24130000Y25400000D02*
X22606000Y25400000D01*
X22606000Y22860000D02*
X24130000Y22860000D01*
X24130000Y20320000D02*
X22606000Y20320000D01*
X22606000Y17780000D02*
X24130000Y17780000D01*
X24130000Y15240000D02*
X22606000Y15240000D01*
X22606000Y12700000D02*
X24130000Y12700000D01*
X24130000Y10160000D02*
X22606000Y10160000D01*
X22606000Y7620000D02*
X24130000Y7620000D01*
D17*
X25527000Y39116000D03*
X25527000Y3048000D03*
X6858000Y39116000D03*
X6858000Y3048000D03*
D18*
X10510500Y36830000D03*
X12349500Y36830000D03*
D19*
X15117800Y35402500D03*
X15117800Y37241500D03*
D18*
X17622500Y36830000D03*
X19461500Y36830000D03*
X1620500Y11938000D03*
X3459500Y11938000D03*
D20*
X18986000Y28992000D03*
X10986000Y28992000D03*
X18986000Y33492000D03*
X10986000Y33492000D03*
D14*
X4572000Y21590000D02*
X4572000Y20066000D01*
X7112000Y20066000D02*
X7112000Y21590000D01*
X4572000Y23414000D02*
X4572000Y24938000D01*
X7112000Y24938000D02*
X7112000Y23414000D01*
X17526000Y38856100D02*
X17526000Y40380100D01*
X14986000Y40380100D02*
X14986000Y38856100D01*
X12446000Y38856100D02*
X12446000Y40380100D01*
X3810000Y6858000D02*
X2286000Y6858000D01*
X2286000Y9398000D02*
X3810000Y9398000D01*
D21*
X18212000Y10057600D03*
X8712000Y10057600D03*
D22*
X13067400Y5842000D02*
X14872600Y5842000D01*
X5531350Y15719000D02*
X3200150Y15719000D01*
X3109575Y15809575D02*
X3057750Y15861400D01*
X3109575Y15809575D02*
X3200150Y15719000D01*
X5531350Y15719000D02*
X7928950Y15719000D01*
X8024050Y15814100D01*
X8569900Y15814100D01*
X10160000Y14224000D01*
X13659800Y14727206D02*
X13659800Y15613600D01*
X13709800Y15663600D01*
X13156594Y14224000D02*
X10160000Y14224000D01*
X13156594Y14224000D02*
X13659800Y14727206D01*
X13709800Y15663600D02*
X13709800Y16757800D01*
X14224000Y17272000D01*
X14478000Y17272000D01*
X14986000Y17272000D01*
X15309800Y16948200D01*
X15309800Y15663600D01*
X18986000Y28992000D02*
X10986000Y28992000D01*
X16664000Y26670000D02*
X18986000Y28992000D01*
X16664000Y26670000D02*
X16115400Y26670000D01*
X12824300Y27153700D02*
X10986000Y28992000D01*
X12824300Y27153700D02*
X12824300Y26004956D01*
X13465656Y25363600D01*
X14196194Y25363600D01*
X14509800Y25049994D01*
X14509800Y24163600D01*
X10986000Y28992000D02*
X10986000Y30670000D01*
X5220600Y27432000D02*
X4889969Y27432000D01*
X2598000Y29723969D01*
X2598000Y33268031D01*
X3560719Y34230750D01*
X7425250Y34230750D02*
X10986000Y30670000D01*
X7425250Y34230750D02*
X3560719Y34230750D01*
X2601575Y15809575D02*
X1620500Y14828500D01*
X2601575Y15809575D02*
X3109575Y15809575D01*
X1620500Y14828500D02*
X1620500Y11938000D01*
X3459500Y11938000D01*
X3459500Y9809500D01*
X3048000Y9398000D01*
X1620500Y11018500D02*
X1620500Y11938000D01*
X1620500Y11018500D02*
X1016000Y10414000D01*
X1016000Y6350000D01*
X2032000Y5334000D01*
X11938000Y4318000D02*
X13067400Y5447400D01*
X13067400Y5842000D01*
X10889256Y4318000D02*
X8603256Y6604000D01*
X10889256Y4318000D02*
X11938000Y4318000D01*
X4037475Y5334000D02*
X2032000Y5334000D01*
X4037475Y5334000D02*
X5307475Y6604000D01*
X8603256Y6604000D01*
X14509800Y17303800D02*
X14509800Y24163600D01*
X14509800Y17303800D02*
X14478000Y17272000D01*
X23368000Y10223969D02*
X23368000Y10160000D01*
X20286000Y15987400D02*
X19159800Y17113600D01*
X20286000Y15987400D02*
X20286000Y13305969D01*
X23368000Y10223969D01*
X19209800Y17863600D02*
X19159800Y17913600D01*
X23368000Y12763969D02*
X23368000Y12700000D01*
X21140000Y14991969D02*
X21140000Y16619469D01*
X21140000Y14991969D02*
X23368000Y12763969D01*
X21140000Y16619469D02*
X20359800Y17399669D01*
X20359800Y17599994D01*
X20046194Y17913600D01*
X19159800Y17913600D01*
X19209800Y18663600D02*
X19159800Y18713600D01*
X20959800Y17848525D02*
X20959800Y17648200D01*
X23368000Y15240000D01*
X20144725Y18663600D02*
X19209800Y18663600D01*
X20144725Y18663600D02*
X20959800Y17848525D01*
X20783600Y19513600D02*
X19159800Y19513600D01*
X20783600Y19513600D02*
X20828000Y19558000D01*
X21590000Y19558000D01*
X23368000Y17780000D01*
X23361600Y20313600D02*
X19159800Y20313600D01*
X23361600Y20313600D02*
X23368000Y20320000D01*
X20859600Y21113600D02*
X19159800Y21113600D01*
X20859600Y21113600D02*
X22606000Y22860000D01*
X23368000Y22860000D01*
X19209800Y21963600D02*
X19159800Y21913600D01*
X19209800Y21963600D02*
X20096194Y21963600D01*
X20359800Y22227206D01*
X20359800Y22391800D01*
X23368000Y25400000D01*
X19159800Y23731800D02*
X19159800Y22713600D01*
X19159800Y23731800D02*
X23368000Y27940000D01*
X21344000Y27797800D02*
X17709800Y24163600D01*
X21344000Y27797800D02*
X21344000Y29210000D01*
X22614000Y30480000D01*
X23368000Y30480000D01*
X15309800Y24163600D02*
X15259800Y24213600D01*
X14364600Y26043725D02*
X14364600Y26670000D01*
X15259800Y25148525D02*
X15259800Y24213600D01*
X15259800Y25148525D02*
X14364600Y26043725D01*
X10609800Y21163600D02*
X10659800Y21113600D01*
X10609800Y21163600D02*
X9723406Y21163600D01*
X9398000Y21489006D01*
X7366000Y32766000D02*
X4572000Y32766000D01*
X7366000Y32766000D02*
X9398000Y30734000D01*
X9398000Y21489006D01*
X9658400Y20313600D02*
X10659800Y20313600D01*
X9658400Y20313600D02*
X8636000Y21336000D01*
X7620000Y30226000D02*
X4572000Y30226000D01*
X7620000Y30226000D02*
X8636000Y29210000D01*
X8636000Y21336000D01*
X11316600Y9906000D02*
X11316600Y5842000D01*
X11062600Y9906000D02*
X11062600Y10019400D01*
X10922000Y10160000D01*
X8814400Y10160000D01*
X8712000Y10057600D01*
X16859800Y15613600D02*
X16909800Y15663600D01*
X16859800Y15613600D02*
X16859800Y14219206D01*
X12546594Y9906000D01*
X11316600Y9906000D02*
X11062600Y9906000D01*
X11316600Y9906000D02*
X12546594Y9906000D01*
X16623400Y9538600D02*
X16623400Y5842000D01*
X16623400Y9538600D02*
X16002000Y10160000D01*
X17780000Y10160000D01*
X18109600Y10160000D01*
X18212000Y10057600D01*
X17709800Y10230200D02*
X17709800Y15663600D01*
X17709800Y10230200D02*
X17780000Y10160000D01*
X5531350Y14119000D02*
X5522950Y14110600D01*
X3057750Y14110600D01*
X5531350Y14119000D02*
X7968350Y14119000D01*
X8024050Y14063300D01*
X8796700Y14063300D01*
X9398000Y13462000D01*
X16059800Y14727206D02*
X16059800Y15613600D01*
X16109800Y15663600D01*
X13716000Y13462000D02*
X9398000Y13462000D01*
X13716000Y13462000D02*
X14794594Y13462000D01*
X16059800Y14727206D01*
X14509800Y14255800D02*
X14509800Y15663600D01*
X14509800Y14255800D02*
X13716000Y13462000D01*
X16909800Y24163600D02*
X16959800Y24213600D01*
X16959800Y25099994D01*
X17731406Y25871600D01*
X19461500Y35660894D02*
X19461500Y36830000D01*
X19461500Y35660894D02*
X20490000Y34632394D01*
X18255994Y25871600D02*
X17731406Y25871600D01*
X18255994Y25871600D02*
X20490000Y28105606D01*
X20490000Y34632394D01*
X3415400Y14110600D02*
X3057750Y14110600D01*
X3415400Y14110600D02*
X5022000Y12504000D01*
X5022000Y8832000D01*
X3048000Y6858000D01*
X16909800Y20465800D02*
X16909800Y24163600D01*
X16909800Y20465800D02*
X16109800Y19665800D01*
X16109800Y15663600D01*
X12109800Y15663600D02*
X10244400Y15663600D01*
X8636000Y17272000D01*
X1450119Y17272000D01*
X400900Y16222781D01*
X400900Y5949100D01*
X23368000Y7112000D02*
X23368000Y7620000D01*
X23368000Y7112000D02*
X19812000Y3556000D01*
X1778000Y4572000D02*
X400900Y5949100D01*
X10668000Y3556000D02*
X19812000Y3556000D01*
X10668000Y3556000D02*
X8344750Y5879250D01*
X4124006Y4572000D02*
X1778000Y4572000D01*
X4124006Y4572000D02*
X5431256Y5879250D01*
X8344750Y5879250D01*
X10659800Y17913600D02*
X3930400Y17913600D01*
X762000Y21082000D01*
X762000Y33977625D01*
X2815125Y36030750D01*
X9711250Y36030750D02*
X10510500Y36830000D01*
X9711250Y36030750D02*
X2815125Y36030750D01*
X8880031Y35402500D02*
X15117800Y35402500D01*
X10659800Y18713600D02*
X4210369Y18713600D01*
X1398000Y21525969D02*
X1398000Y33765094D01*
X1398000Y21525969D02*
X4210369Y18713600D01*
X1398000Y33765094D02*
X3063656Y35430750D01*
X8851781Y35430750D02*
X8880031Y35402500D01*
X8851781Y35430750D02*
X3063656Y35430750D01*
X12446000Y36926500D02*
X12446000Y39618100D01*
X12446000Y36926500D02*
X12349500Y36830000D01*
X14986000Y37373300D02*
X14986000Y39618100D01*
X14986000Y37373300D02*
X15117800Y37241500D01*
X8295469Y20828000D02*
X7112000Y20828000D01*
X10609800Y19563600D02*
X10659800Y19513600D01*
X9559869Y19563600D02*
X8295469Y20828000D01*
X9559869Y19563600D02*
X10609800Y19563600D01*
X7112000Y20828000D02*
X4572000Y20828000D01*
X17526000Y36926500D02*
X17526000Y39618100D01*
X17526000Y36926500D02*
X17622500Y36830000D01*
X17622500Y34855500D01*
X18986000Y33492000D01*
X10986000Y33492000D01*
X9180000Y33492000D01*
X1998000Y33516563D02*
X1998000Y26750000D01*
X4572000Y24176000D01*
X1998000Y33516563D02*
X3312188Y34830750D01*
X7841250Y34830750D02*
X9180000Y33492000D01*
X7841250Y34830750D02*
X3312188Y34830750D01*
X6971400Y27432000D02*
X7112000Y27291400D01*
X7112000Y24176000D01*
M02*
