M48
;GenerationSoftware,Autodesk,EAGLE,9.7.0*%
;CreationDate,2022-05-12T22:10:33Z*%
FMAT,2
ICI,OFF
METRIC,TZ,000.000
T3C1.016
T2C3.175
%
G90
M71
T2
X25527Y39116
X25527Y3048
X6858Y39116
X6858Y3048
T3
X4572Y32766
X4572Y30226
X4572Y20828
X7112Y20828
X4572Y24176
X7112Y24176
X17526Y39618
X14986Y39618
X12446Y39618
X3048Y6858
X3048Y9398
X23622Y16056
X23622Y18596
X23622Y21136
X23622Y23676
X24601Y7620
X24601Y10160
X24601Y12700
X24601Y34852
X24601Y32312
X24601Y29772
X24601Y27232
M30